<svg viewBox="0 0 228 138" height="184" width="304" xmlns="http://www.w3.org/2000/svg"><path d="M0 0h228v12.87c-72-.01-144 0-216-.01-3.25-.08-6.44-.16-9.63.59.49 7.55.04 15.09.34 22.65.13 15.35.06 30.71.03 46.06-.01 1.86-.02 3.72 0 5.58l.06 2.99c.14 7.62.17 15.28 0 22.91-.02 4.95-1.1 10.8.76 15.43 4.22-1.12 8.16-.51 12.44-.62 60.32-.02 120.68-.01 181-.01 10.33.39 20.66.19 31 .25V138H0v-9.13l2.34.89c-.03-13.6.75-27.15.22-40.76.12-25.01.22-50.14-.38-75.13L0 13.54V0z" fill="#fff"/><path d="M12 12.86c72 .01 144 0 216 .01v23.18c-18.26-.16-36.52-.07-54.78-.04-33.73-.04-67.49 0-101.22 0-23.09.07-46.2-.16-69.29.09-.3-7.56.15-15.1-.34-22.65 3.19-.75 6.38-.67 9.63-.59zM0 13.54l2.18.33c.6 24.99.5 50.12.38 75.13.53 13.61-.25 27.16-.22 40.76L0 128.87V13.54z" fill="#b9712e"/><path d="M2.71 36.1c23.09-.25 46.2-.02 69.29-.09 33.73 0 67.49-.04 101.22 0 .02 7.69 0 15.38.01 23.07 0 7.69.02 15.38-.01 23.07-56.82-.06-113.65-.09-170.48.01.03-15.35.1-30.71-.03-46.06z" fill="#fef935"/><path d="M173.22 36.01c18.26-.03 36.52-.12 54.78.04v23.08c-18.26-.07-36.51.03-54.77-.05-.01-7.69.01-15.38-.01-23.07z" fill="#e22517"/><path d="M173.23 59.08c18.26.08 36.51-.02 54.77.05v23.08c-8.82 0-17.64.01-26.45 0-9.45-.05-18.89.06-28.33-.06.03-7.69.01-15.38.01-23.07z" fill="#b9712e"/><path d="M2.74 82.16c56.83-.1 113.66-.07 170.48-.01 9.44.12 18.88.01 28.33.06-.02 1.88-.03 3.75-.04 5.63-66.25-.19-132.52 0-198.77-.1-.02-1.86-.01-3.72 0-5.58z" fill="#e22517"/><path d="M201.55 82.21c8.81.01 17.63 0 26.45 0v46.21c-8.82.02-17.63.04-26.45-.01-.1-13.52 0-27.05-.04-40.57.01-1.88.02-3.75.04-5.63z" fill="#333233"/><path d="M2.74 87.74c66.25.1 132.52-.09 198.77.1.04 13.52-.06 27.05.04 40.57 8.82.05 17.63.03 26.45.01v.27c-10.34-.06-20.67.14-31-.25-60.32 0-120.68-.01-181 .01-4.28.11-8.22-.5-12.44.62-1.86-4.63-.78-10.48-.76-15.43 56.73.14 113.47-.06 170.2.1.48-7.67.18-15.38.17-23.06-3.72-.11-7.44-.19-11.17-.11-46.67-.01-93.33 0-140-.01-6.4.04-12.8-.13-19.2.17l-.06-2.99z" fill="#b9712e"/><path d="M2.8 90.73c6.4-.3 12.8-.13 19.2-.17 46.67.01 93.33 0 140 .01 3.73-.08 7.45 0 11.17.11.01 7.68.31 15.39-.17 23.06-56.73-.16-113.47.04-170.2-.1.17-7.63.14-15.29 0-22.91z" fill="#5c5639"/></svg>