<svg viewBox="0 0 278 144" height="192" width="278pt" xmlns="http://www.w3.org/2000/svg"><path d="M0 0h278v29.6c-6.04-3.49-13.06-5.43-19.77-7.18-21.24-4.91-43.49-6.22-65.23-5.73-16.34.54-33.16 2.09-49.05 6-4.46 1.06-8.26 2.8-12.94 2.77-7.17 0-14.33.02-21.49-.03 0-1.8-.01-3.59-.01-5.39-6.71-.28-13.43-.07-20.15-.11-.11-1.54-.21-3.08-.29-4.62-16.54.03-33.1-.04-49.64.03-.12 1.52-.17 3.05-.23 4.57-4.93.04-9.84-.14-14.76.18v5.36c-8.14.04-16.29-.04-24.44.04V0z" fill="#fff"/><path d="M39.43 15.34c16.54-.07 33.1 0 49.64-.03.08 1.54.18 3.08.29 4.62 6.72.04 13.44-.17 20.15.11 0 1.8.01 3.59.01 5.39 7.16.05 14.32.03 21.49.03 4.68.03 8.48-1.71 12.94-2.77 15.89-3.91 32.71-5.46 49.05-6 21.74-.49 43.99.82 65.23 5.73 6.71 1.75 13.73 3.69 19.77 7.18v52.42c-70.33.01-140.67 0-211 0-4.77-.02-9.53.12-14.3-.16-9.38-.17-18.85-.18-28.22.01-8.15.34-16.32.07-24.48.16V25.49c8.15-.08 16.3 0 24.44-.04v-5.36c4.92-.32 9.83-.14 14.76-.18.06-1.52.11-3.05.23-4.57z" fill="#d8c596"/><path d="M197.46 26.58c8.47-2.82 19.47.36 22.78 9.25 2.04 7.02-2.12 13.22-8.5 15.91-8.65 3.84-21.33.75-24.54-8.94-2.31-7.39 3.44-14.15 10.26-16.22zM25.65 31.19c30.26-.16 60.54-.04 90.81-.06.03 7.98-.07 15.97.03 23.95-30.26.22-60.57.06-90.83.08 0-7.99-.02-15.98-.01-23.97z" fill="#282516"/><path d="M0 82.03c8.16-.09 16.33.18 24.48-.16-.07 15.37.03 30.74-.05 46.11-8.15-.03-16.29-.01-24.43-.01V82.03z" fill="#515151"/><path d="M24.48 81.87c9.37-.19 18.84-.18 28.22-.01.08 15.38-.03 30.77.05 46.15-9.44.01-18.88.05-28.32-.03.08-15.37-.02-30.74.05-46.11z"/><path d="M52.7 81.86c4.77.28 9.53.14 14.3.16 70.33 0 140.67.01 211 0v45.95c-75.08.02-150.17-.06-225.25.04-.08-15.38.03-30.77-.05-46.15z" fill="#515151"/><path d="M0 127.97c8.14 0 16.28-.02 24.43.01 9.44.08 18.88.04 28.32.03 75.08-.1 150.17-.02 225.25-.04V144H0v-16.03z" fill="#fff"/></svg>