<svg viewBox="0 0 678 402" height="536" width="904" xmlns="http://www.w3.org/2000/svg"><path d="M0 0h678v1.05c-226-.01-452 .01-678 0V0z" fill="#fff"/><path d="M0 1.05c226 .01 452-.01 678 0V398.3c-37.51.06-75.03-.1-112.54.08.11-74.45 0-148.92.06-223.38.03-1.14.07-2.28.12-3.41-2.54-.38-5.08-.36-7.64-.3-35.23.04-70.53-.05-105.75.04-.14 75.6-.01 151.43-.07 227.05-3.72-.1-7.45-.09-11.18-.07-147-.01-294 .01-441-.01V1.05z" fill="#86ae61"/><path d="M54.79 57.91c2.4-.09 4.8-.19 7.21-.16 25.92.14 51.89-.17 77.8.16-.01 28.32 0 56.65-.01 84.97-28.33.04-56.66.06-84.99-.01-.08-1.96-.16-3.92-.15-5.87.14-26.35-.14-52.74.14-79.09zM196.65 57.82c25.78-.12 51.57 0 77.35-.06 2.58-.06 5.15.02 7.73.2-.07 28.3-.02 56.6-.03 84.91-28.33.07-56.68.04-85.02.01-.17-28.34-.11-56.71-.03-85.06zM452.19 57.89c28.32-.25 56.68-.07 85.01-.09.02 28.36.06 56.73-.02 85.09-28.33.02-56.66.04-84.99-.01V57.89zM565.54 58.2c1.11-.3 2.26-.45 3.45-.45 24 .06 48.01.01 72.01.03 3.23-.05 6.44-.08 9.65.22-.1 28.28-.03 56.57-.03 84.85-28.38.06-56.77.15-85.14-.05.08-28.03-.05-56.62.06-84.6zM452.25 171.33c35.22-.09 70.52 0 105.75-.04 2.56-.06 5.1-.08 7.64.3-.05 1.13-.09 2.27-.12 3.41-.06 74.46.05 148.93-.06 223.38-37.75.09-75.52.09-113.28 0 .06-75.62-.07-151.45.07-227.05zM92.6 199.7c34.56-.16 69.15.13 103.7-.14.16 1.14.27 2.28.32 3.42-.03 36.67-.06 73.36.01 110.02-2.88.2-5.74.26-8.63.2-31.8-.03-63.59.01-95.39-.02-.1-37.82-.08-75.66-.01-113.48z" fill="#2a5e8e"/><path d="M0 398.3c147 .02 294 0 441 .01 3.73-.02 7.46-.03 11.18.07 37.76.09 75.53.09 113.28 0 37.51-.18 75.03-.02 112.54-.08v3.7H0v-3.7z" fill="#fff"/></svg>