<svg viewBox="0 0 370 536" height="536pt" width="370pt" xmlns="http://www.w3.org/2000/svg"><path d="M0 0h368.17c.08 175.93.01 352.05.03 528 .1 2.68-.01 5.33-.2 8H169.2c.18-3.68.23-7.32.16-11 .03-79.99-.04-160.02.04-240l-.33-3.86c-47.02.01-94.1-.12-141.11.07-.7 3.26-.33 6.36-.38 9.79-.01 81.67.01 163.33-.02 245H0V0z" fill="#86ae61"/><path d="M368.17 0H370v536h-2c.19-2.67.3-5.32.2-8-.02-175.95.05-352.07-.03-528zM27.51 111.27c3.71-.69 7.72-.27 11.49-.36 62.32.02 124.86-.07 187.15.04.13 28.3.11 56.78.01 85.08-63.67.07-127.48-.01-191.16.04-2.54.12-5.04-.11-7.57-.25.19-28.11.01-56.42.08-84.55z" fill="#fff"/><path d="M27.96 281.21c47.01-.19 94.09-.06 141.11-.07l.33 3.86c-.08 79.98-.01 160.01-.04 240 .07 3.68.02 7.32-.16 11H27.56c.03-81.67.01-163.33.02-245 .05-3.43-.32-6.53.38-9.79z" fill="#6c6c6c"/></svg>