<svg viewBox="0 0 210 136" height="136pt" width="280" xmlns="http://www.w3.org/2000/svg"><path d="M0 0h210v19.87c-20.27-.01-40.53.01-60.8-.01-.01-2.44 0-4.87.04-7.3-28.3-.31-56.7-.07-85.01-.12-.08 2.44-.06 4.88-.05 7.32-21.39.24-42.79.03-64.18.11V0z" fill="#fff"/><path d="M64.23 12.44c28.31.05 56.71-.19 85.01.12-.04 2.43-.05 4.86-.04 7.3 20.27.02 40.53 0 60.8.01v24.16c-69.99.03-140.01-.08-210 .05V19.87c21.39-.08 42.79.13 64.18-.11-.01-2.44-.03-4.88.05-7.32z" fill="#4d5b2c"/><path d="M0 44.08c69.99-.13 140.01-.02 210-.05V76c-54-.01-108 .03-162-.02-15.99.4-32.01.04-48-.04V44.08z" fill="#143156"/><path d="M0 75.94c15.99.08 32.01.44 48 .04 54 .05 108 .01 162 .02v46.47c-56.2.06-112.5-.13-168.69.09.08-15-.14-30.01.12-45.01-1.74-.6-3.43-1.18-5.31-1.16-7.58-.08-15.16.07-22.74-.06-.9 3.92-.49 7.7-.55 11.67-.01 11.52.01 23.03-.01 34.55-4.28-.16-8.54-.04-12.82-.1V75.94z" fill="#4d5b2c"/><path d="M13.38 76.33c7.58.13 15.16-.02 22.74.06 1.88-.02 3.57.56 5.31 1.16-.26 15-.04 30.01-.12 45.01-9.48.12-19.02.15-28.49-.01.02-11.52 0-23.03.01-34.55.06-3.97-.35-7.75.55-11.67z"/><path d="M0 122.45c4.28.06 8.54-.06 12.82.1 9.47.16 19.01.13 28.49.01 56.19-.22 112.49-.03 168.69-.09V136H0v-13.55z" fill="#fff"/></svg>