<svg viewBox="0 0 106 140" height="140pt" width="106pt" xmlns="http://www.w3.org/2000/svg"><path d="M0 0h106v25.4l-1 1.08-.47.52c-.02 1.03-.01 2.06.02 3.09-26.52.1-53.03-.01-79.55.06-3.06.01-6.11-.12-9.17-.21.02-2.27.02-4.55.03-6.82-2.21-.08-4.42-.19-6.63-.27-.02-2.63-.05-5.27-.11-7.9-3.04-.06-6.08-.09-9.12-.11V0z" fill="#fff"/><path d="M0 14.84c3.04.02 6.08.05 9.12.11.06 2.63.09 5.27.11 7.9 2.21.08 4.42.19 6.63.27-.01 2.27-.01 4.55-.03 6.82-2.55.25-1.36 2.22-1.7 4.06.14 16.63-.08 33.27.13 49.9-4.02.16-8.04.15-12.06.13L0 84.02V14.84zM105 26.48l1-1.08v106.82c-2.3-2.5-1.49-5.13-1.6-8.22.14-13.3-.12-26.62.14-39.92.44-17.98.16-36 .01-53.99-.03-1.03-.04-2.06-.02-3.09l.47-.52z" fill="#6be5df"/><path d="M15.83 29.94c3.06.09 6.11.22 9.17.21 26.52-.07 53.03.04 79.55-.06.15 17.99.43 36.01-.01 53.99l-1.44-.25c-2.37-.18-4.73-.19-7.1-.18-26.09.11-52.2-.11-78.29.11l-1.55.06-1.9.08c-.21-16.63.01-33.27-.13-49.9.34-1.84-.85-3.81 1.7-4.06z" fill="#efe074"/><path d="M27.65 42.99c20.81-.09 41.63-.11 62.43.02.22 8.11.13 16.24.06 24.36-20.83.24-41.7.19-62.54.02-.13-8.12-.22-16.28.05-24.4z" fill="#fff"/><path d="M34.74 53.89c16.74-.04 33.57-.19 50.29.06l.56 2.35c-16.72-.11-33.6.25-50.29-.17l-.56-2.24z" fill="#333233"/><path d="M0 84.02l2.2.01c.03 15.41.01 30.82.01 46.24L0 130.26V84.02z" fill="#a4180e"/><path d="M2.2 84.03c4.02.02 8.04.03 12.06-.13l1.9-.08c.01 15.43.14 30.88-.07 46.32-4.63.16-9.25.14-13.88.13 0-15.42.02-30.83-.01-46.24z" fill="#c59b63"/><path d="M16.16 83.82l1.55-.06c-.08 15.25.12 30.51-.1 45.76 4.81.33 9.58.18 14.39.19 23.6.02 47.2-.01 70.8.02.2-15.28-.37-30.64.3-45.9l1.44.25c-.26 13.3 0 26.62-.14 39.92.11 3.09-.7 5.72 1.6 8.22V140H0v-9.74l2.21.01c4.63.01 9.25.03 13.88-.13.21-15.44.08-30.89.07-46.32z" fill="#fff"/><path d="M17.71 83.76c26.09-.22 52.2 0 78.29-.11 2.37-.01 4.73 0 7.1.18-.67 15.26-.1 30.62-.3 45.9-23.6-.03-47.2 0-70.8-.02-4.81-.01-9.58.14-14.39-.19.22-15.25.02-30.51.1-45.76z" fill="#333233"/></svg>