<svg viewBox="0 0 112 134" height="134pt" width="112pt" xmlns="http://www.w3.org/2000/svg"><path d="M0 0h112v29.79c-15.87.07-31.74-.12-47.61.09-1.27.07-2.55.13-3.82.2 1.5-.52 2.96-1.12 4.42-1.73.73-1.75 1.15-4.47 2.89-5.48 2.11-1.28 4.57-2.06 6.87-2.94-.56-1.7-1.09-3.41-1.55-5.14-5.23-2.44-9.39-.06-14.9.27-1.85-3.44-4.32-2.78-7.59-2.27-.37 1.36-.7 2.74-.99 4.12l1.23 1.58c1.37 1.45 2.78 2.85 4.24 4.19.18 3.36.11 5.08 2.64 7.49l-2.88-.12c-5.29-.47-10.69-.19-16-.25-12.98-.01-25.97 0-38.95-.01V0z" fill="#fff"/><path d="M58.3 15.06c-2.51 1.01-4.84 2.39-7.35 3.43l-1.23-1.58c.29-1.38.62-2.76.99-4.12 3.27-.51 5.74-1.17 7.59 2.27z" fill="#b01a0f"/><path d="M73.2 14.79c.46 1.73.99 3.44 1.55 5.14-2.3.88-4.76 1.66-6.87 2.94-1.74 1.01-2.16 3.73-2.89 5.48-1.46.61-2.92 1.21-4.42 1.73-.91.06-1.83.08-2.74.09-2.53-2.41-2.46-4.13-2.64-7.49a83.732 83.732 0 0 1-4.24-4.19c2.51-1.04 4.84-2.42 7.35-3.43 5.51-.33 9.67-2.71 14.9-.27z" fill="#efd060"/><path d="M0 29.79c12.98.01 25.97 0 38.95.01 5.31.06 10.71-.22 16 .25l-1.28.38c-3.61.58-7.48.31-11.15.37-3.58-.02-7.16.11-10.74.15-.56 5.54-.56 10.83-.03 16.36 3.59.05 7.18.11 10.77.07 3.72.01 7.45-.02 11.17 0 3.87-.01 7.74 0 11.61 0 3.65.01 7.3 0 10.95-.01.18-5.54.19-11.06.01-16.6-3.67 0-7.38.1-11.05-.1l-.82-.79c15.87-.21 31.74-.02 47.61-.09v34.28H0V29.79z" fill="#ca501a"/><path d="M54.95 30.05l2.88.12c.91-.01 1.83-.03 2.74-.09 1.27-.07 2.55-.13 3.82-.2l.82.79c.24 5.56.03 11.14.09 16.71-3.87 0-7.74-.01-11.61 0 .02-5.65-.05-11.3-.02-16.95l1.28-.38z" fill="#b01a0f"/><path d="M20.22 30.78c3.61-.02 7.21-.02 10.82-.01.24 5.55.24 11.06.02 16.6-3.62.02-7.23.02-10.84 0-.02-5.53-.02-11.06 0-16.59z" fill="#efd060"/><path d="M31.78 30.95c3.58-.04 7.16-.17 10.74-.15-.01 5.53-.01 11.06 0 16.58-3.59.04-7.18-.02-10.77-.07-.53-5.53-.53-10.82.03-16.36z" fill="#b01a0f"/><path d="M42.52 30.8c3.67-.06 7.54.21 11.15-.37-.03 5.65.04 11.3.02 16.95-3.72-.02-7.45.01-11.17 0-.01-5.52-.01-11.05 0-16.58zM65.21 30.67c3.67.2 7.38.1 11.05.1.18 5.54.17 11.06-.01 16.6-3.65.01-7.3.02-10.95.01-.06-5.57.15-11.15-.09-16.71z" fill="#efd060"/><path d="M77.35 31.24c3.55-.58 7.27-.42 10.86-.46 0 5.54 0 11.08-.01 16.62-3.67.06-7.33-.07-11-.17-.43-5.16-1.04-10.9.15-15.99z" fill="#b01a0f"/><path d="M88.21 30.78c3.67-.02 7.34-.01 11.01-.01.02 5.54.02 11.07 0 16.61-3.67-.03-7.34.02-11.02.02.01-5.54.01-11.08.01-16.62zM0 64.07h112v5.5H0v-5.5z" fill="#efd060"/><path d="M0 69.57h112v52.69H0V69.57z" fill="#ca501a"/><path d="M5.51 71.54c34.76-.06 69.52-.04 104.28-.01 0 15.4.01 30.8-.01 46.19-34.76-.02-69.53.09-104.29-.05.04-15.38-.01-30.75.02-46.13z" fill="#515151"/><path d="M38.34 73.97c9.41-.08 18.82-.08 28.23 0 .02 14.08.01 28.16 0 42.23-9.41.06-18.82.05-28.23.01-.02-14.08-.02-28.16 0-42.24z" fill="#919191"/><path d="M0 122.26h112V134H0v-11.74z" fill="#fff"/></svg>