<svg viewBox="0 0 114 140" height="140pt" width="152" xmlns="http://www.w3.org/2000/svg"><path d="M0 0h114v20.06c-3.83-.1-7.98.38-11.71-.52-3.75-1.46-7.17-3.61-11.04-4.83C76.81 9.8 60.86 8.56 45.7 9.55c-11.87.93-24.65 3.24-35.22 8.95-3.2 1.8-6.42 1.53-9.96 1.68-.05 1.48-.09 2.96-.12 4.44L0 23.16V0z" fill="#fff"/><path d="M91.25 14.71c3.87 1.22 7.29 3.37 11.04 4.83 3.73.9 7.88.42 11.71.52v11.68l-2.64.15c0 11.4.01 22.81-.01 34.21l-2.06.05c.03 1.8.05 3.6.07 5.4l1.99.02c0 17.53.04 35.06-.02 52.59.89.05 1.78.11 2.67.16v1.07c-37.82.04-75.64.03-113.46 0C.29 91.82 1.16 58.15.4 24.62c.03-1.48.07-2.96.12-4.44 3.54-.15 6.76.12 9.96-1.68 10.57-5.71 23.35-8.02 35.22-8.95 15.16-.99 31.11.25 45.55 5.16z" fill="#44e9ec"/><path d="M73.85 15.44c8.35 1.29 17.01 3.65 23.82 8.86 3.53 2.65 6.46 7.22 6.57 11.69-.71 5.95-6.54 10.9-11.22 14.03-10.19 6.32-23.2 8.43-35.02 8.39-10.95-.25-23.95-2.57-32.59-9.79-3.65-2.86-5.45-6.59-6.47-11.03 3.7-.22 7.41-.39 11.13-.42 1.3 2.01 2.45 3.93 4.65 5.09 6.97 4.08 16.38 4.59 24.28 4.78 9.66-.25 21.03-1.44 29.4-6.65 3-1.69 4.18-4.4 5.47-7.42-9.34-7.73-23.21-8.14-34.76-8.27-1.28-.02-2.56.01-3.84.1-7.35.62-15.71 1.62-22.29 5.17-2.2 1.05-3.41 2.88-4.74 4.83-3.38.07-6.75.02-10.11-.21 1.24-3.21 2.24-6.22 4.82-8.64 3.69-3.47 8.47-5.9 13.23-7.53 11.98-4.02 25.21-4.7 37.67-2.98z" fill="#efd060"/><path d="M0 23.16l.4 1.46c.76 33.53-.11 67.2.14 100.77 37.82.03 75.64.04 113.46 0V140H0V23.16z" fill="#fff"/><path d="M55.27 24.8c1.28-.09 2.56-.12 3.84-.1 1.62 1.05 3.19 2.17 4.75 3.3-.53 1.72-1.12 3.41-1.79 5.08-1.25.59-2.47 1.25-3.71 1.86-1.85-.39-2.82.22-3.43-1.92-.9-2.5-.3-5.69.34-8.22z" fill="#d52215"/><path d="M71.87 31.08c1.79 1.69 2.38 4.74 3.29 6.97-3.52 2.92-7.67 6.05-12.14 7.29-5.33.6-10.71-.37-15.38-3.06 2.54-4.32 6.6-5.15 10.72-7.34 1.24-.61 2.46-1.27 3.71-1.86 2.74-1.1 6.93-3.14 9.8-2z" fill="#a59a6a"/><path d="M111.36 31.89l2.64-.15v34.29c-.88.03-1.76.05-2.65.07.02-11.4.01-22.81.01-34.21z" fill="#ca501a"/><path d="M5.22 60.77c9.8 0 19.61-.11 29.41.07-.09 20.31 0 40.61-.04 60.92-9.79.01-19.58.01-29.37 0V60.77z" fill="#515151"/><path d="M36.73 62.7c21.94-.07 43.89-.01 65.83-.03.02 15.41.02 30.82 0 46.23-21.94-.06-43.89.07-65.83-.07-.01-15.37-.02-30.75 0-46.13z" fill="#333233"/><path d="M109.29 66.15l2.06-.05c.89-.02 1.77-.04 2.65-.07v5.56c-.88-.01-1.76-.01-2.65-.02l-1.99-.02c-.02-1.8-.04-3.6-.07-5.4z" fill="#103ffb"/><path d="M111.35 71.57c.89.01 1.77.01 2.65.02v52.73c-.89-.05-1.78-.11-2.67-.16.06-17.53.02-35.06.02-52.59z" fill="#ca501a"/></svg>