<svg viewBox="0 0 512 370" height="370pt" width="512pt" xmlns="http://www.w3.org/2000/svg"><path d="M0 0h2.24c-.08 52.32-.02 104.67-.04 157-.12 3.58.54 7.25-.81 10.51-.95 3.31-1.04 8.24.28 11.47.32 1.32.5 2.66.53 4.02.02 60.56-.03 121.3.03 181.85 3.59.22 7.18.13 10.77.13h176c3.4.03 6.98-.23 10.33.33 2.47 1.39 4.93.82 7.67.92 34.31-.02 68.7-.01 103.01 0 1.23.08 2.34-.26 3.31-1.01 3.84-.48 7.81-.17 11.68-.24 61.7-.05 123.5.08 185.18-.06.4-3.32.22-6.6.23-9.92-.01-58.74 0-117.48-.01-176.23l1.6.04V370H0V0z" fill="#679ac8"/><path d="M2.24 0h508.17v151c-.03 5.28.16 10.53-.23 15.8.6.25 1.21.49 1.82.74v.19c-2.59-.44-5.36-.15-8-.18-167.53-.03-335.08.03-502.61-.04 1.35-3.26.69-6.93.81-10.51.02-52.33-.04-104.68.04-157z" fill="#61cdfd"/><path d="M510.41 0H512v167.54c-.61-.25-1.22-.49-1.82-.74.39-5.27.2-10.52.23-15.8V0z" fill="#5d97c9"/><path d="M86.19 54.08c37.74-.09 75.5.01 113.25-.05.13 28.37.09 56.77.01 85.15-37.72-.04-75.54.12-113.26-.09V54.08zM313.19 54.08c37.77-.02 75.59-.13 113.35.05-.03 28.25-.09 56.52.02 84.77-1.15.23-2.34.33-3.56.31-36.57-.12-73.24.12-109.8-.12-.01-28.34 0-56.67-.01-85.01zM1.39 167.51c167.53.07 335.08.01 502.61.04 2.64.03 5.41-.26 8 .18v11.08l-1.6-.04c-167.08-.06-334.3 0-501.4-.03-2.45-.03-4.89-.05-7.33.24-1.32-3.23-1.23-8.16-.28-11.47z" fill="#6c6c6c"/><path d="M1.67 178.98c2.44-.29 4.88-.27 7.33-.24 167.1.03 334.32-.03 501.4.03.01 58.75 0 117.49.01 176.23-.01 3.32.17 6.6-.23 9.92-61.68.14-123.48.01-185.18.06-3.87.07-7.84-.24-11.68.24-.17-2.74-.14-5.48-.13-8.22.01-43.34 0-86.68.01-130.02-.04-.9-.12-1.79-.26-2.67-37.78.04-75.66-.13-113.42.08-.04 43.5 0 87.1-.02 130.61-.01 3.45.12 6.86-.17 10.31-3.35-.56-6.93-.3-10.33-.33H13c-3.59 0-7.18.09-10.77-.13C2.17 304.3 2.22 243.56 2.2 183c-.03-1.36-.21-2.7-.53-4.02z" fill="#61cdfd"/><path d="M199.52 224.39c37.76-.21 75.64-.04 113.42-.08.14.88.22 1.77.26 2.67-.01 43.34 0 86.68-.01 130.02-.01 2.74-.04 5.48.13 8.22-.97.75-2.08 1.09-3.31 1.01-34.31-.01-68.7-.02-103.01 0-2.74-.1-5.2.47-7.67-.92.29-3.45.16-6.86.17-10.31.02-43.51-.02-87.11.02-130.61z" fill="#6c6c6c"/><path d="M.6 367.12c3.47-.02 6.93.17 10.4.12 166.73-.02 333.46-.02 500.19 0l.34 1.25c-3.14.87-6.24 1.63-9.53 1.5H11c-3.56.09-7.16-.95-10.73-1.35l.33-1.52z" fill="#9da8b1"/></svg>