<svg viewBox="0 0 142 122" height="122pt" width="142pt" xmlns="http://www.w3.org/2000/svg"><path d="M0 0h142v15.79H0V0z" fill="#fff"/><path d="M0 15.79h142v34.26l-3.57.06c.03 1.8.02 3.59-.03 5.39l3.6.12v52.64H0V56.01c1.38-1.2 2.25-5.45 0-5.99V15.79z" fill="#ca501a"/><path d="M84.76 35.35c.01 4.31.01 8.63.01 12.94-15.1.01-30.19.02-45.29-.01 0-4.29-.01-8.59-.02-12.88 15.1-.11 30.2-.01 45.3-.05z" fill="#44e9ec"/><path d="M0 50.02c2.25.54 1.38 4.79 0 5.99v-5.99z" fill="#515151"/><path d="M5.46 50.13c43.9-.11 87.81-.1 131.71-.01.03 1.77.07 3.53.12 5.3-4.76.3-9.52.11-14.29.15-39.17-.02-78.34.05-117.51-.03l-.03-5.41z" fill="#fff"/><path d="M138.43 50.11l3.57-.06v5.57l-3.6-.12c.05-1.8.06-3.59.03-5.39z" fill="#eecd65"/><path d="M7.96 57.59c37.07-.17 74.16-.08 111.23-.04-.01 15.39.1 30.78-.06 46.16-8.37.06-16.75 0-25.13.03-4.18.06-8.2-.37-12.34.52-.23-14.02-.03-28.04-.09-42.06-9.41-.04-18.84-.13-28.25.03-.16 14 .11 28.02-.13 42.02-1.72-.3-3.44-.57-5.19-.56-13.29.1-26.59.01-39.88.05-.24-2.58-.41-5.15-.34-7.74.16-12.8-.18-25.62.18-38.41z" fill="#515151"/><path d="M53.32 62.23c9.41-.16 18.84-.07 28.25-.03.06 14.02-.14 28.04.09 42.06-4.78.78-9.81.23-14.66.38-4.56-.14-9.33.39-13.81-.39.24-14-.03-28.02.13-42.02z" fill="#919191"/><path d="M0 108.26h142V122H0v-13.74z" fill="#fff"/></svg>