<svg viewBox="0 0 130 118" height="118pt" width="130pt" xmlns="http://www.w3.org/2000/svg"><path d="M0 0h130v9.87c-43.3-.19-86.69-.02-130-.08V0z" fill="#fff"/><path d="M0 9.79c43.31.06 86.7-.11 130 .08v92.39c-43.33-.01-86.67.04-130-.02V49.57c42.33.04 84.66-.07 126.98.06.09-1.85.17-3.7.25-5.55-42.41-.04-84.82.02-127.23-.04V9.79z" fill="#ca501a"/><path d="M52.37 29.45c9.37-.25 18.79-.03 28.17-.08-.01 3.03-.01 6.07-.02 9.1-9.41 0-18.82-.03-28.23.02-.04-3-.19-6.05.08-9.04z" fill="#fff"/><path d="M0 44.04c42.41.06 84.82 0 127.23.04-.08 1.85-.16 3.7-.25 5.55-42.32-.13-84.65-.02-126.98-.06v-5.53z" fill="#103ffb"/><path d="M16.11 51.75c4.29-.28 8.59-.26 12.89-.21 27.33-.01 54.67 0 82-.01 3.91-.09 7.8-.09 11.69.41-.19 15.24-.02 30.5-.09 45.75-8.86.17-17.73.03-26.6.08-5.16.08-10.03-.38-15.15.46-.64-13.95-.13-28-.27-41.97-9.4-.2-18.87-.27-28.27.02-.41 13.96.29 27.98-.36 41.93-4.7-.78-9.22-.39-13.95-.44-7.26-.03-14.53.04-21.79-.04-.21-15.33-.01-30.66-.1-45.98z" fill="#515151"/><path d="M52.31 56.28c9.4-.29 18.87-.22 28.27-.02.14 13.97-.37 28.02.27 41.97-5 .8-9.82.4-14.85.45-4.74-.02-9.33.32-14.05-.47.65-13.95-.05-27.97.36-41.93z" fill="#919191"/><path d="M0 102.24c43.33.06 86.67.01 130 .02V118H0v-15.76z" fill="#fff"/></svg>