<svg viewBox="0 0 208 140" height="140pt" width="208pt" xmlns="http://www.w3.org/2000/svg"><path d="M0 0h208v23.86c-19.94 0-39.88.01-59.82 0 .01-2.45.03-4.89.05-7.34-28.31-.2-56.65-.09-84.96-.06-.13 2.45-.14 4.91-.18 7.36-21.03.06-42.06.1-63.09-.02V0z" fill="#fff"/><path d="M63.27 16.46c28.31-.03 56.65-.14 84.96.06-.02 2.45-.04 4.89-.05 7.34 19.94.01 39.88 0 59.82 0v56.36c-42 0-84-.01-126 .01-27.33-.54-54.66.32-82-.08V23.8c21.03.12 42.06.08 63.09.02.04-2.45.05-4.91.18-7.36z" fill="#e42517"/><path d="M82.24 23.88c18.84-.02 37.69-.03 56.54 0 .01 7.69-.01 15.39.01 23.08-18.86.01-37.71.01-56.57 0 .02-7.69 0-15.39.02-23.08z"/><path d="M95.17 34.27c2.69-.67 5.62.09 7.13 2.55.52 1.46.52 3.61-.77 4.69-2.88 2.76-8.06 2.22-10.05-1.33-.59-3.23.68-4.98 3.69-5.91z" fill="#e42517"/><path d="M107.39 34.13c9.37-.26 18.79-.02 28.16-.1v3.68c-9.47-.01-18.94.03-28.41-.03.06-1.18.14-2.37.25-3.55z" fill="#fff"/><path d="M0 80.15c27.34.4 54.67-.46 82 .08 42-.02 84-.01 126-.01v46.25c-44.54.07-89.13-.14-133.66.1-.01-11.52-.03-23.05 0-34.57.14-3.93.08-7.8-.61-11.68-9.09.17-18.19.04-27.29.09-.3 2.53-.59 5.04-.64 7.59.01 12.85.09 25.71 0 38.56-15.25-.09-30.56-.29-45.8.1V80.15z" fill="#333233"/><path d="M46.44 80.41c9.1-.05 18.2.08 27.29-.09.69 3.88.75 7.75.61 11.68-.03 11.52-.01 23.05 0 34.57-9.48.14-19.06.16-28.54-.01.09-12.85.01-25.71 0-38.56.05-2.55.34-5.06.64-7.59z"/><path d="M0 126.66c15.24-.39 30.55-.19 45.8-.1 9.48.17 19.06.15 28.54.01 44.53-.24 89.12-.03 133.66-.1V140H0v-13.34z" fill="#fff"/></svg>