<svg viewBox="0 0 164 138" height="184" width="164pt" xmlns="http://www.w3.org/2000/svg"><path d="M0 0h164v21.66c-12.12-.02-24.23.05-36.35-.03.05-3.07.06-6.13-.12-9.19-28.3.28-56.61-.04-84.91.16 0 3.03.01 6.06.03 9.09-13.98-.03-27.96-.06-41.94.01-.2 8.84.51 17.58-.71 26.27V0z" fill="#fff"/><path d="M42.62 12.6c28.3-.2 56.61.12 84.91-.16.18 3.06.17 6.12.12 9.19 12.12.08 24.23.01 36.35.03v115.58c-7.15.02-14.31-.06-21.46.06-.01-15.44.02-30.89-.01-46.33 0-6.44.06-12.89-.02-19.33-37.75-.04-75.51-.03-113.27-.01-.07 6.45-.02 12.9-.02 19.35.01 9.85-.03 19.7.01 29.55 22.63 0 45.26.06 67.88-.03.32-9.82.08-19.66.14-29.49l11.26.03c.01 15.42.01 30.84 0 46.25-32.17-.12-64.34-.01-96.51-.05-4.17-.1-7.96.53-12-.8V47.97c1.22-8.69.51-17.43.71-26.27 13.98-.07 27.96-.04 41.94-.01-.02-3.03-.03-6.06-.03-9.09z" fill="#d48134"/><path d="M29.18 44.84c9.43-.14 18.86-.04 28.29-.06.03 7.7.01 15.4.01 23.1-9.42.01-18.84.01-28.26 0-.02-7.68.04-15.36-.04-23.04z" fill="#fff"/><path d="M114.28 44.79c9.42-.03 18.84-.03 28.25 0 .03 7.69.03 15.38 0 23.07-9.42.05-18.84.04-28.26 0-.02-7.69-.04-15.38.01-23.07zM29.24 71.63c37.76-.02 75.52-.03 113.27.01.08 6.44.02 12.89.02 19.33-11.34.03-22.68-.04-34.02.07l-11.26-.03c-22.68-.07-45.36-.01-68.03-.03 0-6.45-.05-12.9.02-19.35z" fill="#6c6c6c"/><path d="M29.22 90.98c22.67.02 45.35-.04 68.03.03-.06 9.83.18 19.67-.14 29.49-22.62.09-45.25.03-67.88.03-.04-9.85 0-19.7-.01-29.55zM108.51 91.04c11.34-.11 22.68-.04 34.02-.07.03 15.44 0 30.89.01 46.33-11.34.06-22.69.07-34.03-.01.01-15.41.01-30.83 0-46.25z" fill="#333233"/><path d="M0 136.44c4.04 1.33 7.83.7 12 .8 32.17.04 64.34-.07 96.51.05 11.34.08 22.69.07 34.03.01 7.15-.12 14.31-.04 21.46-.06v.76H0v-1.56z" fill="#fff"/></svg>