<svg viewBox="0 0 108 134" height="134pt" width="144" xmlns="http://www.w3.org/2000/svg"><path d="M0 0h108v6.86c-4.43-.03-8.85-.05-13.27.17-.03 2.63-.03 5.26-.04 7.9-2.07.01-4.14.04-6.21.05-.01 2.15-.02 4.29-.01 6.43-29.49-.02-58.98-.01-88.47-.01V0z" fill="#fff"/><path d="M94.73 7.03c4.42-.22 8.84-.2 13.27-.17v69.15c-1.26.01-2.52.01-3.77.02-5.05.01-10.1-.02-15.15.02.05 15.41 0 30.81.03 46.21h-.44c.17-33.62-.33-67.23-.2-100.85-.01-2.14 0-4.28.01-6.43 2.07-.01 4.14-.04 6.21-.05.01-2.64.01-5.27.04-7.9z" fill="#6be5df"/><path d="M0 21.4c29.49 0 58.98-.01 88.47.01-.13 33.62.37 67.23.2 100.85-2.35.02-4.7.05-7.05.11.04-14.49.02-28.98.01-43.47-26.43-.11-52.87-.09-79.3-.01-.01 14.49-.03 28.98.01 43.47L0 122.29V21.4z" fill="#e42517"/><path d="M59.74 34.35c-.24 1.19.31 3.8-1.12 4.26-5.86 3.19-13.69 3.34-20.21 2.89-4.93-.69-9.96-1.04-13.08-5.45 2.57-2.35 5.11-3.85 8.62-4.4 8.34-1.52 18.15-1.38 25.79 2.7z" fill="#333233"/><path d="M89.08 76.05c5.05-.04 10.1-.01 15.15-.02-.02 15.41-.03 30.82 0 46.23-5.04-.01-10.08-.02-15.12 0-.03-15.4.02-30.8-.03-46.21z" fill="#a4180e"/><path d="M104.23 76.03c1.25-.01 2.51-.01 3.77-.02v46.25h-3.77c-.03-15.41-.02-30.82 0-46.23z" fill="#c59b63"/><path d="M2.33 78.89c26.43-.08 52.87-.1 79.3.01.01 14.49.03 28.98-.01 43.47-26.15.09-52.3.06-78.45.01l-.83-.02c-.04-14.49-.02-28.98-.01-43.47z" fill="#333233"/><path d="M0 122.29l2.34.07.83.02c26.15.05 52.3.08 78.45-.01 2.35-.06 4.7-.09 7.05-.11h.44c5.04-.02 10.08-.01 15.12 0H108V134H0v-11.71z" fill="#fff"/></svg>