<svg viewBox="0 0 458 256" height="256pt" width="458pt" xmlns="http://www.w3.org/2000/svg"><path d="M0 0h1.73c-.13 84.73.05 169.59-.09 254.32 44.12-.03 88.24-.01 132.36-.01 2.91.01 5.69-.2 8.58.28 3.82.87 7.55.44 11.42.51 33.32.03 66.69-.03 100 .03 1.45-.04 2.87-.29 4.3-.53 3.46-.56 7.16-.23 10.7-.29 62.25-.06 124.55.1 186.79-.08-.25-84.69.06-169.53-.15-254.23H458v256H0V0z" fill="#fff"/><path d="M1.73 0h453.91c.21 84.7-.1 169.54.15 254.23-62.24.18-124.54.02-186.79.08-3.54.06-7.24-.27-10.7.29-.12-47.62.02-95.26-.07-142.89-5.75-.36-11.48-.11-17.23-.18-32.76.08-65.56-.15-98.31.12-.09 47.63.13 95.32-.11 142.94-2.89-.48-5.67-.27-8.58-.28-44.12 0-88.24-.02-132.36.01C1.78 169.59 1.6 84.73 1.73 0z" fill="#5c5639"/><path d="M142.69 111.65c32.75-.27 65.55-.04 98.31-.12 5.75.07 11.48-.18 17.23.18.09 47.63-.05 95.27.07 142.89-1.43.24-2.85.49-4.3.53-33.31-.06-66.68 0-100-.03-3.87-.07-7.6.36-11.42-.51.24-47.62.02-95.31.11-142.94z" fill="#0f0e0d"/><path d="M145.1 113.43c.95-.09 1.9-.14 2.87-.16 35.98.07 71.97.03 107.96.02.27 4.24.29 8.46.22 12.71 0 38.67-.01 77.33 0 116 .12 3.82.05 7.54-.31 11.35-36.26-.15-72.58-.07-108.84-.04-.83.05-1.53-.11-2.09-.49-.69-3.49-.27-7.26-.33-10.82 0-39.33.01-78.67-.01-118 .07-3.44-.41-7.24.53-10.57z" fill="#333233"/></svg>