<svg viewBox="0 0 302 246" height="328" width="302pt" xmlns="http://www.w3.org/2000/svg"><path d="M0 0h302v242.64c-33.52.07-67.29-.13-100.77.1-.12-26.24-.02-52.49-.06-78.74-.05-4.86.43-9.49-.79-14.27-.99-.44-1.99-.89-2.99-1.34.05-13.63.02-27.25.01-40.88-30.06-.01-60.13-.01-90.2 0-.04 13.54.04 27.09-.04 40.63-2.02 1.4-3.91 1.81-3.67 4.77-.05 29.91.01 60.17-.03 90.12-5.84-.66-11.6-.35-17.46-.39H0V0z" fill="#fceacc"/><path d="M84.23 39.94c7.47-.02 14.94-.02 22.41 0 .04 14.98.01 29.97.02 44.96-7.48.01-14.97.01-22.45 0 .01-14.99-.02-29.98.02-44.96zM129.38 39.94c7.6.06 15.23-.23 22.82.21-.04 14.87-.03 29.75-.01 44.62-7.6.27-15.23.11-22.84.1.03-14.97-.01-29.95.03-44.93zM174.61 40.21c7.48-.64 15.1-.12 22.61-.27.02 14.98.01 29.97 0 44.96-7.56-.01-15.13.07-22.7-.06.1-14.86-.11-29.79.09-44.63zM219.68 40.13c7.56-.4 15.14-.14 22.71-.19.02 14.98.01 29.97.01 44.96-7.57-.02-15.14.1-22.7-.09.01-14.89.04-29.79-.02-44.68zM265.21 39.94c7.45-.02 14.9-.02 22.35 0 .03 14.98.01 29.97.01 44.96-7.46.01-14.92.01-22.38 0 .01-14.99-.02-29.98.02-44.96zM25.58 107.5c.02 9 .02 18 0 27.01-3.01-.01-6.03-.02-9.04-.04v-26.93c3.01-.04 6.03-.04 9.04-.04z" fill="#ff2a1a"/><path d="M30.51 107.7c2.88-.32 5.83-.21 8.72-.21v27.02c-2.94.01-5.88-.04-8.83-.1-.04-8.88-.34-17.85.11-26.71zM270.43 107.67c2.9-.29 5.86-.17 8.77-.17v27.01c-2.96-.01-5.91-.05-8.87-.09-.06-8.89-.36-17.88.1-26.75z" fill="#fff"/><path d="M39.23 107.49c3 .01 5.99.01 8.99.03.01 8.99 0 17.97 0 26.96-3 .01-5.99.03-8.99.03v-27.02z" fill="#ff2a1a"/><path d="M53.06 107.62c2.87-.06 5.74-.09 8.6-.1v26.97c-2.87-.01-5.73-.05-8.59-.12-.44-8.84-.44-17.9-.01-26.75z" fill="#fff"/><path d="M61.66 107.52c2.99-.01 5.98-.01 8.96-.03.03 9 .02 18.01.01 27.02-2.99-.02-5.98-.02-8.97-.02v-26.97zM107.2 107.51c30.07-.01 60.14-.01 90.2 0 .01 13.63.04 27.25-.01 40.88 1 .45 2 .9 2.99 1.34 1.22 4.78.74 9.41.79 14.27.04 26.25-.06 52.5.06 78.74-2.4 4.12-5.93 2.45-10.07 3.26h-77.9c-3.54-.83-7.89.81-9.8-2.97.04-29.95-.02-60.21.03-90.12-.24-2.96 1.65-3.37 3.67-4.77.08-13.54 0-27.09.04-40.63zM233.79 107.56c3-.05 5.99-.06 8.99-.06.09 9.05.88 17.96.15 27.04-3.05-.03-6.11-.05-9.16-.11 0-8.95 0-17.91.02-26.87z" fill="#ff2a1a"/><path d="M247.56 107.73c2.96-.15 5.92-.24 8.88-.23 0 9 0 18.01-.01 27.01-2.95.01-5.9-.09-8.85-.25-.03-8.85-.05-17.69-.02-26.53z" fill="#fff"/><path d="M256.44 107.5c2.98.01 5.97.02 8.95 0 .04 9 .02 18 .03 26.99-3-.01-5.99.02-8.99.02.01-9 .01-18.01.01-27.01zM279.2 107.5c2.99.01 5.99.01 8.98.05.02 8.97.02 17.94.02 26.91-3 .02-6 .05-9 .05V107.5z" fill="#ff2a1a"/><path d="M110.54 155.84c3.49-.14 6.97-.17 10.46-.15 24.25.1 48.52-.15 72.76.13-.01 27.56.04 55.12-.03 82.68-27.71.04-55.45.18-83.16-.07-.06-27.53-.01-55.06-.03-82.59z" fill="#fff"/><path d="M233.85 175.31c3.06-.46 6.31-.21 9.4-.09-.35 8.97-.55 17.89-.44 26.87-3.02 0-6.04-.04-9.05-.23.14-8.84-.14-17.71.09-26.55z" fill="#ff2a1a"/><path d="M247.72 175.33c2.87-.38 5.86-.22 8.75-.23-.09 8.99.01 17.99-.03 26.99-2.96 0-5.92-.1-8.87-.24.04-8.82-.25-17.71.15-26.52z" fill="#fff"/><path d="M256.47 175.1c2.98-.03 5.97-.02 8.95-.02-.02 8.99-.01 17.99-.02 26.98-2.99-.01-5.97.02-8.96.03.04-9-.06-18 .03-26.99z" fill="#ff2a1a"/><path d="M270.39 175.26c2.92-.3 5.91-.16 8.84-.18-.09 9 .01 18.01-.03 27.02-2.98-.01-5.96-.09-8.94-.15.03-8.88-.27-17.83.13-26.69z" fill="#fff"/><path d="M279.23 175.08c3-.03 5.99.01 8.98.08-.02 8.92-.04 17.83-.01 26.74-3 .11-6 .21-9 .2.04-9.01-.06-18.02.03-27.02zM144.21 183.88c7.45-.01 14.91-.01 22.36 0 .02 7.49.01 14.99.01 22.49H144.2c-.01-7.5-.02-15 .01-22.49z" fill="#ff2a1a"/><path d="M0 242.64h86c5.86.04 11.62-.27 17.46.39 1.91 3.78 6.26 2.14 9.8 2.97H0v-3.36zM201.23 242.74c33.48-.23 67.25-.03 100.77-.1V246H191.16c4.14-.81 7.67.86 10.07-3.26z" fill="#fff"/></svg>