<svg viewBox="0 0 272 224" height="224pt" width="272pt" xmlns="http://www.w3.org/2000/svg"><path d="M0 0h13.1l-1.2.8c-1.75 3.25-3.1 6.6-4.16 10.13-.46 5.65-1.93 14.34 2.76 18.57 3.2 3.16 7.24 2.21 11.28 1.94-1.96 1.62-3.8 3.38-5.62 5.16-4.41-1.91-8.22-2.92-13.02-3.36C1.4 33.09.63 31.93 0 30.42V0z" fill="#fff"/><path d="M13.1 0h158.55c7.39 2.5 13.33 9.35 15.1 16.91 1.29-.1 2.58-.19 3.86-.27-1.24-6.7 1.12-13.57 7.44-16.64h27.22c.63 1.71 1.26 1.71 1.89 0H272v94.43c-3.71-.47-7.28-.89-10.55-2.89-1.83-1.2-3.75-1.21-5.87-1.4-.03-4.8.07-9.61-.04-14.41-.58-.38-1.17-.76-1.77-1.12-36.98-22.07-73.99-44.25-111.01-66.24-2.71 1.38-5.23 2.98-7.84 4.54l-93.3 55.71c-3.51 2.16-7.14 4.09-10.52 6.47 7.03.8 14.01.19 21.06.56-7.53.24-15.03-.03-22.55-.21-.02 32.23.1 64.46-.07 96.69-9.73 3.12-19.32 6.43-29.54 3.02V30.42c.63 1.51 1.4 2.67 3.14 2.82 4.8.44 8.61 1.45 13.02 3.36 1.82-1.78 3.66-3.54 5.62-5.16-4.04.27-8.08 1.22-11.28-1.94-4.69-4.23-3.22-12.92-2.76-18.57C8.8 7.4 10.15 4.05 11.9.8l1.2-.8z" fill="#128614"/><path d="M171.65 0h26.4c-6.32 3.07-8.68 9.94-7.44 16.64-1.28.08-2.57.17-3.86.27-1.77-7.56-7.71-14.41-15.1-16.91z" fill="#fff"/><path d="M225.27 0h1.89c-.63 1.71-1.26 1.71-1.89 0z" fill="#6c6c6c"/><path d="M142.76 8.37c37.02 21.99 74.03 44.17 111.01 66.24-3.61.59-7.12.72-10.77.6-22.67-.05-45.33.03-68-.03-4.35-.03-8.65.54-13 .53-31.31-.06-62.69.01-94.01-.04-5.38-.4-10.44-.38-15.83-.02-7.05-.37-14.03.24-21.06-.56 3.38-2.38 7.01-4.31 10.52-6.47l93.3-55.71c2.61-1.56 5.13-3.16 7.84-4.54z" fill="#fff"/><path d="M253.77 74.61c.6.36 1.19.74 1.77 1.12.11 4.8.01 9.61.04 14.41-.06 32.62-.06 65.23.01 97.84-5.2.35-10.39.18-15.59.2-24.91.01-49.81-.02-74.72.02.01-22.51 0-45.01.01-67.51-15.03.02-30.05-.02-45.08.02-.03 7.52-.01 15.04 0 22.55-9.47-.1-18.93 0-28.4-.05.02-14.99.03-29.99 0-44.99-13.15.02-26.31-.08-39.46.05-.12 14.97-.02 29.96-.05 44.94-6.62.06-13.23-.07-19.85.05-.03 15.02.07 30.05-.04 45.07l-2.65-.52c-.42-5.2-.08-10.46-.22-15.68.17-32.23.05-64.46.07-96.69 7.52.18 15.02.45 22.55.21 5.39-.36 10.45-.38 15.83.02 31.32.05 62.7-.02 94.01.04 4.35.01 8.65-.56 13-.53 22.67.06 45.33-.02 68 .03 3.65.12 7.16-.01 10.77-.6z" fill="#fdeea2"/><path d="M255.58 90.14c2.12.19 4.04.2 5.87 1.4 3.27 2 6.84 2.42 10.55 2.89V224H0v-48.85c10.22 3.41 19.81.1 29.54-3.02.14 5.22-.2 10.48.22 15.68l2.65.52c.11-15.02.01-30.05.04-45.07 6.62-.12 13.23.01 19.85-.05 13.17-.03 26.34-.04 39.51 0 9.47.05 18.93-.05 28.4.05.01 14.98 0 29.95.01 44.92 15.02.03 30.04 0 45.06.02 24.91-.04 49.81-.01 74.72-.02 5.2-.02 10.39.15 15.59-.2-.07-32.61-.07-65.22-.01-97.84z" fill="#fff"/><path d="M52.35 98.27c13.15-.13 26.31-.03 39.46-.05.03 15 .02 30 0 44.99-13.17-.04-26.34-.03-39.51 0 .03-14.98-.07-29.97.05-44.94zM187.85 98.25c13.24-.07 26.47-.02 39.7-.03.03 22.48.03 44.96 0 67.44-12.8-.03-25.66.1-38.45-.05-2.05.27-1.14-2.4-1.39-3.59.16-21.25-.13-42.52.14-63.77zM120.21 120.71c15.03-.04 30.05 0 45.08-.02-.01 22.5 0 45-.01 67.51-15.02-.02-30.04.01-45.06-.02-.01-14.97 0-29.94-.01-44.92-.01-7.51-.03-15.03 0-22.55z" fill="#6c6c6c"/></svg>