<svg viewBox="0 0 298 214" height="214pt" width="298pt" xmlns="http://www.w3.org/2000/svg"><path d="M0 0h80.75l1.61.37c5.56 2.54 10.65 6.3 13.23 12.01 1.14 2.4.93 5.12 1.07 7.74 3.18.95 6.18 2.3 9.22 3.6-23.52 13.76-46.85 27.96-70.3 41.85-2.34 1.38-4.64 2.81-6.91 4.29-.03 4.26-.01 8.53 0 12.79-.97-.01-1.94-.03-2.91-.04-.36.67-.72 1.34-1.09 2-2.18 2.97-5.71 5.01-9.16 6.13-4.24 1.38-8.16.71-12.59 1.04-.97.07-1.95.15-2.92.26V0z" fill="#128614"/><path d="M80.75 0H298v13.87c-5.18-5.57-14.81-4.56-20.6-.5-3.36 2.23-6.18 5.11-6.26 9.4-2.8-.2-4.55-1.93-7.14-2.81-8.8-3.26-20.37-.82-26.38 6.62-3.07 3.83-3.45 8.07-2.94 12.81-6.6.91-11.59 4-16.27 8.58-2.3-1.14-4.63-2.19-6.81-3.54-21.39-12.98-42.96-25.65-64.39-38.54-2.29-1.21-4.73-3.64-7.42-2.03-11.4 6.42-22.34 13.73-33.91 19.86-3.04-1.3-6.04-2.65-9.22-3.6-.14-2.62.07-5.34-1.07-7.74C93.01 6.67 87.92 2.91 82.36.37L80.75 0z" fill="#fdfdfd"/><path d="M147.21 5.89c21.43 12.89 43 25.56 64.39 38.54 2.18 1.35 4.51 2.4 6.81 3.54 11.21 6.89 22.71 13.35 33.81 20.42-2.32 1.31-4.65 1.13-7.22 1.16-11.89-.07-23.77-.22-35.66-.14-.04-4.05-.03-8.11 0-12.16-29.99-.05-60.02-.06-90.01 0-.03 7.44-.06 14.88-.06 22.32 20.11-.02 40.22-.03 60.33.01.22 8.39-.8 16.64-1.72 24.95-.78 10.87-1.29 21.85-2.81 32.65l-1.69.27c.06 15.02-.19 30.06.13 45.07 7.42-.29 14.84-.03 22.26-.17-.08-15.09-.05-30.18-.01-45.27l1.74-.66c-1.79-18.93-3.15-37.92-4.82-56.85 5.59-.03 11.17.01 16.75-.02-.01-3.3-.01-6.6.01-9.9 7.97-.07 15.95-.06 23.92.03-.8 13.11-2.23 26.21-3.16 39.32-.92 9.38-1.45 18.82-2.52 28.19-.33 15.05-.1 30.18-.11 45.25 7.56-.12 15.12 0 22.68-.08-.17-15.04.23-30.14-.21-45.16-1.58-16.71-2.97-33.42-4.37-50.15-.4-5.79-1.19-11.5-1.15-17.32 3.83.19 7.11-1.25 10.39 1.13-.85 4.43-.44 8.68-.51 13.14-.06 31.59.11 63.21-.08 94.8 1.99.17 3.97.35 5.96.43-1.19.39-2.37.79-3.55 1.21-.56 3.63-.93 7.05-4.66 8.76-2.91.68-6.1.38-9.07.45-67.33-.02-134.67-.02-202 0-3.39-.07-6.98.26-10.3-.42-2.64-1.07-3.91-4.89-5.4-7.15l3.18-.09c.06-26.99 0-53.99.03-80.99.02-3.1.19-6.11-.45-9.18-.53-2.45-.73-4.79-.72-7.3l-2.67.09c.37-.66.73-1.33 1.09-2 .97.01 1.94.03 2.91.04-.01-4.26-.03-8.53 0-12.79 2.27-1.48 4.57-2.91 6.91-4.29 23.45-13.89 46.78-28.09 70.3-41.85 11.57-6.13 22.51-13.44 33.91-19.86 2.69-1.61 5.13.82 7.42 2.03z" fill="#d0d0d0"/><path d="M298 13.87v167.39c-4.71.84-9.57 1.74-13.1-2.35-1.15-2.13-2.01-4.23-2.12-6.69-3.84.36-6.96 3.08-10.75 4.13-5.27 1.78-12.37 3.92-17.44.67.75-3.99.65-7.98.6-12.02 0-31.73-.01-63.46-.01-95.19-.99-.47-1.98-.94-2.96-1.42-11.1-7.07-22.6-13.53-33.81-20.42 4.68-4.58 9.67-7.67 16.27-8.58-.51-4.74-.13-8.98 2.94-12.81 6.01-7.44 17.58-9.88 26.38-6.62 2.59.88 4.34 2.61 7.14 2.81.08-4.29 2.9-7.17 6.26-9.4 5.79-4.06 15.42-5.07 20.6.5z" fill="#128614"/><path d="M119.33 57.25c29.99-.06 60.02-.05 90.01 0-.03 4.05-.04 8.11 0 12.16 11.89-.08 23.77.07 35.66.14 2.57-.03 4.9.15 7.22-1.16.98.48 1.97.95 2.96 1.42 0 31.73.01 63.46.01 95.19.05 4.04.15 8.03-.6 12.02 5.07 3.25 12.17 1.11 17.44-.67 3.79-1.05 6.91-3.77 10.75-4.13.11 2.46.97 4.56 2.12 6.69-1.44-1.62-2.15-2.97-2.53-5.16-1.01-.12-2.02-.22-3.04-.29-6.06 3.29-12.24 4.94-19.05 5.77-1.99-.08-3.97-.26-5.96-.43.19-31.59.02-63.21.08-94.8.07-4.46-.34-8.71.51-13.14-3.28-2.38-6.56-.94-10.39-1.13-3.72-.01-7.44-.06-11.16-.05-7.97-.09-15.95-.1-23.92-.03-.02 3.3-.02 6.6-.01 9.9-5.58.03-11.16-.01-16.75.02-4.36.01-8.72.01-13.08.01-20.11-.04-40.22-.03-60.33-.01 0-7.44.03-14.88.06-22.32z" fill="#855854"/><path d="M233.36 69.68c3.72-.01 7.44.04 11.16.05-.04 5.82.75 11.53 1.15 17.32 1.4 16.73 2.79 33.44 4.37 50.15-7.45-.02-14.9 0-22.36-.01 1.07-9.37 1.6-18.81 2.52-28.19.93-13.11 2.36-26.21 3.16-39.32zM179.6 79.58c4.36 0 8.72 0 13.08-.01 1.67 18.93 3.03 37.92 4.82 56.85l-1.74.66c-6.89.29-13.8.02-20.69.1 1.52-10.8 2.03-21.78 2.81-32.65.92-8.31 1.94-16.56 1.72-24.95zM27.34 84.52c-.01 2.51.19 4.85.72 7.3-8.39.54-16.74-.34-25.14-.04 4.43-.33 8.35.34 12.59-1.04 3.45-1.12 6.98-3.16 9.16-6.13l2.67-.09z" fill="#fdfdfd"/><path d="M0 92.04c.97-.11 1.95-.19 2.92-.26 8.4-.3 16.75.58 25.14.04.64 3.07.47 6.08.45 9.18-.03 27 .03 54-.03 80.99l-3.18.09c-8.43.11-16.87 0-25.3.04V92.04zM104.64 114.74c15.03-.02 30.07-.19 45.1.08-.08 22.5-.11 45.01.01 67.51-15.06.16-30.13-.02-45.19.09.11-22.56-.04-45.12.08-67.68zM173.38 137.45l1.69-.27c6.89-.08 13.8.19 20.69-.1-.04 15.09-.07 30.18.01 45.27-7.42.14-14.84-.12-22.26.17-.32-15.01-.07-30.05-.13-45.07zM227.68 137.19c7.46.01 14.91-.01 22.36.01.44 15.02.04 30.12.21 45.16-7.56.08-15.12-.04-22.68.08.01-15.07-.22-30.2.11-45.25z" fill="#855854"/><path d="M279.33 173.46c1.02.07 2.03.17 3.04.29.38 2.19 1.09 3.54 2.53 5.16 3.53 4.09 8.39 3.19 13.1 2.35V214H0v-31.88c8.43-.04 16.87.07 25.3-.04 1.49 2.26 2.76 6.08 5.4 7.15 3.32.68 6.91.35 10.3.42 67.33-.02 134.67-.02 202 0 2.97-.07 6.16.23 9.07-.45 3.73-1.71 4.1-5.13 4.66-8.76 1.18-.42 2.36-.82 3.55-1.21 6.81-.83 12.99-2.48 19.05-5.77z" fill="#fdfdfd"/></svg>