<svg viewBox="0 0 626 270" height="360" width="626pt" xmlns="http://www.w3.org/2000/svg"><path d="M0 0h626v41.41c-44.09.08-88.25-.15-132.33.12-42.86.25-85.8.03-128.67.11-3.8.02-7.52-.19-11.31.19 9.13-3.23 17.66-6.52 24.82-13.31 3.04-2.94 6.35-7.04 6.24-11.5-.02-2.59.09-4.92-1.91-6.84-5.21-5.35-12.73-6.36-19.84-6.44-13.1.32-26.47 4.42-37.18 12.05-4.2 3.1-8.84 7.48-10.24 12.67-.41 2.65-.7 6.5 1.36 8.58 1.74 1.93 4.05 3.41 6.26 4.75-17.89-.43-35.85.08-53.74-.25-4.16-.19-8.31-.13-12.46-.12-85.66-.04-171.35.07-257-.06V0z" fill="#fff"/><path d="M363 3.74c7.11.08 14.63 1.09 19.84 6.44 2 1.92 1.89 4.25 1.91 6.84.11 4.46-3.2 8.56-6.24 11.5-7.16 6.79-15.69 10.08-24.82 13.31-5.48 1.58-11.07 1.78-16.69 2.51-4.57-.55-9.52-.81-13.8-2.55-2.21-1.34-4.52-2.82-6.26-4.75-2.06-2.08-1.77-5.93-1.36-8.58 1.4-5.19 6.04-9.57 10.24-12.67C336.53 8.16 349.9 4.06 363 3.74z" fill="#60ddb4"/><path d="M0 41.36c85.65.13 171.34.02 257 .06 4.15-.01 8.3-.07 12.46.12-.04 9.66 0 19.31-.04 28.97 74.76-.05 149.55-.1 224.3.02-.03-9.66.04-19.33-.05-29 44.08-.27 88.24-.04 132.33-.12v45.61c-4.96-.42-10.01-.13-15-.21-203.54.03-407.52-.05-611 .04V41.36z" fill="#b5b5b5"/><path d="M269.46 41.54c17.89.33 35.85-.18 53.74.25 4.28 1.74 9.23 2 13.8 2.55 5.62-.73 11.21-.93 16.69-2.51 3.79-.38 7.51-.17 11.31-.19 42.87-.08 85.81.14 128.67-.11.09 9.67.02 19.34.05 29-74.75-.12-149.54-.07-224.3-.02.04-9.66 0-19.31.04-28.97zM0 86.85c203.48-.09 407.46-.01 611-.04 4.99.08 10.04-.21 15 .21v180.12H0V86.85z" fill="#525252"/><path d="M0 267.14h626V270H0v-2.86z" fill="#fff"/></svg>