<svg viewBox="0 0 220 214" height="214pt" width="220pt" xmlns="http://www.w3.org/2000/svg"><path d="M0 0h220v42.08c-30.08.1-60.2.01-90.28.04-.01-11.2 0-22.4-.01-33.6-28.33.02-56.66-.01-84.99.01-.11 11.2-.03 22.4-.04 33.6-14.89.06-29.8-.16-44.68.11V0z" fill="#cb2013"/><path d="M44.72 8.53c28.33-.02 56.66.01 84.99-.01.01 11.2 0 22.4.01 33.6-28.35.02-56.7.01-85.04.01.01-11.2-.07-22.4.04-33.6z" fill="#60c7dc"/><path d="M0 42.24c14.88-.27 29.79-.05 44.68-.11 28.34 0 56.69.01 85.04-.01 30.08-.03 60.2.06 90.28-.04V214H112.7c-.01-36.31.04-72.63-.03-108.94-22.69.04-45.38 0-68.07.02.15 36.3.03 72.62.07 108.92H0V42.24z" fill="#333233"/><path d="M44.6 105.08c22.69-.02 45.38.02 68.07-.02.07 36.31.02 72.63.03 108.94H44.67c-.04-36.3.08-72.62-.07-108.92z" fill="#919191"/></svg>