<svg viewBox="0 0 652 214" height="214pt" width="652pt" xmlns="http://www.w3.org/2000/svg"><path d="M0 0h652v44.08H0V0z" fill="#f5f5f5"/><path d="M296.57 15.21c2.46-.19 4.96-.07 7.43-.08 88.24.01 176.48-.01 264.72.01 0 6.8.01 13.59-.01 20.39-90.73 0-181.47.01-272.2-.01.05-6.76-.11-13.55.06-20.31zM0 44.08h652V214H241.84c.65-3.68.39-7.29.41-11 .01-40.33-.01-80.68.01-121.01-.05-1.28-.12-2.56-.2-3.84-28.37-.11-56.77-.18-85.13.03-.36 3.96-.13 7.86-.18 11.82v124H0V44.08z" fill="#cb2013"/><path d="M156.93 78.18c28.36-.21 56.76-.14 85.13-.03.08 1.28.15 2.56.2 3.84-.02 40.33 0 80.68-.01 121.01-.02 3.71.24 7.32-.41 11h-85.09V90c.05-3.96-.18-7.86.18-11.82zM276.34 78.18c5.2-.29 10.45-.02 15.66-.11 51.45.02 102.91-.05 154.36.04.16 28.32.11 56.67.03 85-51.46.1-102.93.01-154.39.04-5.25-.04-10.49.14-15.74-.13.08-28.19-.07-56.7.08-84.84zM497.55 78.21c1.47-.15 2.97-.15 4.45-.16 37.08.1 74.17-.08 111.25.09.19 28.27.13 56.57.02 84.84-3.43.18-6.83.24-10.27.17h-92c-4.53-.05-9.03.18-13.55-.21.15-28.14-.05-56.6.1-84.73z" fill="#515151"/></svg>