<svg viewBox="0 0 868 390" height="520" width="868pt" xmlns="http://www.w3.org/2000/svg"><path d="M0 0h111.18c-2.83 3.8-6 6.99-7.65 11.56-1.91 3.92-2.12 7.86-1.97 12.14-4.11.52-4.54-2.79-7.71-4.48-4.81-2.83-9.66-5.36-14.98-7.09-3.38-2.46-6.93-1.61-10.87-2.42-6.26-.26-12.79-.36-19.03.12-4.39 1.21-8.72 1-12.44 3.51-9.17 3.06-17.46 9.15-23.99 16.2C6.57 36.87 2.41 45.49 1.56 55c-.11 5.34-.19 10.64.58 15.95-.26.72-.97 1.16-2.14 1.33V0z" fill="#fff"/><path d="M111.18 0h69.59l.51 1.81c1.13 1.92 2.34 3.79 3.75 5.52 2.87-.69 4.5-5.23 6.45-7.33H253c2.35 2.09 5.09 3.49 7.6 5.39 11.49 8.4 21.74 18.45 29.99 30.07 11.2-.34 21.62 2.82 31.87 6.99 14.58 6.2 28.66 16.35 37.13 29.94 3.22 5.59 6.52 12.06 6.79 18.61.27 4.49-.02 9.01.11 13.52 3.79 1.81 7.98 2.25 11.69 4.31 16.24 6.98 30.35 18.34 39.3 33.72 2.58 4.58 5.37 9.74 6.01 15 2.79-.42 5.54-.93 8.36-1.08.78 0 1.32-.29 1.63-.88.46-6.69-1.25-15.1 1.99-21.15 5.95-12.15 19.3-20.32 32.53-21.84 4.98-.12 10.04-.24 15.01.11 6 .82 11.89 3.1 17.01 6.33 1.78 1.03 3.21 3.15 5.47 2.7-.13-8.48 5.67-15.31 12.07-20.15 5.53-3.89 12.52-7.44 19.44-7.12 3.6.06 7.47-.28 10.99.57 7.09 2.16 12.78 7.09 16.63 13.35.95 1.12 1.72 3.64 3.34 1.58 3.81-5.72 10.06-10.54 17.02-11.37 5.98-.13 12.43-.6 18.06 1.42 16.34 5.83 29.75 16.93 40.35 30.46 13.69-.39 27.76 5.58 38.79 13.38 3.21 1.78 5.61 5.18 8.11 7.85 2.61 3.22 5.55 7.07 6.25 11.25-1.91 1.42-4 2.45-6.14 3.46-26.69 13.32-53.36 26.68-80.05 40-.72.4-1.42.83-2.11 1.29 14.6.54 29.28.07 43.9.25.45 3.69.22 7.33.25 11.04.02 26.22-.01 52.48.02 78.69 2.86.47 5.7.33 8.59.32 17.67-.01 35.33.03 53-.02 1.9.1 3.61-.2 5.32.79-5.47 3.64-12.39 5.32-18.74 6.74-13.33 2.16-27.36.86-39.98-4.04-3.03-1.44-5.03.19-7.76 1.31-13.7 5.98-27.09 11.43-41.81 14.4-4.96.56-10.04.22-15.03.32-4.91-.11-9.94.47-14.57-1.14-3.77-1.28-6.66-3.6-9.94-5.71-4.14-.46-8.38-.62-12.54-.93-3.16-.19-2.78 2.89-4.42 4.82-5.25 6.69-13.55 10.85-21.49 13.47-6.77 2.29-13.5 1.21-20.64 1.49-2.77 3.03-5.17 6.13-8.81 8.21-7.12 6.06-19.31 7.69-26.89 1.6-4.53-3.29-7.41-8.96-8.8-14.26-.27-1.6-.91-2.95-2.76-2.07-11.05 5.72-21.59 10.84-34.14 12.4-4.99.21-10 .06-15 .11-7.69.31-15.57-3.32-21.53-7.98-8.84-7.78-12.39-20.63-10.74-32.04.95-3.14 1.83-6.31 2.63-9.49-.58-2.81-3.59-.49-5.18-.02-5.45 2.73-11.32 3.27-17.21 4.54-7.66.12-15.34.03-23.01.03-2.44.02-4.62-1.16-7.1-1.07-1.93-3.34-1.88-6.74-2.74-10.45-.75-3.25-1.11-6.55-1.67-9.83-1.44-5.25-3.21-10.57-3.81-15.99 1.46-.13 2.91-.2 4.36-.23 29.34.01 58.67 0 88 0 2.97.01 5.92.1 8.89-.15.51-2.64.29-5.15.31-7.82-.02-26.26.02-52.8-.02-79.03.07-2.06-.97-3.47-3.14-3.37-51.94.04-104.98 0-157.04.02-3.77.01-7.5-.17-11.25.29-8.75-.25-18.2.02-26.4 3.45-7.59 3.28-14.68 7.55-20.5 13.49-10.27 9.44-17.45 20.75-24.11 32.88-6.08 12.15-11.09 24.88-15.12 37.85-1.49 3.22-1.51 6.76-2.85 9.99-.95 2.42-.83 5.12-1.69 7.6-1.24 3.67-1.28 7.57-2.44 11.28-1.69 10.57-2.96 20.49-4.26 31.08-.38.57-.79 1.11-1.23 1.64-.22-3.07-.28-6.1-.23-9.17.01-58.67.01-117.33.01-176 .01-2.94.09-5.86-.16-8.8-2.96-.51-5.78-.29-8.77-.31-26.01 0-52.01 0-78.02-.01-.95.04-1.89.14-2.83.29-.54 2.51-.29 5.26-.32 7.83.01 67 0 134 0 201-.02 4.36.11 8.7-.15 13.05-3.34-1.5-7.01-3.7-8.97-6.89-2.18-3.41-4.57-6.28-5.89-10.17-1.4-3.43-1.95-7.49-4.01-10.54-4.72 1.94-8.67 5.13-13.35 7.16-6.58 3.6-13.58 5.86-20.55 8.53-4.68 1.18-8.95 2.81-13.91 3.12V72.28c1.17-.17 1.88-.61 2.14-1.33-.77-5.31-.69-10.61-.58-15.95.85-9.51 5.01-18.13 10.98-25.46 6.53-7.05 14.82-13.14 23.99-16.2 3.72-2.51 8.05-2.3 12.44-3.51 6.24-.48 12.77-.38 19.03-.12 3.94.81 7.49-.04 10.87 2.42 5.32 1.73 10.17 4.26 14.98 7.09 3.17 1.69 3.6 5 7.71 4.48-.15-4.28.06-8.22 1.97-12.14 1.65-4.57 4.82-7.76 7.65-11.56z" fill="#128614"/><path d="M180.77 0h10.71c-1.95 2.1-3.58 6.64-6.45 7.33-1.41-1.73-2.62-3.6-3.75-5.52L180.77 0zM253 0h615v343.23c-37.98-.22-76.01-.03-114-.1-3.66-.07-7.39.24-11-.21-.52-1.65-.4-3.22-.41-4.92.08-13.33-.04-26.66.06-39.99-.17-25.67-.04-51.34-.08-77.01.08-4.31-.23-8.68.25-12.94 14.27-.43 28.75.24 42.98-.34-.03-1.04-1.75-1.53-2.5-2.02-27.14-13.5-54.24-27.08-81.35-40.65-1.66-.72-3.57-2.19-5.41-2.09-.7-4.18-3.64-8.03-6.25-11.25-2.5-2.67-4.9-6.07-8.11-7.85-11.03-7.8-25.1-13.77-38.79-13.38-10.6-13.53-24.01-24.63-40.35-30.46-5.63-2.02-12.08-1.55-18.06-1.42-6.96.83-13.21 5.65-17.02 11.37-1.62 2.06-2.39-.46-3.34-1.58-3.85-6.26-9.54-11.19-16.63-13.35-3.52-.85-7.39-.51-10.99-.57-6.92-.32-13.91 3.23-19.44 7.12-6.4 4.84-12.2 11.67-12.07 20.15-2.26.45-3.69-1.67-5.47-2.7-5.12-3.23-11.01-5.51-17.01-6.33-4.97-.35-10.03-.23-15.01-.11-13.23 1.52-26.58 9.69-32.53 21.84-3.24 6.05-1.53 14.46-1.99 21.15-.31.59-.85.88-1.63.88-2.82.15-5.57.66-8.36 1.08-.64-5.26-3.43-10.42-6.01-15-8.95-15.38-23.06-26.74-39.3-33.72-3.71-2.06-7.9-2.5-11.69-4.31-.13-4.51.16-9.03-.11-13.52-.27-6.55-3.57-13.02-6.79-18.61-8.47-13.59-22.55-23.74-37.13-29.94-10.25-4.17-20.67-7.33-31.87-6.99-8.25-11.62-18.5-21.67-29.99-30.07-2.51-1.9-5.25-3.3-7.6-5.39z" fill="#fff"/><path d="M67.15 118.17c.94-.15 1.88-.25 2.83-.29 26.01.01 52.01.01 78.02.01 2.99.02 5.81-.2 8.77.31.25 2.94.17 5.86.16 8.8 0 58.67 0 117.33-.01 176-.05 3.07.01 6.1.23 9.17-.63 5.62-.15 11.18-.39 16.83.02 4.62-.49 9.36.13 13.95-24.62.25-49.26-.01-73.89.13-5.39-.02-10.8.15-16.18-.17-.04-.95-.08-1.91-.14-2.86.26-4.35.13-8.69.15-13.05 0-67 .01-134 0-201 .03-2.57-.22-5.32.32-7.83zM339.21 118.82c25.77 12.89 51.55 25.77 77.32 38.66 2.26 1.12 4.55 2.11 6.65 3.54-.02 1.85-2.97 1.22-4.18 1.4-53-.06-106-.01-159-.03-2.94-.08-6.13.39-8.99-.33-.4-1.4 1.67-1.85 2.56-2.49 27.19-13.5 54.79-27.43 82.03-40.94 1.41-.74 2.24-.46 3.61.19z" fill="#86322e"/><path d="M255.75 162.91c1.09 1.45 3.6 1.53 5.24 2.12 12.76 4.13 22.91 12.35 31.48 22.46 15.49 18.13 25.07 41.36 32.19 63.88.3.62.63 1.23.98 1.83.6 5.42 2.37 10.74 3.81 15.99.56 3.28.92 6.58 1.67 9.83.86 3.71.81 7.11 2.74 10.45-.46 1.06-.58 2.11-.38 3.14 2.02 13.1 2.99 26.15 3.55 39.39 0 3.58.38 7.3-.14 10.84-10.59.49-21.28.07-31.89.21-4.25-.1-8.57.27-12.79-.25-.35-15.98-1.01-31.93-3.17-47.8-.17-.84-.46-1.67-.85-2.47.14-1.15.45-2.32.38-3.47-1.89-12.22-4.39-24.56-8.31-36.29-2.45-10.78-7.02-20.79-12.95-30.09-4.07-6.9-11.64-14.89-20.29-14.64-6.3-.11-11 3.53-15.23 7.76-2.82 2.78-4.41 6.13-6.57 9.38-3.79 5.76-6.53 12.41-9.15 18.78-4.5 16.39-9.32 33.13-11.1 50.06-.44 3.31-1.36 7.32-.17 10.51-2.2 2.64-1.33 7.2-1.81 10.47-1.01 9.26-.66 18.54-1.17 27.81-3.88.48-7.89.17-11.82.24-11.04-.05-22.08.13-33.11-.1-.62-4.59-.11-9.33-.13-13.95.24-5.65-.24-11.21.39-16.83.44-.53.85-1.07 1.23-1.64 1.3-10.59 2.57-20.51 4.26-31.08 1.16-3.71 1.2-7.61 2.44-11.28.86-2.48.74-5.18 1.69-7.6 1.34-3.23 1.36-6.77 2.85-9.99 4.03-12.97 9.04-25.7 15.12-37.85 6.66-12.13 13.84-23.44 24.11-32.88 5.82-5.94 12.91-10.21 20.5-13.49 8.2-3.43 17.65-3.7 26.4-3.45z" fill="#eccb93"/><path d="M255.75 162.91c3.75-.46 7.48-.28 11.25-.29 52.06-.02 105.1.02 157.04-.02 2.17-.1 3.21 1.31 3.14 3.37.04 26.23 0 52.77.02 79.03-.02 2.67.2 5.18-.31 7.82-2.97.25-5.92.16-8.89.15-29.33 0-58.66.01-88 0-1.45.03-2.9.1-4.36.23-.35-.6-.68-1.21-.98-1.83-7.12-22.52-16.7-45.75-32.19-63.88-8.57-10.11-18.72-18.33-31.48-22.46-1.64-.59-4.15-.67-5.24-2.12z" fill="#86322e"/><path d="M696.54 162.96c1.84-.1 3.75 1.37 5.41 2.09 27.11 13.57 54.21 27.15 81.35 40.65.75.49 2.47.98 2.5 2.02-14.23.58-28.71-.09-42.98.34-3.29.04-6.53-.29-9.82-.32-24 0-48 0-72-.01-2.97-.05-5.9-.01-8.86.23-14.62-.18-29.3.29-43.9-.25.69-.46 1.39-.89 2.11-1.29 26.69-13.32 53.36-26.68 80.05-40 2.14-1.01 4.23-2.04 6.14-3.46z" fill="#e98023"/><path d="M247.02 208.04c.18 14.89-.25 29.85.21 44.72 4.9.46 9.86.11 14.77.21 6.08-.09 12.19.22 18.26-.2 3.92 11.73 6.42 24.07 8.31 36.29.07 1.15-.24 2.32-.38 3.47-3.36.52-5.84 2.67-9.09 3.4-5.31 1.53-9.53 4.77-15.01 5.92-4.86.96-9 3.05-14.07 3.02-3.76 2.92-7.47.91-11.77 2.31-5.62.88-11.57.4-17.26.46-5.6.29-10.71-2.53-16.19-3.11-1.19-3.19-.27-7.2.17-10.51 1.78-16.93 6.6-33.67 11.1-50.06 2.62-6.37 5.36-13.02 9.15-18.78 2.16-3.25 3.75-6.6 6.57-9.38 4.23-4.23 8.93-7.87 15.23-7.76z" fill="#128614"/><path d="M247.02 208.04c8.65-.25 16.22 7.74 20.29 14.64 5.93 9.3 10.5 19.31 12.95 30.09-6.07.42-12.18.11-18.26.2-4.91-.1-9.87.25-14.77-.21-.46-14.87-.03-29.83-.21-44.72zM652.14 207.96c2.96-.24 5.89-.28 8.86-.23 24 .01 48 .01 72 .01 3.29.03 6.53.36 9.82.32-.48 4.26-.17 8.63-.25 12.94.04 25.67-.09 51.34.08 77.01-6.22.08-12.44-.02-18.66.02-1.62 0-3.16.17-4.67.75-1.71-.99-3.42-.69-5.32-.79-17.67.05-35.33.01-53 .02-2.89.01-5.73.15-8.59-.32-.03-26.21 0-52.47-.02-78.69-.03-3.71.2-7.35-.25-11.04z" fill="#86322e"/><path d="M386.36 285.99c-.8 3.18-1.68 6.35-2.63 9.49-1.65 11.41 1.9 24.26 10.74 32.04 5.96 4.66 13.84 8.29 21.53 7.98 5-.05 10.01.1 15-.11 12.55-1.56 23.09-6.68 34.14-12.4 1.85-.88 2.49.47 2.76 2.07 1.39 5.3 4.27 10.97 8.8 14.26 7.58 6.09 19.77 4.46 26.89-1.6 3.64-2.08 6.04-5.18 8.81-8.21 7.14-.28 13.87.8 20.64-1.49 7.94-2.62 16.24-6.78 21.49-13.47 1.64-1.93 1.26-5.01 4.42-4.82 4.16.31 8.4.47 12.54.93 3.28 2.11 6.17 4.43 9.94 5.71 4.63 1.61 9.66 1.03 14.57 1.14 4.99-.1 10.07.24 15.03-.32 14.72-2.97 28.11-8.42 41.81-14.4 2.73-1.12 4.73-2.75 7.76-1.31 12.62 4.9 26.65 6.2 39.98 4.04 6.35-1.42 13.27-3.1 18.74-6.74 1.51-.58 3.05-.75 4.67-.75 6.22-.04 12.44.06 18.66-.02-.1 13.33.02 26.66-.06 39.99.01 1.7-.11 3.27.41 4.92 3.61.45 7.34.14 11 .21 37.99.07 76.02-.12 114 .1v44.83c-2-.09-4-.16-6-.15-43.99.1-88.02-.15-132 .16-219.33 0-438.67-.01-658 0-1.97-.01-3.94-.09-5.91-.11.19-11.65.03-23.31.08-34.96.1-3.58-.44-6.75.65-10.09 5.38.32 10.79.15 16.18.17 24.63-.14 49.27.12 73.89-.13 11.03.23 22.07.05 33.11.1 3.93-.07 7.94.24 11.82-.24.51-9.27.16-18.55 1.17-27.81.48-3.27-.39-7.83 1.81-10.47 5.48.58 10.59 3.4 16.19 3.11 5.69-.06 11.64.42 17.26-.46 4.3-1.4 8.01.61 11.77-2.31 5.07.03 9.21-2.06 14.07-3.02 5.48-1.15 9.7-4.39 15.01-5.92 3.25-.73 5.73-2.88 9.09-3.4.39.8.68 1.63.85 2.47 2.16 15.87 2.82 31.82 3.17 47.8 4.22.52 8.54.15 12.79.25 10.61-.14 21.3.28 31.89-.21.52-3.54.14-7.26.14-10.84-.56-13.24-1.53-26.29-3.55-39.39-.2-1.03-.08-2.08.38-3.14 2.48-.09 4.66 1.09 7.1 1.07 7.67 0 15.35.09 23.01-.03 5.89-1.27 11.76-1.81 17.21-4.54 1.59-.47 4.6-2.79 5.18.02z" fill="#e4e0d1"/><path d="M47.81 312.45c2.06 3.05 2.61 7.11 4.01 10.54 1.32 3.89 3.71 6.76 5.89 10.17 1.96 3.19 5.63 5.39 8.97 6.89.06.95.1 1.91.14 2.86-1.09 3.34-.55 6.51-.65 10.09-.05 11.65.11 23.31-.08 34.96-22.02.12-44.07.21-66.09-.05v-56.65c4.96-.31 9.23-1.94 13.91-3.12 6.97-2.67 13.97-4.93 20.55-8.53 4.68-2.03 8.63-5.22 13.35-7.16z" fill="#cbcbcb"/><path d="M0 387.91c22.02.26 44.07.17 66.09.05 1.97.02 3.94.1 5.91.11 219.33-.01 438.67 0 658 0 43.98-.31 88.01-.06 132-.16 2-.01 4 .06 6 .15V390H0v-2.09z" fill="#fff"/></svg>