<svg viewBox="0 0 882 374" height="374pt" width="1176" xmlns="http://www.w3.org/2000/svg"><path d="M0 0h882v24.31c-1.57-1.36-3.26-2.54-4.53-4.16-.47-2.11.42-3.75 1.05-5.69-13.25-2.36-26.96-2.47-40.36-3.5-2.33-.07-4.32-.63-6.37.82-6.02 3.93-12.26 7.46-18.96 10.11-6.4 2.54-12.87 3.55-19.03 6.81-6.64 3.56-13.55 7.77-20.67 10.35-4.46 1.43-8.8 2.87-12.91 5.17-8.98 4.39-17.38 9.56-25.26 15.71-2.27 1.63-3.97 3.49-6.96 3.59-10.94 1.2-22.21 2.15-32.96 4.84-2.99.74-5.81 1.49-8.29 3.42-5.15 3.8-7.91 9.2-11.87 14.13-2.95 3.79-6.63 6.73-9.69 10.4-3.16 3.8-6.02 7.92-9.36 11.57-3.48 3.72-8.84 5.22-11.92 9.08-1.76 2.32-2.81 5.27-3.89 7.95-2.97 6.72-3.54 13.68-2.21 20.88-71.61.02-143.21-.01-214.81.01-3.88-.02-7.87.25-11.71-.26-.69-2.28-.82-4.76-1.23-7.1-2.17-6.11-5.78-11.14-9.55-16.3-1.25-8.18 1.24-15.27 1.97-23.18-.65-6.21-4.57-12.56-7.25-18.14-2.53-5.28-2.71-11.04-3.51-16.79-.47-5.99-.78-12-1.1-18-.09-2.47-1.45-4.74-2.5-6.95-1.59-2.97-2.51-5.82-5.54-7.66-6.22-4.13-12.41-8.58-19.15-11.82-5.38-2.68-11.43-2.51-17.45-3.29-7.15-1.28-14.9.82-20.86 4.85-2.16 1.42-4.54 2.09-7.11 2.27-14.34 1.12-28.73 2.35-43 4.17-10.7 1.35-21.33 3.66-31.96 5.49-5.61.8-11.38 1.3-16.59-1.43-6.7-3.68-12.62-8.9-18.94-13.14-6.37-3.23-14.51-4.18-21.53-5.14-12.62-1.77-25.3-3.12-37.98-4.39-3.52-.32-7.66-1.15-11.02.05-4.42 1.35-8.79 3.59-12.14 6.82-4.28 4.16-6.32 10.38-10.25 14.7-3.01 1.44-6.27 2.03-9.16 3.84-3.66 2.28-7.1 4.91-10.6 7.41-5.35 3.87-9.01 8.62-13.81 13.22-4.67 4.75-9.84 8.83-15.01 13-1.54 1.16-3.08 2.53-5.03 2.9-5.64 1.13-11.24 1.5-16.78 3.28-7.02 2.02-13.44 6.34-18.86 11.15-4.37 3.7-5.9 9.16-10.48 12.44-1.82 1.52-4.79 3.08-5.15 5.63-.98 6.83-1.37 13.68-1.54 20.57-.76 7.38-.36 14.72-.48 22.11-2.57-.15-5.13-.29-7.7-.42V0z" fill="#fff"/><path d="M148.01 8.99c12.68 1.27 25.36 2.62 37.98 4.39 7.02.96 15.16 1.91 21.53 5.14 6.32 4.24 12.24 9.46 18.94 13.14 5.21 2.73 10.98 2.23 16.59 1.43 10.63-1.83 21.26-4.14 31.96-5.49 14.27-1.82 28.66-3.05 43-4.17 2.57-.18 4.95-.85 7.11-2.27 5.96-4.03 13.71-6.13 20.86-4.85 6.02.78 12.07.61 17.45 3.29 6.74 3.24 12.93 7.69 19.15 11.82 3.03 1.84 3.95 4.69 5.54 7.66 1.05 2.21 2.41 4.48 2.5 6.95.32 6 .63 12.01 1.1 18 .8 5.75.98 11.51 3.51 16.79 2.68 5.58 6.6 11.93 7.25 18.14-.73 7.91-3.22 15-1.97 23.18 3.77 5.16 7.38 10.19 9.55 16.3 1.12 15.53 2.33 31.14 4.66 46.54.86 5.8 3.55 10.56 8.12 14.21 3.87 3.25 8.68 3.16 12.68 6.27 1.76 1.37 4.45 3.33 4.71 5.7.79 8.36-.09 16.58-1.79 24.76-.61 2.73-1.26 6.2-3.21 8.3-1.92 1.86-5.01 2.7-7.46 3.62-4.18 1.39-8.16 3.24-12.29 4.74-5.79 2.08-11.5 2.49-17.5 3.53-5.44.87-10.38 2.43-15.98 2.36-9.81-.07-19.63-.79-29.42-1.45-5.04-.6-10.55-.75-15.4-2.31-1.92-.49-2.56-1.96-3.73-3.38-1.97.74-3.93 1.47-5.9 2.22-1.42 2.17-2.87 4.31-4.39 6.41-4.37 2.15-7.96 5.4-11.01 9.15-2.29 2.92-3.85 7.05-6.98 9.09-2.93 1.93-6.29 3.26-9.61 4.35-3.82 1.26-7.63.79-11.58.6-9.79-.77-20.37-.67-30.01-2.43-1.87-.4-4.8-1.08-5.8-2.89-1.08-2.8-1.03-6.63-3.01-8.95-1.94-2.31-5.05-3.87-7.55-5.52-7.17-4.7-13.61-10.6-20.91-15.08-6.19-4.06-15.01-4.11-21.47-7.49-3.86-3.82-5.52-9.85-9.16-13.85-2.27-1.75-5.28-2.78-8.09-3.24-2.59.18-5.19 1.15-7.69 1.85.58.49 1.16.97 1.74 1.46-3.71 8.24-10.79 10.61-17.81 15.23-5.79 4.11-11.46 7.72-15.9 13.06-1.9 1.63-3.63 3.02-6.3 2.82-8.34-.33-16.69-1.1-25.03-1.62-4.28-.37-9.21-.61-13.15-2.41-3.46-1.68-6.54-4.36-9.43-6.87-1.2-1.08-2.38-2.18-3.57-3.28.7-3.48 1.63-6.75 2.86-10.07-1.47.84-2.95 1.67-4.43 2.5.02 2.52.17 4.7 1.41 6.96-1.16 3.84-2.23 8.4-4.77 11.58-2.28 2.19-5.97 3.12-8.92 4.08-7.69 2.11-15.1 4.86-23.02 6.12-5.4.93-10.71 3.27-13.29 8.41-2.46 4.23-2.68 8.69-3.81 13.31-2.67 6.92-8.59 10.57-15.36 12.81-3.84 1.61-7.51 1.01-11.51.67v-108.3c1.6-2.83 3.46-5.39 4.52-8.51 3.56-12.62 2.97-24.47 3.18-37.39.12-7.39-.28-14.73.48-22.11.17-6.89.56-13.74 1.54-20.57.36-2.55 3.33-4.11 5.15-5.63 4.58-3.28 6.11-8.74 10.48-12.44 5.42-4.81 11.84-9.13 18.86-11.15 5.54-1.78 11.14-2.15 16.78-3.28 1.95-.37 3.49-1.74 5.03-2.9 5.17-4.17 10.34-8.25 15.01-13 4.8-4.6 8.46-9.35 13.81-13.22 3.5-2.5 6.94-5.13 10.6-7.41 2.89-1.81 6.15-2.4 9.16-3.84 3.93-4.32 5.97-10.54 10.25-14.7 3.35-3.23 7.72-5.47 12.14-6.82 3.36-1.2 7.5-.37 11.02-.05zM838.16 10.96c13.4 1.03 27.11 1.14 40.36 3.5-.63 1.94-1.52 3.58-1.05 5.69 1.27 1.62 2.96 2.8 4.53 4.16V363c-1.86-3.17-4.52-5.38-7.05-7.96-2.1-2-2.59-4.46-3.56-7.1-1.65-5.17-4.28-10.34-8.03-14.31-2.81-2.9-6.78-3.94-8.67-7.31-3.23-9.22-3.66-18.92-6.62-28.19-1.5-5.06-1.99-9.81-4.78-14.36-2.39-3.87-5.01-7.6-7.49-11.42-2.24-3.16-4.89-6.9-8.34-8.8-4.5-2.5-9.98-3.01-14.73-5.26-2.47-1.14-4.59-2.71-6.87-4.17-2.66-1.82-6.03-1.95-9.08-2.98-2.93-.96-4.94-4.13-7.83-4.97-3.72-.48-7.53 2.03-10.9 3.37-2.18.55-4.22 1.45-6.45.6-4.6-1.74-9-3.98-13.63-5.69-.76-.31-1.53-.61-2.29-.93-3.08 4.69-5.68 9.62-8.94 14.18-1.08 1.56-2.23 3.15-3.07 4.84-2.1 4.4-1.98 9.31-4.55 13.53a47.882 47.882 0 0 1-15.57 15.48c-4.33 2.51-5.2 6.87-8.9 10.1-4.35 3.76-9.37 6.93-14.5 9.52-5.24 2.67-10.45 2.5-16.14 2.97-12.01.61-24 1.39-36.02 1.68-4.91.18-10.08-2.39-14.54-4.26-5.32-2.28-9.03-6.15-13.71-9.32-2.7-1.88-5.63-2.42-8.76-3.17-5.08-1.1-9.86-3.11-14.99-4.08-9-1.77-18.1-3.05-27.2-4.15-11.91-1.02-23.87-1.59-35.8-2.41 1.02-5.22 2.36-10.43 4.15-15.44 1.48-4.21 4.51-8.09 7.36-11.49 5.92-6.76 12.62-12.87 19.86-18.18 2.39-1.76 4.97-3.09 7.81-3.96 6.02-1.86 12.06-3.39 18.33-4.15 14.13-1.77 28.34-3 42.53-4.09 5.65-.57 11.39-1.33 16.99-2.22 4.21-.65 7.43-2.72 11.18-4.57 6.94-3.47 13.83-7 20.85-10.29 5.86-2.88 11.55-6.14 16.03-10.97 2.36-2.53 5.39-4.7 7.31-7.57 1.38-3.35-.64-5.82-2.34-8.51-3.01-4.28-5.92-8.73-9.39-12.67-1.52-1.82-4.06-2.13-6.2-2.95-4.86-1.49-8.02-5.41-12.96-6.9-11.56-3.49-22.36-2.76-34.09-3.69-2.26-11.52-3.4-24.4-.39-35.87 1.08-2.68 2.13-5.63 3.89-7.95 3.08-3.86 8.44-5.36 11.92-9.08 3.34-3.65 6.2-7.77 9.36-11.57 3.06-3.67 6.74-6.61 9.69-10.4 3.96-4.93 6.72-10.33 11.87-14.13 2.48-1.93 5.3-2.68 8.29-3.42 10.75-2.69 22.02-3.64 32.96-4.84 2.99-.1 4.69-1.96 6.96-3.59 7.88-6.15 16.28-11.32 25.26-15.71 4.11-2.3 8.45-3.74 12.91-5.17 7.12-2.58 14.03-6.79 20.67-10.35 6.16-3.26 12.63-4.27 19.03-6.81 6.7-2.65 12.94-6.18 18.96-10.11 2.05-1.45 4.04-.89 6.37-.82z" fill="#2a6818"/><path d="M640.02 124.91c-3.01 11.47-1.87 24.35.39 35.87 11.73.93 22.53.2 34.09 3.69 4.94 1.49 8.1 5.41 12.96 6.9 2.14.82 4.68 1.13 6.2 2.95 3.47 3.94 6.38 8.39 9.39 12.67 1.7 2.69 3.72 5.16 2.34 8.51-1.92 2.87-4.95 5.04-7.31 7.57-4.48 4.83-10.17 8.09-16.03 10.97-7.02 3.29-13.91 6.82-20.85 10.29-3.75 1.85-6.97 3.92-11.18 4.57-5.6.89-11.34 1.65-16.99 2.22-14.19 1.09-28.4 2.32-42.53 4.09-6.27.76-12.31 2.29-18.33 4.15-2.84.87-5.42 2.2-7.81 3.96-7.24 5.31-13.94 11.42-19.86 18.18-2.85 3.4-5.88 7.28-7.36 11.49-1.79 5.01-3.13 10.22-4.15 15.44 11.93.82 23.89 1.39 35.8 2.41 9.1 1.1 18.2 2.38 27.2 4.15 5.13.97 9.91 2.98 14.99 4.08 3.13.75 6.06 1.29 8.76 3.17 4.68 3.17 8.39 7.04 13.71 9.32 4.46 1.87 9.63 4.44 14.54 4.26 12.02-.29 24.01-1.07 36.02-1.68 5.69-.47 10.9-.3 16.14-2.97 5.13-2.59 10.15-5.76 14.5-9.52 3.7-3.23 4.57-7.59 8.9-10.1a47.882 47.882 0 0 0 15.57-15.48c2.57-4.22 2.45-9.13 4.55-13.53.84-1.69 1.99-3.28 3.07-4.84 3.26-4.56 5.86-9.49 8.94-14.18.76.32 1.53.62 2.29.93-.8 16.83-.35 33.71-.9 50.55-1.08 11.7.14 24.38-2.63 35.79-3.35 8.74-6.87 17.17-8.63 26.44-.58 4.66-.67 9.29.83 13.78-2.88-.01-5.76.11-8.64.13-83.46-.01-166.93 0-250.39 0 .01-35.38-.01-70.76.01-106.14-.05-3.66.27-7.47-.32-11.09-2.17-9.41-10.35-17.43-20.28-17.71-9.5-.24-19.08.27-28.58-.28 1.7-8.18 2.58-16.4 1.79-24.76-.26-2.37-2.95-4.33-4.71-5.7-4-3.11-8.81-3.02-12.68-6.27-4.57-3.65-7.26-8.41-8.12-14.21-2.33-15.4-3.54-31.01-4.66-46.54.41 2.34.54 4.82 1.23 7.1 3.84.51 7.83.24 11.71.26 71.6-.02 143.2.01 214.81-.01-1.33-7.2-.76-14.16 2.21-20.88zM0 145.69c2.57.13 5.13.27 7.7.42-.21 12.92.38 24.77-3.18 37.39-1.06 3.12-2.92 5.68-4.52 8.51v-46.32zM177.98 223.7c2.81.46 5.82 1.49 8.09 3.24 3.64 4 5.3 10.03 9.16 13.85 6.46 3.38 15.28 3.43 21.47 7.49 7.3 4.48 13.74 10.38 20.91 15.08 2.5 1.65 5.61 3.21 7.55 5.52 1.98 2.32 1.93 6.15 3.01 8.95 1 1.81 3.93 2.49 5.8 2.89 9.64 1.76 20.22 1.66 30.01 2.43 3.95.19 7.76.66 11.58-.6 3.32-1.09 6.68-2.42 9.61-4.35 3.13-2.04 4.69-6.17 6.98-9.09 3.05-3.75 6.64-7 11.01-9.15 1.52-2.1 2.97-4.24 4.39-6.41 1.97-.75 3.93-1.48 5.9-2.22 1.17 1.42 1.81 2.89 3.73 3.38 4.85 1.56 10.36 1.71 15.4 2.31-.01 38.04-.05 76.08.02 114.11-68.53.01-137.07 0-205.6.01-5.33.1-10.6.06-15.9-.56 8.64-2.05 17.53-2.93 26.26-4.55-.7-10.66-.85-21.35-1.8-31.99-.33-4.66-.25-9.9-1.55-14.4-1.07-3.25-3.79-6.16-5.53-9.12-2.56-4.26-2.99-9.05-5.64-13.34-2.28-3.75-4.91-6.54-5.34-11.17-.51-10.12 1.22-20.5.82-30.71 4.44-5.34 10.11-8.95 15.9-13.06 7.02-4.62 14.1-6.99 17.81-15.23-.58-.49-1.16-.97-1.74-1.46 2.5-.7 5.1-1.67 7.69-1.85zM83.7 233.87a66.093 66.093 0 0 0-2.86 10.07c1.19 1.1 2.37 2.2 3.57 3.28.77 9.26 1.05 18.54 1.85 27.79.51 9.5 1.61 18.43.82 28-.53 5.41-2.21 10.56-2.87 15.98-.9 7.33-1.83 14.64-2.06 22.03-.27 7.6-3.13 15.52-2.25 23.02.27 3.04 2.08 4.99 4.16 7.01-28.01.18-56.04.06-84.06.07v-70.81c4 .34 7.67.94 11.51-.67 6.77-2.24 12.69-5.89 15.36-12.81 1.13-4.62 1.35-9.08 3.81-13.31 2.58-5.14 7.89-7.48 13.29-8.41 7.92-1.26 15.33-4.01 23.02-6.12 2.95-.96 6.64-1.89 8.92-4.08 2.54-3.18 3.61-7.74 4.77-11.58-1.24-2.26-1.39-4.44-1.41-6.96 1.48-.83 2.96-1.66 4.43-2.5z" fill="#b5b5b5"/><path d="M438.44 235.92c9.5.55 19.08.04 28.58.28 9.93.28 18.11 8.3 20.28 17.71.59 3.62.27 7.43.32 11.09-.02 35.38 0 70.76-.01 106.14-45-.01-90 0-135.01-.01-.07-38.03-.03-76.07-.02-114.11 9.79.66 19.61 1.38 29.42 1.45 5.6.07 10.54-1.49 15.98-2.36 6-1.04 11.71-1.45 17.5-3.53 4.13-1.5 8.11-3.35 12.29-4.74 2.45-.92 5.54-1.76 7.46-3.62 1.95-2.1 2.6-5.57 3.21-8.3zM757.97 244.45c4.63 1.71 9.03 3.95 13.63 5.69 2.23.85 4.27-.05 6.45-.6 5.04.52 9.97 2.78 14.52 4.9 5.24 2.47 8.72 7.06 10.84 12.34 2.17 5.54 3.58 11.42 4.87 17.21 2.71 12.61 4.97 25.02 5.38 37.94.98 8.68.52 17.38 1.31 26.07.49 5.97.45 12.06.52 18.05-16.57 1.43-33.18 2.75-49.71 4.51-6.4.05-12.74.65-19.14.45-1.5-4.49-1.41-9.12-.83-13.78 1.76-9.27 5.28-17.7 8.63-26.44 2.77-11.41 1.55-24.09 2.63-35.79.55-16.84.1-33.72.9-50.55z" fill="#684341"/><path d="M788.95 246.17c2.89.84 4.9 4.01 7.83 4.97 3.05 1.03 6.42 1.16 9.08 2.98 2.28 1.46 4.4 3.03 6.87 4.17 4.75 2.25 10.23 2.76 14.73 5.26 3.45 1.9 6.1 5.64 8.34 8.8-.58 17.89 0 35.83-.3 53.73 6.41.57 12.78.29 19.19.24 1.89 3.37 5.86 4.41 8.67 7.31 3.75 3.97 6.38 9.14 8.03 14.31.97 2.64 1.46 5.1 3.56 7.1 2.53 2.58 5.19 4.79 7.05 7.96v7.67c-17.66.15-35.37-.42-53 .47-17.67.01-35.34-.04-53 .02-3.42.02-6.81-.32-10.22-.6 16.53-1.76 33.14-3.08 49.71-4.51-.07-5.99-.03-12.08-.52-18.05-.79-8.69-.33-17.39-1.31-26.07-.41-12.92-2.67-25.33-5.38-37.94-1.29-5.79-2.7-11.67-4.87-17.21-2.12-5.28-5.6-9.87-10.84-12.34-4.55-2.12-9.48-4.38-14.52-4.9 3.37-1.34 7.18-3.85 10.9-3.37z" fill="#b5b5b5"/><path d="M84.41 247.22c2.89 2.51 5.97 5.19 9.43 6.87 3.94 1.8 8.87 2.04 13.15 2.41 8.34.52 16.69 1.29 25.03 1.62 2.67.2 4.4-1.19 6.3-2.82.4 10.21-1.33 20.59-.82 30.71.43 4.63 3.06 7.42 5.34 11.17 2.65 4.29 3.08 9.08 5.64 13.34 1.74 2.96 4.46 5.87 5.53 9.12 1.3 4.5 1.22 9.74 1.55 14.4.95 10.64 1.1 21.33 1.8 31.99-8.73 1.62-17.62 2.5-26.26 4.55-8.4.58-16.7 1.95-25.13 2.2-7.38.69-14.76.39-21.91-1.73-2.08-2.02-3.89-3.97-4.16-7.01-.88-7.5 1.98-15.42 2.25-23.02.23-7.39 1.16-14.7 2.06-22.03.66-5.42 2.34-10.57 2.87-15.98.79-9.57-.31-18.5-.82-28-.8-9.25-1.08-18.53-1.85-27.79z" fill="#684341"/><path d="M835.8 272.35c2.48 3.82 5.1 7.55 7.49 11.42 2.79 4.55 3.28 9.3 4.78 14.36 2.96 9.27 3.39 18.97 6.62 28.19-6.41.05-12.78.33-19.19-.24.3-17.9-.28-35.84.3-53.73zM0 371.12c28.02-.01 56.05.11 84.06-.07 7.15 2.12 14.53 2.42 21.91 1.73 8.43-.25 16.73-1.62 25.13-2.2 5.3.62 10.57.66 15.9.56 68.53-.01 137.07 0 205.6-.01 45.01.01 90.01 0 135.01.01 83.46 0 166.93-.01 250.39 0 2.88-.02 5.76-.14 8.64-.13 6.4.2 12.74-.4 19.14-.45 3.41.28 6.8.62 10.22.6 17.66-.06 35.33-.01 53-.02 17.63-.89 35.34-.32 53-.47V374H0v-2.88z" fill="#fff"/></svg>