<svg viewBox="0 0 490 212" height="212pt" width="490pt" xmlns="http://www.w3.org/2000/svg"><path d="M0 0h490v46.21c-5.76-.11-11.27.16-17 .67-16.66-.01-33.34-.01-50-.01-14.99.42-30 .65-45 .65H245c-18.67.04-37.34-.05-56-.64-62.99-.01-126.01-.02-189 0V0z" fill="#333233"/><path d="M404.32 23.52c-.01 6.27-.03 12.53-.01 18.8-65.88.06-131.77-.03-197.64.04-.01-6.3.01-12.6-.04-18.9 65.89.02 131.81-.1 197.69.06z" fill="#fff"/><path d="M490 46.21V212H0V46.88c62.99-.02 126.01-.01 189 0 18.66.59 37.33.68 56 .64h133c15 0 30.01-.23 45-.65 16.66 0 33.34 0 50 .01 5.73-.51 11.24-.78 17-.67z" fill="#6b6b6b"/><path d="M247.52 93.28c5.07-.73 10.36-.28 15.48-.38 17.43.13 34.9-.28 52.32.21.18 3.3.29 6.58.19 9.89-.02 29.67 0 59.33-.01 89-.03 5.42.14 10.83-.14 16.24-17.45.3-34.91.04-52.36.13-5.28-.13-10.45.39-15.6-.39.16-38-.08-76.76.12-114.7z" fill="#919191"/></svg>