<svg viewBox="0 0 770 330" height="440" width="770pt" xmlns="http://www.w3.org/2000/svg"><path d="M0 0h1.52c-.32 3.33-.25 6.66-.23 10-.01 57.62.01 115.25 0 172.87L0 182.86V0z" fill="#cbcbcb"/><path d="M1.52 0H770v2.72c-250.66.02-501.33 0-752 .01a277 277 0 0 1-9.56-.08c-.41 12.01-.06 24.07-.17 36.1 2.34 0 4.68.01 7.02.01.01 3 .01 5.99 0 8.98-2.34-.05-4.66-.05-6.98.27-.13 28.65-.02 57.34-.05 85.99-.54 7.23-.95 14.65-.14 21.87.32 8.95.09 17.96.11 26.93-2.31.01-4.63.07-6.94.07.01-57.62-.01-115.25 0-172.87-.02-3.34-.09-6.67.23-10z"/><path d="M8.44 2.65a277 277 0 0 0 9.56.08c250.67-.01 501.34.01 752-.01v36.03c-1.1.01-2.19.02-3.29.02-250.47-.02-500.95 0-751.42-.01-2.34 0-4.68-.01-7.02-.01.11-12.03-.24-24.09.17-36.1z" fill="#efd745"/><path d="M15.29 38.76c250.47.01 500.95-.01 751.42.01-.01 2.99-.01 5.97.01 8.95-250.46.07-500.96.04-751.43.02.01-2.99.01-5.98 0-8.98z" fill="#cbcbcb"/><path d="M766.71 38.77c1.1 0 2.19-.01 3.29-.02v8.95c-1.09.01-2.19.01-3.28.02-.02-2.98-.02-5.96-.01-8.95z"/><path d="M8.31 48.01c2.32-.32 4.64-.32 6.98-.27 250.47.02 500.97.05 751.43-.02 1.09-.01 2.19-.01 3.28-.02v108.2c-4.67-.11-9.33-.06-14-.07-249.27.03-498.63-.05-747.88.04-.81-7.22-.4-14.64.14-21.87.03-28.65-.08-57.34.05-85.99z" fill="#149318"/><path d="M401.21 61.3c10.61-2.11 21.81-.43 30.94 5.52 11.9 7.19 19.4 21.34 19.28 35.18-.07 15.03-8.73 29.57-22.2 36.38-16.65 9-38.79 4.85-50.84-9.81-12.31-13.89-13.26-35.58-2.36-50.57 5.76-8.55 15.16-14.54 25.18-16.7z" fill="#efd745"/><path d="M195.04 64.3c3.22 8.78 7.37 17.23 10.81 25.94-29.68 12.82-59.57 25.3-89.17 38.27-4.15-8.69-7.84-17.72-11.48-26.64 27.57-11.62 55.04-23.52 82.58-35.23 2.48-.97 4.55-2.47 7.26-2.34z" fill="#fff"/><path d="M8.12 155.87c249.25-.09 498.61-.01 747.88-.04 4.67.01 9.33-.04 14 .07v28.69c-3.02-.22-3.05.77-3.25 3.38-.02 38.01 0 76.02-.01 114.03.03 2.99.09 5.96-.17 8.94-.09-37.24-.01-74.68-.04-111.94-.07-4.76.4-9.37-.51-14.09-3.34-.28-6.67-.29-10.02-.22-19.86.01-39.73 0-59.59 0-19.24 0-38.49-.04-57.73.02-8.6.12-17.26-.34-25.84.24-.47 4.35-.22 8.68-.25 13.05.01 37.62-.04 75.24.03 112.86-.01 2.43-.05 4.85-.08 7.28-9.18-.01-18.36 0-27.54-.01-3.52-.03-6.92.29-10.39-.48.04-2.23.07-4.46.06-6.7.05-10.24.04-20.49.02-30.73.03-30.75-.02-61.5.03-92.24-.25-1.46.65-3.55-1.66-3.31-31.45.03-63.06-.01-94.48.03-13.87-.03-27.72.03-41.58-.04-1.53.01-3.04.22-4.54.52-.06 41.94-.01 84.03-.02 125.98-.01 2.29 0 4.57.04 6.86-12.6.17-25.35.24-37.94-.04.01-2.31.02-4.62.01-6.93.04-41.98-.01-83.95.03-125.93-3.86-.7-7.68-.41-11.58-.43h-34.58c-16.12-.03-32.34.02-48.46-.03-.87.04-1.74.15-2.61.35-.03 43.73 0 87.49-.01 131.23l-.02 1.88c-12.6-.08-25.26.23-37.85-.15l-.04-1.75c.01-43.84.08-87.7-.04-131.54-8.68 0-17.35 0-26.03.01-8.64.24-17.43-.49-26.01.37-.1 41.92-.09 83.89-.01 125.81 0 2.43-.04 4.87-.06 7.3-12.63-.14-25.26.1-37.88-.12-.01-2.39-.03-4.79-.04-7.18.06-36.62.01-73.25.02-109.87-.05-5.4.17-10.78-.16-16.17-4.21-.24-8.38-.22-12.6-.04-.39 4.74-.17 9.46-.2 14.21-.03 26.78.04 53.68-.03 80.44l-.94.64c.07-31.8.1-63.6-.01-95.4-19.05.01-38.09-.01-57.14.01H39c-3.96.03-7.78-.25-11.72.34-.12 41.92-.09 83.91-.01 125.83-.01 2.24 0 4.46.05 6.69-3.24 1.04-6.84.46-10.32.58-5.32.1-10.67-.23-15.97.21L0 318.6V182.86l1.29.01c2.31 0 4.63-.06 6.94-.07-.02-8.97.21-17.98-.11-26.93z" fill="#c0a090"/><path d="M27.28 185.03c3.94-.59 7.76-.31 11.72-.34h59.3c.01 31.78-.02 63.55.01 95.33 19.04.23 38.1.11 57.14.06l.94-.64c.07-26.76 0-53.66.03-80.44.03-4.75-.19-9.47.2-14.21 4.22-.18 8.39-.2 12.6.04.33 5.39.11 10.77.16 16.17-.01 36.62.04 73.25-.02 109.87-47.37-.01-94.73 0-142.09-.01-.08-41.92-.11-83.91.01-125.83z" fill="#cbcbcb"/><path d="M98.3 184.69c19.05-.02 38.09 0 57.14-.01.11 31.8.08 63.6.01 95.4-19.04.05-38.1.17-57.14-.06-.03-31.78 0-63.55-.01-95.33z" fill="#515151"/><path d="M207.35 185.06c8.58-.86 17.37-.13 26.01-.37.01 42.12.04 84.25-.02 126.38-8.64-.46-17.34-.08-26-.2-.08-41.92-.09-83.89.01-125.81z" fill="#cbcbcb"/><path d="M233.36 184.69c8.68-.01 17.35-.01 26.03-.01.12 43.84.05 87.7.04 131.54-8.69-.04-17.41.25-26.08-.14-.01-1.67-.01-3.34-.01-5.01.06-42.13.03-84.26.02-126.38zM297.35 185.01c.87-.2 1.74-.31 2.61-.35 16.12.05 32.34 0 48.46.03.09 42.06-.02 84.11.05 126.16-.01 1.8-.03 3.6-.07 5.4-17.02 0-34.04.02-51.06-.01.01-43.74-.02-87.5.01-131.23z" fill="#515151"/><path d="M348.42 184.69H383c3.9.02 7.72-.27 11.58.43-.04 41.98.01 83.95-.03 125.93-15.33-.43-30.73-.05-46.08-.2-.07-42.05.04-84.1-.05-126.16zM432.46 185.18c1.5-.3 3.01-.51 4.54-.52 13.86.07 27.71.01 41.58.04-.08 31.83-.03 63.67-.03 95.51 32.05.06 64.1.04 96.14.01.02 10.24.03 20.49-.02 30.73-45.19-.22-90.47.01-135.67-.11-2.19-.02-4.37.15-6.56.32.01-41.95-.04-84.04.02-125.98z" fill="#cbcbcb"/><path d="M478.58 184.7c31.42-.04 63.03 0 94.48-.03 2.31-.24 1.41 1.85 1.66 3.31-.05 30.74 0 61.49-.03 92.24-32.04.03-64.09.05-96.14-.01 0-31.84-.05-63.68.03-95.51z" fill="#515151"/><path d="M612.84 184.95c8.58-.58 17.24-.12 25.84-.24-.03 31.82-.05 63.64.01 95.46 19.24.14 38.49.06 57.74.04.01-31.84.05-63.68-.02-95.52 19.86 0 39.73.01 59.59 0 3.35-.07 6.68-.06 10.02.22.91 4.72.44 9.33.51 14.09.03 37.26-.05 74.7.04 111.94-51.3-.17-102.65-.02-153.95-.08-.07-37.62-.02-75.24-.03-112.86.03-4.37-.22-8.7.25-13.05z" fill="#cbcbcb"/><path d="M638.68 184.71c19.24-.06 38.49-.02 57.73-.02.07 31.84.03 63.68.02 95.52-19.25.02-38.5.1-57.74-.04-.06-31.82-.04-63.64-.01-95.46z" fill="#515151"/><path d="M770 184.59v140.58c-252 .01-504-.01-756 .01-3.46-.08-8.5.6-11.06-2.25-1.42-1.27-1.53-2.83-1.91-4.59 5.3-.44 10.65-.11 15.97-.21 3.48-.12 7.08.46 10.32-.58-.05-2.23-.06-4.45-.05-6.69 47.36.01 94.72 0 142.09.01.01 2.39.03 4.79.04 7.18 12.62.22 25.25-.02 37.88.12.02-2.43.06-4.87.06-7.3 8.66.12 17.36-.26 26 .2 0 1.67 0 3.34.01 5.01 8.67.39 17.39.1 26.08.14l.04 1.75c12.59.38 25.25.07 37.85.15l.02-1.88c17.02.03 34.04.01 51.06.01.04-1.8.06-3.6.07-5.4 15.35.15 30.75-.23 46.08.2.01 2.31 0 4.62-.01 6.93 12.59.28 25.34.21 37.94.04-.04-2.29-.05-4.57-.04-6.86 2.19-.17 4.37-.34 6.56-.32 45.2.12 90.48-.11 135.67.11.01 2.24-.02 4.47-.06 6.7 3.47.77 6.87.45 10.39.48 9.18.01 18.36 0 27.54.01.03-2.43.07-4.85.08-7.28 51.3.06 102.65-.09 153.95.08.26-2.98.2-5.95.17-8.94.01-38.01-.01-76.02.01-114.03.2-2.61.23-3.6 3.25-3.38z"/><path d="M0 318.6l1.03-.26c.38 1.76.49 3.32 1.91 4.59 2.56 2.85 7.6 2.17 11.06 2.25 252-.02 504 0 756-.01V330H0v-11.4z" fill="#fff"/></svg>