<svg viewBox="0 0 546 354" height="472" width="728" xmlns="http://www.w3.org/2000/svg"><path d="M0 0h163.63l1.35 1.08c6.06 5.12 11.17 10.43 19.03 12.84 8.26 2.23 16.86 2.3 25.13 4.65 5.79 1.7 12.62 2.35 17.65 5.62 4.05 2.4 8.91 4.38 11.46 8.55 5.29 7.78 4.52 18.44 2.92 27.24-1.1 6.39-2.33 12.75-3.72 19.09 2.92 3.77 6.94 7.32 8.89 11.69.95 4.99.43 10.5-1.45 15.24-3.99 10.52-10.59 20.51-19.89 27.05-5.29 3.42-11.04 3.09-16.99 1.92-10.41-2.41-19.57-8.65-28.96-12.07-4.76-1.73-9.59-2.03-14.2.33-3.18 1.77-5.68 4.28-7.82 7.2-4.25 5.28-9.12 10.02-14.59 14.04-3.13 2.5-6.45 4.64-10.34 5.78-9.55 2.77-20.43 2.08-29.82 5.13-7.53 2.31-15.01 4.69-22.38 7.49-4.49 1.95-10.04.75-14.95.83-10.2-.31-20.41-.42-30.61-.93-11.45-.43-22.9-.75-34.34-1.37V0z" fill="#0e8436"/><path d="M163.63 0h207.49c.43 10.34 2.35 20.51 2.71 30.85.84 6.04.8 12.07.65 18.15-.17 3.78.75 7.32 1.05 11.07-44.78-.07-89.58.11-134.36-.09 1.6-8.8 2.37-19.46-2.92-27.24-2.55-4.17-7.41-6.15-11.46-8.55-5.03-3.27-11.86-3.92-17.65-5.62-8.27-2.35-16.87-2.42-25.13-4.65-7.86-2.41-12.97-7.72-19.03-12.84L163.63 0z" fill="#cbcbcb"/><path d="M371.12 0h.5c1.09 10.33 2.25 20.64 3.21 31 .1 8.41-.52 16.65.97 24.99 1.48 18.29 4.59 36.27 10.59 53.65 5.02 14.29 8.85 29.14 11.71 44.01-14.03-.13-28.07.03-42.1-.09-1.62-.01-3.22.15-4.82.41-.58 4.36-.36 8.65-.37 13.03-.01 30.33.01 60.67-.01 91-.06 3.71-.02 7.4.3 11.1 2.3.25 4.59.4 6.9.34 14.55-.17 29.12.16 43.66-.17-.01 4.29-.12 8.45.3 12.72.7 6.08.12 11.36 2.97 17.02.98 2.23 4.01 2.2 6.09 2.75 8.57 1.79 16.49 3.23 25.06.39 8.43-3.08 14.22-9.89 18.62-17.44 2.72-4.95 4.78-10.27 6.9-15.5 15.12.44 30.27.08 45.4.19 4.76-.03 9.48.18 14.23-.2.25-3.73.21-7.46.17-11.2v-93c.04-3.73.09-7.45-.19-11.17-10.04-.52-20.15-.08-30.21-.23-8.4.07-16.81-.15-25.21.14-1.67-5.42-3.59-10.77-5.32-16.17-2.05-6.84-3.41-13.87-5.37-20.73-1.62-5.62-4.89-9.73-4.74-15.84-1.1-10.32-.54-20.69-1.57-31-.22-3.28-.16-6.59-.27-9.88 22.16-.14 44.32-.01 66.48-.07 9.91-.27 19.81-.12 29.72-.15-.02 73.26.03 146.89-.03 220.1-.1 1.82.62 3.26 1.31 4.88v1.81c-.95 1.38-1.38 2.82-1.31 4.3.1 8.07-.06 16.14.11 24.2-2.93.22-5.86.22-8.8.17H330c-4.56.05-9.11-.13-13.67.12.35 12.83.07 25.69.16 38.52h-88.1c-.06-12.93.05-25.87-.06-38.8 4.58-.39 9.05-.15 13.67-.2 23.75-.04 47.51.08 71.26-.07.16-3.31.14-6.62.12-9.93-.01-50 0-100-.01-150 .04-3.29.11-6.57-.2-9.85-28.28 0-56.61-.11-84.89.05.01 56.65-.08 113.34.05 170-4.46.32-8.85.11-13.33.16H46c-3.81-.01-7.61-.04-11.42.11-.38-3.83-.18-7.63-.2-11.47-.04-47.08.04-94.16-.04-141.23 10.2.51 20.41.62 30.61.93-.24 4.1-.23 8.2-.19 12.3 0 23-.01 46 0 69 .03 5.09-.16 10.16.18 15.25 5.99.52 12.05.12 18.06.24 25.25-.1 50.53.2 75.78-.16-1.49 14.73-5.06 29.05-7.12 43.67-.33 2.68-.5 6.62 2.72 7.58 5.4.81 11.49-.98 16.73-2.25 4.53-1.28 9.29-2.01 13.68-3.66l.52-.65c-.88-14.91-1.93-29.69-2.89-44.57 6.21-.07 12.48.34 18.66-.22.28-3.74.25-7.48.2-11.23 0-30 .01-60 0-90-.04-4.63.22-9.2-.26-13.82-10.46-.16-20.94-.1-31.4-.02-1.19-7.4-2.59-14.75-4.77-21.93 4.61-2.36 9.44-2.06 14.2-.33 9.39 3.42 18.55 9.66 28.96 12.07 5.95 1.17 11.7 1.5 16.99-1.92 9.3-6.54 15.9-16.53 19.89-27.05 1.88-4.74 2.4-10.25 1.45-15.24-1.95-4.37-5.97-7.92-8.89-11.69 1.39-6.34 2.62-12.7 3.72-19.09 44.78.2 89.58.02 134.36.09-.3-3.75-1.22-7.29-1.05-11.07.15-6.08.19-12.11-.65-18.15-.36-10.34-2.28-20.51-2.71-30.85z" fill="#937477"/><path d="M371.62 0h50.3c8.45 2.02 16.95 3.85 25.35 6.07.14 12.62.35 25.28.51 37.94.58 5.37.63 10.71.74 16.11.11 3.29.05 6.6.27 9.88 1.03 10.31.47 20.68 1.57 31-.15 6.11 3.12 10.22 4.74 15.84 1.96 6.86 3.32 13.89 5.37 20.73 1.73 5.4 3.65 10.75 5.32 16.17 1.74 5.95 2.89 12.06 4.49 18.04 1.28 4.77 3.7 8.33 3.56 13.22-.13 6.71-.13 13.34-.96 20-1.21 15.1-3.18 30.13-6 45.02-1.25 6.56-3.23 12.84-5.28 19.19-2.12 5.23-4.18 10.55-6.9 15.5-4.4 7.55-10.19 14.36-18.62 17.44-8.57 2.84-16.49 1.4-25.06-.39-2.08-.55-5.11-.52-6.09-2.75-2.85-5.66-2.27-10.94-2.97-17.02-.42-4.27-.31-8.43-.3-12.72.11-6.59-.03-13.16.68-19.73.41-9.17.17-18.37.69-27.54.52-8.95.42-18.03.39-27 .19-13.84-2.53-27.84-5.32-41.35-2.86-14.87-6.69-29.72-11.71-44.01-6-17.38-9.11-35.36-10.59-53.65-1.49-8.34-.87-16.58-.97-24.99-.96-10.36-2.12-20.67-3.21-31z" fill="#6c2c38"/><path d="M421.92 0H546v284.88c-.69-1.62-1.41-3.06-1.31-4.88.06-73.21.01-146.84.03-220.1-2.54-11.53-5.78-22.93-8.42-34.44-.15-1.56-2.17-1.24-3.27-1.58-9.81-1.17-19.49-2.71-29.16-4.72-19.03-3.68-37.85-8.21-56.6-13.09-8.4-2.22-16.9-4.05-25.35-6.07z" fill="#0e8436"/><path d="M447.27 6.07c18.75 4.88 37.57 9.41 56.6 13.09 9.67 2.01 19.35 3.55 29.16 4.72 1.1.34 3.12.02 3.27 1.58 2.64 11.51 5.88 22.91 8.42 34.44-9.91.03-19.81-.12-29.72.15-22.16.06-44.32-.07-66.48.07-.11-5.4-.16-10.74-.74-16.11-.16-12.66-.37-25.32-.51-37.94z" fill="#cbcbcb"/><path d="M164.85 123.23c2.18 7.18 3.58 14.53 4.77 21.93 1.3 9.2 1.76 18.61 2.5 27.84 1.15 14 2.25 28.01 3.64 41.99.49 5.13 1.77 10.06 3.02 15.05 2.54 9.68 2.33 20.4 3.64 30.41.96 14.88 2.01 29.66 2.89 44.57l-.52.65c-4.39 1.65-9.15 2.38-13.68 3.66-5.24 1.27-11.33 3.06-16.73 2.25-3.22-.96-3.05-4.9-2.72-7.58 2.06-14.62 5.63-28.94 7.12-43.67 4.82-38.18 5.2-77.2-.1-115.35-.57-4.85-1.08-9.71-1.65-14.55 2.14-2.92 4.64-5.43 7.82-7.2z" fill="#6c2c38"/><path d="M157.03 130.43c.57 4.84 1.08 9.7 1.65 14.55-5.31-.02-11.05.69-16.24-.51 5.47-4.02 10.34-8.76 14.59-14.04z" fill="#937477"/><path d="M142.44 144.47c5.19 1.2 10.93.49 16.24.51 5.3 38.15 4.92 77.17.1 115.35-25.25.36-50.53.06-75.78.16-6.01-.12-12.07.28-18.06-.24-.34-5.09-.15-10.16-.18-15.25-.01-23 0-46 0-69-.04-4.1-.05-8.2.19-12.3 4.91-.08 10.46 1.12 14.95-.83 7.37-2.8 14.85-5.18 22.38-7.49 9.39-3.05 20.27-2.36 29.82-5.13 3.89-1.14 7.21-3.28 10.34-5.78zM169.62 145.16c10.46-.08 20.94-.14 31.4.02.48 4.62.22 9.19.26 13.82.01 30 0 60 0 90 .05 3.75.08 7.49-.2 11.23-6.18.56-12.45.15-18.66.22-1.31-10.01-1.1-20.73-3.64-30.41-1.25-4.99-2.53-9.92-3.02-15.05-1.39-13.98-2.49-27.99-3.64-41.99-.74-9.23-1.2-18.64-2.5-27.84z" fill="#515151"/><path d="M228.28 145.2c28.28-.16 56.61-.05 84.89-.05.31 3.28.24 6.56.2 9.85.01 50 0 100 .01 150 .02 3.31.04 6.62-.12 9.93-23.75.15-47.51.03-71.26.07-4.62.05-9.09-.19-13.67.2-.13-56.66-.04-113.35-.05-170z" fill="#9f170d"/><path d="M351.18 153.97c1.6-.26 3.2-.42 4.82-.41 14.03.12 28.07-.04 42.1.09 2.79 13.51 5.51 27.51 5.32 41.35.03 8.97.13 18.05-.39 27-.52 9.17-.28 18.37-.69 27.54-.71 6.57-.57 13.14-.68 19.73-14.54.33-29.11 0-43.66.17-2.31.06-4.6-.09-6.9-.34-.32-3.7-.36-7.39-.3-11.1.02-30.33 0-60.67.01-91 .01-4.38-.21-8.67.37-13.03zM465.79 153.74c8.4-.29 16.81-.07 25.21-.14 10.06.15 20.17-.29 30.21.23.28 3.72.23 7.44.19 11.17v93c.04 3.74.08 7.47-.17 11.2-4.75.38-9.47.17-14.23.2-15.13-.11-30.28.25-45.4-.19 2.05-6.35 4.03-12.63 5.28-19.19 2.82-14.89 4.79-29.92 6-45.02.83-6.66.83-13.29.96-20 .14-4.89-2.28-8.45-3.56-13.22-1.6-5.98-2.75-12.09-4.49-18.04z" fill="#515151"/><path d="M0 161.4c11.44.62 22.89.94 34.34 1.37.08 47.07 0 94.15.04 141.23.02 3.84-.18 7.64.2 11.47 3.81-.15 7.61-.12 11.42-.11h169c4.48-.05 8.87.16 13.33-.16.11 12.93 0 25.87.06 38.8h-24.02c.07-1.92.3-3.93.02-5.84-.94-3.12-3.01-5.97-5.63-7.92-7.8-5.87-16.57-10.15-25.9-12.97-3.85-1.09-7.28-2.85-11.33-1.86-10.1 2.31-20.63 4.69-30.07 9.06-3.23 1.62-6.92 3.61-7.66 7.5-.49 4.02-.97 8.03-1.61 12.03H97.03c-1.89-4.16-3.64-7.98-7.98-10.1-6.43-3.14-13.25-5.62-20.05-7.82-8.15-2.44-16.88-2.95-24.49 1.42-6.17 3.69-12.01 7.99-18.02 11.96-3.27 1.79-6.86 2.99-10.26 4.54H0V161.4zM546 286.69V354H316.49c-.09-12.83.19-25.69-.16-38.52 4.56-.25 9.11-.07 13.67-.12h206c2.94.05 5.87.05 8.8-.17-.17-8.06-.01-16.13-.11-24.2-.07-1.48.36-2.92 1.31-4.3z" fill="#f1eeec"/><path d="M172.86 327.27c9.33 2.82 18.1 7.1 25.9 12.97 2.62 1.95 4.69 4.8 5.63 7.92.28 1.91.05 3.92-.02 5.84h-82.18c.64-4 1.12-8.01 1.61-12.03.74-3.89 4.43-5.88 7.66-7.5 9.44-4.37 19.97-6.75 30.07-9.06 4.05-.99 7.48.77 11.33 1.86zM69 336.08c6.8 2.2 13.62 4.68 20.05 7.82 4.34 2.12 6.09 5.94 7.98 10.1h-80.8c3.4-1.55 6.99-2.75 10.26-4.54 6.01-3.97 11.85-8.27 18.02-11.96 7.61-4.37 16.34-3.86 24.49-1.42z" fill="#0e8436"/></svg>