<svg viewBox="0 0 718 448" height="448pt" width="718pt" xmlns="http://www.w3.org/2000/svg"><path d="M0 0h718v448H275.65c-.07-82.92-.06-165.96-.01-248.88-3.59-.33-7.04-.46-10.64-.33-49.33.02-98.67.01-148 .01-3.88-.06-7.72-.16-11.58.38-.06 73.19-.01 146.6-.03 219.82-.05 9.67.13 19.34-.1 29H0V0z" fill="#f5f5f5"/><path d="M105.42 199.18c3.86-.54 7.7-.44 11.58-.38 49.33 0 98.67.01 148-.01 3.6-.13 7.05 0 10.64.33-.05 82.92-.06 165.96.01 248.88H105.29c.23-9.66.05-19.33.1-29 .02-73.22-.03-146.63.03-219.82z" fill="#cbcbcb"/></svg>