<svg viewBox="0 0 494 194" height="194pt" width="494pt" xmlns="http://www.w3.org/2000/svg"><path d="M0 0h81.49c-.83 2.8-1.4 6.04-2.92 8.54-3.16 4.57-8.65 5.93-11.65 10.42-2.19 3.18-4.03 6.4-6.98 9-3.9 3.75-8.72 4.94-11.36 10.03-1.73-2.78-3.3-5.7-5.13-8.41-3.74-4.03-8.21-3.25-12.7-5.3-3.36-3.97-1.85-10.98-2.11-15.89-9.56-.38-19.06-1-28.64-.93V0z" fill="#fff"/><path d="M81.49 0h141.2c1.46 3.5 3.51 6.5 5.53 9.67 1.04 3.69 1.09 7.8 1.35 11.61 4.61-3.41 6.28-8.66 11.35-11.42 6.58-4.35 13.88-6.41 21.09-9.37 5.76.08 9.7 3.12 13.95 6.55 3.59 2.99 7.72 4.24 12.05 5.71 1.64 1.76 3.25 3.65 5.11 5.18 2.88 2.23 6.24 2.93 9.78 3.37 5.26.48 10.48 1.18 15.77 1.41 1.59-7.67-.73-14.09 2.84-21.15 3.33-.6 6.65-1.21 10.02-1.56h57.46c4.69.94 9.38 1.83 14.12 2.53 1.72 2.87 2.89 5.64 6.1 7.15 6.18 3.4 12.07 2.74 18.8 3.45 8.53.49 17.32.08 25.86.95 5.54.5 11.16.09 16.68.64 6.08 1.04 12.03 3.08 17.87 5.06 2.34.7 3.99 2.22 5.58 4.01v57.33c-3.52 2.1-6.97 4.05-9.94 6.93-2.37 2.27-4.6 4.45-7.79 5.55-1.34.48-2.69.92-4.01 1.44-3.19 1.15-6.14 2.74-9.15 4.29-4.14.4-8.21.73-12.24 1.8-8.93 2.73-19.33 1.41-28.49.4-5.16-.86-10.41-.82-15.57-1.64-5.01-1.17-10.37-2.29-14.95-4.69-2.9-1.51-3.27-4.09-4.6-6.8-1.03-2.51-2.85-4.17-4.72-6.05-5.13 1.1-10 2.58-14.87 4.55-.05 4.2-.12 8.39-.19 12.59v.4c-.11-4.27-.16-8.54-.18-12.82-5.22 1.51-10.41 3.08-15.5 4.98-3.08 1.01-6.48 2.57-9.74 2.41-5.96-.31-11.63-1.42-17.43-2.76-2.08-.55-4.01-.09-6.05.39-5.86 1.68-11.83 2.14-17.87 2.75l.06 4.87c.07 3.08-.18 6.1-.85 9.1-3.87 1.29-7.8 2.66-11.92 2.7-6.99.18-14-.33-21-.25-3.59.03-7.21 1.21-10.71 2.1l-.91.23c-5.13-.04-10.3.11-15.42-.26-3.89-.28-7.66-1.67-11.54-1.86-4.07.45-8.75 2.45-12.77 1.48-4.57-.82-8.78-2.45-13.23-3.68-.76-1.97-1.28-4.37-2.58-6.06-1.12-.79-2.47-1.3-3.71-1.86-4.39 3.75-9.21 5.72-14.7 7.31-7 .39-13.53-1.01-20.56-1.38-6.29-.83-12.6-1.62-18.89-2.47-7.16-.98-12.42-4.95-19.89-4.44-1.25 1.4-2.43 2.85-3.61 4.3-1.56-.01-3.12-.02-4.67-.08-2.83-.37-5.57-1.13-8.29-1.96-.78-.31-1.57-.6-2.37-.88-1.7-.56-3.28-1.14-5.11-1.02-9.75.71-19.32 2.32-28.51 5.74-6.26 6.9-16.85 9.89-25.8 7.44-3-1.57-5.38-4.66-7.87-6.95-2.65-6.31-2.81-13.97-3.5-20.72-2.74 2.37-5.42 4.7-8.62 6.45-2.21 1.27-4.52 2.34-6.97 3.07C11.18 97.1 5.57 97.94 0 99.58V7.46c9.58-.07 19.08.55 28.64.93.26 4.91-1.25 11.92 2.11 15.89 4.49 2.05 8.96 1.27 12.7 5.3 1.83 2.71 3.4 5.63 5.13 8.41 2.64-5.09 7.46-6.28 11.36-10.03 2.95-2.6 4.79-5.82 6.98-9 3-4.49 8.49-5.85 11.65-10.42 1.52-2.5 2.09-5.74 2.92-8.54z" fill="#254e32"/><path d="M222.69 0h40.57l-1.25.49c-7.21 2.96-14.51 5.02-21.09 9.37-5.07 2.76-6.74 8.01-11.35 11.42-.26-3.81-.31-7.92-1.35-11.61-2.02-3.17-4.07-6.17-5.53-9.67z" fill="#fff"/><path d="M263.26 0h61c-1.95.96-3.77 1.57-4.59 3.78-2.22 5.44-1.6 12.28-1.86 18.08-8.03-.63-17.19-.85-24.69-3.93-1.86-1.53-3.47-3.42-5.11-5.18-4.33-1.47-8.46-2.72-12.05-5.71-4.25-3.43-8.19-6.47-13.95-6.55l1.25-.49z" fill="#fff"/><path d="M324.26 0h7.27c-3.37.35-6.69.96-10.02 1.56-3.57 7.06-1.25 13.48-2.84 21.15-5.29-.23-10.51-.93-15.77-1.41-3.54-.44-6.9-1.14-9.78-3.37 7.5 3.08 16.66 3.3 24.69 3.93.26-5.8-.36-12.64 1.86-18.08.82-2.21 2.64-2.82 4.59-3.78zM388.99 0H494v23.79c-1.59-1.79-3.24-3.31-5.58-4.01-5.84-1.98-11.79-4.02-17.87-5.06-5.52-.55-11.14-.14-16.68-.64-8.54-.87-17.33-.46-25.86-.95-6.73-.71-12.62-.05-18.8-3.45-3.21-1.51-4.38-4.28-6.1-7.15-4.74-.7-9.43-1.59-14.12-2.53z" fill="#fff"/><path d="M494 81.12v27.55c-5.23.01-10.45 0-15.68 0-.01-4.67-.01-9.34.02-14-.69-.36-1.38-.71-2.07-1.07 3.19-1.1 5.42-3.28 7.79-5.55 2.97-2.88 6.42-4.83 9.94-6.93z" fill="#a3968b"/><path d="M382.54 82.35c2.1 5.48 2.64 11.11 2.95 16.93-6.01.36-11.99.48-18.01.21.07-4.2.14-8.39.19-12.59 4.87-1.97 9.74-3.45 14.87-4.55z" fill="#211e1d"/><path d="M382.54 82.35c1.87 1.88 3.69 3.54 4.72 6.05 1.33 2.71 1.7 5.29 4.6 6.8 4.58 2.4 9.94 3.52 14.95 4.69.04 8.39-1.03 16.72-1.15 25.1.12 13.1-1.49 26.42-2.79 39.45-.36 5.89-3.64 9.65-7.66 13.53-.79-.72-1.57-1.45-2.35-2.17.18-5.45-.78-10.73-1.21-16.13-.27-11.66 1.2-22.2-3.71-33.18-1.74-4.6-.85-8.75-1.24-13.51-.32-4.17-.97-8.31-1.32-12.49-5.98-.63-11.89-.91-17.9-.6v-.4c6.02.27 12 .15 18.01-.21-.31-5.82-.85-11.45-2.95-16.93z" fill="#704534"/><path d="M32.36 86.24c.69 6.75.85 14.41 3.5 20.72 2.49 2.29 4.87 5.38 7.87 6.95 8.95 2.45 19.54-.54 25.8-7.44 1.1.72 2.19 1.43 3.29 2.14 8.26.12 16.52.06 24.79.06.03-2.44.07-4.87.13-7.3 1.8.1 3.61.19 5.41.38.8.28 1.59.57 2.37.88 1.05.67 2.09 1.35 3.13 2.04l-.03 3.95c2.67.02 5.34.05 8 .09 2.17 3.41 4.48 6.64 7.37 9.48l-.78 1.36c-4.84.24-9.71.02-14.55.08-.08 14.91-.04 29.82-.03 44.73 17.95-.08 35.88.27 53.82-.03-.02-14.85.06-29.71-.04-44.56-3.76-.12-7.5-.36-11.26-.5l2.11-.95c1-2.32 1.66-4.97 3.05-7.08 1.26-1.54 3.04-2.7 4.56-3.96 7.03.37 13.56 1.77 20.56 1.38 6.94.19 14.14-.52 20.99.61 4.45 1.23 8.66 2.86 13.23 3.68 4.02.97 8.7-1.03 12.77-1.48-2.39 2.58-4.5 5.48-6.67 8.26-16.07-.25-32.14-.01-48.21-.13-.23 14.93-.21 29.89-.02 44.82 27.09-.09 54.17-.04 81.26-.02h.4c6.06 0 12.11-.03 18.16-.06.04-10.78 0-21.56.02-32.34-.01-3.69.29-7.52-.23-11.18-.51-.82-1.18-1.2-2.01-1.14-5.19-.23-10.41.05-15.61-.18l.78-6.14c3.5-.89 7.12-2.07 10.71-2.1 7-.08 14.01.43 21 .25 4.12-.04 8.05-1.41 11.92-2.7 9.55-.36 19.14-.01 28.7-.15-.01-4.89.02-9.78.02-14.68 3.63.31 7.26.63 10.89.91.04 4.59.07 9.18.06 13.77 15.26.06 30.53-.04 45.79.05.29 3.63.55 7.26.87 10.89-15.54.07-31.08-.01-46.63.04-.09 14.9-.04 29.81-.02 44.72 17.18.02 34.37.04 51.56-.02.43 3.85.93 7.67 1.7 11.46.78.72 1.56 1.45 2.35 2.17 4.02-3.88 7.3-7.64 7.66-13.53 2.94-.05 5.88-.09 8.82-.13-.12-14.79.21-29.6-.17-44.39-1.52-.25-3.25-.25-4.68-.84-.45-3.36-.27-6.95-.17-10.35 1.66-.03 3.33-.07 5-.11.01-2.39.02-4.79.04-7.18 3.76.17 7.51.4 11.26.53-1.39 2.81-3.14 5.07-5.44 7.21 4.32.12 8.64.17 12.97.21-.02 3.38-.02 6.76-.01 10.15-2.6.04-5.2.09-7.8.13-.07 14.89-.03 29.79-.02 44.68 2.61.02 5.23.04 7.84.05 9.26 0 18.52.02 27.78-.01 3.02-.02 6.03-.03 9.05-.06.03-10.78-.01-21.55.02-32.33-.02-3.68.3-7.5-.24-11.14l-.9-1.04c-2.59-.36-5.31-.25-7.93-.23.01-3.39.01-6.79-.02-10.18 4.72-.08 9.45-.13 14.17-.17-1.69-1.65-3.34-3.33-4.92-5.09-.06-2.02-.11-4.05-.13-6.07 1.6-1.05 3.19-2.12 4.87-3.04 1.32-.52 2.67-.96 4.01-1.44.69.36 1.38.71 2.07 1.07-.03 4.66-.03 9.33-.02 14 5.23 0 10.45.01 15.68 0v10.96c-5.18.04-10.37-.14-15.54.07-.36 14.86-.02 29.75-.16 44.62 5.23.05 10.47.1 15.7.04v27.97c-164.66-.01-329.34.04-494-.03v-27.92c7.9-.02 15.8.04 23.7-.05-.11-14.92.19-29.84-.16-44.75-7.85.08-15.69.04-23.54.05v-10.95c7.89-.01 15.79 0 23.68-.01 0-5.33.02-10.65.06-15.98 3.2-1.75 5.88-4.08 8.62-6.45z" fill="#f8e4d1"/><path d="M367.3 87.07c.02 4.28.07 8.55.18 12.82 6.01-.31 11.92-.03 17.9.6.35 4.18 1 8.32 1.32 12.49.39 4.76-.5 8.91 1.24 13.51-6.84-.01-13.67 0-20.51-.01-.06 11.05-.01 22.11-.03 33.17 8.09.01 16.17-.02 24.25.02.43 5.4 1.39 10.68 1.21 16.13-.77-3.79-1.27-7.61-1.7-11.46-17.19.06-34.38.04-51.56.02-.02-14.91-.07-29.82.02-44.72 15.55-.05 31.09.03 46.63-.04-.32-3.63-.58-7.26-.87-10.89-15.26-.09-30.53.01-45.79-.05.01-4.59-.02-9.18-.06-13.77-3.63-.28-7.26-.6-10.89-.91 0 4.9-.03 9.79-.02 14.68-9.56.14-19.15-.21-28.7.15.67-3 .92-6.02.85-9.1 5.91.02 11.83.01 17.74-.02.02-2.53.04-5.06.07-7.6 2.04-.48 3.97-.94 6.05-.39 5.8 1.34 11.47 2.45 17.43 2.76 3.26.16 6.66-1.4 9.74-2.41 5.09-1.9 10.28-3.47 15.5-4.98z" fill="#a3968b"/><path d="M318.58 92.09c-.03 2.54-.05 5.07-.07 7.6-5.91.03-11.83.04-17.74.02l-.06-4.87c6.04-.61 12.01-1.07 17.87-2.75z" fill="#211e1d"/><path d="M23.74 92.69c-.04 5.33-.06 10.65-.06 15.98-7.89.01-15.79 0-23.68.01v-8.96c5.59-.02 11.17-.01 16.76 0 .01-1.32.01-2.64.01-3.96 2.45-.73 4.76-1.8 6.97-3.07zM472.26 95.04c-1.68.92-3.27 1.99-4.87 3.04.02 2.02.07 4.05.13 6.07-1.45-1.63-2.88-3.27-4.41-4.82 3.01-1.55 5.96-3.14 9.15-4.29z" fill="#a3968b"/><path d="M16.77 95.76c0 1.32 0 2.64-.01 3.96-5.59-.01-11.17-.02-16.76 0v-.14c5.57-1.64 11.18-2.48 16.77-3.82z" fill="#211e1d"/><path d="M463.11 99.33c1.53 1.55 2.96 3.19 4.41 4.82 1.58 1.76 3.23 3.44 4.92 5.09-4.72.04-9.45.09-14.17.17-9.25.08-18.52.05-27.77-.02-4.33-.04-8.65-.09-12.97-.21 2.3-2.14 4.05-4.4 5.44-7.21l-.59-.44c9.16 1.01 19.56 2.33 28.49-.4 4.03-1.07 8.1-1.4 12.24-1.8z" fill="#726963"/><path d="M98.04 100.73c1.83-.12 3.41.46 5.11 1.02-1.8-.19-3.61-.28-5.41-.38-.06 2.43-.1 4.86-.13 7.3-8.27 0-16.53.06-24.79-.06-1.1-.71-2.19-1.42-3.29-2.14 9.19-3.42 18.76-5.03 28.51-5.74z" fill="#a3968b"/><path d="M122.09 100.37c7.47-.51 12.73 3.46 19.89 4.44 6.29.85 12.6 1.64 18.89 2.47-1.52 1.26-3.3 2.42-4.56 3.96-1.39 2.11-2.05 4.76-3.05 7.08l-2.11.95-2.6.39c-.32 11 1.97 21.43 2.83 32.32.16 3.37.29 7.79-1.61 10.72-1.09 1.56-2.97 1.58-4.69 1.47-4.06-.58-7.89-4.25-12.04-4.35-5.1-.25-10.22-.12-15.33-.22 6.05.13 12.09-.1 18.14-.25-.16-1.95-.36-3.9-.59-5.85-1.19 1.27-2.36 2.55-3.54 3.82-.91-11.06 1.1-20.31-2.49-30.9-1.16-3.3-2.76-5.77-5.24-8.23-2.89-2.84-5.2-6.07-7.37-9.48-.92-1.38-1.87-2.75-2.81-4.12 1.55.06 3.11.07 4.67.08 1.18-1.45 2.36-2.9 3.61-4.3z" fill="#704534"/><path d="M406.81 99.89c5.16.82 10.41.78 15.57 1.64l.59.44c-3.75-.13-7.5-.36-11.26-.53-.02 2.39-.03 4.79-.04 7.18-1.67.04-3.34.08-5 .11-.1 3.4-.28 6.99.17 10.35 1.43.59 3.16.59 4.68.84.38 14.79.05 29.6.17 44.39-2.94.04-5.88.08-8.82.13 1.3-13.03 2.91-26.35 2.79-39.45.12-8.38 1.19-16.71 1.15-25.1zM196.13 101.35c1.24.56 2.59 1.07 3.71 1.86 1.3 1.69 1.82 4.09 2.58 6.06-6.85-1.13-14.05-.42-20.99-.61 5.49-1.59 10.31-3.56 14.7-7.31zM105.52 102.63c2.72.83 5.46 1.59 8.29 1.96.94 1.37 1.89 2.74 2.81 4.12-2.66-.04-5.33-.07-8-.09l.03-3.95c-1.04-.69-2.08-1.37-3.13-2.04z" fill="#a3968b"/><path d="M430.5 109.39c9.25.07 18.52.1 27.77.02.03 3.39.03 6.79.02 10.18 0 14.93.01 29.86 0 44.8-9.26.03-18.52.01-27.78.01-.04-14.96-.01-29.91-.02-44.86-.01-3.39-.01-6.77.01-10.15z" fill="#254e32"/><path d="M228.42 111.47c3.88.19 7.65 1.58 11.54 1.86 5.12.37 10.29.22 15.42.26-.66 3.99-.76 8-.85 12.04-.99 8.23-.94 16.19.07 24.41.35 2.08 1.18 4.13 1.81 6.14-.04.76-.12 1.52-.23 2.27l-.43 2.1c-1.96-3.15-3.95-6.29-5.83-9.48-1.66-2.82-2.56-6.02-4.24-8.8-2.15-2.55-6.12-4.07-7.93-6.95-1.88-2.85-3.33-5.97-5.12-8.87l-.2-.13c-2.93-2.18-6.26-2.69-9.78-3.28l-.9-3.31c2.17-2.78 4.28-5.68 6.67-8.26z" fill="#704534"/><path d="M255.38 113.59l.91-.23-.78 6.14c5.2.23 10.42-.05 15.61.18.83-.06 1.5.32 2.01 1.14.52 3.66.22 7.49.23 11.18-.02 10.78.02 21.56-.02 32.34-6.05.03-12.1.06-18.16.06.18-1.29.35-2.58.57-3.85l.43-2.1c.11-.75.19-1.51.23-2.27.19-7.72-.01-15.45.14-23.18-.2-2.88.65-5.37-2.02-7.37.09-4.04.19-8.05.85-12.04zM123.99 118.19c2.48 2.46 4.08 4.93 5.24 8.23-3.84.08-7.68.06-11.52.14v33.04c5.11.1 10.23-.03 15.33.22 4.15.1 7.98 3.77 12.04 4.35 1.72.11 3.6.09 4.69-1.47 1.9-2.93 1.77-7.35 1.61-10.72-.86-10.89-3.15-21.32-2.83-32.32l2.6-.39c3.76.14 7.5.38 11.26.5.1 14.85.02 29.71.04 44.56-17.94.3-35.87-.05-53.82.03-.01-14.91-.05-29.82.03-44.73 4.84-.06 9.71.16 14.55-.08l.78-1.36zM478.46 119.7c5.17-.21 10.36-.03 15.54-.07v44.73c-5.23.06-10.47.01-15.7-.04.14-14.87-.2-29.76.16-44.62zM0 119.63c7.85-.01 15.69.03 23.54-.05.35 14.91.05 29.83.16 44.75-7.9.09-15.8.03-23.7.05v-4.73c5.67-.01 11.35.02 17.02-.01.26-11.02.59-22.2-.23-33.2-5.6.05-11.19.06-16.79.04v-6.85zM34.7 119.64c8.61-.04 17.22.03 25.83-.05.33 14.9.04 29.82.15 44.72-8.67.12-17.33.07-26 .04-.02-14.9-.05-29.8.02-44.71zM71.68 119.64c8.61-.04 17.22.02 25.83-.05.33 14.9.03 29.81.16 44.71-8.67.15-17.34.07-26.01.06-.01-14.91-.05-29.81.02-44.72zM173.54 119.6c16.07.12 32.14-.12 48.21.13l.9 3.31c3.52.59 6.85 1.1 9.78 3.28l-3.77.09c-.01 11.06.02 22.12-.02 33.18 8.67.1 17.35.09 26.02.01l.12 4.8c-27.09-.02-54.17-.07-81.26.02-.19-14.93-.21-29.89.02-44.82zM284.47 119.58c14.67.08 29.34.07 44.01.01.34 14.89.02 29.79.18 44.69-14.78.18-29.58.11-44.36.03.12-14.9-.18-29.82.17-44.73zM422.69 119.67c2.6-.04 5.2-.09 7.8-.13.01 14.95-.02 29.9.02 44.86-2.61-.01-5.23-.03-7.84-.05-.01-14.89-.05-29.79.02-44.68zM458.29 119.59c2.62-.02 5.34-.13 7.93.23l.9 1.04c.54 3.64.22 7.46.24 11.14-.03 10.78.01 21.55-.02 32.33-3.02.03-6.03.04-9.05.06.01-14.94 0-29.87 0-44.8z" fill="#a3968b"/><path d="M129.23 126.42c3.59 10.59 1.58 19.84 2.49 30.9 1.18-1.27 2.35-2.55 3.54-3.82.23 1.95.43 3.9.59 5.85-6.05.15-12.09.38-18.14.25v-33.04c3.84-.08 7.68-.06 11.52-.14zM318.51 126.5c.04 11.04 0 22.08.02 33.12-9.29.03-18.58.08-27.87-.03.03-11.02.01-22.04.02-33.06 9.27-.08 18.55-.05 27.83-.03zM0 126.48c5.6.02 11.19.01 16.79-.04.82 11 .49 22.18.23 33.2-5.67.03-11.35 0-17.02.01v-33.17zM184.49 126.48c9.18.2 18.44-.41 27.59.28.53 10.9.03 21.88.22 32.79-9.28.2-18.56.07-27.84.09.01-11.05-.03-22.11.03-33.16zM228.66 126.41l3.77-.09.2.13c1.79 2.9 3.24 6.02 5.12 8.87 1.81 2.88 5.78 4.4 7.93 6.95 1.68 2.78 2.58 5.98 4.24 8.8 1.88 3.19 3.87 6.33 5.83 9.48-.22 1.27-.39 2.56-.57 3.85h-.4l-.12-4.8c-8.67.08-17.35.09-26.02-.01.04-11.06.01-22.12.02-33.18zM254.53 125.63c2.67 2 1.82 4.49 2.02 7.37-.15 7.73.05 15.46-.14 23.18-.63-2.01-1.46-4.06-1.81-6.14-1.01-8.22-1.06-16.18-.07-24.41zM367.43 126.48c6.84.01 13.67 0 20.51.01 4.91 10.98 3.44 21.52 3.71 33.18-8.08-.04-16.16-.01-24.25-.02.02-11.06-.03-22.12.03-33.17z" fill="#211e1d"/><path d="M0 192.3c164.66.07 329.34.02 494 .03V194H0v-1.7z" fill="#fff"/></svg>