<svg viewBox="0 0 336 320" height="320pt" width="448" xmlns="http://www.w3.org/2000/svg"><path d="M0 0h1.07c-.16 35.77-.03 71.59-.06 107.37 84.32.09 168.67.01 252.99.04 5.59-.06 11.16.17 16.75-.17-.15-35.73.09-71.52-.12-107.24H336v320h-65.29c-.03-46.87.04-93.74-.03-140.6-89.79-.01-179.79-.03-269.56 0C.94 182.93 1 186.47 1 190v130H0V0z" fill="#fcbe62"/><path d="M1.07 0h269.56c.21 35.72-.03 71.51.12 107.24-5.59.34-11.16.11-16.75.17-84.32-.03-168.67.05-252.99-.04.03-35.78-.1-71.6.06-107.37zM1.12 179.4c89.77-.03 179.77-.01 269.56 0 .07 46.86 0 93.73.03 140.6H99.75c-.01-34.88.03-69.76-.02-104.64-25.79.03-51.63-.06-77.41.05-.14 33.51-.04 67.08-.05 100.59-.05 1.33-.17 2.67-.38 4H1V190c0-3.53-.06-7.07.12-10.6z" fill="#fc5b30"/><path d="M22.32 215.41c25.78-.11 51.62-.02 77.41-.05.05 34.88.01 69.76.02 104.64H21.89c.21-1.33.33-2.67.38-4 .01-33.51-.09-67.08.05-100.59zM126.45 215.44c25.52-.16 51.54-.06 77.1-.05-.06 20 .17 40.02-.11 60.01-25.67-.03-51.37-.19-77.03.08-.32-1.48-.66-2.94-.67-4.47.06-16 .05-32.01.01-48.01.06-2.41-.33-5.34.7-7.56z" fill="#333233"/></svg>