<svg viewBox="0 0 258 236" height="236pt" width="344" xmlns="http://www.w3.org/2000/svg"><path d="M0 0h258v20.45c-4.67-.28-9.32-.07-14-.13-81.29.04-162.73-.07-244 .05V0z" fill="#a85b16"/><path d="M0 20.37c81.27-.12 162.71-.01 244-.05 4.68.06 9.33-.15 14 .13v67.83c-85.98-.06-172.03.07-258-.07V20.37z" fill="#b5b5b5"/><path d="M0 88.21c85.97.14 172.02.01 258 .07v24.49c-32.42-.09-64.85.01-97.28-.05-53.56-.17-107.15 0-160.72-.09V88.21z" fill="#a85b16"/><path d="M0 112.63c53.57.09 107.16-.08 160.72.09l.05 2.03c.07 40.41.12 80.84-.02 121.25H0V112.63z" fill="#6c6c6c"/><path d="M160.72 112.72c32.43.06 64.86-.04 97.28.05v2.01c-7.99-.41-16-.08-24-.19-24.4.11-48.84-.2-73.23.16l-.05-2.03z" fill="#b5b5b5"/><path d="M160.77 114.75c24.39-.36 48.83-.05 73.23-.16 8 .11 16.01-.22 24 .19V236h-97.25c.14-40.41.09-80.84.02-121.25z" fill="#acf49d"/></svg>