<svg viewBox="0 0 452 244" height="244pt" width="452pt" xmlns="http://www.w3.org/2000/svg"><path d="M0 0h452v27.1c-9.15 2.38-17.06 11.78-26 14.83-2.4-1.51-3.47 1.72-5.3 2.73-2.88 1.21-5.76 1.72-8.39 3.64-2.98 1.89-3.81 5.53-6.34 7.59-4.21 2.72-7.71 5.74-12.52 7.4-2.86.42-5.55 1.34-8.46 1.53-.02-.88-.11-1.76-.28-2.64-1.24-.82-3.26-.34-4.71-.47-49.49.04-99.45-.06-148.87.05-20.2-10.03-40.4-20.2-60.6-30.27-1.36-.71-2.29-.01-3.51.55-19.28 9.75-38.79 19.28-58.03 29.09l-.86.79c-.53 1.59-.28 3.42-.34 5.08.1 28.95-.16 58.06.13 86.99-.31 10.03-.01 20.09-.15 30.12-34.25.27-70.31.02-104.77.13a10.7 10.7 0 0 1-3-.3v-23.81c1.42.73 3.44.02 4.89-.37 2.82-1 6.48-2.01 8.45-4.42 1.5-2.05.22-4.79 3.12-5.8 4.58-1.53 9.74-2.98 14.57-3.13 9.1-.94 18.04-1.35 26.96-3.66 5.97-.84 10.52-3.98 15-7.79 3.52-2.37 7.21-4.54 9.93-8.01 1.71-2.27 1.67-5.24 3.43-7.58 1.52-2.02 2.76-4.03 3.33-6.52.98-3.56 3.91-5.79 4.91-9.35 1.14-4.38 3.07-9.42 2.73-13.96-1.16-3.11-2.64-6.48-4.8-9.05-13.96-6.49-28.1-6.33-42.6-12.27-3.34-1.79-4.83-5.16-8.01-7.05-3.78-2.22-7.28-4.81-10.88-7.28-3.7-2.48-9.05-2.71-12.24-5.69-2.51-2.99-1.57-6.63-2.18-10.11-.57-1.34-1.72-2.91-2.73-3.94C9.57 30.97 4.95 32 0 30.79V0z" fill="#fff"/><path d="M452 27.1v115.25c-2.01-.8-4.1-1.03-6.04-2.22-2.64-1.7-4.69-3.59-7.84-4.37-6.09-1.59-12.33-1.59-18.22-3.59-1.99-.91-4.28-1.03-6.43-1.48-9.39-.37-18.98-1.47-28.36-1.15-3.43-.98-7.5-.49-11.08-.75-1.06.89-2.05 1.22-2.96 1 .25-.76.4-1.51.47-2.25-.63-.43-1.26-.84-1.91-1.23-.33.79-.54 1.66-.64 2.63-1.46.55-3.28-.13-4.81-.23-2.23-1.1-4.31-.9-5.97-2.92-2.04-2.03-2.24-4.58-3.59-6.99l-.07-.6c-.36-9.37.32-18.76.71-28.05.98-3.59-.32-8.48 2.43-11.46 2.36-2.91 5.46-3.31 8.84-4.23 3.42-1.76 6.62-3.89 9.65-6.27 2.64-2.08 5.68-2.42 8.81-3.37 2.91-.19 5.6-1.11 8.46-1.53 4.81-1.66 8.31-4.68 12.52-7.4 2.53-2.06 3.36-5.7 6.34-7.59 2.63-1.92 5.51-2.43 8.39-3.64 1.83-1.01 2.9-4.24 5.3-2.73 8.94-3.05 16.85-12.45 26-14.83zM0 30.79c4.95 1.21 9.57.18 13.88 3.36 1.01 1.03 2.16 2.6 2.73 3.94.61 3.48-.33 7.12 2.18 10.11 3.19 2.98 8.54 3.21 12.24 5.69 3.6 2.47 7.1 5.06 10.88 7.28 3.18 1.89 4.67 5.26 8.01 7.05 14.5 5.94 28.64 5.78 42.6 12.27 2.16 2.57 3.64 5.94 4.8 9.05.34 4.54-1.59 9.58-2.73 13.96-1 3.56-3.93 5.79-4.91 9.35-.57 2.49-1.81 4.5-3.33 6.52-1.76 2.34-1.72 5.31-3.43 7.58-2.72 3.47-6.41 5.64-9.93 8.01-4.48 3.81-9.03 6.95-15 7.79-8.92 2.31-17.86 2.72-26.96 3.66-4.83.15-9.99 1.6-14.57 3.13-2.9 1.01-1.62 3.75-3.12 5.8-1.97 2.41-5.63 3.42-8.45 4.42-1.45.39-3.47 1.1-4.89.37V30.79z" fill="#0e6f38"/><path d="M170.53 31.49c20.2 10.07 40.4 20.24 60.6 30.27-40.59.06-81.52.14-122.09 0l-.91.16.86-.79c19.24-9.81 38.75-19.34 58.03-29.09 1.22-.56 2.15-1.26 3.51-.55z" fill="#e98023"/><path d="M108.13 61.92l.91-.16c40.57.14 81.5.06 122.09 0-.4 7.04-.1 14.17-.2 21.24.12 3.01-.27 6.16.25 9.13l.3.41c12.51.02 25.06-.02 37.56.01l1.09.35.44 1.03c-.07 10.69-.03 21.38-.02 32.07.05 1.04-.06 2.05-.33 3.01-2.44.5-4.71.24-7.22.29-10.54.05-21.12-.1-31.65.06-.65 1.72-.37 3.83-.42 5.64-.04 6.31.13 12.64-.12 18.95-40.94.1-81.94.02-122.89.04-.29-28.93-.03-58.04-.13-86.99.06-1.66-.19-3.49.34-5.08z" fill="#856c2b"/><path d="M231.13 61.76c49.42-.11 99.38-.01 148.87-.05 1.45.13 3.47-.35 4.71.47.17.88.26 1.76.28 2.64-3.13.95-6.17 1.29-8.81 3.37-3.03 2.38-6.23 4.51-9.65 6.27-3.38.92-6.48 1.32-8.84 4.23-2.75 2.98-1.45 7.87-2.43 11.46-5.75-.09-11.51-.06-17.27-.04-2.03-.05-3.58.81-5.16 2-2.15.6-4.6.22-6.83.31-7.99-.08-16.02.19-23.99-.15-2.07-1.66-4.38-2.29-7.01-2.19-6.33.09-12.69-.09-19.01.08-2.43-.04-3.87 1.85-5.96 2.24-12.92-.31-25.96.22-38.85-.27-.52-2.97-.13-6.12-.25-9.13.1-7.07-.2-14.2.2-21.24z" fill="#e98023"/><path d="M153.03 67.94c6.31-.2 12.65-.01 18.97-.09 1.49.04 3.29-.16 4.66.46.11 24.35.25 48.95-.07 73.28-8.04.19-16.15.18-24.2.01-.53-1.75-.28-3.78-.33-5.6 0-21.33.02-42.67 0-64 .2-1.01-.58-4.06.97-4.06z" fill="#e0e0e0"/><path d="M275.99 90.16c6.32-.17 12.68.01 19.01-.08 2.63-.1 4.94.53 7.01 2.19.63 12.14.06 24.58.29 36.78.19 3.57-.22 5.95-3.76 7.42-8.01.12-16.07.11-24.08 0-3.56-1.42-3.83-3.68-3.83-7.21l-.41-.25c.27-.96.38-1.97.33-3.01-.01-10.69-.05-21.38.02-32.07l-.44-1.03-1.09-.35c-12.5-.03-25.05.01-37.56-.01l-.3-.41c12.89.49 25.93-.04 38.85.27 2.09-.39 3.53-2.28 5.96-2.24zM337.99 90.11c5.76-.02 11.52-.05 17.27.04-.39 9.29-1.07 18.68-.71 28.05-.43-5.35-.17-10.83-.25-16.2.11-1.17-.32-1.93-1.3-2.29-3.38.17-7.65-.55-10.8.39-.33.9-.46 1.87-.39 2.9.07 7.65-.08 15.33.07 22.98l.3.79c3.72.2 7.96.23 11.67-.03 1.07-2.26-.02-5.44.77-7.94 1.35 2.41 1.55 4.96 3.59 6.99 1.66 2.02 3.74 1.82 5.97 2.92-.55 2.56.25 4.7-1.98 6.54-2.62 2.03-5.08.95-8.18 1.42-4.33-.28-8.68-.07-13.02-.13-2.35-.1-4.62.47-6.61-.97-2.42-1.47-2.05-4.02-2.38-6.45.5-8.66.08-17.44.22-26.12.14-3.54-.42-7.5.6-10.89 1.58-1.19 3.13-2.05 5.16-2z" fill="#fff"/><path d="M302.01 92.27c7.97.34 16 .07 23.99.15 2.23-.09 4.68.29 6.83-.31-1.02 3.39-.46 7.35-.6 10.89-.14 8.68.28 17.46-.22 26.12-5.3.41-10.69.06-16.01.18-4.52-.12-9.23.26-13.7-.25-.23-12.2.34-24.64-.29-36.78z" fill="#856c2b"/><path d="M280.33 100.27c1.72-1.12 4.65-.4 6.67-.59 1.71.15 4.23-.44 5.67.57.16 8.81.1 17.65.03 26.46-4.01.29-8.4.32-12.41-.01-.07-8.79-.14-17.64.04-26.43zM342.2 100.1c3.15-.94 7.42-.22 10.8-.39.98.36 1.41 1.12 1.3 2.29.08 5.37-.18 10.85.25 16.2l.07.6c-.79 2.5.3 5.68-.77 7.94-3.71.26-7.95.23-11.67.03l-.3-.79c-.15-7.65 0-15.33-.07-22.98-.07-1.03.06-2 .39-2.9z" fill="#555"/><path d="M369.63 126.31c.65.39 1.28.8 1.91 1.23-.07.74-.22 1.49-.47 2.25.91.22 1.9-.11 2.96-1 3.58.26 7.65-.23 11.08.75-.62 4.64.21 9.51-.48 14.1-10.13.34-20.39-.17-30.51.25-.08-2.41-.09-4.8-.1-7.22 3.1-.47 5.56.61 8.18-1.42 2.23-1.84 1.43-3.98 1.98-6.54 1.53.1 3.35.78 4.81.23.1-.97.31-1.84.64-2.63z" fill="#856c2b"/><path d="M231.35 129.36c10.53-.16 21.11-.01 31.65-.06 2.51-.05 4.78.21 7.22-.29l.41.25c0 3.53.27 5.79 3.83 7.21 8.01.11 16.07.12 24.08 0 3.54-1.47 3.95-3.85 3.76-7.42 4.47.51 9.18.13 13.7.25 5.32-.12 10.71.23 16.01-.18.33 2.43-.04 4.98 2.38 6.45 1.99 1.44 4.26.87 6.61.97 4.34.06 8.69-.15 13.02.13.01 2.42.02 4.81.1 7.22-.1 9.7-.02 19.41-.04 29.11-.04 1.79.23 3.91-.48 5.58-40.16.03-80.43 0-120.61.01l-1.95.22c-.31-8.27.14-16.59-.23-24.86.25-6.31.08-12.64.12-18.95.05-1.81-.23-3.92.42-5.64z" fill="#e98023"/><path d="M385.11 129.54c9.38-.32 18.97.78 28.36 1.15 2.15.45 4.44.57 6.43 1.48 5.89 2 12.13 2 18.22 3.59 3.15.78 5.2 2.67 7.84 4.37 1.94 1.19 4.03 1.42 6.04 2.22v42.71c-1.55-.54-3.37-.28-5-.33-30.33.01-60.72-.01-91.04.01l-1.06.29-.49.9c.02 19.32-.03 38.77.02 58.07h-.34c.47-1.92.23-4.03.27-6 .02-17.34-.04-34.67.04-52.01.04-.95-.16-1.9-.61-2.86-.53-.68-8-.66-8.61-.05-.23 12.91.08 26.02-.15 38.94-.11 2.66-2.55 4.21-5.02 4.26-5.34.08-10.68.05-16.01.02-2.64.12-5.24-1.68-5.5-4.37.02-12.66-.03-25.33.03-37.99l-.45-.92c-6.41-.73-13.53-.16-20.08-.3l-.78.39c-.06 12.57.01 25.31-.02 37.89.04 1.95-.9 4.75-3.17 4.95-6.19.77-12.79.29-19.05.28-2.19-.29-4.11-1.91-4.2-4.22-.12-12.94-.02-25.91-.04-38.86l-.75-.41c-12.88-.13-25.79.02-38.67-.07-.39-1.2-.48-2.49-.28-3.86l1.95-.22c40.18-.01 80.45.02 120.61-.01.71-1.67.44-3.79.48-5.58.02-9.7-.06-19.41.04-29.11 10.12-.42 20.38.09 30.51-.25.69-4.59-.14-9.46.48-14.1z" fill="#fff"/><path d="M107.92 153.99c40.95-.02 81.95.06 122.89-.04.37 8.27-.08 16.59.23 24.86-.2 1.37-.11 2.66.28 3.86 12.88.09 25.79-.06 38.67.07l.75.41c.02 12.95-.08 25.92.04 38.86.09 2.31 2.01 3.93 4.2 4.22 6.26.01 12.86.49 19.05-.28 2.27-.2 3.21-3 3.17-4.95.03-12.58-.04-25.32.02-37.89l.78-.39c6.55.14 13.67-.43 20.08.3l.45.92c-.06 12.66-.01 25.33-.03 37.99.26 2.69 2.86 4.49 5.5 4.37 5.33.03 10.67.06 16.01-.02 2.47-.05 4.91-1.6 5.02-4.26.23-12.92-.08-26.03.15-38.94.61-.61 8.08-.63 8.61.05.45.96.65 1.91.61 2.86-.08 17.34-.02 34.67-.04 52.01-.04 1.97.2 4.08-.27 6H107.74c.05-19.72.19-39.49-.07-59.2l.1-.69c.14-10.03-.16-20.09.15-30.12z" fill="#555"/><path d="M186.25 168.75c5.54 5.38 10.32 13.29 10.03 21.25-.08 8.67.08 17.36-.07 26.02-.25 3.13-3.53 4.24-6.21 4.17-15.33-.01-30.67-.01-46 .01-1.84.09-4.06-.5-5.37-1.84-1.24-1.59-.9-3.47-.98-5.36.1-8.66-.14-17.35.12-26.01 1.8-11.94 11.15-22.57 23.23-24.77 8.59-2.35 18.58.89 25.25 6.53z" fill="#fff"/><path d="M162.09 171.54c3.6-.51 7.5-.55 11.06.29 3.1 1.57 6.72 3.26 8.75 6.2 2.55 3.29 5.12 7.66 4.85 11.97-.08 6.86.18 13.77-.14 20.61-13.06.14-26.16.14-39.22 0-.41-7.47-.2-15.13-.11-22.63 1.38-7.75 7.18-14.35 14.81-16.44z" fill="#555"/><path d="M0 183.94c.97.24 1.97.34 3 .3 34.46-.11 70.52.14 104.77-.13l-.1.69c-1.01 1.31-.43 3.62-.56 5.2-.12 17.95.24 36.08-.18 54H0v-60.06z" fill="#096716"/><path d="M107.67 184.8c.26 19.71.12 39.48.07 59.2h-.81c.42-17.92.06-36.05.18-54 .13-1.58-.45-3.89.56-5.2z" fill="#418856"/><path d="M354.9 185.03l1.06-.29c30.32-.02 60.71 0 91.04-.01 1.63.05 3.45-.21 5 .33V244h-97.57c-.05-19.3 0-38.75-.02-58.07l.49-.9z" fill="#096716"/><path d="M280.33 190.22c.33-.97 7.02-.97 7.31.04.1 8.78.12 17.59-.01 26.37-2.26.28-5.03.29-7.29.02-.18-8.78-.16-17.64-.01-26.43zM328.27 190.11c.71-.86 6.77-.9 7.31.27.06 8.74.03 17.49.01 26.23-2.38.32-4.91.28-7.3.09-.25-8.81-.21-17.77-.02-26.59z" fill="#555"/></svg>