<svg viewBox="0 0 514 310" height="310pt" width="514pt" xmlns="http://www.w3.org/2000/svg"><path d="M0 0h514v98.07c-40 0-80-.01-120 .01-3.91.07-7.81-.1-11.72-.23-.05-3.95.03-7.91.01-11.86.06-1.6-.24-2.59-2.11-2.42-85.81.03-171.77.02-257.58 0-.09 4.83-.05 9.65-.03 14.47-40.85-.02-81.72.17-122.57-.09V0z" fill="#c2d8e9"/><path d="M148.51 31.26c1.47-.24 3-.31 4.49-.35 65.33.01 130.67 0 196 0 5.23.02 10.43-.16 15.65.26.02 6.2.03 12.39-.02 18.59-63.84.21-127.78.03-191.63.09-8.18-.06-16.37.13-24.55-.09.04-6.16-.16-12.35.06-18.5z" fill="#fff"/><path d="M122.6 83.57c85.81.02 171.77.03 257.58 0 1.87-.17 2.17.82 2.11 2.42.02 3.95-.06 7.91-.01 11.86-3.43.11-6.85.31-10.28.23-83.14-.04-166.29.03-249.43-.04-.02-4.82-.06-9.64.03-14.47z" fill="#333233"/><path d="M0 97.95c40.85.26 81.72.07 122.57.09 83.14.07 166.29 0 249.43.04 3.43.08 6.85-.12 10.28-.23 3.91.13 7.81.3 11.72.23 40-.02 80-.01 120-.01v17.21c-43.91.04-87.82-.07-131.73.06-35.44-.11-70.88-.03-106.32-.04-21.52-.01-43.05-.03-64.56.01-29.62-.05-59.23-.01-88.84-.02-40.85-.01-81.7 0-122.55-.01V97.95z" fill="#6adfef"/><path d="M0 115.28c40.85.01 81.7 0 122.55.01-.01 61.4.03 122.81-.02 184.21 84.15.08 168.32 0 252.47.04 2.42.01 4.83-.03 7.25-.09.05-61.37 0-122.74.02-184.11 43.91-.13 87.82-.02 131.73-.06V310H0V115.28z" fill="#c2d8e9"/><path d="M122.55 115.29c29.61.01 59.22-.03 88.84.02-4.29 5.99-6.18 13.42-6.7 20.68.18 9.19 3.05 18.23 9.02 25.31 11.24 14.06 32.3 18.21 48.07 9.48 14.65-7.32 23.16-24.74 20.03-40.8-.92-5.28-2.97-10.19-5.86-14.68 35.44.01 70.88-.07 106.32.04-.02 61.37.03 122.74-.02 184.11-2.42.06-4.83.1-7.25.09-84.15-.04-168.32.04-252.47-.04.05-61.4.01-122.81.02-184.21z" fill="#333233"/><path d="M211.39 115.31c21.51-.04 43.04-.02 64.56-.01 2.89 4.49 4.94 9.4 5.86 14.68 3.13 16.06-5.38 33.48-20.03 40.8-15.77 8.73-36.83 4.58-48.07-9.48-5.97-7.08-8.84-16.12-9.02-25.31.52-7.26 2.41-14.69 6.7-20.68z" fill="#e4cc5f"/><path d="M18.61 135.2c24.46.01 48.93-.01 73.39 0 4.44.03 8.86-.13 13.3.19-.08 28.69.02 57.38-.05 86.08-28.89.19-57.79.06-86.68.06.05-28.78-.02-57.56.04-86.33z" fill="#333233"/></svg>