<svg viewBox="0 0 504 302" height="302pt" width="672" xmlns="http://www.w3.org/2000/svg"><path d="M0 0h504v60.35c-30 0-60-.01-90 0-3.23.04-6.43-.01-9.65-.2 6.62-1.93 12.51-5.68 16.25-11.57 4.77-7.11 5.65-16.67 2.54-24.6-4.44-11.55-16.9-18.91-29.17-16.91-8.91 1.23-16.74 7.28-20.52 15.38-3.58 7.71-3.3 16.84.81 24.29 3.61 6.83 9.99 11.35 17.35 13.43-2.87.13-5.74.23-8.61.18-30.04-.02-60.07.02-90.11-.02-.31 5.45-.04 10.92-.17 16.38-.03 4.9-.03 9.8 0 14.69.11 9.26-.04 18.51-.03 27.76-.27-3.21-.73-6.44-1.25-9.61-71.65 10.45-143.66 20.44-215.32 30.88.37 4.15 1.19 8.23 1.63 12.37-4.15.03-8.29.02-12.44.01-.17 5.91-.03 11.84-.09 17.76-2.95.02-6.23-.17-9.03.86-4.09 1.55-7.2 5.3-8 9.61-2.54 10.95-5.73 21.8-7.95 32.81-8.08.54-16.24.08-24.34.27-5.3-.01-10.6.02-15.9-.06V0z" fill="#fff"/><path d="M423.14 23.98c3.11 7.93 2.23 17.49-2.54 24.6-3.74 5.89-9.63 9.64-16.25 11.57-4.48.74-8.27.75-12.74.02-7.36-2.08-13.74-6.6-17.35-13.43-4.11-7.45-4.39-16.58-.81-24.29 3.78-8.1 11.61-14.15 20.52-15.38 12.27-2 24.73 5.36 29.17 16.91z" fill="#ff2a1a"/><path d="M292.89 60.33c30.04.04 60.07 0 90.11.02 2.87.05 5.74-.05 8.61-.18 4.47.73 8.26.72 12.74-.02 3.22.19 6.42.24 9.65.2 30-.01 60 0 90 0V76.7c-70.42-.01-140.85-.02-211.28.01.13-5.46-.14-10.93.17-16.38z" fill="#88cc6c"/><path d="M292.72 76.71c70.43-.03 140.86-.02 211.28-.01v14.72c-70.42-.01-140.86.03-211.28-.02-.03-4.89-.03-9.79 0-14.69z" fill="#ff2a1a"/><path d="M292.72 91.4c70.42.05 140.86.01 211.28.02V302H292.75c-.01-29.21.01-58.43-.01-87.64-.01-31.73.1-63.48-.05-95.2-.01-9.25.14-18.5.03-27.76z" fill="#88cc6c"/><path d="M291.44 109.55c.52 3.17.98 6.4 1.25 9.61.15 31.72.04 63.47.05 95.2-3.93.03-7.87.05-11.8 0-.25-25.76-.16-51.55-.05-77.32l-.67.03c-11.93.81-23.77 3.38-35.67 4.62-.38 24.15-.06 48.42-.16 72.59-8.37.17-16.86.17-25.23 0 .04-22.94.04-45.88 0-68.82-22.35 3.02-44.66 6.5-67.03 9.42-.3 2.7-.27 5.4-.23 8.12 0 16.98-.01 33.97 0 50.95-8.38.25-16.78.15-25.16.07.06-9.19-.08-18.39.07-27.58.4-2.17.45-4.02.09-6.2-.45-7.23.16-14.52-.33-21.75-11.97 2.03-24.05 3.53-36.07 5.26-.06 2.28-.08 4.56-.09 6.83-8.4.01-16.8.04-25.19-.01.06-5.92-.08-11.85.09-17.76 4.15.01 8.29.02 12.44-.01-.44-4.14-1.26-8.22-1.63-12.37 71.66-10.44 143.67-20.43 215.32-30.88z" fill="#5c5639"/><path d="M280.22 137.07c.49 19.29.08 38.63.22 57.93-.17 6.3.38 12.67-.3 18.93-11.9.52-23.85-.14-35.75.35.1-24.17-.22-48.44.16-72.59 11.9-1.24 23.74-3.81 35.67-4.62z" fill="#fff"/><path d="M280.22 137.07l.67-.03c-.11 25.77-.2 51.56.05 77.32 3.93.05 7.87.03 11.8 0 .02 29.21 0 58.43.01 87.64H0v-87.94c5.3.08 10.6.05 15.9.06v13.54c.05 5.45-.13 10.91.06 16.36.27.58.8 1.02 1.6 1.31-4 4.37-6.61 9.65-6.23 15.7.26 10.07 8.64 18.54 18.66 19.15 6.66.55 11.98-2.42 16.84-6.64 3.86 3.36 7.9 6.08 13.14 6.56 9.88 1.17 19.53-5.51 21.79-15.22 1.92-7.56-.94-14.7-6.25-20.1 11.64-.12 23.3-.09 34.94-.01-5.06 5.17-7.92 11.95-6.43 19.24 1.63 8.72 9.14 15.38 17.96 16.13 6.79.68 12.42-2.29 17.28-6.74 3.36 3.22 7.04 5.76 11.74 6.5 9.91 1.87 20.06-4.33 22.86-14.02 2.37-7.83-.35-15.55-6.06-21.13 10.97-.09 21.95.01 32.93-.05.03-10.2-.03-20.4.03-30.59 6.13.07 12.28-.17 18.4.17 8.37.17 16.86.17 25.23 0 11.9-.49 23.85.17 35.75-.35.68-6.26.13-12.63.3-18.93-.14-19.3.27-38.64-.22-57.93z" fill="#cbcbcb"/><path d="M219.16 145.46c.04 22.94.04 45.88 0 68.82-6.12-.34-12.27-.1-18.4-.17-16.28-.13-32.58.17-48.86-.16-.01-16.98 0-33.97 0-50.95-.04-2.72-.07-5.42.23-8.12 22.37-2.92 44.68-6.4 67.03-9.42z" fill="#fff"/><path d="M323.73 153.07c47.44.04 94.83.01 142.27.02 3.9-.04 7.75-.33 11.64.1-.03 30.62-.04 61.24 0 91.86-3.92.44-7.69.18-11.64.23-47.43-.02-94.87.05-142.3-.03-.04-30.72-.1-61.46.03-92.18z" fill="#515151"/><path d="M126.57 158.49c.49 7.23-.12 14.52.33 21.75-1.79-5.61-5.92-9.18-11.88-9.57-8.19-.21-16.41-.01-24.61-.09.01-2.27.03-4.55.09-6.83 12.02-1.73 24.1-3.23 36.07-5.26z" fill="#fff"/><path d="M65.22 170.57c8.39.05 16.79.02 25.19.01 8.2.08 16.42-.12 24.61.09 5.96.39 10.09 3.96 11.88 9.57.36 2.18.31 4.03-.09 6.2-2.33 9.19-4.83 18.37-6.81 27.64 2.24.03 4.49-.03 6.74-.06 8.38.08 16.78.18 25.16-.07 16.28.33 32.58.03 48.86.16-.06 10.19 0 20.39-.03 30.59-10.98.06-21.96-.04-32.93.05-4.74-3.43-9.91-5.29-15.83-4.51-4.77.31-7.84 3.04-11.91 5.01-2.21.54-4.7-1.75-6.63-2.67-7.42-4.24-16.32-2.86-22.98 2.19-11.64-.08-23.3-.11-34.94.01-7.47-5.69-17.35-6.45-25.17-.94.14-5.39.1-10.78.04-16.17-11.49-.08-22.99-.05-34.48-.01v-13.54c8.1-.19 16.26.27 24.34-.27 2.22-11.01 5.41-21.86 7.95-32.81.8-4.31 3.91-8.06 8-9.61 2.8-1.03 6.08-.84 9.03-.86z" fill="#ff2a1a"/><path d="M126.81 186.44c-.15 9.19-.01 18.39-.07 27.58-2.25.03-4.5.09-6.74.06 1.98-9.27 4.48-18.45 6.81-27.64z" fill="#fff"/><path d="M70.39 196.29c1.1-.92 3.24-.39 4.61-.54 7.79.09 15.59-.1 23.38.1-.4 1.84-.84 3.67-1.29 5.5-9.3.11-18.62.09-27.91 0 .35-1.67.62-3.45 1.21-5.06z" fill="#cbcbcb"/><path d="M15.9 227.66c11.49-.04 22.99-.07 34.48.01.06 5.39.1 10.78-.04 16.17-1.07.59-2.11 1.25-3.16 1.88-3.48-.97-5.89-3.57-9.33-4.63-7.2-2.3-14.58-.62-20.29 4.24-.8-.29-1.33-.73-1.6-1.31-.19-5.45-.01-10.91-.06-16.36z" fill="#333233"/><path d="M37.85 241.09c3.44 1.06 5.85 3.66 9.33 4.63 1.05-.63 2.09-1.29 3.16-1.88 7.82-5.51 17.7-4.75 25.17.94 5.31 5.4 8.17 12.54 6.25 20.1-2.26 9.71-11.91 16.39-21.79 15.22-5.24-.48-9.28-3.2-13.14-6.56-4.86 4.22-10.18 7.19-16.84 6.64-10.02-.61-18.4-9.08-18.66-19.15-.38-6.05 2.23-11.33 6.23-15.7 5.71-4.86 13.09-6.54 20.29-4.24zM133.43 242.58c1.93.92 4.42 3.21 6.63 2.67 4.07-1.97 7.14-4.7 11.91-5.01 5.92-.78 11.09 1.08 15.83 4.51 5.71 5.58 8.43 13.3 6.06 21.13-2.8 9.69-12.95 15.89-22.86 14.02-4.7-.74-8.38-3.28-11.74-6.5-4.86 4.45-10.49 7.42-17.28 6.74-8.82-.75-16.33-7.41-17.96-16.13-1.49-7.29 1.37-14.07 6.43-19.24 6.66-5.05 15.56-6.43 22.98-2.19z" fill="#fff"/><path d="M28.52 249.88c3.57-.82 7.42-.16 10.11 2.47 4.63 4.02 4.48 12.14-.38 15.94-4.97 4.12-13.37 2.8-16.27-3.18-3.24-5.86.13-13.51 6.54-15.23zM60.47 249.67c3.52-.52 7.17.61 9.58 3.27 3.65 3.85 3.74 10.32.13 14.24-4.26 4.89-12.82 4.63-16.6-.75-4.42-6.3-.99-15.68 6.89-16.76zM121.48 249.77c4.11-.84 8.32.63 10.83 4.02 3.17 4.11 2.76 10-.82 13.71-4.48 4.71-13.06 4.12-16.58-1.46-4.13-6.05-.68-14.87 6.57-16.27zM151.12 250.05c4.22-1.27 8.78-.18 11.59 3.28 3.54 3.99 3.29 10.2-.32 14.06-4.61 4.97-13.64 4.23-17-1.81-3.48-5.73-.58-13.42 5.73-15.53z"/></svg>