<svg viewBox="0 0 408 218" height="218pt" width="544" xmlns="http://www.w3.org/2000/svg"><path d="M0 0h2.37l.32.75C1.87 1.48.97 1.48 0 .74V0z" fill="#919191"/><path d="M2.37 0H408v1.07c-131.66.01-263.34 0-395 0-3.47.01-6.85.18-10.31-.32L2.37 0z" fill="#f5f5f5"/><path d="M0 .74c.97.74 1.87.74 2.69.01 3.46.5 6.84.33 10.31.32 131.66 0 263.34.01 395 0v108.01c-10.66-.31-21.34-.04-32-.16-3.21-.06-6.37.04-9.56.3.11 14.1.03 28.21.04 42.32 13.84.11 27.69-.14 41.52.13v65.22c-135.99.03-272.01-.07-408 .05V.74z" fill="#515151"/><path d="M102.17 22.91c5.3-.6 10.51-.22 15.83-.31 8.9.2 17.9-.43 26.77.34-.14 28.62-.02 57.25-.06 85.87-14.14.2-28.35.17-42.5.02-.02-28.64.06-57.28-.04-85.92zM42.17 38.25c14.15-.06 28.31-.14 42.46.04.02 14.13.03 28.27-.01 42.4-14.14.14-28.3.08-42.44.03-.72-6.85-.22-13.82-.36-20.72.14-7.24-.36-14.55.35-21.75zM301.22 66.37c14.12.02 28.25-.04 42.38.03.08 14.13-.02 28.26.05 42.39-14.2.26-28.43.14-42.63.06-.45-7.93-.1-15.9-.21-23.85.14-6.26-.37-12.48.41-18.63z" fill="#919191"/><path d="M153.84 98.88c33.37-.31 66.78-.01 100.16-.16 2.6-.04 5.2.09 7.8.28-.14 35.9.03 71.8-.09 107.7-35.92.11-71.84-.07-107.76.09-.2-2.6-.33-5.19-.29-7.79.17-33.36-.18-66.77.18-100.12z" fill="#cb261e"/><path d="M42.05 109.14c7.64-.4 15.3-.12 22.95-.2 6.6.08 13.1-.24 19.66.26-.06 14.12.04 28.24-.05 42.35-14.13.02-28.26-.02-42.38.03-.79-6.13-.28-12.34-.41-18.58.12-7.95-.27-15.93.23-23.86zM366.44 109.22c3.19-.26 6.35-.36 9.56-.3 10.66.12 21.34-.15 32 .16v42.59c-13.83-.27-27.68-.02-41.52-.13-.01-14.11.07-28.22-.04-42.32z" fill="#919191"/><path d="M204.11 148.2c4.6-1.08 9.47-.93 13.97.5 10.52 3.28 18.15 14.31 17.44 25.3-.27 6.36-3.49 12.19-7.86 16.67-7.62 7.47-20 9.07-29.35 4-6.23-3.13-10.78-9.55-12.63-16.16-.88-6.01-.99-12.18 2.32-17.52 3.42-6.5 8.95-11.04 16.11-12.79z" fill="#333233"/><path d="M205.12 155.3c3.94-1.16 8.09-.94 11.89.6 8.05 3.06 13.34 12.73 10.85 21.12-2.31 8.31-10.17 14.14-18.87 13.47-9.1-.45-16.81-8.37-16.73-17.49-.58-7.87 5.31-15.68 12.86-17.7z" fill="#cb261e"/><path d="M0 216.94c135.99-.12 272.01-.02 408-.05V218H0v-1.06z" fill="#f5f5f5"/></svg>