<svg viewBox="0 0 316 316" height="316pt" width="316pt" xmlns="http://www.w3.org/2000/svg"><path d="M0 0h316v79.1c-3.97.22-8.02.12-12 .13H0V0z" fill="#cbcbcb"/><path d="M159 9.9c17.39-.75 35.01.43 52.05 4.08 11.97 2.92 24.88 6.22 35.64 12.33 6.81 3.75 13.86 8.09 19.3 13.7 6.02 6.61 10.79 14.35 10.8 23.57-8.87.07-17.74-.03-26.61.06-.86-2.67-1.51-5.2-3.51-7.29-5.7-6.64-15.35-10.04-23.45-12.72-13.03-3.78-26.68-5.73-40.2-6.57-19.4-1.03-38.96-.2-58.01 3.81-8.82 1.67-17.56 4.51-25.57 8.56-5.75 3.17-11.07 7.21-12.29 14.08-8.95.14-17.95.18-26.9-.03.42-10.44 6.32-19.53 13.89-26.33 7.45-6.24 16.09-11.18 24.97-15.07 19.12-7.4 39.4-11.46 59.89-12.18z" fill="#6c6c6c"/><path d="M0 79.23h304c3.98-.01 8.03.09 12-.13v58.24c-1.48 4.23-1.04 8.26-1.05 12.66 0 2.06.52 3.99 1.05 5.96V316h-.4c.01-50.14.05-100.28-.02-150.41-105.19-.05-210.39-.01-315.58-.02V79.23z" fill="#515151"/><path d="M316 137.34v18.62c-.53-1.97-1.05-3.9-1.05-5.96.01-4.4-.43-8.43 1.05-12.66z" fill="#83744d"/><path d="M0 165.57c105.19.01 210.39-.03 315.58.02.07 50.13.03 100.27.02 150.41H0v-12.47c28.79-.04 57.59.1 86.38-.07-.02-43.09-.04-86.19.01-129.28-7.48-.54-14.9.05-22.39-.11-21.33-.41-42.68.19-64-.1v-8.4z" fill="#cbcbcb"/><path d="M111.07 167.12c3.55-.65 7.33-.33 10.93-.37 25 .01 50.01.02 75.01-.01 3.45 0 6.53.62 8.38 3.82 1.78 3.55.8 8.54 1.01 12.44.01 37.67-.02 75.33.01 113-.06 3.23.35 6.78-.5 9.91-1.27 3.48-4.38 4.73-7.87 4.69-27.6.06-55.43-.02-83.06.04-2.67-.09-5.46-.1-7.44-2.19-2.64-2.68-1.84-7-1.97-10.45.06-40.96.03-82.04.02-123.01-.24-3.63 1.88-7.02 5.48-7.87z" fill="#919191"/><path d="M0 173.97c21.32.29 42.67-.31 64 .1 7.49.16 14.91-.43 22.39.11-.05 43.09-.03 86.19-.01 129.28-28.79.17-57.59.03-86.38.07V173.97zM225.32 174.16c3.85-.43 7.81-.21 11.68-.16 24.86.03 49.76-.09 74.61.11-.06 43.14-.01 86.27-.03 129.41-28.78.04-57.56.01-86.34.01.04-42.97-.14-86.46.08-129.37z" fill="#981b16"/><path d="M119.71 181.13c24.16-.03 48.32-.11 72.48.04.2 35.6.01 71.22.1 106.83.01 2.37.13 4.8-.12 7.15-.3.96-1 1.38-2.1 1.29-23.43-.01-46.95.06-70.37-.05 0-38.42-.03-76.84.01-115.26z" fill="#333233"/></svg>