<svg viewBox="0 0 984 392" height="392pt" width="1312" xmlns="http://www.w3.org/2000/svg"><path d="M0 0h984v392H0V103.24c314 0 628-.01 942 0 2.8-.13 6.79.6 9.12-1.2.84-.96.55-2.82.66-4.02-.11-28.49.1-56.99-.11-85.47-3.09-2.11-6.15-1.38-9.67-1.49-11.21-.01-22.42.05-33.62-.02-10.99-4.14-21.58-4.13-32.56 0-291.54.07-584.16.01-875.82.03V0z" fill="#e6e5d8"/><path d="M908.38 11.04c4.09 1.92 7.98 4.22 11.49 7.08 12.69 10.94 18.04 28.82 12.98 44.88-4.48 15.01-17.47 26.51-32.86 29.3-14.75 2.91-30.49-2.64-40.18-14.13-6.86-7.95-10.63-18.68-10.23-29.17.46-11.9 5.92-23.06 14.88-30.87 3.42-2.94 7.3-5.15 11.36-7.09 10.98-4.13 21.57-4.14 32.56 0z" fill="#e3479a"/><path d="M0 11.07c291.66-.02 584.28.04 875.82-.03-4.06 1.94-7.94 4.15-11.36 7.09-288.16-.02-576.31 0-864.46-.01v-7.05z" fill="#0f0f0f"/><path d="M908.38 11.04c11.2.07 22.41.01 33.62.02 3.52.11 6.58-.62 9.67 1.49.21 28.48 0 56.98.11 85.47-.11 1.2.18 3.06-.66 4.02-2.33 1.8-6.32 1.07-9.12 1.2-314-.01-628 0-942 0v-7.09c314.91 0 629.82.01 944.72-.01.01-26 .01-52 0-78.01-8.29-.02-16.57 0-24.85-.01-3.51-2.86-7.4-5.16-11.49-7.08z" fill="#0f0f0f"/><path d="M0 18.12c288.15.01 576.3-.01 864.46.01-8.96 7.81-14.42 18.97-14.88 30.87-.4 10.49 3.37 21.22 10.23 29.17 9.69 11.49 25.43 17.04 40.18 14.13 15.39-2.79 28.38-14.29 32.86-29.3 5.06-16.06-.29-33.94-12.98-44.88 8.28.01 16.56-.01 24.85.01.01 26.01.01 52.01 0 78.01-314.9.02-629.81.01-944.72.01V18.12z" fill="#f5f5f5"/><path d="M83.67 158.68c56.62.26 113.43-.13 170.03.2-.07 42.67-.01 85.36-.03 128.03-56.68-.01-113.37.02-170.05-.01-.2 4.75-.09 9.5-.15 14.25-.22-6.05-.03-12.1.03-18.15V167c-.04-2.78-.06-5.55.17-8.32zM338.72 158.77c56.11-.01 112.23-.01 168.34 0 .93-.08 1.64.24 2.15.98.12 46.58-.04 94.09.08 140.71-4.11.34-8.18.16-12.29.19H347c-2.79.04-5.58.03-8.36-.16.17-47.23.01-94.49.08-141.72zM594.37 158.76c56.7.02 113.4-.02 170.1.02.08 47.27 0 94.55.04 141.82-56.72.12-113.45.02-170.17.05.01-47.3-.05-94.6.03-141.89z" fill="#333233"/><path d="M83.62 286.9c56.68.03 113.37 0 170.05.01v85.1c-50.86.2-101.8.03-152.67.08-5.84-.06-11.7.16-17.53-.13.04-23.6.05-47.21 0-70.81.06-4.75-.05-9.5.15-14.25z" fill="#e3479a"/></svg>