<svg viewBox="0 0 328 316" height="316pt" width="328pt" xmlns="http://www.w3.org/2000/svg"><path d="M0 0h328v140.07c-109.32-.04-218.69.09-328-.07V0z" fill="#333233"/><path d="M154.19 21.24c16.5-2.62 33.99 2.93 45.89 14.68 7.84 7.5 13.28 17.44 15.39 28.08 2.58 12.16.53 25.24-5.39 36.15-6.02 11.27-16.17 20.18-28.09 24.78-12.66 4.94-27.12 4.87-39.73-.22-19.4-7.6-33.16-26.84-33.81-47.71-.8-14.96 5.15-30.21 15.91-40.65 7.91-8.09 18.67-13.4 29.83-15.11z" fill="#daa625"/><path d="M0 140c109.31.16 218.68.03 328 .07v17.21H0V140z" fill="#f8c647"/><path d="M0 157.28h328V316H212.39c-.05-46.62.11-93.28-.08-139.89-28.85-.08-57.7-.03-86.55-.02-.15 46.63-.03 93.28-.07 139.91H0V157.28z" fill="#333233"/><path d="M125.76 176.09c28.85-.01 57.7-.06 86.55.02.19 46.61.03 93.27.08 139.89h-86.7c.04-46.63-.08-93.28.07-139.91zM13.53 212.21c3.4-.47 7.03-.17 10.47-.15 25.23.06 50.55-.06 75.76.03-.01 25.7-.08 51.4.04 77.1-28.68.42-57.43-.03-86.12.22-.45-5.14-.12-10.23-.21-15.41.05-20.54-.08-41.27.06-61.79zM229.74 212.03c28.82.11 57.71-.05 86.52.08.18 25.7.13 51.43.02 77.13-28.85.23-57.73.08-86.58.08-.02-25.76-.1-51.53.04-77.29z" fill="#919191"/></svg>