<svg viewBox="0 0 834 418" height="418pt" width="1112" xmlns="http://www.w3.org/2000/svg"><path d="M0 0h12.27l.92.81.52.5c7.62 7.98 13.54 18.2 19.43 27.5 2.19 3.34 4.06 7.33 6.95 10.1 1.87 1.22 4.31 1.72 6.41 2.48 4.03 1.16 7.18 3.18 11.52 2.18 9.2-1.69 19.75-2.88 27.85-7.67 13.12-8.41 30.18-11.9 44.85-17.28.09 18.4-.16 36.82.13 55.22 198.6 0 397.22.03 595.83-.02-.03-20.72-.04-41.43.01-62.14 5.51 5.23 9.88 11.13 14.94 16.69 3.31 3.4 7.01 6.44 10.73 9.38 5.61 4.11 12.29 7.47 17.63 12.26 6.6 6.27 12.69 13.58 19.98 19.04 2.92 2.28 6.41 3.43 10.05 3.88 11.35 1.3 22.61 1.55 33.98 2.26v6.74c-4-.06-8-.06-12-.05-274 .01-548 0-822 .01V0z" fill="#04521e"/><path d="M12.27 0h118.41c.13 6.2.01 12.41.04 18.62C116.05 24 98.99 27.49 85.87 35.9c-8.1 4.79-18.65 5.98-27.85 7.67-4.34 1-7.49-1.02-11.52-2.18-2.1-.76-4.54-1.26-6.41-2.48-2.89-2.77-4.76-6.76-6.95-10.1-5.89-9.3-11.81-19.52-19.43-27.5l-.52-.5-.92-.81z" fill="#fff"/><path d="M130.68 0h114.14c-5.94 2.12-13.77 3.12-18.73 7.09-2.18 1.73-2.06 4.42-1.71 6.92.75 3.84 2.44 6.95 2.22 10.99-.12 5.99-3.12 10.44-6.73 14.91-4.88 5.58-7.33 13.46-8.84 20.6 39.87 1.52 79 6.83 117.97 5.01 4.21-.17 8.18.19 12.23-1.26 2.33-4.74 1.45-9.96 1.59-15.26.15-7.62-2.94-13.71-4.15-21.02.27-4.37 3.19-8.6 3.94-12.96.52-5.02.74-9.8-2.11-14.22L340 0h23.11c1.55 6.37 3.27 12.49 4.08 19 .93 7.35 1.97 14.69 3.09 22.01.9 7.22 2.59 14.75 5.9 21.26 1.37-4.15 2.87-8.28 3.97-12.51 1.43-8.13-.08-15.61-2.15-23.44-1.34-4.89-1.21-9.76-3.38-14.13-1.96-4.21-4.39-8.22-6.8-12.19H620.6c-1.32 4.08-1.07 8.73-1.65 13.01-.7 5.78.13 11.24.66 16.98.85 8.03 2.55 15.72 6.62 22.79 1.46 2.57 3.82 4.09 6.73 4.54 6.22.94 12.92-.68 18.04-4.36 5.57-3.52 7-11.93 6.6-17.97-.93-7.36-3.61-14.6-6.21-21.52-2.11-5.73-6.79-8.81-11.4-12.39l-.56-.41-.96-.67h88.19c-.01 3.89.01 7.79.03 11.68-.05 20.71-.04 41.42-.01 62.14-198.61.05-397.23.02-595.83.02-.29-18.4-.04-36.82-.13-55.22-.03-6.21.09-12.42-.04-18.62z" fill="#103ffb"/><path d="M244.82 0H340l.5.8c2.85 4.42 2.63 9.2 2.11 14.22-.75 4.36-3.67 8.59-3.94 12.96 1.21 7.31 4.3 13.4 4.15 21.02-.14 5.3.74 10.52-1.59 15.26-4.05 1.45-8.02 1.09-12.23 1.26-38.97 1.82-78.1-3.49-117.97-5.01 1.51-7.14 3.96-15.02 8.84-20.6 3.61-4.47 6.61-8.92 6.73-14.91.22-4.04-1.47-7.15-2.22-10.99-.35-2.5-.47-5.19 1.71-6.92 4.96-3.97 12.79-4.97 18.73-7.09zM363.11 0h4.71c2.41 3.97 4.84 7.98 6.8 12.19 2.17 4.37 2.04 9.24 3.38 14.13 2.07 7.83 3.58 15.31 2.15 23.44-1.1 4.23-2.6 8.36-3.97 12.51-3.31-6.51-5-14.04-5.9-21.26-1.12-7.32-2.16-14.66-3.09-22.01-.81-6.51-2.53-12.63-4.08-19z" fill="#fbdb98"/><path d="M620.6 0h17.87l.96.67.56.41c4.61 3.58 9.29 6.66 11.4 12.39 2.6 6.92 5.28 14.16 6.21 21.52.4 6.04-1.03 14.45-6.6 17.97-5.12 3.68-11.82 5.3-18.04 4.36-2.91-.45-5.27-1.97-6.73-4.54-4.07-7.07-5.77-14.76-6.62-22.79-.53-5.74-1.36-11.2-.66-16.98.58-4.28.33-8.93 1.65-13.01z" fill="#6adfef"/><path d="M726.66 0H834v75.19c-11.37-.71-22.63-.96-33.98-2.26-3.64-.45-7.13-1.6-10.05-3.88-7.29-5.46-13.38-12.77-19.98-19.04-5.34-4.79-12.02-8.15-17.63-12.26-3.72-2.94-7.42-5.98-10.73-9.38-5.06-5.56-9.43-11.46-14.94-16.69-.02-3.89-.04-7.79-.03-11.68z" fill="#fff"/><path d="M447.06 1.08c3.81-1.56 6.59 1.37 9.11 3.75 6.41 6.72 10.73 16.21 14.63 24.55-6.42 2.63-13.08 4.68-19.61 7.03-5.13 1.65-11.33 3.87-16.74 3.03-3.13-.64-4.11-3.55-3.82-6.44.58-6.71 3-13.37 5.68-19.51 2.04-4.85 5.78-10.29 10.75-12.41zM158.25 11.24c2.17-.62 3.79.87 5.4 2.07 4.73 3.91 8.88 8.75 11.67 14.23 2.48 4.55 2.75 9.42 2.39 14.48.21 3.78-4.03 6.44-7.15 7.51-2.5.78-6.14 1.3-7.41-1.65-4.95-10.45-6.14-22.48-5.62-33.91 0-1.04.24-1.95.72-2.73zM0 81.89c274-.01 548 0 822-.01 4-.01 8-.01 12 .05v28.38c-278 0-556 .01-834-.01V81.89z" fill="#6adfef"/><path d="M0 110.3c278 .02 556 .01 834 .01v56.77c-277.99-.02-556.01.03-834-.03V110.3z" fill="#103ffb"/><path d="M0 167.05c277.99.06 556.01.01 834 .03V418H0V167.05z" fill="#6adfef"/><path d="M83.37 252.29c1.53-.14 3.09-.13 4.63-.13 55.14.12 110.32-.12 165.46.12-.01 28.24-.12 56.5.05 84.74-1.5.13-3 .24-4.51.29H95c-3.93.03-7.86.04-11.78-.12.19-28.23-.11-56.7.15-84.9zM362.36 252.29c1.54-.14 3.1-.13 4.64-.13 55.14.13 110.32-.12 165.46.12-.01 28.24-.12 56.5.05 84.74-1.5.12-3 .24-4.51.29H374c-3.93.03-7.86.04-11.78-.12.19-28.23-.11-56.7.14-84.9zM593.8 252.18c56.69.02 113.38 0 170.07 0 .6 4.96.32 9.85.36 14.82.02 22.33-.04 44.69.03 67.02.04 1.6-.12 3.51-2.22 3.3-56.07-.05-112.26.06-168.31-.06.01-28.35-.13-56.73.07-85.08z" fill="#333233"/></svg>