<svg viewBox="0 0 450 322" height="322pt" width="600" xmlns="http://www.w3.org/2000/svg"><path d="M0 0h295.69c-1.89 4.8-3.34 9.77-5.03 14.65-2.43 6.36-1.31 13.75-.5 20.35.94 8.98 1.75 17.99 2.32 27 .1 4.31.68 9.49-.85 13.59-.67 1.9-2.69 2.88-4.4 3.67-7.75 3.22-16.14 4.15-24.42 5-7.78.43-15.53 1.13-23.32 1.2-1.63 3.74-3.11 7.36-3.08 11.52-.55 8.34 1.88 16.98-3.06 24.4-2.69 2.69-7.84 2.88-11.38 3.51-6.86.97-12.24 4.5-18.96 4.78-6.99.32-14.01.21-21.01.6-5.08.32-10.3 0-15.14 1.15-1.25 4.96-2.92 11.07-6.78 14.67-1.64 1.72-4.02 2.26-6.21 2.94-13.91 3.62-27.15 7.96-41.6 7.67-4.1.02-8.14-.04-12.24.29-2.52.19-4.96.36-7.43-.37-1.92-1.91-4.11-1.51-6.6-1.71-10.49-.23-20.97-1.26-31.46-1.37-.12 2.31-.23 4.61-.22 6.92-9.87 2.17-19.5.37-28.89-2.84-2.44-.85-2.72-3.15-3.83-5.19-.77-1.83-2.1-3.15-3.65-4.33-3.96-3-8.23-5.63-12.45-8.24 1.6-3.97 4.36-6.24 7.06-9.34 4.69-6.94 8.36-15.23 9.69-23.51-.41-6.35-.92-12.95-2.45-19.13-2.02 5.28-3.47 11.2-7.68 15.25-2.65 2.57-7.84 2.13-9.75 5.3-.88 1.17-1.65 2.42-2.37 3.69V0z" fill="#095428"/><path d="M295.69 0H450v261.69c-21.91-.24-43.83.14-65.74-.19-.02-24.05.17-48.12-.1-72.16-8.21.04-16.42.03-24.62.01-3.71-5.88-9.81-9.8-16.59-11.15-10.03-2.09-21.11 2.45-26.61 11.15-15.66.03-31.32.02-46.98 0-.02-16.78-.05-33.57.02-50.35-.08-2.45.4-5.33-.81-7.51-21.07.12-42.17.09-63.25.01-.22 19.26-.04 38.53-.09 57.78-6.49.03-13.02.28-19.5-.01-1.35-1.18-.88-2.65-1.05-4.27-.19-12.08.01-24.18-.14-36.26-10.2.23-20.51-.4-30.67.29 2.19-.68 4.57-1.22 6.21-2.94 3.86-3.6 5.53-9.71 6.78-14.67 4.84-1.15 10.06-.83 15.14-1.15 7-.39 14.02-.28 21.01-.6 6.72-.28 12.1-3.81 18.96-4.78 3.54-.63 8.69-.82 11.38-3.51 4.94-7.42 2.51-16.06 3.06-24.4-.03-4.16 1.45-7.78 3.08-11.52 7.79-.07 15.54-.77 23.32-1.2 8.28-.85 16.67-1.78 24.42-5 1.71-.79 3.73-1.77 4.4-3.67 1.53-4.1.95-9.28.85-13.59-.57-9.01-1.38-18.02-2.32-27-.81-6.6-1.93-13.99.5-20.35 1.69-4.88 3.14-9.85 5.03-14.65z" fill="#fdfcfb"/><path d="M19.8 87.88c1.53 6.18 2.04 12.78 2.45 19.13-1.33 8.28-5 16.57-9.69 23.51-2.7 3.1-5.46 5.37-7.06 9.34-2.28 3.21-4.75 5.78-5.5 9.83v-37.57c.72-1.27 1.49-2.52 2.37-3.69 1.91-3.17 7.1-2.73 9.75-5.3 4.21-4.05 5.66-9.97 7.68-15.25zM205.32 131.5c21.08.08 42.18.11 63.25-.01-.41 6.48-.11 13.01-.2 19.51.08 14.67-.21 29.34.25 44v66.52c-.01.98-.01 1.96-.01 2.94-21.11.02-42.22-.03-63.32.02-.02-.98-.03-1.97-.04-2.95-.03-24.08.01-48.17-.02-72.25.05-19.25-.13-38.52.09-57.78z" fill="#3d3235"/><path d="M268.57 131.49c1.21 2.18.73 5.06.81 7.51-.07 16.78-.04 33.57-.02 50.35 15.66.02 31.32.03 46.98 0-2.85 4.43-4.67 9.32-4.61 14.65.21 12.73 10.45 24.36 23.28 25.47 9.21 1.06 18.65-2.81 23.93-10.54 6.52-8.3 6.6-20.98.6-29.58 8.2.02 16.41.03 24.62-.01.27 24.04.08 48.11.1 72.16-38.55-.06-77.1-.1-115.64.02V195c-.46-14.66-.17-29.33-.25-44 .09-6.5-.21-13.03.2-19.51z" fill="#88cc6c"/><path d="M303.34 137.34c23.95-.24 48.11-.02 72.09-.1-.01 9.51.08 19.02-.05 28.53-24.05-.12-48.1-.01-72.15-.05.08-9.45-.18-18.94.11-28.38z" fill="#3d3235"/><path d="M5.5 139.86c4.22 2.61 8.49 5.24 12.45 8.24 1.55 1.18 2.88 2.5 3.65 4.33 1.11 2.04 1.39 4.34 3.83 5.19 9.39 3.21 19.02 5.01 28.89 2.84.02 3.19.04 6.37-.33 9.56-.84 7.71-.16 15.27-1.18 22.96-.57 5.2.01 10.13-1.58 15.21-2.68 9.2-3.21 18.78-5.43 28.03-1.75 5.15-2.52 10.46-3.83 15.73-.75 3.02-1.01 6.1-1.18 9.21-3.92.62-7.84.56-11.79.47-9.67-.03-19.33.01-29-.01V149.69c.75-4.05 3.22-6.62 5.5-9.83z" fill="#fdfcfb"/><path d="M153.87 149.03c10.16-.69 20.47-.06 30.67-.29-.05 13.52.2 27.05-.22 40.56-24.01.02-48.02.08-72.03-.03-.01-10.86.02-21.72-.02-32.57 14.45.29 27.69-4.05 41.6-7.67z" fill="#3d3235"/><path d="M184.54 148.74c.15 12.08-.05 24.18.14 36.26.17 1.62-.3 3.09 1.05 4.27 6.48.29 13.01.04 19.5.01.03 24.08-.01 48.17.02 72.25-36.66-.15-73.33-.07-110-.05.01-24.04-.04-48.08.03-72.12 22.57.1 45.14.2 67.72.14 7.1-.07 14.24.21 21.32-.2.42-13.51.17-27.04.22-40.56z" fill="#88cc6c"/><path d="M54.54 153.54c10.49.11 20.97 1.14 31.46 1.37 2.49.2 4.68-.2 6.6 1.71-1.17 8.77-1.06 17.56-1.33 26.38-1.26 13-.45 25.23-4.35 37.91-2.06 8.23-2.79 16.76-4.5 25.08-1.34 8.22-4.18 15.4-3.67 23.87-12.46-.02-24.93-.03-37.4 0 .01-3.94-.19-8 .29-11.91 1.11-7.45 3.79-14.16 4.16-21.73 2.22-9.25 2.75-18.83 5.43-28.03 1.59-5.08 1.01-10.01 1.58-15.21 1.02-7.69.34-15.25 1.18-22.96.37-3.19.35-6.37.33-9.56-.01-2.31.1-4.61.22-6.92z" fill="#3d3235"/><path d="M92.6 156.62c2.47.73 4.91.56 7.43.37 4.1-.33 8.14-.27 12.24-.29.04 10.85.01 21.71.02 32.57 24.01.11 48.02.05 72.03.03-7.08.41-14.22.13-21.32.2-22.58.06-45.15-.04-67.72-.14-.07 24.04-.02 48.08-.03 72.12-5.04.14-10.08.23-15.13.11 2.73-10.93 4.51-22.01 6.4-33.1.39-2.53.34-5.03.4-7.58 3.9-12.68 3.09-24.91 4.35-37.91.27-8.82.16-17.61 1.33-26.38z" fill="#fdfcfb"/><path d="M342.95 178.2c6.78 1.35 12.88 5.27 16.59 11.15 6 8.6 5.92 21.28-.6 29.58-5.28 7.73-14.72 11.6-23.93 10.54-12.83-1.11-23.07-12.74-23.28-25.47-.06-5.33 1.76-10.22 4.61-14.65 5.5-8.7 16.58-13.24 26.61-11.15z" fill="#ff2a1a"/><path d="M86.92 220.91c-.06 2.55-.01 5.05-.4 7.58-1.89 11.09-3.67 22.17-6.4 33.1 5.05.12 10.09.03 15.13-.11 36.67-.02 73.34-.1 110 .05.01.98.02 1.97.04 2.95 21.1-.05 42.21 0 63.32-.02 0-.98 0-1.96.01-2.94 38.54-.12 77.09-.08 115.64-.02 21.91.33 43.83-.05 65.74.19V322H0v-60.38c9.67.02 19.33-.02 29 .01 3.95.09 7.87.15 11.79-.47.17-3.11.43-6.19 1.18-9.21 1.31-5.27 2.08-10.58 3.83-15.73-.37 7.57-3.05 14.28-4.16 21.73-.48 3.91-.28 7.97-.29 11.91 12.47-.03 24.94-.02 37.4 0-.51-8.47 2.33-15.65 3.67-23.87 1.71-8.32 2.44-16.85 4.5-25.08z" fill="#e4e0cf"/></svg>