<svg viewBox="0 0 912 496" height="496pt" width="1216" xmlns="http://www.w3.org/2000/svg"><path d="M0 0h89.44c.01 76.08 0 152.15.01 228.23-29.81.04-59.65-.05-89.45.04V0z" fill="#fff"/><path d="M89.44 0h37.92c-.04 61.86-.09 123.74.02 185.6-3.43 1.73-5.43 5.72-6.69 9.18-1.84 6.17-1.18 13.41-.14 19.68 1.1 4.57 4.18 8.14 8.43 10.09l-1.56.7c-.21 6.15-.14 12.38-.03 18.54l1.31.06c-.68 1.06-1.39 2.11-2.11 3.15.64 2.68 1.7 5.33 2.08 8.07.27 6.55-.74 13.4-1.42 19.91-1.38 16.65-3.41 32.97-1.82 49.72-.79.27-1.57.54-2.36.81 1.12 4.68 3.12 9.03 4.41 13.66-.31 11.1-.07 22.23-.13 33.34-6.3.08-12.6.02-18.89.04-6.34-.02-12.67.03-19-.04-.01-48.09 0-96.19-.01-144.28-.01-76.08 0-152.15-.01-228.23z" fill="#e4e0cf"/><path d="M127.36 0H912v300.39c-230.02-.02-460.05.03-690.08-.02-1.25-5.76-4-11.55-3.69-17.37.06-18.19-.05-36.37.06-54.56-5.86-.39-11.81-.25-17.68-.07l.05 2.92c-3.22-1.19-7.22-3.58-10.67-2.66-10.48 1.47-19.61 6.28-29.85 8.61-3.66.84-7.15 2.18-10.76 3.16-6.89 1.6-13.85 1.44-20.68 3.45l-1.31-.06c-.11-6.16-.18-12.39.03-18.54l1.56-.7c9.29 4.52 21.94 3.47 32.02 3.63 4.33.36 8.76-1.93 12.96-3.13 1.49-.38 1.82-2.18 3.25-2.85 4.73-2.73 9.56-5.39 14.57-7.55 4.68-2 10.69-2.12 14.66-5.2 5.5-3.99 10.5-9.36 13.36-15.57 2.25-5.59 3.1-11.8 4.77-17.58-7.36-1.32-17.13-.36-23.85-4-3.93-2.34-3.47-6.34-4.14-10.29-2.17-14.65-4.05-29.2-4.42-44.03-1.18-7.92-.28-15.99-1.43-23.88-.51-7.07-.06-14.11-1.01-21.09-.35-6.69-.22-13.42-.62-20.11-.84-5.63-.26-11.38-.86-17.01-1.5-3.7-3.74-7.13-5.59-10.66-4.23-7.88-10.99-14.53-18.39-19.46-2.8-1.76-6.34-3.15-9.32-.94-3.17 2.5-4.48 7.49-5.88 11.14-6.83 23.68-10.61 49.44-7.79 74.02.21 4.2.08 8.62.63 12.78.79 5.03.29 10.09 1.22 15.11 1.09 15.09 2.57 30.29 3.62 45.37.93 5.63.6 11.3 1.65 16.92-7.3.76-14.34 2.26-21.01 5.43-.11-61.86-.06-123.74-.02-185.6z" fill="#fff"/><path d="M164.26 5.77c7.4 4.93 14.16 11.58 18.39 19.46 1.85 3.53 4.09 6.96 5.59 10.66.6 5.63.02 11.38.86 17.01.4 6.69.27 13.42.62 20.11.95 6.98.5 14.02 1.01 21.09 1.15 7.89.25 15.96 1.43 23.88.37 14.83 2.25 29.38 4.42 44.03.67 3.95.21 7.95 4.14 10.29 6.72 3.64 16.49 2.68 23.85 4-1.67 5.78-2.52 11.99-4.77 17.58-2.86 6.21-7.86 11.58-13.36 15.57-3.97 3.08-9.98 3.2-14.66 5.2-5.01 2.16-9.84 4.82-14.57 7.55-1.43.67-1.76 2.47-3.25 2.85-4.2 1.2-8.63 3.49-12.96 3.13-10.08-.16-22.73.89-32.02-3.63-4.25-1.95-7.33-5.52-8.43-10.09-1.04-6.27-1.7-13.51.14-19.68 1.26-3.46 3.26-7.45 6.69-9.18 6.67-3.17 13.71-4.67 21.01-5.43-1.05-5.62-.72-11.29-1.65-16.92-1.05-15.08-2.53-30.28-3.62-45.37-.93-5.02-.43-10.08-1.22-15.11-.55-4.16-.42-8.58-.63-12.78-2.82-24.58.96-50.34 7.79-74.02 1.4-3.65 2.71-8.64 5.88-11.14 2.98-2.21 6.52-.82 9.32.94z" fill="#cf2114"/><path d="M0 228.27c29.8-.09 59.64 0 89.45-.04.01 48.09 0 96.19.01 144.28 6.33.07 12.66.02 19 .04.1 41.15.08 82.3 0 123.45H0V228.27z" fill="#515151"/><path d="M218.29 228.44c-.11 18.19 0 36.37-.06 54.56-.31 5.82 2.44 11.61 3.69 17.37 3.63 13 7.15 26.04 10.8 39.04-6.83 1.96-13.21 4.94-19.82 7.51-4.98 2.03-9.91 3.5-14.39 6.59-3.68 2.52-7.8 4.14-11.66 6.34-3.63 2.47-6.89 5.3-10.94 7.14-8.7 4.02-18.01 6.93-27.15 9.79-2.49.86-4.96 1.7-7.56 2.16-4.53-13.27-9-26.57-13.72-39.77-1.29-4.63-3.29-8.98-4.41-13.66.79-.27 1.57-.54 2.36-.81 7.5-2.52 15.36-4.73 22.76-7.58 2.59-1.01 4.41-2.73 6.65-4.29 3.04-2.14 6.3-3.73 9.64-5.32 3.81-1.75 6.91-4.53 10.71-6.3 8.24-3.99 16.98-6.97 25.43-10.51.19-19.81.1-39.6.04-59.41l-.05-2.92c5.87-.18 11.82-.32 17.68.07z" fill="#cf2114"/><path d="M189.99 228.63c3.45-.92 7.45 1.47 10.67 2.66.06 19.81.15 39.6-.04 59.41-8.45 3.54-17.19 6.52-25.43 10.51-3.8 1.77-6.9 4.55-10.71 6.3-3.34 1.59-6.6 3.18-9.64 5.32-2.24 1.56-4.06 3.28-6.65 4.29-7.4 2.85-15.26 5.06-22.76 7.58-1.59-16.75.44-33.07 1.82-49.72.68-6.51 1.69-13.36 1.42-19.91-.38-2.74-1.44-5.39-2.08-8.07.72-1.04 1.43-2.09 2.11-3.15 6.83-2.01 13.79-1.85 20.68-3.45 3.61-.98 7.1-2.32 10.76-3.16 10.24-2.33 19.37-7.14 29.85-8.61z" fill="#cbcbcb"/><path d="M221.92 300.37c230.03.05 460.06 0 690.08.02V496H108.46c.08-41.15.1-82.3 0-123.45 6.29-.02 12.59.04 18.89-.04.06-11.11-.18-22.24.13-33.34 4.72 13.2 9.19 26.5 13.72 39.77 2.6-.46 5.07-1.3 7.56-2.16 9.14-2.86 18.45-5.77 27.15-9.79 4.05-1.84 7.31-4.67 10.94-7.14 3.86-2.2 7.98-3.82 11.66-6.34 4.48-3.09 9.41-4.56 14.39-6.59 6.61-2.57 12.99-5.55 19.82-7.51-3.65-13-7.17-26.04-10.8-39.04z" fill="#0d6935"/></svg>