<svg viewBox="0 0 350 270" height="360" width="350pt" xmlns="http://www.w3.org/2000/svg"><path d="M0 0h350v270H204.27c0-39.61-.01-79.21.01-118.82 2.82-.01 5.65.01 8.48.02-.07 31.15.11 62.32-.09 93.47 3.44.67 6.85.49 10.33.47 25.52 0 51.05.01 76.57-.01.03-38.5.06-77.01-.02-115.52-8.2.05-16.36-.2-24.55.47-11.62-.13-23.28.37-34.87-.43-3.29-.1-6.55-.01-9.84.02v-.62c25.22.08 50.5-.42 75.71.51 14.22-.04 28.45.03 42.67-.03.07-24.08.02-48.17.02-72.25-.01-9.47.08-18.95-.05-28.42-116.21-.04-232.43-.01-348.64-.02V0z" fill="#cfc8a9"/><path d="M0 28.84c116.21.01 232.43-.02 348.64.02.13 9.47.04 18.95.05 28.42-116.23-.02-232.46 0-348.69-.01V28.84z" fill="#cf2114"/><path d="M0 57.27c116.23.01 232.46-.01 348.69.01 0 24.08.05 48.17-.02 72.25-14.22.06-28.45-.01-42.67.03-25.21-.93-50.49-.43-75.71-.51.02-11.48-.11-22.97.07-34.45-5.76-.44-11.58-.13-17.36-.22-36.75.09-73.54-.16-110.29.13.02 11.65.01 23.31 0 34.96-25.02.05-50.04-.05-75.06.05-9.22.06-18.43.01-27.65.03V57.27z" fill="#fff"/><path d="M213 94.38c5.78.09 11.6-.22 17.36.22-.18 11.48-.05 22.97-.07 34.45v.62c-.03 7.16 0 14.32-.03 21.47-5.83.05-11.67.02-17.5.06-2.83-.01-5.66-.03-8.48-.02-.02 39.61-.01 79.21-.01 118.82h-72.6c-.01-39.6.02-79.21-.01-118.82-5.73-.04-11.45 0-17.18-.01-4.02-.06-7.87.33-11.86-.47.21-7.07.07-14.15.09-21.23.01-11.65.02-23.31 0-34.96 36.75-.29 73.54-.04 110.29-.13z" fill="#34dcdc"/><path d="M102.71 129.47c-.02 7.08.12 14.16-.09 21.23 3.99.8 7.84.41 11.86.47 0 31.32.04 62.64-.01 93.96-27.15.03-54.32-.02-81.46.03-1.81-.03-3.61-.18-5.41-.35.11-38.43.01-76.86.05-115.29 25.02-.1 50.04 0 75.06-.05z" fill="#333233"/><path d="M0 129.55c9.22-.02 18.43.03 27.65-.03-.04 38.43.06 76.86-.05 115.29 1.8.17 3.6.32 5.41.35 27.14-.05 54.31 0 81.46-.03.05-31.32.01-62.64.01-93.96 5.73.01 11.45-.03 17.18.01.03 39.61 0 79.22.01 118.82H0V129.55z" fill="#cfc8a9"/><path d="M230.29 129.67c3.29-.03 6.55-.12 9.84-.02 11.59.8 23.25.3 34.87.43 8.19-.67 16.35-.42 24.55-.47.08 38.51.05 77.02.02 115.52-25.52.02-51.05.01-76.57.01-3.48.02-6.89.2-10.33-.47.2-31.15.02-62.32.09-93.47 5.83-.04 11.67-.01 17.5-.06.03-7.15 0-14.31.03-21.47z" fill="#333233"/></svg>