<svg viewBox="0 0 268 326" height="326pt" width="268pt" xmlns="http://www.w3.org/2000/svg"><path d="M0 0h268v2.22c-83.99-.11-168-.01-252-.05-5.34 0-10.67.08-16-.1V0z" fill="#b5b5b5"/><path d="M0 2.07c5.33.18 10.66.1 16 .1 84 .04 168.01-.06 252 .05v145.9c-7.81-13.55-22.28-22.85-37.96-23.71-9.2-.72-18.94.94-26.97 5.66-14.08 7.31-23.4 22.14-24.92 37.83-.81-4.1-1.48-8.16-2.96-12.09-2.61-7.74-7.86-14.67-13.83-20.16-6.88-5.52-15.48-9.97-24.35-10.9-10.44-1.45-21.68.11-30.81 5.59-15.28 8.21-24.46 24.76-24.71 41.97 4.5.2 9 .16 13.51.15 3.9-.02 7.43.58 11.19-.87-1.24-4.52 1.93-10.24 4.55-13.84 7.4-10.54 23.19-12.51 33.39-4.88 5.78 4.46 10.12 11.86 9.86 19.31-15.34.07-30.69-.04-46.02.05-10.61.8-21.35-.02-31.97.29-7.35.08-14.66.08-22-.32-14.53.05-29.08-.11-43.61.08.03 6.25.08 12.49-.03 18.74 3.83.4 7.79.15 11.64.21 76.48 0 152.96.01 229.44-.01.04-6.33.04-12.65-.01-18.98 5.53 0 11.05.01 16.57 0v33.97c-78.12.03-156.4-.06-234.5.05-.04 39.87 0 79.85-.01 119.74H0V172.25c3.08 0 6.16 0 9.24-.01-.02-11.49 9.19-22.46 20.75-23.75 9-1.29 18.3 2.53 23.27 10.24 3.05 4.1 4.05 8.54 4.69 13.51 7.79.44 15.67.25 23.47.07.81-14.52-6.82-28.77-17.91-37.83-7.31-5.31-15.36-9.24-24.5-9.9-14.32-1.82-28.49 3.03-39.01 12.79V2.07z" fill="#e8c79b"/><path d="M35.97 12.4c13.29.1 26.62-.1 39.89.1 3.67.2 6.19 2.77 6.24 6.46.08 26.93.01 54.09.03 81.04-.11 3.11.4 6.58-.48 9.57-1.32 3.3-4.36 4.08-7.62 4-13.53-.05-27.11.09-40.63-.07-3.74-.17-6.3-2.68-6.22-6.47-.06-28.94.01-58.09-.03-87.05.02-1.98.12-3.78 1.5-5.33 1.95-2.27 4.59-2.21 7.32-2.25zM106.99 12.48c12.99-.15 26.02.01 39.02-.08 2.76.06 5.51-.17 7.62 1.96 1.57 1.59 1.9 3.47 1.86 5.64-.03 26.65-.01 53.34-.02 80-.04 2.99.22 6.08-.23 9.04-.99 2.87-3.36 4.44-6.37 4.48-12.95.13-25.92-.02-38.87.07-2.79-.09-5.55.27-7.69-1.91-1.62-1.61-1.87-3.45-1.82-5.65.04-28.96-.01-58.1.03-87.05-.15-3.66 2.85-6.54 6.47-6.5zM184.13 12.47c12.94-.14 25.92.02 38.87-.07 2.82.09 5.51-.25 7.69 1.91 1.64 1.61 1.95 3.46 1.91 5.69-.03 26.66-.01 53.34-.02 80-.28 3.6 1.05 9.05-1.86 11.71-2.2 2.13-4.89 1.79-7.72 1.88-12.95-.08-25.92.06-38.86-.07-3.64.07-6.69-2.82-6.51-6.5-.02-29.29-.03-58.75.01-88.04-.14-3.7 2.85-6.52 6.49-6.51z" fill="#090909"/><path d="M39.81 25.1c9.86.01 19.72 0 29.58.01.06 25.24.17 50.53-.06 75.77-9.81.01-19.63 0-29.45.01-.22-25.25-.07-50.53-.07-75.79zM113.25 25.18c9.84-.18 19.71-.04 29.55-.06-.02 25.25-.01 50.49-.01 75.74-9.86.04-19.73.04-29.59 0 .02-25.18-.08-50.52.05-75.68zM190.35 25.19c9.83-.21 19.7-.02 29.54-.08 0 25.26 0 50.51-.01 75.77-9.86-.02-19.72.05-29.58-.04.04-25.16-.06-50.51.05-75.65z" fill="#b5b5b5"/><path d="M137.01 124.75c8.87.93 17.47 5.38 24.35 10.9 5.97 5.49 11.22 12.42 13.83 20.16 1.48 3.93 2.15 7.99 2.96 12.09 1.52-15.69 10.84-30.52 24.92-37.83 8.03-4.72 17.77-6.38 26.97-5.66 15.68.86 30.15 10.16 37.96 23.71v24.12c-5.52.01-11.04 0-16.57 0 .05 6.33.05 12.65.01 18.98-76.48.02-152.96.01-229.44.01-3.85-.06-7.81.19-11.64-.21.11-6.25.06-12.49.03-18.74 14.53-.19 29.08-.03 43.61-.08 7.34.4 14.65.4 22 .32 10.62-.31 21.36.51 31.97-.29 15.33-.09 30.68.02 46.02-.05.26-7.45-4.08-14.85-9.86-19.31-10.2-7.63-25.99-5.66-33.39 4.88-2.62 3.6-5.79 9.32-4.55 13.84-3.76 1.45-7.29.85-11.19.87-4.51.01-9.01.05-13.51-.15.25-17.21 9.43-33.76 24.71-41.97 9.13-5.48 20.37-7.04 30.81-5.59z" fill="#090909"/><path d="M39.01 124.58c9.14.66 17.19 4.59 24.5 9.9 11.09 9.06 18.72 23.31 17.91 37.83-7.8.18-15.68.37-23.47-.07-.64-4.97-1.64-9.41-4.69-13.51-4.97-7.71-14.27-11.53-23.27-10.24-11.56 1.29-20.77 12.26-20.75 23.75-3.08.01-6.16.01-9.24.01v-34.88c10.52-9.76 24.69-14.61 39.01-12.79z" fill="#090909"/><path d="M235.16 149.9c8.9 3.41 15.3 12.82 15.33 22.32-16.15-.07-32.3.02-48.45-.05-.04-6.96 3.31-13.17 8.19-17.94 6.72-6.04 16.56-7.54 24.93-4.33z" fill="#e8c79b"/><path d="M33.5 206.26c78.1-.11 156.38-.02 234.5-.05V326H33.49c.01-39.89-.03-79.87.01-119.74z" fill="#090909"/></svg>