<svg viewBox="0 0 282 276" height="368" width="376" xmlns="http://www.w3.org/2000/svg"><path d="M0 0h282v276H0V0z" fill="#cbcbcb"/><path d="M59.66 44.66c4.07-.47 8.25-.16 12.34-.2h131.91c.7 12.53.33 25.2.21 37.75-39.7.25-79.42.03-119.12.11-8.52-.12-17.08.28-25.57-.27.22-12.44-.29-24.98.23-37.39z" fill="#93c6f2"/><path d="M12 109.17c20.33.02 40.67.04 61 0 2.71.04 5.6-.2 8.25.39 1.42 1.27 1.01 2.73 1.15 4.44-.07 38.2-.01 76.41-.04 114.61-4.48 1.13-8.8.75-13.36.76H19c-4.67-.02-8.98.36-13.58-.7-.17-36.88 0-73.79-.09-110.67.02-2.76-.03-5.61.3-8.34 2.11-.37 4.23-.47 6.37-.49zM198 109.17c20.33.03 40.67.02 61 .01 2.52.02 5.04.04 7.56.25 1.1 5.23.66 10.29.71 15.57.02 34.07-.02 68.15.02 102.22-.42.68-.84 1.37-1.26 2.05-22.33.27-44.69-.01-67.03.14-2.91.02-5.81-.08-8.67-.61-.16-33.59-.02-67.2-.07-100.8.05-6.14-.15-12.32.18-18.45 2.51-.28 5.03-.36 7.56-.38z"/><path d="M100.43 111.63c23.89-.31 48.02-.05 71.94-.12.02 53.9.01 107.81 0 161.72-24.04 0-48.08.02-72.12 0 .01-50.08.01-100.15 0-150.23.04-3.78-.2-7.62.18-11.37z" fill="#333233"/><path d="M10.3 113.81c22.4 0 44.8-.01 67.2.01.1 36.91.04 73.82.03 110.73-22.42.12-44.85.04-67.26.04-.01-36.92-.08-73.85.03-110.78zM195.25 113.81h67.11c.06 36.93.02 73.86.02 110.79-22.4 0-44.79.04-67.18-.02-.01-36.92-.11-73.85.05-110.77z" fill="#d1e1f3"/></svg>