<svg viewBox="0 0 734 670" height="670pt" width="734pt" xmlns="http://www.w3.org/2000/svg"><path d="M0 0h734v670H444.56c.03-96.15.08-192.46-.02-288.61-.66-.63-1.31-1.27-1.94-1.93-41.69-.05-83.51-.09-125.19.02-.65.64-1.3 1.28-1.95 1.91-.09 95.14-.03 190.45-.03 285.6.07 1.07-.07 2.07-.41 3.01H0V0z" fill="#f5f5f5"/><path d="M123.99 66.99c34 .02 68.01.02 102.01 0 1.4.07 3.27-.24 4.5.53.99 1.14.61 3.06.7 4.48-.03 57.99-.01 116.03-.01 174.02.02 1.59-.37 2.86-2.17 2.95-35.27.08-70.75.03-106.04.03-2.05.03-3.12-.86-2.98-2.98.01-57.34 0-114.68 0-172.02.07-1.9-.21-3.94.22-5.8.95-1.42 2.27-1.15 3.77-1.21zM339.98 66.99c34.67.01 69.36.02 104.03 0 .94.01 1.87.09 2.8.25.96 1.68.56 3.85.64 5.76-.01 57-.02 114 0 171-.08 1.44.31 3.53-.7 4.68-1.47.52-3.21.28-4.75.34-33.67-.02-67.33-.02-101 0-1.21-.11-3.54.31-4.1-1.1-.59-1.5-.25-3.33-.34-4.92.04-57.89-.05-116.2.05-174.04.35-2.06 1.66-1.9 3.37-1.97zM535.05 67.08c34.5-.19 69.4-.01 103.95-.09 1.46.08 3.31-.24 4.63.46 1.38.96.83 2.08.95 3.52-.04 58.63.02 117.28-.02 175.91.07 1.79-2.13 2.22-3.54 2.13-34.97-.02-70.08.03-105.04-.02-1.93.02-3.05-1-2.86-2.97.01-57.34 0-114.68 0-172.02.31-2.12-1.09-6.46 1.93-6.92z" fill="#333233"/><path d="M123.43 70.41c4.84-.25 9.72-.06 14.57-.12 29.87.06 59.78-.11 89.64.09.12.86.2 1.73.24 2.59v170.06c-.04.86-.12 1.73-.24 2.59-34.74.07-69.5.11-104.23-.02.04-58.33 0-116.84.02-175.19zM340.39 70.4c34.34-.24 68.96-.07 103.32-.08.67 2.24.37 4.35.42 6.68v162c-.06 2.34.27 4.44-.43 6.66-34.44-.01-68.91.07-103.34-.04-.4-2.22-.26-4.39-.27-6.62V77c.04-2.16-.2-4.49.3-6.6zM536.43 70.43c1.85-.15 3.72-.13 5.57-.14 32.9.03 65.82-.03 98.71.03.44 2.23.27 4.42.29 6.68v162c-.03 2.26.17 4.43-.31 6.66-34.75-.03-69.53.11-104.28-.07.05-58.36.01-116.79.02-175.16z" fill="#b5b5b5"/><path d="M53.38 334.43c2.19-.19 4.42-.1 6.62-.11 201.68 0 403.35-.01 605.03 0l2.57.06c-.05 5.5.02 11.01-.03 16.51.05 1.54-1.28 1.8-2.55 1.69-203.89 0-407.8-.03-611.69.02-1.16-2.9-.35-6.51-.58-9.6.23-2.69-.6-6.14.63-8.57z" fill="#34dcdc"/><path d="M317.41 379.48c41.68-.11 83.5-.07 125.19-.02.63.66 1.28 1.3 1.94 1.93.1 96.15.05 192.46.02 288.61h-6.69c.41-1.93.23-4.03.26-6-.01-92 0-184-.01-276.01l-.23-1.94c-.91-.28-1.88-.4-2.88-.35-35.67.04-71.34.02-107.01.02-2.31.06-4.44-.31-6.58.66.03 92.87 0 185.75.02 278.62-.06 1.62.22 3.49-.41 5h-6.01c.34-.94.48-1.94.41-3.01 0-95.15-.06-190.46.03-285.6.65-.63 1.3-1.27 1.95-1.91zM491.12 381.44c72.08-.06 144.43.02 216.52-.04.08 1.54.15 3.07.13 4.6-.1 45.5.14 91.19-.13 136.66-.87.12-1.74.2-2.61.24H493c-1.2-.04-2.4-.14-3.6-.28.04-46.21.02-92.43.02-138.64-.11-1.26.18-2.58 1.7-2.54z" fill="#b5b5b5"/><path d="M492.24 384.2c1.38-.7 3.24-.36 4.76-.45 67.33.03 134.67.01 202 .01 2.34.09 4.55-.34 6.65.55.05 45.45.03 90.93.01 136.39-.87.17-1.75.27-2.64.3H499c-2.29-.02-4.55.12-6.83-.2l-.16-1.79c0-43.33.01-86.67 0-130.01.04-1.57-.18-3.27.23-4.8zM52.44 385.39c2.07-.54 4.42-.32 6.56-.35 67.33 0 134.67-.01 202 0 2.34 0 4.66-.07 7 .13.72 2.1.27 4.63.31 6.83.05 42.64 0 85.35.03 128-.05 1.53.18 3.31-.4 4.75-2.31.09-4.62.18-6.94.17-69.58.04-139.17-.03-208.73.04.03-1.32.08-2.64.13-3.96.02-45.19-.03-90.42.04-135.61z" fill="#333233"/><path d="M268 385.17l.68.17c.4 4.28 1.57 8.27 1.43 12.66.03 41.33 0 82.68.02 124.01.24 2.36-1.41 4.57-2.27 6.75-1.49 1.88-4.53 2.72-6.86 2.53-67 0-134-.01-201 0-2.43.19-5.23-.66-6.85-2.53-.42-1.22-.67-2.52-.88-3.8 69.56-.07 139.15 0 208.73-.04 2.32.01 4.63-.08 6.94-.17.58-1.44.35-3.22.4-4.75-.03-42.65.02-85.36-.03-128-.04-2.2.41-4.73-.31-6.83z" fill="#b5b5b5"/><path d="M321.42 386.38c2.14-.97 4.27-.6 6.58-.66 35.67 0 71.34.02 107.01-.02 1-.05 1.97.07 2.88.35l.23 1.94c.01 92.01 0 184.01.01 276.01-.03 1.97.15 4.07-.26 6H321.03c.63-1.51.35-3.38.41-5-.02-92.87.01-185.75-.02-278.62z" fill="#333233"/></svg>