<svg viewBox="0 0 81 32" height="32pt" width="108" xmlns="http://www.w3.org/2000/svg"><path d="M0 0h81v22.52c-6.04-.08-12.07-.03-18.11-.05-.02-1.5-.03-3-.04-4.51 3.02.02 6.03.02 9.05.01C59.93 11.96 47.95 5.99 35.97.01 25.57 5.22 15.15 10.37 4.78 15.62c-1.53.76-3.13 1.32-4.78 1.77V0z" fill="#fff"/><path d="M35.97.01C47.95 5.99 59.93 11.96 71.9 17.97c-3.02.01-6.03.01-9.05-.01-17.97-.01-35.95-.05-53.92.02-2.98.07-5.96-.09-8.93-.35v-.24c1.65-.45 3.25-1.01 4.78-1.77C15.15 10.37 25.57 5.22 35.97.01z" fill="#db0303"/><path d="M0 17.63c2.97.26 5.95.42 8.93.35-.08 4.46-.06 8.91.03 13.37 12.01.24 24.03.02 36.04.1 5.79.1 11.42-.42 17.18.55H0V17.63z" fill="#fff"/><path d="M8.93 17.98c17.97-.07 35.95-.03 53.92-.02.01 1.51.02 3.01.04 4.51.01 2.94.03 5.88.05 8.82 5.94.01 11.88.02 17.81-.01-.01-2.86.1-5.71.25-8.56V32H62.18c-5.76-.97-11.39-.45-17.18-.55-12.01-.08-24.03.14-36.04-.1-.09-4.46-.11-8.91-.03-13.37z" fill="#d9d9d9"/><path d="M26.87 19.17c4.49-.01 8.99-.01 13.48 0v8.98c-4.49.01-8.99.01-13.48 0v-8.98zM44.87 19.17c4.49-.01 8.99-.01 13.48 0v8.98c-4.49.01-8.99.01-13.48 0v-8.98z" fill="#0d0d0d"/><path d="M62.89 22.47c6.04.02 12.07-.03 18.11.05v.2c-.15 2.85-.26 5.7-.25 8.56-5.93.03-11.87.02-17.81.01-.02-2.94-.04-5.88-.05-8.82z" fill="#595959"/></svg>