<svg viewBox="0 0 842 302" height="302pt" width="842pt" xmlns="http://www.w3.org/2000/svg"><path d="M0 0h842v198.67c-24.58.11-49.2.02-73.78.04.15-35.12-.02-70.26.08-105.38.02-5.4-.02-10.8-.03-16.2-.08-17.04-.01-34.09-.04-51.13.06-4.58.1-9.14-.24-13.71-225.95-.05-452.03 0-677.99-.03-3.59-.01-7.22-.08-10.81.1-.73 5.65-.32 10.94-.4 16.64-.04 16.08.08 32.15-.07 48.23.06 5.38-.16 10.75-.06 16.13.19 31.21.02 62.43.08 93.64.05 4.59-.19 8.93.22 13.45-26.32.06-52.64 0-78.96.03V0z" fill="#fff"/><path d="M79.19 12.36c3.59-.18 7.22-.11 10.81-.1 225.96.03 452.04-.02 677.99.03.34 4.57.3 9.13.24 13.71.03 17.04-.04 34.09.04 51.13-224.42.01-448.85 0-673.27.01-5.43 0-10.85-.06-16.28.09.15-16.08.03-32.15.07-48.23.08-5.7-.33-10.99.4-16.64z" fill="#e0e0e0"/><path d="M500.55 24.44c-.01 12.62.02 25.23-.02 37.85-67.6-.05-135.2.05-202.8-.05 0-12.58.01-25.17 0-37.75 67.6-.12 135.22-.02 202.82-.05z" fill="#0f0f0f"/><path d="M327.41 35.47c4.14-1.34 8.81.49 10.34 4.68 1.8 4.58-2.12 9.48-6.78 9.75-4.43.52-9.29-3.12-8.73-7.85-.15-2.98 2.56-5.63 5.17-6.58zM403.38 35.15c26.88-.27 54.07-.03 80.99-.11.01 4.96.01 9.93-.01 14.9-27.02-.02-54.05.02-81.08-.03.12-4.91-.16-9.85.1-14.76zM78.72 77.23c5.43-.15 10.85-.09 16.28-.09 224.42-.01 448.85 0 673.27-.01.01 5.4.05 10.8.03 16.2-229.88.04-459.76-.02-689.64.03-.1-5.38.12-10.75.06-16.13z" fill="#ff2a1a"/><path d="M78.66 93.36c229.88-.05 459.76.01 689.64-.03-.1 35.12.07 70.26-.08 105.38-.17 13.4-.2 26.85.01 40.25-26.55.13-53.1-.03-79.65.08-.11-38.16-.12-76.37 0-114.53-1.2-.45-2.27-.97-3.57-1.01-187.94-.05-376.12.03-564.05-.04-1.6.04-3.14.34-4.7.67-.11 38.27-.06 76.59-.03 114.86-12.31-.02-24.62.07-36.93-.05-.19-12.81.46-25.72-.34-38.49-.41-4.52-.17-8.86-.22-13.45-.06-31.21.11-62.43-.08-93.64z" fill="#333233"/><path d="M120.96 123.46c187.93.07 376.11-.01 564.05.04 1.3.04 2.37.56 3.57 1.01-.12 38.16-.11 76.37 0 114.53l.06 1.31c-3.15 2.15-6.95 1.16-10.64 1.35-185.99-.03-372.04.02-558.02-.03-1.24-.06-2.42-.4-3.6-.78l-.15-1.9c-.03-38.27-.08-76.59.03-114.86 1.56-.33 3.1-.63 4.7-.67z" fill="#ff2a1a"/><path d="M121.08 128.38c.96-.1 1.92-.15 2.89-.17 186.54.04 373.2-.03 559.72.03.06 11.79.01 23.57.03 35.35-25.84.01-51.67 0-77.51.01-27.12.01-54.24-.06-81.35.03-.13 24.44-.03 48.88-.05 73.32-13.48.02-26.96 0-40.43.01-.01-24.46 0-48.91-.01-73.36-54.05-.01-108.09 0-162.14-.01-.02 24.46 0 48.91-.01 73.37-37.89-.01-75.77.01-113.66-.01 0-24.46.02-48.91-.01-73.36-16.08-.06-32.17.14-48.25-.1-.63 3.16-.53 6.31-.48 9.51.01 21.31-.01 42.62.01 63.92-13.04.01-26.08.14-39.12-.07 0-33.28.01-66.57 0-99.85.05-2.82-.32-5.87.37-8.62z" fill="#333233"/><path d="M160.3 163.49c16.08.24 32.17.04 48.25.1.03 24.45.01 48.9.01 73.36-16.24 0-32.49.04-48.73-.03-.02-21.3 0-42.61-.01-63.92-.05-3.2-.15-6.35.48-9.51z" fill="#fff"/><path d="M322.23 163.59c54.05.01 108.09 0 162.14.01.01 24.45 0 48.9.01 73.36H322.22c.01-24.46-.01-48.91.01-73.37z" fill="#cbcbcb"/><path d="M606.21 163.6c25.84-.01 51.67 0 77.51-.01.01 24.45 0 48.9 0 73.35-25.84.03-51.67.02-77.51.01.01-24.45 0-48.9 0-73.35z" fill="#8df9fe"/><path d="M768.22 198.71c24.58-.02 49.2.07 73.78-.04v81.11c-254.12.03-508.27-.04-762.38.03-.52.56-1.04 1.13-1.55 1.71-26.02.07-52.05.01-78.07.03v-81.07c26.32-.03 52.64.03 78.96-.03.8 12.77.15 25.68.34 38.49 12.31.12 24.62.03 36.93.05l.15 1.9c1.18.38 2.36.72 3.6.78 185.98.05 372.03 0 558.02.03 3.69-.19 7.49.8 10.64-1.35 1.79-.16 3.57-.29 5.36-.32 24.75-.04 49.51.1 74.27-.06l-.04-1.01c-.21-13.4-.18-26.85-.01-40.25z" fill="#6c6c6c"/><path d="M688.58 239.04c26.55-.11 53.1.05 79.65-.08l.04 1.01c-24.76.16-49.52.02-74.27.06-1.79.03-3.57.16-5.36.32l-.06-1.31z" fill="#818181"/><path d="M79.62 279.81c254.11-.07 508.26 0 762.38-.03V302H0v-20.45c26.02-.02 52.05.04 78.07-.03.51-.58 1.03-1.15 1.55-1.71z" fill="#fff"/></svg>