<svg viewBox="0 0 95 31" height="31pt" width="95pt" xmlns="http://www.w3.org/2000/svg"><path d="M0 0h95v7.07h-.86c-7.4-.02-14.79-.01-22.19.02C47.97 7 23.98 7.19 0 6.99V0z" fill="#ffe9a1"/><path d="M0 6.99c23.98.2 47.97.01 71.95.1-.09 2.93-.17 5.86-.24 8.78-4.15.15-8.29.19-12.43-.2-6.55-.62-13.15-.61-19.7-.02-13.15.71-26.41.2-39.58.25V6.99z" fill="#0d0d0d"/><path d="M71.95 7.09c7.4-.03 14.79-.04 22.19-.02.35 5.98.32 11.96.13 17.94-11.72.06-23.45.06-35.17 0 0-3.11.08-6.23.18-9.34 4.14.39 8.28.35 12.43.2.07-2.92.15-5.85.24-8.78z" fill="#404040"/><path d="M94.14 7.07H95V31H0v-1.73c13.22.14 26.54.48 39.75-.18-.02-1.36-.04-2.72-.05-4.07-.03-3.13-.08-6.25-.12-9.37 6.55-.59 13.15-.6 19.7.02-.1 3.11-.18 6.23-.18 9.34 0 1.39.01 2.78.01 4.17 11.62.42 23.4.36 35.02.04.05-1.4.1-2.81.14-4.21.19-5.98.22-11.96-.13-17.94z" fill="#fff"/><path d="M0 15.9c13.17-.05 26.43.46 39.58-.25.04 3.12.09 6.24.12 9.37-13.23.03-26.47.1-39.7-.05V15.9zM41.3 17.23c5.36-.75 10.98-.27 16.38-.12-.04 3.88-.05 7.77-.02 11.66-5.5.09-10.99.1-16.49.04-.05-3.84-.29-7.76.13-11.58z" fill="#404040"/><path d="M0 24.97c13.23.15 26.47.08 39.7.05.01 1.35.03 2.71.05 4.07-13.21.66-26.53.32-39.75.18v-4.3zM59.1 25.01c11.72.06 23.45.06 35.17 0-.04 1.4-.09 2.81-.14 4.21-11.62.32-23.4.38-35.02-.04 0-1.39-.01-2.78-.01-4.17z" fill="#ffe9a1"/></svg>