<svg viewBox="0 0 147 36" height="48" width="196" xmlns="http://www.w3.org/2000/svg"><path d="M0 0h8.31C5.36 4.94 5.36 11.14 3.95 16.88c-.91 5.96-2.7 11.91-2.86 17.94 1.95.27 3.9.5 5.88.5 40.26.24 80.75-.02 121.03.14 6.01-.4 12 .22 17.97-.56-.09-7.24-2.47-14.39-3.47-21.57-1-3.81-.75-9.24-3.66-12.08l-.57-.6-.66-.65H147v36H0V0z" fill="#fff"/><path d="M8.31 0h129.3l.66.65.57.6c2.91 2.84 2.66 8.27 3.66 12.08 1 7.18 3.38 14.33 3.47 21.57-5.97.78-11.96.16-17.97.56-40.28-.16-80.77.1-121.03-.14-1.98 0-3.93-.23-5.88-.5.16-6.03 1.95-11.98 2.86-17.94C5.36 11.14 5.36 4.94 8.31 0z" fill="#db0303"/><path d="M10.29 6.18c2.36-.81 5.17-.37 7.64-.4 1.53 8.39 3.63 16.83 4.5 25.3-5.57.06-11.12.18-16.68-.1 1.24-8.28 2.84-16.6 4.54-24.8zM25.19 6.1c2.6-.74 5.05-.34 7.69-.1.55 3.38 1.46 6.41.93 9.89-.76 5.08-1.93 10.11-2.9 15.16-1.27-.07-2.55-.07-3.83 0C25.86 22.84 22.16 14 25.19 6.1zM40.18 5.89c2.58-.39 5.04-.14 7.61.11 1.42 8.33 3.28 16.61 4.42 24.98-5.67.24-11.34.28-17.01-.04 1.05-6.08 2.44-12.08 3.44-18.17.4-2.28.75-4.71 1.54-6.88zM55.16 6.02c2.55-.59 5.03-.3 7.59.05.44 3.36 1.48 6.34.82 9.61-.94 5.11-1.98 10.2-2.83 15.33-1.43-.01-2.85-.11-4.28-.17-.72-8.03-4.79-17.26-1.3-24.82zM69.52 6.34c2.33-1.16 5.6-.57 8.08-.19 1.14 8.35 3.26 16.54 4.38 24.9-5.66.14-11.31.14-16.97 0 1.37-8.26 3-16.48 4.51-24.71zM84.47 6.36c2.16-1.27 5.69-.54 8.08-.21.38 3.42 1.26 6.43.69 9.84-.8 4.97-2.01 9.9-2.63 14.9-1.44.03-2.89.07-4.34.1-.7-4.86-1.77-9.69-2.69-14.49-.72-3.43-.03-6.82.89-10.14zM99.37 6.25c2.26-.96 5.22-.4 7.64-.38 1.89 8.34 3.31 16.79 4.83 25.2-5.64.1-11.28.16-16.92-.06 1.06-8.31 2.97-16.52 4.45-24.76zM114.25 6.16c2.42-.82 5.15-.37 7.68-.22.77 3.61 1.62 6.99.87 10.7-.89 4.85-1.54 9.79-2.9 14.53-1.24-.11-2.48-.14-3.72-.12-.98-4.78-1.84-9.58-2.76-14.38-.78-3.6-.14-7.02.83-10.51zM129.23 6.13c2.34-.79 5.19-.3 7.63-.24 1.42 8.38 3.45 16.71 4.49 25.14-5.59.17-11.14.18-16.72-.02.43-4.75 1.59-9.33 2.39-14.02.69-3.59 1.14-7.38 2.21-10.86z" fill="#fff"/></svg>