<svg viewBox="0 0 1242 418" height="418pt" width="1656" xmlns="http://www.w3.org/2000/svg"><path d="M0 0h383.56c.08 132.29.01 264.69.04 397-.09 4.81.23 9.6-.21 14.4-5.8-.15-11.59-.06-17.39-.09-122 .01-244 0-366 .01V0z" fill="#ebcf55"/><path d="M383.56 0h11.34c-.31 4.67-.11 9.32-.16 14 0 129.67.01 259.33 0 389 .06 2.6-.33 5.45.34 7.97 5.47.87 11.51.04 17.12.4 28.33.08 56.67.08 85 0 5.71-.12 11.42-.02 17.13-.07.03-137.02.06-274.3-.01-411.3h11.19v402c.05 3-.03 6-.09 9 2.54.28 5.01.46 7.58.33 41.08-.06 82.17.04 123.24-.05.05-137.09.02-274.19.02-411.28h11.15c.01 132.67 0 265.33 0 398 .08 4.48-.21 8.92.21 13.39 3.46-.07 6.92-.11 10.38-.07 187.86-.03 376.2.05 564-.04V418H0v-6.68c122-.01 244 0 366-.01 5.8.03 11.59-.06 17.39.09.44-4.8.12-9.59.21-14.4-.03-132.31.04-264.71-.04-397z" fill="#fff"/><path d="M394.9 0h119.42c.07 137 .04 274.28.01 411.3-5.71.05-11.42-.05-17.13.07.02-66.2.08-132.44-.03-198.63-23.05-.17-46.11-.03-69.17-.08-5.29.06-10.56-.15-15.84.15.08 66.18.01 132.38.04 198.56-5.61-.36-11.65.47-17.12-.4-.67-2.52-.28-5.37-.34-7.97.01-129.67 0-259.33 0-389 .05-4.68-.15-9.33.16-14zM525.51 0h130.75c0 137.09.03 274.19-.02 411.28-41.07.09-82.16-.01-123.24.05-2.57.13-5.04-.05-7.58-.33.06-3 .14-6 .09-9V0zM667.41 0H1242v411.28c-187.8.09-376.14.01-564 .04-3.46-.04-6.92 0-10.38.07-.42-4.47-.13-8.91-.21-13.39 0-132.67.01-265.33 0-398z" fill="#ebcf55"/><path d="M412.16 212.81c5.28-.3 10.55-.09 15.84-.15 23.06.05 46.12-.09 69.17.08.11 66.19.05 132.43.03 198.63-28.33.08-56.67.08-85 0-.03-66.18.04-132.38-.04-198.56z" fill="#6c6c6c"/></svg>