<svg viewBox="0 0 46 11" height="11pt" width="46pt" xmlns="http://www.w3.org/2000/svg"><path d="M0 0h46v11H0V8.95l1.95.02c1.04 0 2.07.01 3.1.01h3.86c2.05 0 4.11-.01 6.16-.01h11.84c2.05 0 4.11 0 6.16.01.95 0 1.89.01 2.84.01 1.71.01 3.43 0 5.14-.05l1.85-.11c.11-1.94.15-3.87.11-5.81l-.17-1.88C28.57.78 14.27 1.13 0 .98V0z" fill="#fff"/><path d="M0 .98c14.27.15 28.57-.2 42.84.16l.17 1.88C28.67 2.94 14.33 3.09 0 2.94V.98z" fill="#6cf9ff"/><path d="M0 2.94c14.33.15 28.67 0 43.01.08.04 1.94 0 3.87-.11 5.81l-1.85.11c-.06-1.64-.13-3.27-.2-4.91-1.55.01-3.11.01-4.66.07-.13 1.63-.21 3.26-.28 4.89-.95 0-1.89-.01-2.84-.01-.07-1.65-.14-3.3-.22-4.95-1.89 0-3.78 0-5.67.05-.12 1.63-.2 3.26-.27 4.89h-2.84c-.07-1.64-.14-3.29-.22-4.94-1.89 0-3.78 0-5.67.05-.12 1.63-.2 3.26-.27 4.89h-2.84c-.07-1.65-.14-3.29-.22-4.94-1.89 0-3.78-.01-5.67.05-.12 1.63-.2 3.26-.27 4.9H5.05c-.04-1.66-.08-3.31-.13-4.96-.95-.01-1.9-.01-2.85 0l-.12 4.95L0 8.95V2.94z" fill="#fed871"/><path d="M2.07 4.02c.95-.01 1.9-.01 2.85 0 .05 1.65.09 3.3.13 4.96-1.03 0-2.06-.01-3.1-.01l.12-4.95z"/><path d="M9.18 4.08c1.89-.06 3.78-.05 5.67-.05.08 1.65.15 3.29.22 4.94-2.05 0-4.11.01-6.16.01.07-1.64.15-3.27.27-4.9zM18.18 4.08c1.89-.05 3.78-.05 5.67-.05.08 1.65.15 3.3.22 4.94h-6.16c.07-1.63.15-3.26.27-4.89zM27.18 4.08c1.89-.05 3.78-.05 5.67-.05.08 1.65.15 3.3.22 4.95-2.05-.01-4.11-.01-6.16-.01.07-1.63.15-3.26.27-4.89zM36.19 4.1c1.55-.06 3.11-.06 4.66-.07.07 1.64.14 3.27.2 4.91-1.71.05-3.43.06-5.14.05.07-1.63.15-3.26.28-4.89z" fill="#949494"/></svg>