<svg viewBox="0 0 27 18" height="24" width="36" xmlns="http://www.w3.org/2000/svg"><path d="M0 0h27v18H0v-1c8.33-.01 16.66.02 24.99-.01 0-2.33.02-4.66.02-6.99 0-1.33-.01-2.67-.01-4-.01-.99-.01-1.99-.02-2.98C16.65 2.99 8.33 3 0 3V0z" fill="#fff"/><path d="M16.07 1.35c1.2-.41 5.39-1.14 5.82.31-1.76.92-4 .5-5.82-.01v-.3zM0 3c8.33 0 16.65-.01 24.98.02.01.99.01 1.99.02 2.98H0V3z" fill="#fee590"/><path d="M0 6h25c0 1.33.01 2.67.01 4H0V6z" fill="#d00008"/><path d="M0 10h25.01c0 2.33-.02 4.66-.02 6.99-8.33.03-16.66 0-24.99.01v-7z" fill="#fee590"/><path d="M16.01 11c2.33.01 4.65.01 6.98 0 .02 1.67.02 3.33 0 5-2.33-.01-4.65-.01-6.98 0-.02-1.67-.02-3.33 0-5z" fill="#484848"/></svg>