<svg viewBox="0 0 590 130" height="130pt" width="590pt" xmlns="http://www.w3.org/2000/svg"><path d="M0 0h4.65c-.04 4.15-.13 8.32.06 12.47.08 2.72.07 5.45-.01 8.17-.22 30.09-.03 60.25-.09 90.36.06 5.73-.15 11.47.13 17.2-1.58.02-3.16.02-4.74 0V0z" fill="#a85b16"/><path d="M4.65 0h582.02c.01 4.1.01 8.21 0 12.31-87.88.2-175.9-.1-263.77.15 1.91 1.28 4.48 1.26 5.42 3.58-.38.69-.77 1.37-1.16 2.05-2.66.96-5.1 1.59-7.94 1.74 2.86-1.13 5.58-.77 7.45-3.85-3.63-3.4-9.87-4.44-14.64-5.13-16.22-1.94-32.71-2.23-49.03-1.96-11.72.4-23.86.73-35.4 2.94-2.6 1-7.04 1.46-8.35 4.17.81 1.12 1.76 2.12 2.71 3.12-1.34-.47-2.72-.67-4.1-1-.78-.77-.43-2.44-.48-3.48 1.57-.75 3.26-1.22 4.81-2.02-2.34-.34-4.83-.24-7.19-.25H15c-3.43.01-6.86-.05-10.29.1-.19-4.15-.1-8.32-.06-12.47z" fill="#caa36a"/><path d="M586.67 0H590v130H0v-1.8c1.58.02 3.16.02 4.74 0 75.08.04 150.18 0 225.26.01 2.46.02 4.98-.11 7.43.17.46.32.96.55 1.49.69 19.4-.01 38.84.03 58.24-.02l1.29-.38c1.84-.72 3.61-.4 5.55-.46 92.67.02 185.33-.01 278 .01 1.49-.11 3.3.28 4.68-.34 0-35.68 0-71.36-.01-107.05.02-2.84.02-5.68 0-8.52.01-4.1.01-8.21 0-12.31z" fill="#fff"/><path d="M263 8.89c16.32-.27 32.81.02 49.03 1.96 4.77.69 11.01 1.73 14.64 5.13-1.87 3.08-4.59 2.72-7.45 3.85-1.76.63-3.57.63-5.39 1.01-11.22 1.78-22.48 2.2-33.83 2.42-16.21.1-32.78.05-48.83-2.4-3.04-.71-6.17-1.09-9.21-1.74-.95-1-1.9-2-2.71-3.12 1.31-2.71 5.75-3.17 8.35-4.17 11.54-2.21 23.68-2.54 35.4-2.94z" fill="#f8e981"/><path d="M4.71 12.47c3.43-.15 6.86-.09 10.29-.1h200c2.36.01 4.85-.09 7.19.25-1.55.8-3.24 1.27-4.81 2.02.05 1.04-.3 2.71.48 3.48 1.38.33 2.76.53 4.1 1 3.04.65 6.17 1.03 9.21 1.74-3.75-.42-7.42-.1-11.17-.06H14c-3.1-.01-6.2.07-9.3-.16.08-2.72.09-5.45.01-8.17zM322.9 12.46c87.87-.25 175.89.05 263.77-.15.02 2.84.02 5.68 0 8.52-85.88-.07-171.79-.01-257.67-.03-5.08.11-10.09-.37-15.17.04 1.82-.38 3.63-.38 5.39-1.01 2.84-.15 5.28-.78 7.94-1.74.39-.68.78-1.36 1.16-2.05-.94-2.32-3.51-2.3-5.42-3.58z" fill="#38a7b8"/><path d="M4.7 20.64c3.1.23 6.2.15 9.3.16h206c3.75-.04 7.42-.36 11.17.06 16.05 2.45 32.62 2.5 48.83 2.4 11.35-.22 22.61-.64 33.83-2.42 5.08-.41 10.09.07 15.17-.04 85.88.02 171.79-.04 257.67.03.01 35.69.01 71.37.01 107.05-1.38.62-3.19.23-4.68.34-92.67-.02-185.33.01-278-.01-1.94.06-3.71-.26-5.55.46.08-31.34.09-62.72-.01-94.07-20.22-.08-40.5-.15-60.72.04-.06 30.45-.02 60.92-.02 91.37 0 .79-.09 1.58-.27 2.37-2.45-.28-4.97-.15-7.43-.17-75.08-.01-150.18.03-225.26-.01-.28-5.73-.07-11.47-.13-17.2.06-30.11-.13-60.27.09-90.36z" fill="#caa36a"/><path d="M237.72 34.64c20.22-.19 40.5-.12 60.72-.04.1 31.35.09 62.73.01 94.07l-1.29.38c-19.4.05-38.84.01-58.24.02-.53-.14-1.03-.37-1.49-.69.18-.79.27-1.58.27-2.37 0-30.45-.04-60.92.02-91.37z" fill="#046638"/><path d="M18.23 38.14c60.08-.12 120.46-.11 180.54 0-.03 22.83.05 45.72-.04 68.54-60.1.05-120.37.05-180.46 0-.09-22.82-.01-45.71-.04-68.54zM341.29 38.16c58.71-.21 117.94-.02 176.72-.1 1.32-.03 2.62.04 3.92.18l.36.75c-.03 21.68-.04 43.37.01 65.06.09.88-.11 1.75-.61 2.61-60.03.09-120.32.07-180.36.01-.08-22.81 0-45.69-.04-68.51z" fill="#333233"/></svg>