<svg viewBox="0 0 1268 708" height="944" width="1268pt" xmlns="http://www.w3.org/2000/svg"><path d="M0 0h1268v708h-164.81c.47-4.02.18-7.97.22-12-.02-134.67 0-269.33-.01-404 .05-3 .1-5.99-.23-8.98-82.65-.2-165.5 0-248.17-.11-2.3-.04-4.56.1-6.84.21-.07 137.27-.01 274.6-.04 411.88-.03 4.34.1 8.66-.19 13H0V0z" fill="#cbcbcb"/><path d="M848.16 283.12c2.28-.11 4.54-.25 6.84-.21 82.67.11 165.52-.09 248.17.11.33 2.99.28 5.98.23 8.98.01 134.67-.01 269.33.01 404-.04 4.03.25 7.98-.22 12H847.93c.29-4.34.16-8.66.19-13 .03-137.28-.03-274.61.04-411.88z" fill="#919191"/></svg>