<svg viewBox="0 0 406 894" height="1192" width="406pt" xmlns="http://www.w3.org/2000/svg"><path d="M0 0h406v894H304.5c.01-220.33 0-440.67.01-661 .02-6.62-.06-13.25.06-19.87-4.52-.64-9.02-.27-13.57-.35H116c-3.31-.04-6.6-.11-9.9.25-.53 4.33-.27 8.63-.3 12.97-.02 222.64.02 445.37-.02 668H0V0z" fill="#515151"/><path d="M106.1 213.03c3.3-.36 6.59-.29 9.9-.25h175c4.55.08 9.05-.29 13.57.35-.12 6.62-.04 13.25-.06 19.87-.01 220.33 0 440.67-.01 661H105.78c.04-222.63 0-445.36.02-668 .03-4.34-.23-8.64.3-12.97z" fill="#a85b16"/></svg>