<svg viewBox="0 0 774 368" height="368pt" width="1032" xmlns="http://www.w3.org/2000/svg"><path d="M0 0h774v36.83H0V0z" fill="#f8f8f8"/><path d="M0 36.83h774v2.4H0v-2.4z" fill="#070605"/><path d="M0 39.23h774v252.98H0V39.23z" fill="#f8f8f8"/><path d="M130.99 81.04c23 .05 46.01.01 69.01.02 5.28.05 10.22-.27 15.44.49.31 7.47.09 14.97.15 22.45-.08 20.85.17 41.71-.12 62.56-5.18.89-10.26.59-15.47.6-19.67.01-39.33.01-59 0-5.17-.02-10.18.31-15.3-.65-.09-28.09-.03-56.19-.03-84.28 1.74-.97 3.32-1.24 5.32-1.19zM394 81.06c20.67.01 41.33 0 62 0 4.94.03 9.69-.2 14.61.4.32 7.51.09 15.03.16 22.54-.08 20.88.16 41.78-.13 62.66-2.54.32-5.08.53-7.64.52-22-.04-44 0-66-.02-5.26-.02-10.36.24-15.59-.47-.4-23.54-.06-47.14-.17-70.69.05-4.82-.22-9.72.26-14.51 4.04-.64 8.39-.4 12.5-.43zM649 81.05c24 .01 48.02.03 72.02-.01 1.98.24 4.29-.45 5.24 1.78.22 1.69.2 3.47.2 5.18-.14 26.16.12 52.34-.13 78.5-5.13.98-10.15.64-15.33.66-19.33 0-38.67.01-58 0-5.53-.03-10.9.3-16.4-.55-.26-23.53-.04-47.08-.11-70.61.04-4.79-.15-9.61.18-14.39 4.04-.8 8.14-.53 12.33-.56z" fill="#070605"/><path d="M130.63 85.85c26.67-.15 53.38-.03 80.06-.06.05 25.52-.01 51.04.03 76.56-26.73.07-53.46.03-80.19.02.03-25.49-.18-51.04.1-76.52zM401 85.79c16.67-.01 33.33-.01 50-.01 5.12-.04 10.23-.11 15.34.36-.06 25.39.01 50.77-.04 76.16-26.85.17-53.71.09-80.57.03 0-25.36-.03-50.75.01-76.12 5.15-.69 10.1-.41 15.26-.42zM641.5 86c1.82-.24 3.68-.23 5.5-.25 24.85.09 49.7-.03 74.55.07.06 25.51.02 51.02.02 76.53-25.19.11-50.38-.04-75.57.07-1.37-.12-3.32.19-4.52-.52-.33-3.61-.11-7.28-.14-10.9-.01-20.34.03-40.68-.03-61.01 0-1.34.07-2.67.19-3.99z" fill="#cbcbcb"/><path d="M137 194.52c24 .01 48 .03 72-.02 2.21-.01 4.35.28 6.5.77.16 28.2.14 56.42.01 84.62-4.54 1.17-8.81.67-13.51.74-23.34.02-46.68-.03-70.01.03-2.2.03-4.22-.28-6.33-.87.04-28.1-.08-56.23.05-84.33 3.7-1.41 7.34-.86 11.29-.94zM394 194.53h62c4.91.01 9.73-.2 14.62.41.3 7.34.08 14.71.15 22.06-.12 21.1.23 42.24-.18 63.34-2.2.18-4.39.3-6.59.3-25.33-.01-50.67-.01-76 0-2.18-.01-4.36-.11-6.54-.28-.34-4.81-.21-9.54-.23-14.36.01-20 .01-40 0-60 .01-3.62-.11-7.34.22-10.92 4-.86 8.44-.52 12.55-.55zM648 194.52c21.67.02 43.33.01 65 .01 4.6.05 8.86-.43 13.36.83.14 28.1.06 56.21.04 84.32-1.76.54-3.5.98-5.37.97-23.34-.03-46.68-.01-70.03-.02-4.94-.04-9.54.33-14.42-.57-.13-28.24-.2-56.53.03-84.76 3.76-1.15 7.45-.73 11.39-.78z" fill="#070605"/><path d="M210.69 199.31c.03 25.51.02 51.03 0 76.54-26.72.01-53.43.02-80.15-.01 0-25.46-.16-50.97.07-76.43 26.67-.25 53.4-.04 80.08-.1zM466.3 199.41c.05 25.44.01 50.89.02 76.33-26.86.25-53.73.09-80.6.08.01-25.49.01-50.97 0-76.46 26.86-.06 53.73-.16 80.58.05zM721.57 199.33c.02 25.5 0 51 .01 76.5-26.74.06-53.48.02-80.22.02-.04-25.5-.04-51.01 0-76.51 26.74-.06 53.48-.05 80.21-.01z" fill="#cbcbcb"/><path d="M0 292.21h774v2.39c-215.41-.01-430.82 0-646.23 0-42.59.04-85.18.01-127.77.02v-2.41z" fill="#070605"/><path d="M0 294.62c42.59-.01 85.18.02 127.77-.02-.03 14.79-.05 29.58.01 44.37-42.59.15-85.19.03-127.78.07v-44.42z" fill="#515151"/><path d="M127.77 294.6c215.41 0 430.82-.01 646.23 0v44.44H146c-6.07.02-12.15-.01-18.22-.07-.06-14.79-.04-29.58-.01-44.37z" fill="#c45d16"/><path d="M0 339.04c42.59-.04 85.19.08 127.78-.07 6.07.06 12.15.09 18.22.07h628V368H0v-28.96z" fill="#f8f8f8"/></svg>