<svg viewBox="0 0 1090 626" height="626pt" width="1090pt" xmlns="http://www.w3.org/2000/svg"><path d="M0 0h62.19c.02 128.54-.03 257.09.02 385.63-6.07 1.03-13.19 1.13-18.68 3.9-7.85 4.84-11.8 12.78-19.19 18.59 4.34-6.73 8.26-13.78 12.44-20.62a94.028 94.028 0 0 0-11.76 11.51c-3.97 5.45-4.99 11.4-5.46 17.98-1.28 15.31-3.08 32.74-3.39 48.01-.44 5.87 1.81 12.16 3.39 17.79 1.5 5.38 7.52 8.55 8.81 13.66 1.49 6.93 2.05 13.55 2.84 20.53.03 9.07.95 16.95 1.38 25.86 1.54 5.99 3.5 11.56 5.37 17.42l.33 1.75c-1.31 3.96-2.13 7.81-1.1 11.96.12 11.01.35 22.02.34 33.03-.06 6.45.82 12.53 1.22 19H0V0z" fill="#fff"/><path d="M62.19 0h141.95c-.58 2.36-.31 4.58-.36 7 .01 119 0 238 0 357 .08 2.88-.29 5.47.44 8.24-14.59 4.7-27.83 12.25-37.56 24.32-2.57 3.53-2.13 7.73-3.77 11.47-3.59-1.73-6.82-4.6-10.33-6.6-9.58-6.44-20.81-10.69-31.75-14.24-18.59-5.32-39.61-3.98-58.6-1.56-.05-128.54 0-257.09-.02-385.63z" fill="#919191"/><path d="M204.14 0h28.17c-.02 121.69.03 243.44-.02 365.13-9.45 1.99-18.83 4.3-28.07 7.11-.73-2.77-.36-5.36-.44-8.24 0-119 .01-238 0-357 .05-2.42-.22-4.64.36-7z" fill="#382f31"/><path d="M232.31 0h141.91c-.03 132.09.06 264.31-.05 396.39-6.2-2.05-12.69-4.06-18.46-7.09-4.28-2.02-8.41-4.34-12.7-6.33-6.45-2.48-12.89-4.99-19.25-7.7-5.56-2.31-7.72-7.59-13.91-8.89-11.79-1.93-23.93-2.26-35.85-2.96-8.99-.44-18.02-.93-27.01-1.12-4.93.76-9.8 1.9-14.7 2.83.05-121.69 0-243.44.02-365.13z" fill="#919191"/><path d="M374.22 0h28.28c-.02 132.82.04 265.7-.02 398.52-5.48.58-10.99 1.15-16.49 1.34-4.02-.67-7.91-2.33-11.82-3.47.11-132.08.02-264.3.05-396.39z" fill="#382f31"/><path d="M402.5 0h141.9c.01 40.13-.01 80.27.02 120.4-4.22.74-8.62 2.37-11.99 5.05-3.83 3.94-5.18 10.32-3.46 15.51 1.74 4.38 7.05 6.54 10.49 9.61 1.41 1.34 3.1 1.86 4.9 2.43.08 21.74.05 43.49.02 65.22-.21 3.54-.2 7.03-.02 10.57.13 53.51-.04 107.04.09 160.55-3.92 3.97-10.41 4.38-15.65 5.35-3.49.34-7.61 1.7-10.98.55-6.63-1.77-13.32-3.11-19.79-5.29-14.48-4.96-29.12-10.52-44.05-13.93-2.57-.57-4.81-1.45-7.47-.64-7.56 1.9-15.66 3.83-22.51 7.65-4.34 3.02-4.01 7.27-6.72 11.24-3.44 3.67-10.11 3.6-14.8 4.25.06-132.82 0-265.7.02-398.52z" fill="#919191"/><path d="M544.4 0h28.29c.05 38.06-.04 76.14.04 114.2-4.4 1.57-8.99 4.28-13.7 4.46-4.88.48-9.78.94-14.61 1.74-.03-40.13-.01-80.27-.02-120.4z" fill="#382f31"/><path d="M572.69 0H714.6c.07 19.8-.12 39.63.09 59.43-3.24 1.56-7.03 4.82-10.74 4.32-4.32 1.01-8.54 2.67-12.47 4.74-6.84 3.53-13.72 6.97-20.63 10.36-9.36 4.9-20.65 6.51-30.32 10.82-5.02 2.21-9.4 5.45-14.55 7.4-9.23 3.54-19.33 5.24-28.81 8.29-8.21 2.74-16.28 5.95-24.44 8.84-.08-38.06.01-76.14-.04-114.2z" fill="#919191"/><path d="M714.6 0h28.59v44.03c-3.29 1.17-7.39 1.86-10.1 4.1-5.62 4.45-12.15 7.81-18.4 11.3-.21-19.8-.02-39.63-.09-59.43z" fill="#382f31"/><path d="M743.19 0h113.3c.03 21.83-.02 43.67.03 65.5-8.18-.43-16.35-1.06-24.51-1.71-5.71-.56-11.92-.81-16.99-3.83-5.85-4.44-11.87-10.48-13.4-17.93-.2-4.56 3.83-6.77 4.15-11.03.56-4.87-2.14-8.45-3.82-13.02l-.9-.19c-12.42 4.2-25 8.91-37.86 11.5-2.07.45-3.97.79-5.47 2.43-3.42 3.57-6.68 7.3-10.27 10.72-1.28.77-2.84 1.12-4.26 1.59V0z" fill="#919191"/><path d="M856.49 0h28.72c-.59 2.33-.4 4.63-.42 7 .02 20.02-.02 40.05.02 60.07-9.43-.53-18.87-.94-28.29-1.57-.05-21.83 0-43.67-.03-65.5z" fill="#382f31"/><path d="M885.21 0h141.49c.01 132.29.04 264.61-.02 396.9-11.24.91-22.47 1.96-33.7 2.98-2.16.37-3.81-.58-5.79-1.22-9.99-3.33-19.54-6.41-30.19-6.77-3.73-.08-7.38-.43-11.1.1 6.15-9.49 12.82-18.67 18.9-28.21 3.33-7.38 6.78-14.97 9.13-22.71-3.57-6.18-8.57-11.91-11.28-18.55-1.24-7.95-.85-16.44-1.45-24.51-.26-1.89.89-4.89.04-6.59-.15 1.18-.37 2.35-.63 3.5.14-5.73-.94-11.24-1.43-16.93-1.6-10.23-2.67-21.06-5.16-30.99-1.41-4.32-3.47-8.36-4.52-12.82-2.98-11.82-6.43-24.34-8.93-36.2 4.13-11.83 8.12-23.39 8.68-35.98.05-4.88.26-9.27-1.3-14-1.43-3.81-3.82-6.52-5.84-10.07-2.89-5.95-10.39-8.23-13.69-14.34-3.2-5.98-5.36-12.76-5.21-19.59-.08-3.36.67-6.67.49-10.02-.05-3.5-1.96-7.04-3.53-10.1-2.93-4.95-5.37-9.64-10.79-12.26-2.97-1.29-5.93-4.04-9.19-3.82-5.13-.22-10.26-.44-15.38-.73-.04-20.02 0-40.05-.02-60.07.02-2.37-.17-4.67.42-7z" fill="#919191"/><path d="M1026.7 0h63.3v399.03c-7.49-2.11-15.22-3.11-23-3.19-13.34-.55-27.04.2-40.32 1.06.06-132.29.03-264.61.02-396.9z" fill="#fff"/><path d="M801.05 17.79l.9.19c1.68 4.57 4.38 8.15 3.82 13.02-.32 4.26-4.35 6.47-4.15 11.03 1.53 7.45 7.55 13.49 13.4 17.93 5.07 3.02 11.28 3.27 16.99 3.83 8.16.65 16.33 1.28 24.51 1.71 9.42.63 18.86 1.04 28.29 1.57 5.12.29 10.25.51 15.38.73 3.26-.22 6.22 2.53 9.19 3.82 5.42 2.62 7.86 7.31 10.79 12.26 1.57 3.06 3.48 6.6 3.53 10.1.18 3.35-.57 6.66-.49 10.02-.15 6.83 2.01 13.61 5.21 19.59 3.3 6.11 10.8 8.39 13.69 14.34 2.02 3.55 4.41 6.26 5.84 10.07 1.56 4.73 1.35 9.12 1.3 14-.56 12.59-4.55 24.15-8.68 35.98 2.5 11.86 5.95 24.38 8.93 36.2 1.05 4.46 3.11 8.5 4.52 12.82 2.49 9.93 3.56 20.76 5.16 30.99.49 5.69 1.57 11.2 1.43 16.93.26-1.15.48-2.32.63-3.5.85 1.7-.3 4.7-.04 6.59.6 8.07.21 16.56 1.45 24.51 2.71 6.64 7.71 12.37 11.28 18.55-2.35 7.74-5.8 15.33-9.13 22.71-6.08 9.54-12.75 18.72-18.9 28.21-1.69 2.63-3.86 5.14-5.13 7.99.42 3.76 1.95 7.46 3.28 10.99 1.61 4.14 4.95 6.13 7.64 9.39 1.16 1.42 2.01 3.74 1.13 5.48-1.02 1.92-3.11 2.4-5.08 2.75-11.6 1.29-23.11 3.24-34.74 4.34-6.29.34-12.46 2.53-18.27 4.85-9.89 7.15-20.64 13.23-31.8 18.17-3.75 1.9-7.04 5.28-10.91 6.76-2.47-.58-4.83-1.65-7.26-2.4-5.81-1.95-11.65-2.73-17.61-4.06-6.86-1.76-13.76-1.51-20.78-1.84-.34-4.11.09-8.29-.24-12.41-2.43-.13-4.87-.1-7.31-.07-22.28-.34-44.56-.32-66.84-.45-9.7-.63-19.37-.12-29.05-1.04-9.3-.5-18.6-1.05-27.92-2.15-1.68-.34-3.52-.21-4.76-1.53 1.09-4.19 4.96-7.06 5.38-11.86.43-8.29.5-16.6.91-24.9-.16-9.05.65-18.12.11-27.15-.32-10.71-2.26-21.39-5.17-31.68-.49-2.19-2.23-3.48-4.02-4.61-4.92-2.22-11.13-1.95-16.47-2.94-5.17-.63-10.09-2.86-15.19-4.39-3.04-.73-5.11-3.61-7.78-5.27-4.22-2.99-7.7-6.38-7.6-11.96-.34-8.18 5.67-14.21 11.05-19.53 2.52-2.86 6.24-4.93 7.58-8.43 1.57-3.53 4.64-5.79 3.08-10.01-3-6.17-9.41-10.58-15.11-14.07-11.57-6.5-23.34-7.99-36.03-10.58-6.18-1.03-12.24-3.95-18.27-5.43-6.02-1.92-12.66-2.49-18.21-5.4-2.98-1.42-6.8-2.54-8.68-5.45-.59-1.39-1.01-2.87-1.47-4.31-.18-3.54-.19-7.03.02-10.57 1.25-3.9 2.38-7.65 4.84-11 6.27-8.65 14.41-14.72 23.4-20.27.7-.43 1.39-.88 2.06-1.34-.75-4.25-1.18-8.65-2.2-12.83-2.46-7.18-8.22-11.16-14.56-14.7-4.31-2.13-8.98-3.61-13.56-5.08-1.8-.57-3.49-1.09-4.9-2.43-3.44-3.07-8.75-5.23-10.49-9.61-1.72-5.19-.37-11.57 3.46-15.51 3.37-2.68 7.77-4.31 11.99-5.05 4.83-.8 9.73-1.26 14.61-1.74 4.71-.18 9.3-2.89 13.7-4.46 8.16-2.89 16.23-6.1 24.44-8.84 9.48-3.05 19.58-4.75 28.81-8.29 5.15-1.95 9.53-5.19 14.55-7.4 9.67-4.31 20.96-5.92 30.32-10.82 6.91-3.39 13.79-6.83 20.63-10.36 3.93-2.07 8.15-3.73 12.47-4.74 3.71.5 7.5-2.76 10.74-4.32 6.25-3.49 12.78-6.85 18.4-11.3 2.71-2.24 6.81-2.93 10.1-4.1 1.42-.47 2.98-.82 4.26-1.59 3.59-3.42 6.85-7.15 10.27-10.72 1.5-1.64 3.4-1.98 5.47-2.43 12.86-2.59 25.44-7.3 37.86-11.5z" fill="#129318"/><path d="M544.36 153c4.58 1.47 9.25 2.95 13.56 5.08 6.34 3.54 12.1 7.52 14.56 14.7.4 4.69.23 9.46.14 14.17-8.99 5.55-17.13 11.62-23.4 20.27-2.46 3.35-3.59 7.1-4.84 11 .03-21.73.06-43.48-.02-65.22z" fill="#382f31"/><path d="M572.48 172.78c1.02 4.18 1.45 8.58 2.2 12.83-.67.46-1.36.91-2.06 1.34.09-4.71.26-9.48-.14-14.17z" fill="#919191"/><path d="M544.36 228.79c.46 1.44.88 2.92 1.47 4.31 1.88 2.91 5.7 4.03 8.68 5.45 5.55 2.91 12.19 3.48 18.21 5.4-.04 39.7-.01 79.44-.01 119.14l.78 1.66c-4.56 2.42-8.57 5.82-12.77 8.98-3.3 2.6-7 5.12-9.8 8.2-2.26 2.45-3.92 5.21-6.47 7.41-.13-53.51.04-107.04-.09-160.55z" fill="#382f31"/><path d="M572.72 243.95c6.03 1.48 12.09 4.4 18.27 5.43 12.69 2.59 24.46 4.08 36.03 10.58 5.7 3.49 12.11 7.9 15.11 14.07 1.56 4.22-1.51 6.48-3.08 10.01-1.34 3.5-5.06 5.57-7.58 8.43-5.38 5.32-11.39 11.35-11.05 19.53-.1 5.58 3.38 8.97 7.6 11.96 2.67 1.66 4.74 4.54 7.78 5.27 5.1 1.53 10.02 3.76 15.19 4.39 5.34.99 11.55.72 16.47 2.94 1.79 1.13 3.53 2.42 4.02 4.61 2.91 10.29 4.85 20.97 5.17 31.68-20.21.21-40.14 2.49-59.47 8.59-3.41.87-7.81 2.32-11.1.55-1.4-.91-2.37-2.58-3.07-4.06-2.67-6.46-4.95-13.16-7.05-19.81-7.53 1.58-15.54 3.2-22.47 6.63l-.78-1.66c0-39.7-.03-79.44.01-119.14z" fill="#919191"/><path d="M595.96 358.12c2.1 6.65 4.38 13.35 7.05 19.81.7 1.48 1.67 3.15 3.07 4.06 3.29 1.77 7.69.32 11.1-.55 19.33-6.1 39.26-8.38 59.47-8.59.54 9.03-.27 18.1-.11 27.15-.41 8.3-.48 16.61-.91 24.9-.42 4.8-4.29 7.67-5.38 11.86 1.24 1.32 3.08 1.19 4.76 1.53 9.32 1.1 18.62 1.65 27.92 2.15 9.68.92 19.35.41 29.05 1.04 22.28.13 44.56.11 66.84.45.97 6.92 2.63 14.12 2.97 21.09.54 14.34 1.7 28.66 2.56 42.99 1.18 16.02 1.63 31.13 6 46.75 2.01 6.81 4.19 13.58 6.66 20.24.68 1.78 1.04 3.43 1.13 5.35-2.36-2.89-3.92-6.46-5.83-9.66-2.57-4.83-5.4-9-7.14-14.15-1.98-3.77-4.84-7.07-6.97-10.76-2.32-4.09-.78-9.84-3.36-13.65l-1.35.37c-3.42 3.61-4.95 8.91-6.25 13.6-2.37 8.62-2.53 17.13-3.77 25.9-1.74 14.41-3.96 28.73-6.55 43.01-.57 3.72-2.4 7.07-2.85 10.78 13.98.18 27.98-.36 41.96-.14l-.23 2.35h-42.42l-.47-1.94c-2.94-.3-5.95-.09-8.91-.09-11.43.21-22.96.1-34.38.44l-.9 1.59h-98.19c2.63-.95 5.64-.59 8.47-.69 26.67-.35 53.33-.61 80-.88 3.02-.05 6.1.07 9.1-.27-1.85-4.37-6.1-7.82-6.7-12.44-1.87-9.69-5.01-18.9-9.29-27.79-1.22-2.72-4.31-3.55-5.83-6.22-8.2-11.69-9.78-24.26-13.55-37.55l-.69-.49c-3.15 3.69-6.07 7.93-8.01 12.39-2.17 6.36-3.14 13.28-3.98 19.94-1.42 9.91-2.22 20.01-2.99 29.99-.82 5.31-.38 10.75-1.41 16.01-5.54-5.82-9.36-13.72-12.66-21-1.3-2.43-.78-5.38-2.46-7.5-2.03-3.19-4.69-6.25-6.15-9.76-2.5-7.42-4.65-14.76-8.46-21.65-5.45-9.93-11.99-19.29-18.35-28.65-.71-.84-1.38-2.38-2.56-2.52-3.18 3.34-6.1 7.91-8.04 12.09-4.64 15.73-5.56 33.45-8.4 49.69-1.08 4.87-3.24 9.48-4.46 14.3-1.18 5.35-2.11 10.76-3.31 16.1l-1.79.39c-5.42-1.39-10.65-3.25-15.94-5.01-4.01.21-8.01.53-12.02.79-6.27-11.11-15.27-19.65-20.15-31.17-2.06-4.81-3.32-10.02-5.13-14.94-.89-2.6-2.79-4.34-4.54-6.39-6.18-6.86-11.9-14.2-17.11-21.83-2.25-3.12-3.26-6.47-6.68-8.37-3.14-1.89-6.11-4.1-9.36-5.76l-.7.45c-2.08 5.44-3.7 11.07-5.62 16.57-2.47 7.83-5.62 15.37-7.52 23.27-.98 3.75-1.75 7.56-2.87 11.27-2.86 7.47-4.75 15.16-6.99 22.87-1.88 6.54-3.07 15.17-6.41 21.2-4.07-3.27-8.28-6.77-11.53-10.88-5.08-7.49-7.97-15.34-11.5-23.47-3.78-8.56-9.34-15.83-14.3-23.67-3.09-7.94-5.21-17.76-10.34-24.68-2.17-2.49-3.97.68-5.29 2.26-3.93 6.71-5.08 15.57-5.8 23.18-1.22 7.27-2.4 14.55-3.63 21.82-2.26 12.55-6.27 24.92-10.57 36.91l-.75-.08c-1.05-2.67-1.65-5.4-3.15-7.89-2.56-4.54-6.22-7.64-9.37-11.68-3.14-3.9-5.77-8.23-8.6-12.37-2.51-3.43-3.29-8.22-4.72-12.24-2.29-6.53-3.27-12.92-7.37-18.68-2.03-2.79-3.73-6.95-6.61-8.85-3.43 10.99-7.63 21.72-10.38 32.87-2.22 6.33-7.48 11.5-10.49 17.47-2.73 7.8-5 15.78-7.86 23.54h-21.12c-2.05-5.45-4.48-10.74-6.24-16.27-1.6-4.86-2.55-9.87-4.36-14.67-2.12-6.2-5.77-11.56-8.47-17.59-4.65-9.39-7.95-19.27-10.51-29.41-2.17-4.45-5.42-8.61-8.27-12.67l-.58-.17c-3.07 3.55-5.82 7.76-8 11.92-4.87 11.42-7.56 22.94-11.59 34.43-1.73 4.88-3.05 10.01-5.25 14.7-4.22 9.53-7.22 19.58-11.11 29.21-11-.61-22.09-2.28-33.11-2.37-.15.96-.26 1.92-.33 2.89H149.1c-3.11-.53-6.27-.79-9.4-1.19-.14-1.21-.16-2.43-.27-3.64-1.13-1.05-3.51-.59-4.91-.57-.04 1.21.19 2.41.67 3.61-11.34-1.78-22.76-2.35-34.18-3.35-4.84-.3-9.69-.86-14.54-.89 2.95-1.49 6.31-.78 9.53-.78 12.46.31 24.92.97 37.38 1.16l.22-1.25c-3.8-10.83-6.71-21.81-11.32-32.32-6.57-15.47-11.37-31.47-16.65-47.4-.48-1.45-.94-2.84-1.74-4.16-.93.56-1.49 1.71-2.13 2.55-3.07 4.57-6.22 8.77-7.93 14.09-4.66 12.17-4.37 24.23-6.14 37.13-.76 9.99-3.02 19.86-4.41 29.74-.96.14-1.93.27-2.91.37-2.3.09-4.49 0-6.78-.23-1.43-5.39-.91-11.32-1.39-16.89-1.42-12.63-.46-24.64-4.32-36.9-3.22-10.03-6.34-20.14-10.03-30.01-4.05 1.68-8.72 3.79-11.85 6.91-3.64 5.52-5.1 12.7-8.04 18.28-1.87-5.86-3.83-11.43-5.37-17.42-.43-8.91-1.35-16.79-1.38-25.86-.79-6.98-1.35-13.6-2.84-20.53-1.29-5.11-7.31-8.28-8.81-13.66-1.58-5.63-3.83-11.92-3.39-17.79.31-15.27 2.11-32.7 3.39-48.01.47-6.58 1.49-12.53 5.46-17.98 3.57-4.17 7.52-8.03 11.76-11.51-4.18 6.84-8.1 13.89-12.44 20.62 7.39-5.81 11.34-13.75 19.19-18.59 5.49-2.77 12.61-2.87 18.68-3.9 18.99-2.42 40.01-3.76 58.6 1.56 10.94 3.55 22.17 7.8 31.75 14.24 3.51 2 6.74 4.87 10.33 6.6 1.64-3.74 1.2-7.94 3.77-11.47 9.73-12.07 22.97-19.62 37.56-24.32 9.24-2.81 18.62-5.12 28.07-7.11 4.9-.93 9.77-2.07 14.7-2.83 8.99.19 18.02.68 27.01 1.12 11.92.7 24.06 1.03 35.85 2.96 6.19 1.3 8.35 6.58 13.91 8.89 6.36 2.71 12.8 5.22 19.25 7.7 4.29 1.99 8.42 4.31 12.7 6.33 5.77 3.03 12.26 5.04 18.46 7.09 3.91 1.14 7.8 2.8 11.82 3.47 5.5-.19 11.01-.76 16.49-1.34 4.69-.65 11.36-.58 14.8-4.25 2.71-3.97 2.38-8.22 6.72-11.24 6.85-3.82 14.95-5.75 22.51-7.65 2.66-.81 4.9.07 7.47.64 14.93 3.41 29.57 8.97 44.05 13.93 6.47 2.18 13.16 3.52 19.79 5.29 3.37 1.15 7.49-.21 10.98-.55 5.24-.97 11.73-1.38 15.65-5.35 2.55-2.2 4.21-4.96 6.47-7.41 2.8-3.08 6.5-5.6 9.8-8.2 4.2-3.16 8.21-6.56 12.77-8.98 6.93-3.43 14.94-5.05 22.47-6.63zM945.9 391.99c3.72-.53 7.37-.18 11.1-.1 10.65.36 20.2 3.44 30.19 6.77 1.98.64 3.63 1.59 5.79 1.22 11.23-1.02 22.46-2.07 33.7-2.98 13.28-.86 26.98-1.61 40.32-1.06 7.78.08 15.51 1.08 23 3.19v79.54c-1.63 7.76-1.29 16.09-1.84 24.03-.2.62-.38 1.24-.55 1.87.55.71 1.35 1.1 2.39 1.18v72.23c-.45 2.51-.89 4.67-2.11 6.98-2.57 3.96-7.38 5.46-11.29 7.75-1.28.64-1.83 1.31-2.36 2.61-4.4 7.11-8.16 13.74-16.22 17.19-20.12-11.46-40.03-23.27-59.27-36.17-14.07-9.36-29.05-18.98-40.18-31.79-3.63-4.17-6.16-9.12-9.6-13.41-2.91 5.81-4.82 12.42-4.54 18.96.14 8.33 1.49 16.68 1.81 25-.38 5.58-.6 10.71-3.62 15.59-.95 1.5-2.45 4.37-4.54 4.18-2.08-.4-3.29-3-4.13-4.72-3.87-8.09-5.25-17.6-12.18-23.82-4.24-4.6-10.19-8.63-12.67-14.31-6.35-12.38-14.66-22.96-23.04-33.95-3-3.83-5.15-8.5-8.58-11.93-2.1 22.13-4.87 44.18-8.29 66.15-1.3 5.9-2.87 11.75-4.35 17.62-1.63 7.71-3.06 15.47-4.67 23.2-.69 3.41-1.87 6.5-2.1 9.92 7.59.46 15.31.01 22.93.02 21.5-1.29 42.99-2.86 64.48-4.23 33.85-1.24 67.72-2.6 101.52-4.78 2.45.06 4.6-.71 6.7.86-4.38 1.54-9.11 2.17-13.7 2.79-10.7.57-21.53.52-32.23 1.14-.28 2.49-1.2 4.78-1.39 7.27h-84.86c-3.17-1.42-6.16-2.57-9.6-3.17-2.61.28-4.51 1.65-6.54 3.17h-48.43c0-.94-.02-1.87-.07-2.81-4.53-.07-9.13.22-13.67-.02-1-3.16-2.7-6.15-3.48-9.36-.6-6.27-.29-12.56-1.18-18.82-.35-9.03-1.56-17.98-2.2-26.99-.12-6.51-1.34-12.68-3.64-18.76-2.06-5.45-1.09-10.57-1.95-16.21-.82-10.66-1.24-21.34-1.46-32.03-.13-6.05.13-12.04-.5-18-.59-8.91-.87-17.86-1.65-26.75 5.96 1.33 11.8 2.11 17.61 4.06 2.43.75 4.79 1.82 7.26 2.4 3.87-1.48 7.16-4.86 10.91-6.76 11.16-4.94 21.91-11.02 31.8-18.17 5.81-2.32 11.98-4.51 18.27-4.85 11.63-1.1 23.14-3.05 34.74-4.34 1.97-.35 4.06-.83 5.08-2.75.88-1.74.03-4.06-1.13-5.48-2.69-3.26-6.03-5.25-7.64-9.39-1.33-3.53-2.86-7.23-3.28-10.99 1.27-2.85 3.44-5.36 5.13-7.99z" fill="#09670e"/><path d="M798.82 441.93c2.44-.03 4.88-.06 7.31.07.33 4.12-.1 8.3.24 12.41 7.02.33 13.92.08 20.78 1.84.78 8.89 1.06 17.84 1.65 26.75.63 5.96.37 11.95.5 18 .22 10.69.64 21.37 1.46 32.03.86 5.64-.11 10.76 1.95 16.21 2.3 6.08 3.52 12.25 3.64 18.76.64 9.01 1.85 17.96 2.2 26.99.89 6.26.58 12.55 1.18 18.82.78 3.21 2.48 6.2 3.48 9.36.27.94.54 1.89.82 2.83H815.8l.23-2.35c.67-11.21 1.29-22.45 1.77-33.67.2-3.81.71-7.83.34-11.63-.09-1.92-.45-3.57-1.13-5.35-2.47-6.66-4.65-13.43-6.66-20.24-4.37-15.62-4.82-30.73-6-46.75-.86-14.33-2.02-28.65-2.56-42.99-.34-6.97-2-14.17-2.97-21.09z" fill="#382f31"/><path d="M1090 478.57v27.08c-1.04-.08-1.84-.47-2.39-1.18.17-.63.35-1.25.55-1.87.55-7.94.21-16.27 1.84-24.03z" fill="#fff"/><path d="M877.48 506.04c3.43 3.43 5.58 8.1 8.58 11.93 8.38 10.99 16.69 21.57 23.04 33.95 2.48 5.68 8.43 9.71 12.67 14.31 6.93 6.22 8.31 15.73 12.18 23.82.84 1.72 2.05 4.32 4.13 4.72 2.09.19 3.59-2.68 4.54-4.18 3.02-4.88 3.24-10.01 3.62-15.59-.32-8.32-1.67-16.67-1.81-25-.28-6.54 1.63-13.15 4.54-18.96 3.44 4.29 5.97 9.24 9.6 13.41 11.13 12.81 26.11 22.43 40.18 31.79 19.24 12.9 39.15 24.71 59.27 36.17l1.81 1.25c5.53.16 12.13-.1 17.26 2.2 1.33.71 1.01 2.49-.22 3.07-2.72 1.34-6.5 1.95-9.27.45-2.64-1.98-5.37-4.71-8.47-5.91-2.02.11-3.61.47-5.43 1.33-2.1-1.57-4.25-.8-6.7-.86-33.8 2.18-67.67 3.54-101.52 4.78-21.49 1.37-42.98 2.94-64.48 4.23-7.62-.01-15.34.44-22.93-.02.23-3.42 1.41-6.51 2.1-9.92 1.61-7.73 3.04-15.49 4.67-23.2 1.48-5.87 3.05-11.72 4.35-17.62 3.42-21.97 6.19-44.02 8.29-66.15zM507.38 527.26l.7-.45c3.25 1.66 6.22 3.87 9.36 5.76 3.42 1.9 4.43 5.25 6.68 8.37 5.21 7.63 10.93 14.97 17.11 21.83 1.75 2.05 3.65 3.79 4.54 6.39 1.81 4.92 3.07 10.13 5.13 14.94 4.88 11.52 13.88 20.06 20.15 31.17 2.3 3.5 4.13 7.28 6.48 10.73H335.71c2.86-7.76 5.13-15.74 7.86-23.54 3.01-5.97 8.27-11.14 10.49-17.47 2.75-11.15 6.95-21.88 10.38-32.87 2.88 1.9 4.58 6.06 6.61 8.85 4.1 5.76 5.08 12.15 7.37 18.68 1.43 4.02 2.21 8.81 4.72 12.24 2.83 4.14 5.46 8.47 8.6 12.37 3.15 4.04 6.81 7.14 9.37 11.68 1.5 2.49 2.1 5.22 3.15 7.89l.75.08c4.3-11.99 8.31-24.36 10.57-36.91 1.23-7.27 2.41-14.55 3.63-21.82.72-7.61 1.87-16.47 5.8-23.18 1.32-1.58 3.12-4.75 5.29-2.26 5.13 6.92 7.25 16.74 10.34 24.68 4.96 7.84 10.52 15.11 14.3 23.67 3.53 8.13 6.42 15.98 11.5 23.47 3.25 4.11 7.46 7.61 11.53 10.88 3.34-6.03 4.53-14.66 6.41-21.2 2.24-7.71 4.13-15.4 6.99-22.87 1.12-3.71 1.89-7.52 2.87-11.27 1.9-7.9 5.05-15.44 7.52-23.27 1.92-5.5 3.54-11.13 5.62-16.57zM625.01 526.92c1.18.14 1.85 1.68 2.56 2.52 6.36 9.36 12.9 18.72 18.35 28.65 3.81 6.89 5.96 14.23 8.46 21.65 1.46 3.51 4.12 6.57 6.15 9.76 1.68 2.12 1.16 5.07 2.46 7.5 3.3 7.28 7.12 15.18 12.66 21 1.03-5.26.59-10.7 1.41-16.01.77-9.98 1.57-20.08 2.99-29.99.84-6.66 1.81-13.58 3.98-19.94 1.94-4.46 4.86-8.7 8.01-12.39l.69.49c3.77 13.29 5.35 25.86 13.55 37.55 1.52 2.67 4.61 3.5 5.83 6.22 4.28 8.89 7.42 18.1 9.29 27.79.6 4.62 4.85 8.07 6.7 12.44-3 .34-6.08.22-9.1.27-26.67.27-53.33.53-80 .88-2.83.1-5.84-.26-8.47.69h-1.25c-1.42-.63-2.67-1.12-4.27-1.02-8.03-.03-16.06.45-24.09.52l-1.35-1.18c.77-1.57 1.04-2.99.81-4.25l-1.37-.58 1.79-.39c1.2-5.34 2.13-10.75 3.31-16.1 1.22-4.82 3.38-9.43 4.46-14.3 2.84-16.24 3.76-33.96 8.4-49.69 1.94-4.18 4.86-8.75 8.04-12.09zM794.84 530.13c2.58 3.81 1.04 9.56 3.36 13.65 2.13 3.69 4.99 6.99 6.97 10.76 1.74 5.15 4.57 9.32 7.14 14.15 1.91 3.2 3.47 6.77 5.83 9.66.37 3.8-.14 7.82-.34 11.63-.48 11.22-1.1 22.46-1.77 33.67-13.98-.22-27.98.32-41.96.14.45-3.71 2.28-7.06 2.85-10.78 2.59-14.28 4.81-28.6 6.55-43.01 1.24-8.77 1.4-17.28 3.77-25.9 1.3-4.69 2.83-9.99 6.25-13.6l1.35-.37zM57.85 535.07c3.69 9.87 6.81 19.98 10.03 30.01 3.86 12.26 2.9 24.27 4.32 36.9.48 5.57-.04 11.5 1.39 16.89-.31.62-.65 1.23-1.02 1.82-6.94 1.19-14 2.72-20.56 5.31H38.75c-.4-6.47-1.28-12.55-1.22-19 .01-11.01-.22-22.02-.34-33.03-1.03-4.15-.21-8 1.1-11.96l-.33-1.75c2.94-5.58 4.4-12.76 8.04-18.28 3.13-3.12 7.8-5.23 11.85-6.91zM103.89 535.22c.8 1.32 1.26 2.71 1.74 4.16 5.28 15.93 10.08 31.93 16.65 47.4 4.61 10.51 7.52 21.49 11.32 32.32l-.22 1.25c-12.46-.19-24.92-.85-37.38-1.16-3.22 0-6.58-.71-9.53.78-1.22-.05-2.43-.12-3.65-.19-.47 2.08-1.06 4.13-1.49 6.22h-7.87c-.09-1.87-.16-3.75-.28-5.62 2.4-.31 4.85-.64 7.19-1.28.98-.1 1.95-.23 2.91-.37 1.39-9.88 3.65-19.75 4.41-29.74 1.77-12.9 1.48-24.96 6.14-37.13 1.71-5.32 4.86-9.52 7.93-14.09.64-.84 1.2-1.99 2.13-2.55zM276.16 535.22l.58.17c2.85 4.06 6.1 8.22 8.27 12.67 2.56 10.14 5.86 20.02 10.51 29.41 2.7 6.03 6.35 11.39 8.47 17.59 1.81 4.8 2.76 9.81 4.36 14.67 1.76 5.53 4.19 10.82 6.24 16.27H206.77c.07-.97.18-1.93.33-2.89 11.02.09 22.11 1.76 33.11 2.37 3.89-9.63 6.89-19.68 11.11-29.21 2.2-4.69 3.52-9.82 5.25-14.7 4.03-11.49 6.72-23.01 11.59-34.43 2.18-4.16 4.93-8.37 8-11.92zM158.4 543.39c4.4 2.44 8.08 7 11.54 10.65 4.15 4.55 3.46 9.73 5.93 15.09 5.5 12.53 12.79 24.38 20.01 35.97 3.45 5.51 8.52 10.95 10.32 17.25l-1.05.44c-21.56-.68-43.15-1.34-64.69-2.19-.71-3.57 1.64-7.7 1.15-11.61 1.18-11.34 3.06-22.7 4.66-33.99.65-6.35 1.96-12.79 3.92-18.87 2.01-4.6 5.14-8.8 8.21-12.74z" fill="#58a234"/><path d="M1090 577.88V626h-83.62c.19-2.49 1.11-4.78 1.39-7.27 10.7-.62 21.53-.57 32.23-1.14 4.59-.62 9.32-1.25 13.7-2.79 1.82-.86 3.41-1.22 5.43-1.33 3.1 1.2 5.83 3.93 8.47 5.91 2.77 1.5 6.55.89 9.27-.45 1.23-.58 1.55-2.36.22-3.07-5.13-2.3-11.73-2.04-17.26-2.2l-1.81-1.25c8.06-3.45 11.82-10.08 16.22-17.19.53-1.3 1.08-1.97 2.36-2.61 3.91-2.29 8.72-3.79 11.29-7.75 1.22-2.31 1.66-4.47 2.11-6.98zM571.05 615.27c4.01-.26 8.01-.58 12.02-.79 5.29 1.76 10.52 3.62 15.94 5.01l1.37.58c.23 1.26-.04 2.68-.81 4.25-.23.71-.63 1.2-1.19 1.49-2.88 0-5.79-.04-8.66.19h-12.19c-2.35-3.45-4.18-7.23-6.48-10.73zM73.59 618.87c2.29.23 4.48.32 6.78.23-2.34.64-4.79.97-7.19 1.28.12 1.87.19 3.75.28 5.62H52.01c6.56-2.59 13.62-4.12 20.56-5.31.37-.59.71-1.2 1.02-1.82zM82.82 619.78c1.22.07 2.43.14 3.65.19 4.85.03 9.7.59 14.54.89 11.42 1 22.84 1.57 34.18 3.35.22.6.44 1.19.66 1.79H81.33c.43-2.09 1.02-4.14 1.49-6.22z" fill="#fff"/><path d="M134.52 620.6c1.4-.02 3.78-.48 4.91.57.11 1.21.13 2.43.27 3.64l-1.4 1.19h-2.45c-.22-.6-.44-1.19-.66-1.79-.48-1.2-.71-2.4-.67-3.61zM843.21 623.17c4.54.24 9.14-.05 13.67.02.05.94.07 1.87.07 2.81h-12.92c-.28-.94-.55-1.89-.82-2.83z" fill="#58a234"/><path d="M911.92 622.83c3.44.6 6.43 1.75 9.6 3.17h-16.14c2.03-1.52 3.93-2.89 6.54-3.17z" fill="#fff"/><path d="M599.57 624.32l1.35 1.18c8.03-.07 16.06-.55 24.09-.52 1.6-.1 2.85.39 4.27 1.02h-39.56c2.87-.23 5.78-.19 8.66-.19.56-.29.96-.78 1.19-1.49z" fill="#919191"/><path d="M729.62 624.41c11.42-.34 22.95-.23 34.38-.44 2.96 0 5.97-.21 8.91.09l.47 1.94h-44.66l.9-1.59z" fill="#58a234"/><path d="M139.7 624.81c3.13.4 6.29.66 9.4 1.19h-10.8l1.4-1.19z" fill="#fff"/></svg>