<svg viewBox="0 0 302 122" height="122pt" width="302pt" xmlns="http://www.w3.org/2000/svg"><path d="M0 0h298.49c.12 2.88.12 5.76.21 8.63.07 2.63.06 5.26-.01 7.88-.22 35.15-.03 70.33-.1 105.49H105.43c-.11-27.86-.04-55.73-.03-83.6 10.72-.1 21.45-.08 32.17-.01.1 21.45-.14 42.93.12 64.37 43-.11 86 .01 129-.06.01-21.42.07-42.85-.03-64.27-.03-2.87-.01-5.73.02-8.6.07-4.3.05-8.61.02-12.92-29.88-.25-59.81.01-89.7-.13-2.39-.01-4.8.04-7.19.21-.15 4.26-.03 8.52-.11 12.79-43.02.03-86.05-.08-129.06.05-.05 2.84-.06 5.67-.05 8.51 4.33.02 8.65-.01 12.97.05.02 27.87.01 55.74.01 83.61H0V0z" fill="#a85b16"/><path d="M298.49 0H302v8.19c-1.1.16-2.2.31-3.3.44-.09-2.87-.09-5.75-.21-8.63z" fill="#caa36a"/><path d="M298.7 8.63c1.1-.13 2.2-.28 3.3-.44v8.75c-1.11-.13-2.21-.28-3.31-.43.07-2.62.08-5.25.01-7.88z" fill="#38a7b8"/><path d="M169.81 16.99c2.39-.17 4.8-.22 7.19-.21 29.89.14 59.82-.12 89.7.13.03 4.31.05 8.62-.02 12.92-32.33-.07-64.65.05-96.98-.05.08-4.27-.04-8.53.11-12.79z" fill="#919191"/><path d="M298.69 16.51c1.1.15 2.2.3 3.31.43V122h-3.41c.07-35.16-.12-70.34.1-105.49z" fill="#caa36a"/><path d="M40.64 29.83c43.01-.13 86.04-.02 129.06-.05 32.33.1 64.65-.02 96.98.05-.03 2.87-.05 5.73-.02 8.6-43.03.07-86.06.05-129.09-.04-10.72-.07-21.45-.09-32.17.01-17.28.03-34.56.06-51.84-.01-4.32-.06-8.64-.03-12.97-.05-.01-2.84 0-5.67.05-8.51z" fill="#f42819"/><path d="M53.56 38.39c17.28.07 34.56.04 51.84.01-.01 27.87-.08 55.74.03 83.6H53.57c0-27.87.01-55.74-.01-83.61zM137.57 38.39c43.03.09 86.06.11 129.09.04.1 21.42.04 42.85.03 64.27-43 .07-86-.05-129 .06-.26-21.44-.02-42.92-.12-64.37z" fill="#333233"/></svg>