<svg viewBox="0 0 292 124" height="124pt" width="292pt" xmlns="http://www.w3.org/2000/svg"><path d="M0 0h3.6c-.14 41.31-.08 82.69-.02 124H0V0z" fill="#f9cd5d"/><path d="M3.6 0H292v124H3.58c-.06-41.31-.12-82.69.02-124z" fill="#a85b16"/><path d="M68.49 19.29c3.34-.75 7.09-.45 10.51-.47 13.67.02 27.33 0 41 .01 4.25-.05 8.49-.09 12.73.26 0 3.07-.01 6.14-.02 9.21-21.41.08-42.82.07-64.23.01-.01-2.99-.22-6.04.01-9.02z" fill="#f42819"/><path d="M68.48 28.31c21.41.06 42.82.07 64.23-.01 0 4.03.03 8.07.07 12.11-21.46.13-42.93.1-64.4.01.02-4.04.09-8.07.1-12.11z" fill="#f9cd5d"/><path d="M197.39 38.03c4.88-.67 9.7-.3 14.61-.37 10.67-.03 21.33.05 32-.05 1.5.11 3.46-.21 4.77.6.85 2.37.43 5.29.52 7.79-.04 24.33-.04 48.67.01 73-.02 1.41-.15 2.78-.39 4.14-1.51.56-3.32.43-4.91.47-15.46-.14-30.93.05-46.39-.09-.4-28.48.06-57.01-.22-85.49zM36.06 40.34c10.77-.03 21.56-.13 32.32.08 21.47.09 42.94.12 64.4-.01 10.68-.21 21.37-.06 32.05-.1.25 2.23.47 4.45.48 6.69-.09 14-.02 28-.05 42-.05 5.27.3 10.46-.4 15.71-42.96.03-85.92-.03-128.88.02-.31-3.57-.35-7.14-.28-10.73.02-13.67 0-27.33.01-41 .02-4.26-.25-8.41.35-12.66z" fill="#333233"/></svg>