<svg viewBox="0 0 410 100" height="100pt" width="410pt" xmlns="http://www.w3.org/2000/svg"><path d="M0 0h410v100h-1.51c.01-23.47-.22-46.94-.15-70.41-132.45-.08-264.9 0-397.34-.04-3.65-.01-7.35-.08-11 .1v-.39c136.13 0 272.25-.01 408.38 0 .02-9.4.02-18.8 0-28.21H0V0z" fill="#e0e0e0"/><path d="M0 1.05h408.38c.02 9.41.02 18.81 0 28.21-136.13-.01-272.25 0-408.38 0V1.05z" fill="#6e8f52"/><path d="M172.14 12.61c4.21-.59 8.62-.26 12.86-.26 24.21.04 48.42-.04 72.62.03l.09 7.75c-9.91.41-19.79.12-29.71.2-18.86-.06-37.73.11-56.59-.09.12-2.49-.02-5.24.73-7.63z" fill="#515151"/><path d="M0 29.65c3.65-.18 7.35-.11 11-.1 132.44.04 264.89-.04 397.34.04-.07 23.47.16 46.94.15 70.41h-82.84c-.11-4.52.01-8.98.68-13.46 20.11.28 40.22.06 60.33.12-.05-4.72-.07-9.43.25-14.14.36-4.77.4-9.53.38-14.31 0-4.74-.05-9.48-.15-14.21-10.7-.31-21.43-.09-32.14-.16-46.78.06-93.58-.11-140.36.09-.05 4.75-.07 9.5-.06 14.25.22 9.44-.43 18.99.28 28.39 1.46.13 2.93.19 4.41.19 20.03-.24 40.06.02 60.09-.14.04 4.46.04 8.92.03 13.38H0V29.65z" fill="#d48e71"/><path d="M20.74 43.96c9.76-.22 19.5-.08 29.26-.12 47.74.08 95.5-.14 143.24.11.07 4.75.11 9.49.09 14.24-57.56-.06-115.13-.07-172.69.01 0-4.75.03-9.49.1-14.24zM214.64 43.93c46.78-.2 93.58-.03 140.36-.09 10.71.07 21.44-.15 32.14.16.1 4.73.15 9.47.15 14.21-57.58-.18-115.13-.1-172.71-.03-.01-4.75.01-9.5.06-14.25z" fill="#f3f67b"/><path d="M20.64 58.2c57.56-.08 115.13-.07 172.69-.01 0 9.5-.04 18.99.04 28.49-2.96.06-5.92.09-8.88.07.01-4.75.01-9.51.01-14.26-17.28.03-34.55-.06-51.83.05 0 4.72-.01 9.44.03 14.17-1.4.01-2.81.01-4.21.01.01-4.74.01-9.49 0-14.23-8.63.02-17.27-.03-25.91.03.01 4.74-.01 9.47.04 14.21-10.05.12-20.11.11-30.16.01.05-4.75.04-9.5.03-14.25-17.2.01-34.4-.03-51.6.02-.3-4.8-.24-9.5-.25-14.31zM214.58 58.18c57.58-.07 115.13-.15 172.71.03.02 4.78-.02 9.54-.38 14.31-20.07.02-40.19-.17-60.25.09-.16 4.6.13 9.36-.33 13.93-.67 4.48-.79 8.94-.68 13.46h-46.26c.01-4.46.01-8.92-.03-13.38-.03-4.7-.02-9.4-.02-14.1-20.02-.08-40.03.01-60.05-.05-.05 4.77-.05 9.53-.02 14.29a49.7 49.7 0 0 1-4.41-.19c-.71-9.4-.06-18.95-.28-28.39z" fill="#333233"/><path d="M128.49 72.49c.01 4.74.01 9.49 0 14.23-8.63-.05-17.25-.12-25.87.01-.05-4.74-.03-9.47-.04-14.21 8.64-.06 17.28-.01 25.91-.03zM184.5 72.49c0 4.75 0 9.51-.01 14.26-17.26-.16-34.53-.09-51.79-.04-.04-4.73-.03-9.45-.03-14.17 17.28-.11 34.55-.02 51.83-.05zM326.66 72.61c20.06-.26 40.18-.07 60.25-.09-.32 4.71-.3 9.42-.25 14.14-20.11-.06-40.22.16-60.33-.12.46-4.57.17-9.33.33-13.93zM20.89 72.51c17.2-.05 34.4-.01 51.6-.02.01 4.75.02 9.5-.03 14.25-17.06-.17-34.12-.02-51.17-.08.04-4.72-.02-9.43-.4-14.15zM219.29 72.47c20.02.06 40.03-.03 60.05.05 0 4.7-.01 9.4.02 14.1-20.03.16-40.06-.1-60.09.14-.03-4.76-.03-9.52.02-14.29z" fill="#e0e0e0"/></svg>