<svg viewBox="0 0 256 128" height="128pt" width="256pt" xmlns="http://www.w3.org/2000/svg"><path d="M0 0h256v128h-15.26c-.01-28.56.02-57.12-.02-85.68-16.31.02-32.63-.24-48.95-.05-53.74.13-107.56-.05-161.29.09-.1 21.43-.02 42.89-.04 64.33 53.76.05 107.53 0 161.29.02.01 7.1.01 14.19.01 21.29H0V0z" fill="#f8a65f"/><path d="M75.63 8.77c32.29-.01 64.59-.02 96.89 0 .07 7.16.03 14.33.02 21.49-32.31.02-64.62.01-96.93 0-.01-7.16-.04-14.33.02-21.49z"/><path d="M30.48 42.36c53.73-.14 107.55.04 161.29-.09-.07 21.48 0 42.96-.04 64.44-53.76-.02-107.53.03-161.29-.02.02-21.44-.06-42.9.04-64.33z" fill="#515151"/><path d="M191.77 42.27c16.32-.19 32.64.07 48.95.05.04 28.56.01 57.12.02 85.68h-49c0-7.1 0-14.19-.01-21.29.04-21.48-.03-42.96.04-64.44z"/><path d="M94.98 63.96c6.32-.45 12.69-.09 19.02-.2 15.2.1 30.44-.21 45.64.15.01 2.85-.02 5.69-.18 8.53-21.32-.07-42.67-.17-63.99.05-1.23-2.67-.69-5.69-.49-8.53z" fill="#e0e0e0"/></svg>