<svg viewBox="0 0 672 874" height="874pt" width="896" xmlns="http://www.w3.org/2000/svg"><path d="M0 0h672v874H0V0z" fill="#ebcf55"/><path d="M284.61 232.36c7.35 7.33 13.98 16.64 16.55 26.81 1.3 7.21 1.06 15.07-2.25 21.73-5.29 11.05-13.64 18.37-20.58 27.93-2.99 4.53-6.12 9.5-5.97 15.14-.28 6.27 2.78 12 5.99 17.17 2.44 4.31 8.3 8.43 7.39 13.71-.11 5.36-7.21 7.51-10.93 4.26-4.54-4.12-7.93-9.69-11.04-14.93-5.42-9.45-7.26-20.72-3.63-31.15 4.19-11.01 11.56-18.45 18.85-27.3 4.04-5.3 9.21-11.68 8.79-18.73.32-7.31-3.91-13.45-8.14-19-2.65-3.76-8.31-7.64-7.23-12.73.68-5.84 8.76-6.82 12.2-2.91z"/><path d="M320.22 234.8c7.03 7.18 13.53 16.34 15.93 26.22 1.24 6.92 1.07 14.72-2.07 21.15-5.37 11.71-14.94 19.89-22.28 30.38-2.69 4.06-4.55 8.47-4.44 13.44-.18 6.23 2.27 11.59 5.78 16.57 2.08 3.24 4.79 6.05 6.73 9.37 1.78 3.39 1.07 7.76-2.56 9.6-3.26 2.01-6.47.6-8.89-1.93-4.76-5.12-9-11.6-11.83-17.98-3.69-7.96-4.37-17.54-1.81-25.92 3.93-11.39 12.51-20.18 19.99-29.3 3.7-4.82 8.32-11 7.99-17.38.38-7.11-3.66-13.4-7.83-18.79-2.02-2.65-4.56-4.93-6.41-7.7-2.33-3.63-1.38-8.79 2.87-10.49 3.69-1.63 6.28.25 8.83 2.76zM352.97 231.47c2.71.04 5.24 2.69 7.01 4.53 6.52 7.35 12.41 15.77 14.72 25.45 1.86 7.59.58 15.5-3.01 22.38-5.17 10.47-13.15 17.32-19.74 26.57-3.41 4.79-6.65 10.55-6.34 16.62.46 5.9 3.3 11.54 6.53 16.4 2.27 3.52 5.69 6.82 7.18 10.71 1 4.74-3.42 9.25-8.21 8.24-3.4-1.11-5.99-4.66-8.09-7.41-7.45-9.83-13.68-22.93-10.76-35.5 2.96-13.41 12.55-22.6 20.76-32.87 3.71-4.64 7.84-10.49 8.4-16.56.52-7.44-3.99-14.85-8.52-20.43-2.35-3.09-5.8-6.11-7.14-9.74-1.16-4.24 2.87-8.84 7.21-8.39z"/><path d="M279.64 248c4.23 5.55 8.46 11.69 8.14 19 .42 7.05-4.75 13.43-8.79 18.73.83-12.54-.33-25.17.65-37.73zM352.9 249.6c4.53 5.58 9.04 12.99 8.52 20.43-.56 6.07-4.69 11.92-8.4 16.56-.65-5.86-.63-11.71-.52-17.59-.06-6.48-.14-12.93.4-19.4zM314.93 250.23c4.17 5.39 8.21 11.68 7.83 18.79.33 6.38-4.29 12.56-7.99 17.38-1.01-8.15-.36-16.22-.63-24.4-.08-3.95.27-7.85.79-11.77zM278.33 308.83c.86 5.43 1.13 10.67.97 16.17a89.84 89.84 0 0 1-.95 16.14c-3.21-5.17-6.27-10.9-5.99-17.17-.15-5.64 2.98-10.61 5.97-15.14zM351.95 310.4c1.07 10.89.73 22.09.19 33.02-3.23-4.86-6.07-10.5-6.53-16.4-.31-6.07 2.93-11.83 6.34-16.62zM314 312.44c.56 5.82.05 11.71.29 17.56.2 4.24-.38 8.4-1.15 12.56-3.51-4.98-5.96-10.34-5.78-16.57-.11-4.97 1.75-9.38 4.44-13.44.73-.05 1.47-.08 2.2-.11z" fill="#fff"/><path d="M178 368.74c86.67.03 173.33.01 260 .02 4.12.08 8.39-.34 12.46.3 4.29.61 8.19 3.91 9.13 8.19 1.69 6.15-.56 11.61.47 17.87 3.68-1.48 6.19-4.23 9.72-6.38 10.37-6.36 23.36-9.05 35.28-6.17 9.35 2.08 17.86 6.99 24.61 13.76 12.24 11.53 19.07 27.35 21.64 43.78 1.92 16.11 1.18 32.18-5.08 47.32-5.08 12.8-13.85 24.82-25.58 32.24-10.3 6.31-22.92 9.38-34.87 6.7-13.87-2.85-25.02-11.57-33.31-22.75-2.63-3.61-4.55-7.49-6.8-11.33-1.67.68-2.12 3.06-2.86 4.55-3.85 10.26-9.08 19.76-14.87 29.04-2.61 4.21-5.74 7.93-8.04 12.34 19.69.39 39.41 0 59.09.18 4.84-.06 8.73 3.34 10.02 7.89 1.31 3.87-.78 7.56-3.21 10.45-4.19 4.81-8.97 9.08-13.2 13.86-7.51 8.41-15.03 16.33-24.58 22.5-15.92 10.49-35.05 15.11-53.54 18.67-6.43 1.28-12.86 2.31-19.44 2.25-44.02.01-88.06.02-132.08-.01-9.87.04-19.34-1.82-28.99-3.62-13.15-2.59-25.89-6.18-37.78-12.5a88.024 88.024 0 0 1-19.04-14.05c-7.46-7.58-13.99-15.95-21.49-23.49-3.03-3.33-6.51-6.43-6.39-11.34-.33-4.67 2.95-8.95 7.37-10.22 3.35-.69 6.96-.39 10.36-.43 16.67-.06 33.36.2 50.02-.13-2.01-3.69-4.49-7.02-6.7-10.58-9.41-14.93-16.5-31.27-21.48-48.2-9.24-31.83-11.79-66.49-11.54-99.52-.21-5.22 3.63-9.53 8.57-10.67 3.9-.87 8.16-.43 12.13-.52z"/><path d="M178.47 390.4c5.84-.21 11.69-.05 17.53-.09 80.85.03 161.82-.07 242.66.05.03 7.53-.05 15.12-.44 22.65-.81 5.39-.49 10.83-1.29 16.22-1.59 16.76-4.59 33.77-9.93 49.77-7.28 22.02-19.47 42.2-35.15 59.24-4.29.26-8.56.1-12.85.12-48 .01-96 0-144 .01-3.27-.05-6.62.2-9.88-.18-1.93-1.44-3.51-3.43-5.07-5.25a163.816 163.816 0 0 1-27.53-49.21c-7.26-20.08-10.83-41.51-12.68-62.72-.6-10.22-1.65-20.35-1.37-30.61zM487.52 403.78c9-3.14 18.7-.06 25.65 6.03 12.11 10.33 18.21 27.54 17.68 43.19-.05 5.44.19 11.4-1.17 16.67-2.35 10.26-7.24 20.74-15.07 27.96-5.56 5.33-12.8 8.73-20.64 8.14-9.81.38-18.12-6.65-23.86-13.91-7.06-9.57-11.14-21.98-10.99-33.86-.03-5.62-.17-11.37.69-16.94 1.87-9.03 5.35-17.93 11.07-25.25 4.12-5.49 10.02-10.06 16.64-12.03zM163.79 559.58c4.42-.25 8.79-.13 13.21-.15 90.68 0 181.36.01 272.03 0 1.65.01 3.29.07 4.93.15-7.08 7.98-14.78 15.08-24.47 19.8-15.12 7.43-33.1 10.73-49.63 13.45-4.34.88-8.47.57-12.86.6-41 0-82.01-.01-123.01.01-3.72-.04-7.43-.85-11.13-1.28-14.8-2.22-30.85-5.13-44.37-11.76-9.97-4.81-17.87-12.24-24.7-20.82z" fill="#fff"/></svg>