<svg viewBox="0 0 412 406" height="406pt" width="412pt" xmlns="http://www.w3.org/2000/svg"><path d="M0 0h412v406H278.33c.3-4.01.12-7.99.15-12 .01-75.33 0-150.67 0-226-.04-4.12.16-8.21-.15-12.33-2.78-.15-5.54-.21-8.33-.13-42-.01-84 .01-126-.01-2.43-.1-4.82.03-7.24.21-.33 4.09-.12 8.16-.17 12.26 0 79.33.01 158.67 0 238H0V0z" fill="#e0e0e0"/><path d="M136.76 155.74c2.42-.18 4.81-.31 7.24-.21 42 .02 84 0 126 .01 2.79-.08 5.55-.02 8.33.13.31 4.12.11 8.21.15 12.33 0 75.33.01 150.67 0 226-.03 4.01.15 7.99-.15 12H136.59c.01-79.33 0-158.67 0-238 .05-4.1-.16-8.17.17-12.26z" fill="#919191"/></svg>