<svg viewBox="0 0 1142 918" height="1224" width="1142pt" xmlns="http://www.w3.org/2000/svg"><path d="M0 0h1142v224.83c-165.84.02-331.7-.05-497.54.03-.03-9.95-.18-19.9-.23-29.86.06-6.26-.85-12.46-.72-18.73l-.67-.03c-8.94-.93-17.91-.52-26.83-1.53-15.71-.47-31.76-1.78-47.01-5.77-6.19-1.68-13.2-1.46-19.02-3.94-3.7-1.63-5.32-5.61-7.11-8.94-2.82-5.89-6.07-12.39-5.53-19.07.11-4.55 2.37-8.4 4.31-12.38 2.02-4 3.51-8.23 4.2-12.66 1.39-8.96 2.46-17.95 3.54-26.95.37-3.21-.94-6.63-1.69-9.77-1.65-6.05-2.85-12.71-5.61-18.36-1.86-2.87-5.67-4.64-8.57-6.3-4.08-2.3-8.23-2.76-12.67-3.96-6.41-1.5-12.44-4.14-18.86-5.61l.98.01c-6.32-1.41-11.32-4.11-17.97-3.59-2.3.04-4.54.72-5.2 3.15-.5 2.84-.83 5.7-1.38 8.54-7.16 5.58-14.37 11.17-21.12 17.25-7.91 7.74-15.54 15.78-23.41 23.57-7.72 7.56-16.44 13.67-25.21 19.91-4.27 2.94-7.51 6.4-12.59 7.75-5.79 1.7-11.25 3.72-16.03 7.51-4.87 4.01-8.67 9.28-10.71 15.25-2.57 7.17-4.73 14.49-7.18 21.71-.34 1-.68 2.01-1.02 3.01-2.38 7-4.76 14.01-6.95 21.08l-.38.71c-1.59 5.05-3.32 10.05-5.02 15.07-2.1 6.04-3.11 12.61-4.4 18.89-.32 1.24-.7 2.48-1.21 3.66-3.59.71-7.53.27-11.19.35-104-.01-208 0-312-.01-4.78-.02-9.55-.01-14.33.1-.16 168.15.02 336.39-.09 504.54 5.81.23 11.61.14 17.42.14 160.7.02 321.4-.02 482.09.03.02 5.91.52 11.7 1.27 17.56.3 5.88.99 11.72 1.36 17.6 1.07 13.26 2.84 26.44 5.02 39.56.67 5.24 1.69 10.42 2.57 15.63 1.18 8.43.95 17.49 1.08 26.02.17 13.18-.09 26.37.28 39.54.76 10.86 1.48 21.68 3.11 32.46H0V0z" fill="#fefefe"/><path d="M485 37.42c6.65-.52 11.65 2.18 17.97 3.59l-.98-.01c6.42 1.47 12.45 4.11 18.86 5.61 4.44 1.2 8.59 1.66 12.67 3.96 2.9 1.66 6.71 3.43 8.57 6.3 2.76 5.65 3.96 12.31 5.61 18.36.75 3.14 2.06 6.56 1.69 9.77-1.08 9-2.15 17.99-3.54 26.95-.69 4.43-2.18 8.66-4.2 12.66-1.94 3.98-4.2 7.83-4.31 12.38-.54 6.68 2.71 13.18 5.53 19.07 1.79 3.33 3.41 7.31 7.11 8.94 5.82 2.48 12.83 2.26 19.02 3.94 15.25 3.99 31.3 5.3 47.01 5.77 8.92 1.01 17.89.6 26.83 1.53.56 5.27-.04 10.49.27 15.76.52 9.99.27 20.02.82 30.01.9 9.51-.03 18.97 1.29 28.46.28 7.53.89 15.03 1.5 22.54.36 3.55 4.11 6.54 6.09 9.35 4.21 5.63 4.75 11.92 5.56 18.66.74 6.98 5.41 12.96 9.18 18.59 1.69 2.35 1.13 4.71.94 7.39-.62 4.72-1.06 9.44-2.06 14.07-2.17 1.32-3.68 2.37-4.46 4.92-3.76 10.67-7.27 21.57-9.32 32.72-3.25 16.91-5.17 34.06-7.92 51.06-.72 4.39-1.38 8.76-1.35 13.23.14 15.67.29 31.33.28 47 .63 13.77 1.23 27.4 3.14 41.08 1.18 7.04 8.04 10.11 11.78 16.14 4.28 6.82 8.49 13.7 12.63 20.6 2.11 3.28 1.39 7.48 1.22 11.18-.91 8.1-1.18 16.05-3.27 23.98-1.7 7.29-5.33 13.77-7.1 21.01-1.78 6.69-3.32 14.45-6.99 20.36-2.31 3.89-5.87 6.03-10.09 7.35-4.24 1.26-8.55 3.76-13.01 2.28-8.64-2.28-17.35-4.42-25.88-7.09-10.75-3.19-19.72-12.97-29.67-17.99-9.74-4.3-19.61-5.41-29.53-8.65-11.51-3.79-22.98-7.71-34.51-11.45-2.49-.91-4.94-1.93-7.47-2.79-1.93 4.67-2.75 9.93-4.24 14.81-19.4-.62-40.56.18-59.65-3.44-12.83-2.48-23.96-8.24-35.53-14.02-7.5-3.85-13.91-9.06-19.96-14.89-7.51-7.08-14.75-15.72-18.65-25.36-3.22-8.16-5.77-16.45-7.92-24.95-1.45-6-3.88-10.89-3.58-17.16.35-8.45-.5-19.4 3.59-27.04 2.26-2.72 8.03-2.12 11.28-2.79-1.7-1.28-3.04-2.63-5.24-2.99-7.19-1.27-14.72-.96-21.86-2.6-5.47-1.38-10.67-2.31-15.44-5.54-11.77-7.32-21.51-20.67-20.58-35.04.45-17.3-.15-33.99 2.8-51.17.56-3.84 3.18-5.64 5.46-8.45 2.49-2.7 2.94-6.89 3.68-10.39 1.55-7.55.69-14.5 3.57-21.76 2.59-7.68 9.09-12.69 15.9-16.51 6.8-3.71 13.29-7.75 20.25-11.09 6.28-2.97 12.71-6.39 18.07-10.84 2.68-3.3 4.91-7.23 6.84-11.01 2.44-6.57.41-13.77-2.77-19.72-8.97-16.98-23.5-30.99-33.15-47.83-2.54-4.83-4.04-9.9-3.38-15.41 1.29-6.28 2.3-12.85 4.4-18.89 1.7-5.02 3.43-10.02 5.02-15.07l.38-.71c2.19-7.07 4.57-14.08 6.95-21.08.34-1 .68-2.01 1.02-3.01 2.45-7.22 4.61-14.54 7.18-21.71 2.04-5.97 5.84-11.24 10.71-15.25 4.78-3.79 10.24-5.81 16.03-7.51 5.08-1.35 8.32-4.81 12.59-7.75 8.77-6.24 17.49-12.35 25.21-19.91 7.87-7.79 15.5-15.83 23.41-23.57 6.75-6.08 13.96-11.67 21.12-17.25.55-2.84.88-5.7 1.38-8.54.66-2.43 2.9-3.11 5.2-3.15z" fill="#009402"/><path d="M642.84 176.24l.67.03c-.13 6.27.78 12.47.72 18.73.05 9.96.2 19.91.23 29.86 165.84-.08 331.7-.01 497.54-.03v227.28c-21.67-.1-43.33.05-65-.06-3.19-.01-6.44-.01-9.63.21-.12 83.34-.01 167.33-.05 250.74-.05 8.88.13 17.77-.12 26.65-171.05-.1-342.14-.02-513.2-.05-11.81.03-23.62-.06-35.42.06-.22-7.93.05-15.76-.73-23.66-.47-8.72-.2-17.47-.66-26.19-1-11.26-.44-22.55-1.45-33.81-.44-12.47-2.98-24.75-3.36-37.2 11.53 3.74 23 7.66 34.51 11.45 9.92 3.24 19.79 4.35 29.53 8.65 9.95 5.02 18.92 14.8 29.67 17.99 8.53 2.67 17.24 4.81 25.88 7.09 4.46 1.48 8.77-1.02 13.01-2.28 4.22-1.32 7.78-3.46 10.09-7.35 3.67-5.91 5.21-13.67 6.99-20.36 1.77-7.24 5.4-13.72 7.1-21.01 2.09-7.93 2.36-15.88 3.27-23.98.17-3.7.89-7.9-1.22-11.18-4.14-6.9-8.35-13.78-12.63-20.6-3.74-6.03-10.6-9.1-11.78-16.14-1.91-13.68-2.51-27.31-3.14-41.08.01-15.67-.14-31.33-.28-47-.03-4.47.63-8.84 1.35-13.23 2.75-17 4.67-34.15 7.92-51.06 2.05-11.15 5.56-22.05 9.32-32.72.78-2.55 2.29-3.6 4.46-4.92 1-4.63 1.44-9.35 2.06-14.07.19-2.68.75-5.04-.94-7.39-3.77-5.63-8.44-11.61-9.18-18.59-.81-6.74-1.35-13.03-5.56-18.66-1.98-2.81-5.73-5.8-6.09-9.35-.61-7.51-1.22-15.01-1.5-22.54-1.32-9.49-.39-18.95-1.29-28.46-.55-9.99-.3-20.02-.82-30.01-.31-5.27.29-10.49-.27-15.76zM344.4 220.82c-.66 5.51.84 10.58 3.38 15.41 9.65 16.84 24.18 30.85 33.15 47.83 3.18 5.95 5.21 13.15 2.77 19.72-1.93 3.78-4.16 7.71-6.84 11.01-5.36 4.45-11.79 7.87-18.07 10.84-6.96 3.34-13.45 7.38-20.25 11.09-6.81 3.82-13.31 8.83-15.9 16.51-2.88 7.26-2.02 14.21-3.57 21.76-.74 3.5-1.19 7.69-3.68 10.39-2.28 2.81-4.9 4.61-5.46 8.45-2.95 17.18-2.35 33.87-2.8 51.17-.93 14.37 8.81 27.72 20.58 35.04 4.77 3.23 9.97 4.16 15.44 5.54 7.14 1.64 14.67 1.33 21.86 2.6 2.2.36 3.54 1.71 5.24 2.99-3.25.67-9.02.07-11.28 2.79-4.09 7.64-3.24 18.59-3.59 27.04-.3 6.27 2.13 11.16 3.58 17.16 2.15 8.5 4.7 16.79 7.92 24.95 3.9 9.64 11.14 18.28 18.65 25.36 6.05 5.83 12.46 11.04 19.96 14.89 11.57 5.78 22.7 11.54 35.53 14.02 19.09 3.62 40.25 2.82 59.65 3.44l.62.05c.41 8.65.11 17.33.54 25.97 1.17 12.12.24 24.44 1.33 36.56.52 6.2.16 12.4.74 18.59.82 8.34.28 16.68 1.19 25.02.7 6.73 1.43 13.4 1.27 20.18-.75-5.86-1.25-11.65-1.27-17.56-160.69-.05-321.39-.01-482.09-.03-5.81 0-11.61.09-17.42-.14.11-168.15-.07-336.39.09-504.54 4.78-.11 9.55-.12 14.33-.1 104 .01 208 0 312 .01 3.66-.08 7.6.36 11.19-.35.51-1.18.89-2.42 1.21-3.66z" fill="#919191"/><path d="M1067.37 452.26c3.19-.22 6.44-.22 9.63-.21 21.67.11 43.33-.04 65 .06v277.58c-24.93-.03-49.87.06-74.8-.04.25-8.88.07-17.77.12-26.65.04-83.41-.07-167.4.05-250.74z" fill="#6c6c6c"/><path d="M504.91 606.01c2.53.86 4.98 1.88 7.47 2.79.38 12.45 2.92 24.73 3.36 37.2 1.01 11.26.45 22.55 1.45 33.81.46 8.72.19 17.47.66 26.19.78 7.9.51 15.73.73 23.66-.24 7.49.77 14.87.79 22.34.29 6.4-.67 13.47 1.37 19.47 2.88 9.72 3.99 19.59 5.74 29.53.92 6.17 3.67 11.92 5.35 18.12 2.98 10.09 4.02 20.38 6.63 30.54 1.43 5.3 3.21 10.86 3.83 16.32 1.33 16.85 2.78 33.71 3.41 50.59-1.55.49-3.11.98-4.69 1.43h-21.23c-1.63-10.78-2.35-21.6-3.11-32.46-.37-13.17-.11-26.36-.28-39.54-.13-8.53.1-17.59-1.08-26.02-.88-5.21-1.9-10.39-2.57-15.63.85-9.05-2.84-17.24-2.68-26.35.15-4.65-.99-8.83-2.34-13.21-.37-5.88-1.06-11.72-1.36-17.6.16-6.78-.57-13.45-1.27-20.18-.91-8.34-.37-16.68-1.19-25.02-.58-6.19-.22-12.39-.74-18.59-1.09-12.12-.16-24.44-1.33-36.56-.43-8.64-.13-17.32-.54-25.97l-.62-.05c1.49-4.88 2.31-10.14 4.24-14.81z" fill="#620f22"/><path d="M518.58 729.66c11.8-.12 23.61-.03 35.42-.06 171.06.03 342.15-.05 513.2.05 24.93.1 49.87.01 74.8.04V918H541.01c1.58-.45 3.14-.94 4.69-1.43-.63-16.88-2.08-33.74-3.41-50.59-.62-5.46-2.4-11.02-3.83-16.32-2.61-10.16-3.65-20.45-6.63-30.54-1.68-6.2-4.43-11.95-5.35-18.12-1.75-9.94-2.86-19.81-5.74-29.53-2.04-6-1.08-13.07-1.37-19.47-.02-7.47-1.03-14.85-.79-22.34z" fill="#fefefe"/><path d="M507.72 764.79c1.35 4.38 2.49 8.56 2.34 13.21-.16 9.11 3.53 17.3 2.68 26.35-2.18-13.12-3.95-26.3-5.02-39.56z" fill="#620f22"/></svg>