<svg viewBox="0 0 1230 704" height="704pt" width="1640" xmlns="http://www.w3.org/2000/svg"><path d="M0 0h27.22c.01 206.62.02 413.27-.01 619.89C16.6 623.75 8.43 630.62 0 637.88V0z" fill="#fff"/><path d="M27.22 0H88.8l.82 1.48c2.1 3.92 5.43 6.53 7.33 10.62 2.86 6.6 2.97 13 4.34 19.89.83 3.03-1.1 6.41-1.67 9.48-2.73 9.69-3.43 19.43-4.7 29.35-2.87 25.45-3.74 51.54-4.86 77.18-.62 5.96-.55 12-.85 18-.34 4.95 1.72 10.14 2.85 14.97 5.74 21.69 16.47 42.87 18.18 65 .25 10.03 1.57 19.86 1.38 29.92.35-1.43.34-2.94.78-4.33-.46 9.43.13 19.02.82 28.44.12 6 .41 12 .54 18 .02 4.42 1.12 8.41.04 12.82-3.81 18.75-7.04 37.82-12.13 56.26 1.95 3.41 4.27 6.6 6.38 9.91 1.08 1.9 3.37 2.43 4.8 4.14 3.47 3.89 6.89 7.82 10.21 11.83 3.21 3.7 6.73 6.59 8 11.56 1.18 14.39 2.41 29.05 2.63 43.48.97 18.28.38 36.7 1.25 55 .51 3.83.06 7.65.46 11.48 7.76 4.1 15.16 8.63 22.03 14.11 2.26 1.88 4.46 3.69 5.53 6.52 1.03 2.89 1.48 5.84 1.67 8.89 1.75 15.86 1.9 31.63 2.74 47.53-3.85.92-7.9 1.69-11.54 3.28-4.4 2.04-8.01 7.44-12.76 8.17-10.54-.4-21.47-.06-32.07-.17-2.52.15-5.39-.46-7.67.61-8.31-3.01-16.74-5.85-25.16-8.56-5.99-1.51-12.1-2.6-18.16-3.84-2.14-.33-3.91-1.08-6.05-.32-8.99 2.78-18.01 5.67-26.75 9.19.03-206.62.02-413.27.01-619.89z" fill="#6c6c6c"/><path d="M88.8 0h272.41c-1.16 1.62-2.39 3.26-3.28 5.04-3.18 16.7-6.64 33.97-12.49 49.94.93 8.39 2.57 16.87 4.08 25.19 3.16 11.31 7.85 22.24 10.6 33.65 2.66 7.53 9.45 13.4 12.05 21.04 2.27 6.06 6.35 11.55 6.58 18.13.24 5.32-.34 10.69-.46 16.01-1.12 14.96-2.01 30.06-3.48 44.99-.91 11.07-5.5 19.79-8.4 30.29-1.37 5.4-2.57 10.88-4.11 16.24-3.49 9.93-9.13 20.07-10.49 30.48-1.35 12.49-6.4 25.09-10.48 36.97-.14 1.66.23 3.4.49 5.04 2.04 11.45 2.49 22.87 5.46 33.97 2.53 12.23 11.16 23.58 19.07 32.97-.6 6.69-1.06 13.37-1.78 20.04-.38 9.53-2.13 18.96-5.62 27.86-5.21 12.8-13.42 23.04-17.84 36.21-4.15 12.45-8.37 24.97-12.45 37.43-2.16 18.49-2.63 37.45-6.69 55.52-2.38 11.58-6.6 22.45-10.29 33.46-.36 4.14-1.11 8.23-1.36 12.37-.61 3.41-.97 6.72-1.2 10.19-1.02 5.63-1.94 11.23-1.93 16.97-.22 4.44.06 8.87-2.47 12.7-2.26 3.99-6.2 5.31-10.27 6.76-5.29 1.7-10.9 3.21-16.46 3.45-5.11-.99-10.27-2.29-15.31-3.57-10.76-9.67-23.91-12.59-37.57-15.92-11.22-3.57-25.53-5.26-36.58-10.56-2.54-3.55-5.54-6.74-8.18-10.24-1.43-2.15-4.88-1.42-7.1-1.46 2.31 4.15 5.01 8.08 7.47 12.15 2.49 3.84 4.52 7.73 7.43 11.27 1.39 3.32 3.67 6.22 5.42 9.39-1.8-1.49-3.59-3-5.3-4.6-5.03-5.07-11.4-10.19-15.47-16.18-3.06-4.6-3.97-9.76-4.28-15.18-.24-5.51-.91-10.98-1.15-16.48-.84-15.9-.99-31.67-2.74-47.53-.19-3.05-.64-6-1.67-8.89-1.07-2.83-3.27-4.64-5.53-6.52-6.87-5.48-14.27-10.01-22.03-14.11-.4-3.83.05-7.65-.46-11.48-.87-18.3-.28-36.72-1.25-55-.22-14.43-1.45-29.09-2.63-43.48-1.27-4.97-4.79-7.86-8-11.56-3.32-4.01-6.74-7.94-10.21-11.83-1.43-1.71-3.72-2.24-4.8-4.14-2.11-3.31-4.43-6.5-6.38-9.91 5.09-18.44 8.32-37.51 12.13-56.26 1.08-4.41-.02-8.4-.04-12.82-.13-6-.42-12-.54-18-.69-9.42-1.28-19.01-.82-28.44-.44 1.39-.43 2.9-.78 4.33.19-10.06-1.13-19.89-1.38-29.92-1.71-22.13-12.44-43.31-18.18-65-1.13-4.83-3.19-10.02-2.85-14.97.3-6 .23-12.04.85-18 1.12-25.64 1.99-51.73 4.86-77.18 1.27-9.92 1.97-19.66 4.7-29.35.57-3.07 2.5-6.45 1.67-9.48-1.37-6.89-1.48-13.29-4.34-19.89-1.9-4.09-5.23-6.7-7.33-10.62L88.8 0z" fill="#054807"/><path d="M361.21 0h670.95c0 5.34.31 10.67.56 16.01.94 8.29.57 16.69 1.4 24.98.4 7.37.34 14.83.79 22.19 3.11 10.12 7.59 21.15 7.71 31.83.93 7.57.85 15.36.76 23 .01 2.96-1.12 5.43-2.29 8.07-3.15 6.77-4.1 14.66-6.32 21.72-2.85 4.56-6.73 9.11-8.82 14.13-3.58 9.37-6.08 19.13-7.48 29.06-.26 2.43-.47 4.8.53 7.1 1.15 2.7 2.81 5.4 3.3 8.38 1.47 14.54 2.75 29.12 3.53 43.71.39 4.93 1.29 10.53-.18 15.3-1.73 7.62-4.34 14.05-3.1 22.08 1.36 4.45 6.68 7.1 8.17 11.66 1.56 4.76 2.45 9.79 2.84 14.78.47 4.85 1.87 9.33.65 14.18-2.25 9.84-3.15 19.12-6.91 28.07-2.29 5.49-4.44 10.81-5.39 16.73-1.65 10.31-2.88 20.65-3.81 31.04-4.01 13.32-9.41 26.41-12.93 39.96-1.35 8.95-2.2 18.02-3.36 27-.12 1.6-.72 3.5-.18 5.04 3.43 4.9 7.34 10.12 9.71 15.67 1.98 4.57 2.79 9.36 3.15 14.29 1.43 12.36 3.08 24.67 4.67 37.01.46 4.64.69 9.37.28 14.02-1.03 8.09-4.05 15.98-5.25 23.99 4.4 13.99 9.59 27.65 12.38 42.13l-.77.38a7.37 7.37 0 0 0-3.79-.71c-83.56.06-167.17-.06-250.73.06l-2.21.1-.93.11c.27-2.71.16-5.36.18-8.07-.01-108 0-216-.01-324-.03-3.01.02-6.03-.13-9.03-.64-2.12-2.07-2.73-4.16-2.8-112.68-.03-225.37 0-338.05-.01-2.53-.03-5.05.77-4.69 3.82-.05 113.27-.09 226.69.01 339.95l-4.15-.09c-35.6-.05-71.22-.05-106.82 0 .25-4.14 1-8.23 1.36-12.37 3.69-11.01 7.91-21.88 10.29-33.46 4.06-18.07 4.53-37.03 6.69-55.52 4.08-12.46 8.3-24.98 12.45-37.43 4.42-13.17 12.63-23.41 17.84-36.21 3.49-8.9 5.24-18.33 5.62-27.86.72-6.67 1.18-13.35 1.78-20.04-7.91-9.39-16.54-20.74-19.07-32.97-2.97-11.1-3.42-22.52-5.46-33.97-.26-1.64-.63-3.38-.49-5.04 4.08-11.88 9.13-24.48 10.48-36.97 1.36-10.41 7-20.55 10.49-30.48 1.54-5.36 2.74-10.84 4.11-16.24 2.9-10.5 7.49-19.22 8.4-30.29 1.47-14.93 2.36-30.03 3.48-44.99.12-5.32.7-10.69.46-16.01-.23-6.58-4.31-12.07-6.58-18.13-2.6-7.64-9.39-13.51-12.05-21.04-2.75-11.41-7.44-22.34-10.6-33.65-1.51-8.32-3.15-16.8-4.08-25.19 5.85-15.97 9.31-33.24 12.49-49.94.89-1.78 2.12-3.42 3.28-5.04z" fill="#6c6c6c"/><path d="M1032.16 0H1230v323.79c-1.52 6.08-6.04 11.56-9.57 16.65-1.26 1.4-1.19 3.29-1.77 5.14-2.2 4.47-3.34 9.62-4.62 14.42-2.24 8.7-4.42 17.43-6.5 26.17-.53 5.8.88 11.97.98 17.82 1.59 18.84 2.71 37.49 5.92 56.16.97 5.62 1.62 11.13 4.26 16.27 2.22 7.09 6.43 13.62 9.6 20.35-1.09 12.42-2.49 25.91-4.32 38.22-1.17 5.62-4.42 9.99-4.7 16.01 0 2.3-.72 4.43-.61 6.75-1.41 6.55-1.48 12.91-5.05 18.85-4.55 7.81-12.16 14.19-18.45 20.59-1.01 1.13-1.41 2.83-1.98 4.22-3.23 7.6-3.67 15.44-3.27 23.59.38 5.42-.89 11.26-4.47 15.45-3.55 3.46-9.33 4.94-14.03 6.03-4.41.79-9.34 1.99-13.76 1-7.55-1.54-15.55-2.74-22.78-5.3-5-1.67-9.7-3.92-14.79-5.36-5.98-1.83-12-2.44-18.09-3.79-3.26-.65-6.29-1.72-9.66-1.59-1.17-1.38-2.93-1.53-4.58-2.13-7.79-2.31-15.34-5.33-23.1-7.7-1.87-.63-3.73-1.3-5.57-2-1.6-1.02-3.42-1.44-3.44 1.11-2.67 21.59-5.21 43.28-8.18 64.82-2.88.16-5.48-.47-8.38-.88-7.52-1.22-14.85-2.19-22.13-4.58-6.48-2.11-13.13-4.02-19.38-6.76-.35-1.66.45-3.57.76-5.2.92-3.36 1.43-6.87 2.57-10.15 4.98-6.01 9.5-13.44 10.76-21.25.58-3.34 2.53-5.65 4.36-8.35 3.43-1 6.42-3.53 9.77-4.86l.77-.38c-2.79-14.48-7.98-28.14-12.38-42.13 1.2-8.01 4.22-15.9 5.25-23.99.41-4.65.18-9.38-.28-14.02-1.59-12.34-3.24-24.65-4.67-37.01-.36-4.93-1.17-9.72-3.15-14.29-2.37-5.55-6.28-10.77-9.71-15.67-.54-1.54.06-3.44.18-5.04 1.16-8.98 2.01-18.05 3.36-27 3.52-13.55 8.92-26.64 12.93-39.96.93-10.39 2.16-20.73 3.81-31.04.95-5.92 3.1-11.24 5.39-16.73 3.76-8.95 4.66-18.23 6.91-28.07 1.22-4.85-.18-9.33-.65-14.18-.39-4.99-1.28-10.02-2.84-14.78-1.49-4.56-6.81-7.21-8.17-11.66-1.24-8.03 1.37-14.46 3.1-22.08 1.47-4.77.57-10.37.18-15.3-.78-14.59-2.06-29.17-3.53-43.71-.49-2.98-2.15-5.68-3.3-8.38-1-2.3-.79-4.67-.53-7.1 1.4-9.93 3.9-19.69 7.48-29.06 2.09-5.02 5.97-9.57 8.82-14.13 2.22-7.06 3.17-14.95 6.32-21.72 1.17-2.64 2.3-5.11 2.29-8.07.09-7.64.17-15.43-.76-23-.12-10.68-4.6-21.71-7.71-31.83-.45-7.36-.39-14.82-.79-22.19-.83-8.29-.46-16.69-1.4-24.98-.25-5.34-.56-10.67-.56-16.01z" fill="#09670e"/><path d="M425.97 279.16c112.68.01 225.37-.02 338.05.01 2.09.07 3.52.68 4.16 2.8.15 3 .1 6.02.13 9.03.01 108 0 216 .01 324-.02 2.71.09 5.36-.18 8.07-.35.66-.69 1.32-1.03 1.99-2.99 1.55-5.84.89-9.11 1.04-86.36-.03-172.81.08-259.17-.05-10.93-1.58-21.73-3.4-32.83-3.49-9.02-.45-18-.04-27.02.24-2.89.11-5.3 1.45-7.46 3.27-3.64-.05-6.8.68-9.98-1.53l-.25-1.61c-.1-113.26-.06-226.68-.01-339.95-.36-3.05 2.16-3.85 4.69-3.82z"/><path d="M429.98 285.45c53.22.02 106.56-.01 159.76.02.55.52.76 1.35.62 2.49-.02 109.01-.02 218.03 0 327.04-.14 1.43.37 3.47-.47 4.68-53.3-.03-106.61-.01-159.91-.01-1.51-.05-2.56.15-2.46-1.77 0-110.27.01-220.53-.01-330.8-.09-1.68 1.17-1.66 2.47-1.65zM599.28 285.47c53.16-.04 106.59.02 159.74-.03 1.35.13 2.83-.37 2.66 1.61-.01 107.65 0 215.3 0 322.95-.03 3.2.08 6.4-.08 9.58-54.03.19-108.3.04-162.36.07-.13-110.08 0-220.53-.06-330.66-.02-1.17.02-2.35.1-3.52z" fill="#515151"/><path d="M1230 323.79v285.7c-3.73-1.08-7.48-2.08-11.19-3.25-.14-16.15.22-32.36-.14-48.49-.11-2.32.61-4.45.61-6.75.28-6.02 3.53-10.39 4.7-16.01 1.83-12.31 3.23-25.8 4.32-38.22-3.17-6.73-7.38-13.26-9.6-20.35.24-39.91.03-80.44.1-120.42-.1-3.47.22-6.97-.14-10.42.58-1.85.51-3.74 1.77-5.14 3.53-5.09 8.05-10.57 9.57-16.65z" fill="#fff"/><path d="M1218.66 345.58c.36 3.45.04 6.95.14 10.42-.07 39.98.14 80.51-.1 120.42-2.64-5.14-3.29-10.65-4.26-16.27-3.21-18.67-4.33-37.32-5.92-56.16-.1-5.85-1.51-12.02-.98-17.82 2.08-8.74 4.26-17.47 6.5-26.17 1.28-4.8 2.42-9.95 4.62-14.42zM1218.67 557.75c.36 16.13 0 32.34.14 48.49-8.23-2.66-16.96-4.51-25.62-4.83.57-1.39.97-3.09 1.98-4.22 6.29-6.4 13.9-12.78 18.45-20.59 3.57-5.94 3.64-12.3 5.05-18.85z" fill="#6c6c6c"/><path d="M1193.19 601.41c8.66.32 17.39 2.17 25.62 4.83 3.71 1.17 7.46 2.17 11.19 3.25V704h-157.74c.27-6.84.4-13.32 2.87-19.82 3.7-9.27 8.04-18.44 9.77-28.36 2.22-8.19 4.58-16.39 7.44-24.38 3.37-.13 6.4.94 9.66 1.59 6.09 1.35 12.11 1.96 18.09 3.79 5.09 1.44 9.79 3.69 14.79 5.36 7.23 2.56 15.23 3.76 22.78 5.3 4.42.99 9.35-.21 13.76-1 4.7-1.09 10.48-2.57 14.03-6.03 3.58-4.19 4.85-10.03 4.47-15.45-.4-8.15.04-15.99 3.27-23.59zM53.96 610.7c2.14-.76 3.91-.01 6.05.32 6.06 1.24 12.17 2.33 18.16 3.84 8.42 2.71 16.85 5.55 25.16 8.56 3.91.93 7.68 2.75 11.6 3.53 9.38-.96 18.97-1.7 28.14-3.97 4.75-.73 8.36-6.13 12.76-8.17 3.64-1.59 7.69-2.36 11.54-3.28.24 5.5.91 10.97 1.15 16.48.31 5.42 1.22 10.58 4.28 15.18 4.07 5.99 10.44 11.11 15.47 16.18-.68 14.94-1.01 29.66-1.11 44.63H0v-66.12c8.43-7.26 16.6-14.13 27.21-17.99 8.74-3.52 17.76-6.41 26.75-9.19z" fill="#129318"/><path d="M1059.09 619.61c-1.13.59-2.28.96-3.44 1.11.02-2.55 1.84-2.13 3.44-1.11z" fill="#49714b"/><path d="M1059.09 619.61c1.84.7 3.7 1.37 5.57 2-2.7 12.24-6.34 24.19-8.39 36.58-.96 6.79-3.29 13.27-4.53 19.97-.36 8.63-.4 17.23-1.13 25.84H223.26c.36-6.66.17-13.37.8-20 .53-10.15.06-20.49 1.05-30.58 13.66 3.33 26.81 6.25 37.57 15.92 5.04 1.28 10.2 2.58 15.31 3.57 5.56-.24 11.17-1.75 16.46-3.45 4.07-1.45 8.01-2.77 10.27-6.76 2.53-3.83 2.25-8.26 2.47-12.7-.01-5.74.91-11.34 1.93-16.97 2.15.66 4.27 1.37 6.45 1.94-.48 1.93-.68 2.25.87 3.58 3.41 3.29 7.3 6.12 11.25 8.74 3.89 2.58 8.93 3.69 13.41 4.9 8.01-2.17 15.09-6.47 23.4-7.89 12.83-2.16 25.98-3.2 38.68-6.16 5.86-1.29 11.33-3.27 17.03-5.08 1.1-.35 2.2-.69 3.31-1.03 3.13-.77 5.51-4.01 8-5.96 2.16-1.82 4.57-3.16 7.46-3.27 9.02-.28 18-.69 27.02-.24 11.1.09 21.9 1.91 32.83 3.49 1.41.92 2.96 1.1 4.55 1.53 4.88 1.27 9.48 3.22 14.05 5.32 2.35.95 4.56 2.18 6.84 3.28 6.52 2.78 11.54 7.45 17.48 11.06 8.34 3.9 17.43 6.47 26.25 9.07 10.65-1.55 22.03-4.19 32.99-4.56 18.14-1.19 36.98-1.27 55.01-3.09 10.11-.96 19.21-4.35 28.46-8.31 1.07-.57 2.25-.8 3.52-.7 38.36.93 76.68 1.82 115.02 3.36 9.39.51 18.71.55 28.03 1.94 1.42.36 3.38.5 3.78 2.21l-2.67 1.47c7.41-1.98 15.08-3.19 22.52-5 6.55-4.36 12.8-9.11 18.87-14.12 1.61-1.33 3.43-2.06 5.48-2.42 5.19.46 10.37 2.43 15.47 3.65 2.65.86 5.68.3 8.52.42 37.38.27 75.75 1.08 113.03-2.79-1.83 2.7-3.78 5.01-4.36 8.35-1.26 7.81-5.78 15.24-10.76 21.25-1.14 3.28-1.65 6.79-2.57 10.15-.31 1.63-1.11 3.54-.76 5.2 6.25 2.74 12.9 4.65 19.38 6.76 7.28 2.39 14.61 3.36 22.13 4.58 2.9.41 5.5 1.04 8.38.88 2.97-21.54 5.51-43.23 8.18-64.82 1.16-.15 2.31-.52 3.44-1.11z" fill="#129318"/><path d="M1064.66 621.61c7.76 2.37 15.31 5.39 23.1 7.7 1.65.6 3.41.75 4.58 2.13-2.86 7.99-5.22 16.19-7.44 24.38-1.73 9.92-6.07 19.09-9.77 28.36-2.47 6.5-2.6 12.98-2.87 19.82h-21.65c.73-8.61.77-17.21 1.13-25.84 1.24-6.7 3.57-13.18 4.53-19.97 2.05-12.39 5.69-24.34 8.39-36.58z" fill="#621123"/><path d="M111 622.81c10.6.11 21.53-.23 32.07.17-9.17 2.27-18.76 3.01-28.14 3.97-3.92-.78-7.69-2.6-11.6-3.53 2.28-1.07 5.15-.46 7.67-.61zM310.32 622.84c35.6-.05 71.22-.05 106.82 0 .61 3.58 1.48 6.94 3.07 10.22-5.7 1.81-11.17 3.79-17.03 5.08-12.7 2.96-25.85 4-38.68 6.16-8.31 1.42-15.39 5.72-23.4 7.89-4.48-1.21-9.52-2.32-13.41-4.9-3.95-2.62-7.84-5.45-11.25-8.74-1.55-1.33-1.35-1.65-.87-3.58-2.18-.57-4.3-1.28-6.45-1.94.23-3.47.59-6.78 1.2-10.19z" fill="#fff"/><path d="M417.14 622.84l4.15.09.25 1.61c-.23 2.79.93 5.01 1.98 7.49-1.11.34-2.21.68-3.31 1.03-1.59-3.28-2.46-6.64-3.07-10.22z" fill="#e7e7e7"/><path d="M768.14 623.07l.93-.11c-.53 3.5-1.49 6.3-4.53 8.38-1.5.19-3.03.17-4.54.19-78.33-.03-156.67.02-235-.03-2.64.19-5.56-.72-7.57 1.4-4.57-2.1-9.17-4.05-14.05-5.32-1.59-.43-3.14-.61-4.55-1.53 86.36.13 172.81.02 259.17.05 3.27-.15 6.12.51 9.11-1.04.34-.67.68-1.33 1.03-1.99z" fill="#bababa"/><path d="M769.07 622.96l2.21-.1c.26 5.06-2.13 9.68-6.9 11.65-3.52 1.08-7.7.71-11.38.75-73.33-.02-146.67.01-220-.02-2.99.1-6.04-.51-8.73.94-2.28-1.1-4.49-2.33-6.84-3.28 2.01-2.12 4.93-1.21 7.57-1.4 78.33.05 156.67 0 235 .03 1.51-.02 3.04 0 4.54-.19 3.04-2.08 4-4.88 4.53-8.38z" fill="#e5e5e5"/><path d="M771.28 622.86c83.56-.12 167.17 0 250.73-.06 1.33-.1 2.6.14 3.79.71-3.35 1.33-6.34 3.86-9.77 4.86-37.28 3.87-75.65 3.06-113.03 2.79-2.84-.12-5.87.44-8.52-.42-5.1-1.22-10.28-3.19-15.47-3.65-2.05.36-3.87 1.09-5.48 2.42-6.07 5.01-12.32 9.76-18.87 14.12-7.44 1.81-15.11 3.02-22.52 5l2.67-1.47c-.4-1.71-2.36-1.85-3.78-2.21-9.32-1.39-18.64-1.43-28.03-1.94-38.34-1.54-76.66-2.43-115.02-3.36-1.27-.1-2.45.13-3.52.7-9.25 3.96-18.35 7.35-28.46 8.31-18.03 1.82-36.87 1.9-55.01 3.09-10.96.37-22.34 3.01-32.99 4.56-8.82-2.6-17.91-5.17-26.25-9.07-5.94-3.61-10.96-8.28-17.48-11.06 2.69-1.45 5.74-.84 8.73-.94 73.33.03 146.67 0 220 .02 3.68-.04 7.86.33 11.38-.75 4.77-1.97 7.16-6.59 6.9-11.65z" fill="#fff"/><path d="M421.54 624.54c3.18 2.21 6.34 1.48 9.98 1.53-2.49 1.95-4.87 5.19-8 5.96-1.05-2.48-2.21-4.7-1.98-7.49z" fill="#bebebe"/><path d="M173.25 631.16c2.22.04 5.67-.69 7.1 1.46 2.64 3.5 5.64 6.69 8.18 10.24-.11 3.94-.02 7.81-.38 11.72-2.91-3.54-4.94-7.43-7.43-11.27-2.46-4.07-5.16-8-7.47-12.15z" fill="#129318"/><path d="M188.53 642.86c11.05 5.3 25.36 6.99 36.58 10.56-.99 10.09-.52 20.43-1.05 30.58-.63 6.63-.44 13.34-.8 20h-36.1c.1-14.97.43-29.69 1.11-44.63 1.71 1.6 3.5 3.11 5.3 4.6-1.75-3.17-4.03-6.07-5.42-9.39.36-3.91.27-7.78.38-11.72z" fill="#621123"/></svg>