<svg viewBox="0 0 326 106" height="106pt" width="326pt" xmlns="http://www.w3.org/2000/svg"><path d="M0 0h326v1.17l-1-.01c-2.34.03-4.66-.19-7-.1-102.33.01-204.67 0-307 .01-2.82.07-5.82-.26-8.57.3-.19 9.15.13 18.43-.16 27.56.04 9.74-.07 19.48.06 29.22.01 13.9.13 28.78-.06 42.6 2.45.59 5.21.27 7.73.33h119c1.65.12 3.23-.18 4.87.15 1.35.63 2.68.44 4.13.48 18.65-.03 37.39 0 56.04-.01.74-.01 1.46-.19 2.18-.52 40.76-.22 86.94-.07 128.17-.07l1.61.05V106H0V0z" fill="#f0f0f0"/><path d="M2.43 1.37c2.75-.56 5.75-.23 8.57-.3 102.33-.01 204.67 0 307-.01 2.34-.09 4.66.13 7 .1-.16 9.1.32 18.48-.23 27.51l-1.74.16c-105.34.02-210.69-.03-316.03.02-1.64-.34-3.13.24-4.73.08.29-9.13-.03-18.41.16-27.56z" fill="#c5f1b5"/><path d="M325 1.16l1 .01v99.99l-1.61-.05c.64-2.21.33-4.83.37-7.11.06-11.4-.09-22.82.08-34.22-.92-1.96-3.12-1.28-4.84-1.39-40.3.02-80.72.05-121.01-.01-.93.06-1.87.16-2.8.3l-.28-.47c41.98.29 84.07-.03 126.09.16 1.11.13 2.13 0 3.06-.4l.46-.94c.03-8.69.05-17.41 0-26.1l-.42-.99c-1.57-.54-3.45-.31-5.1-.34-103.67.02-207.33 0-311 .01-1.98.08-4.22-.32-6.1.34l-.43.99c.11 8.95-.34 18.02.25 26.93l-.39.28c-.13-9.74-.02-19.48-.06-29.22 1.6.16 3.09-.42 4.73-.08 105.34-.05 210.69 0 316.03-.02l1.74-.16c.55-9.03.07-18.41.23-27.51z" fill="#c5f1b5"/><path d="M109.53 10.41c2.52-.5 4.93-.33 7.47-.33 23.98-.01 48.02 0 72 0 2.25.02 4.56-.15 6.79.18.7 1.77.71 5.73.03 7.51-.92.19-1.86.28-2.81.29-25.33-.04-50.68-.01-76.01-.02-2.59-.02-4.95.22-7.48-.44.18-2.44.13-4.76.01-7.19z" fill="#92130a"/><path d="M2.9 29.95c1.88-.66 4.12-.26 6.1-.34 103.67-.01 207.33.01 311-.01 1.65.03 3.53-.2 5.1.34l.42.99c.05 8.69.03 17.41 0 26.1l-.46.94c-.93.4-1.95.53-3.06.4-42.02-.19-84.11.13-126.09-.16-5.94-.53-11.95-.14-17.91-.26-14.59.12-29.29-.23-43.86.18-42.05.14-85.89 0-128.14.08-1.09-.1-2.19-.21-3.28-.34-.59-8.91-.14-17.98-.25-26.93l.43-.99z" fill="#cc3636"/><path d="M2.33 58.15l.39-.28c1.09.13 2.19.24 3.28.34 42.25-.08 86.09.06 128.14-.08-.24 14.24.28 28.9-.27 43.1-1.64-.33-3.22-.03-4.87-.15H10c-2.52-.06-5.28.26-7.73-.33.19-13.82.07-28.7.06-42.6z" fill="#333233"/><path d="M134.14 58.13c14.57-.41 29.27-.06 43.86-.18 5.96.12 11.97-.27 17.91.26l.28.47c-.16 14.12-.22 28.38.03 42.5-.72.33-1.44.51-2.18.52-18.65.01-37.39-.02-56.04.01-1.45-.04-2.78.15-4.13-.48.55-14.2.03-28.86.27-43.1z" fill="#9a272a"/><path d="M196.19 58.68c.93-.14 1.87-.24 2.8-.3 40.29.06 80.71.03 121.01.01 1.72.11 3.92-.57 4.84 1.39-.17 11.4-.02 22.82-.08 34.22-.04 2.28.27 4.9-.37 7.11-41.23 0-87.41-.15-128.17.07-.25-14.12-.19-28.38-.03-42.5z" fill="#333233"/><path d="M219.12 72.49c27.84.09 55.69.07 83.53.01l.65.48c.64 4.17.12 8.79.27 13.06l-.57.73c-28.19-.12-56.63.02-84.83-.07l-.56-.68c-.11-4.04-.03-8.09-.05-12.13.24-1.1.76-1.57 1.56-1.4z" fill="#f0f0f0"/><path d="M23.5 73.38c1.15-1.1 3.02-.78 4.5-.84 25.66.02 51.35.05 77-.02 1.43.13 3.56-.28 4.71.68.19 4.34.27 9.11-.07 13.44-2.91.43-5.72.16-8.64.23-23.33-.01-46.67 0-70-.01-2.52.04-5.02.1-7.52-.25 0-4.41-.05-8.83.02-13.23z" fill="#cc3636"/></svg>