<svg viewBox="0 0 578 252" height="336" width="578pt" xmlns="http://www.w3.org/2000/svg"><path d="M0 0h293.42c-2.11 4.66-2.45 9.65-4.05 14.43-2.51 5.95-.13 13.76-3.16 19.77-.95 1.63-3.49 1.66-5.13 1.61-2.34-.05-3.62-3.14-4.9-4.72-2.81 2.42-8.05 5.17-8.79 9.05-.47 5.49 3.02 11.44 5.19 16.36 2.43.57 4.87.9 7.37 1.03.24 7.68-1.15 15.96-4.34 22.99-91.87.03-183.74.01-275.61.01V0z" fill="#fcfcfc"/><path d="M293.42 0h5.16l.97.52.65.35c3.7 2.11 7.21 3.61 9.56 7.39 2.75 4.5 4.05 9.83 6.44 14.55 1.44 3.28 3.95 5.16 6.35 7.66 1.98 2.04 2.88 4.4 4.19 6.85 2.13.55 4.9.84 6.55 2.37 4.03 3.4 5.78 9.31 5.21 14.42-.31.73-.88 1.3-1.72 1.71-5.15 2.86-12.42 2.31-17.49 5.44-2.54 2.83-3.97 7.49-1.37 10.79 2.12 2.75 4.36 5.23 5.76 8.47-16.02.02-32.05.01-48.07 0 3.19-7.03 4.58-15.31 4.34-22.99-2.5-.13-4.94-.46-7.37-1.03-2.17-4.92-5.66-10.87-5.19-16.36.74-3.88 5.98-6.63 8.79-9.05 1.28 1.58 2.56 4.67 4.9 4.72 1.64.05 4.18.02 5.13-1.61 3.03-6.01.65-13.82 3.16-19.77 1.6-4.78 1.94-9.77 4.05-14.43z" fill="#d49eb1"/><path d="M298.58 0H578v81.22c-3.24-1.06-6.52-.63-10-.69-81.44-.01-162.88.03-244.32-.01-1.4-3.24-3.64-5.72-5.76-8.47-2.6-3.3-1.17-7.96 1.37-10.79 5.07-3.13 12.34-2.58 17.49-5.44.84-.41 1.41-.98 1.72-1.71.57-5.11-1.18-11.02-5.21-14.42-1.65-1.53-4.42-1.82-6.55-2.37-1.31-2.45-2.21-4.81-4.19-6.85-2.4-2.5-4.91-4.38-6.35-7.66-2.39-4.72-3.69-10.05-6.44-14.55-2.35-3.78-5.86-5.28-9.56-7.39l-.65-.35-.97-.52z" fill="#fcfcfc"/><path d="M0 80.53c91.87 0 183.74.02 275.61-.01 16.02.01 32.05.02 48.07 0 81.44.04 162.88 0 244.32.01 3.48.06 6.76-.37 10 .69v93.22l-2.46.15c0-1.49 0-2.98.01-4.47-4.86-.5-9.62-.13-14.48-.28-2.38-1.37-4.6-3.02-6.8-4.65 5.48 0 10.98.09 16.47-.07.01-25-.02-49.99.01-74.99-32.68-.03-65.41.02-98.08-.03-4.37-.91-9.26-3.24-13.68-2.5-7.96 1.02-15.97 1.21-23.92 2.45-3.68.15-7.39.06-11.07.07-140.45.02-281.35-.04-421.75.03-.05 24.98-.01 50-.01 74.99 7.42.16 14.86-.01 22.29.1-.93 1.63-2.01 3.16-3.18 4.63-7.12-.01-14.23 0-21.35-.01V80.53z" fill="#103ffb"/><path d="M458.99 87.6c4.42-.74 9.31 1.59 13.68 2.5 7.2 2.26 15.15 4.5 21.43 8.77 5.58 4.09 6.51 9.67 9.69 15.34 1.17 2.44 3.69 3.63 5.78 5.2 4.08 2.71 7.97 5.91 12.31 8.12-1.31-.19-2.62-.36-3.94-.5.48 1.17.9 2.36 1.59 3.42 4.85 6.85 10.6 12.62 16.21 18.81 5.68 5.81 12.01 11.09 18.53 15.93 2.2 1.63 4.42 3.28 6.8 4.65-161.92.04-323.99.07-485.91-.02-6.88-.94-14.28-3.72-21.16-3.33-3.64.16-6.52 1.77-9.71 3.3-7.64.18-15.29.03-22.94.08 1.17-1.47 2.25-3 3.18-4.63 2.15-4.6 2.45-9.94 3.95-14.92 5.82-4.15 13.35-7.45 17.48-13.33 3.26-4.3 4.03-9.39 7.59-13.46 3.7-4.95 10.9-6.41 16.63-7.39 17.17-2.59 34.53-4.12 51.81-5.71 3.87-.4 7.22.8 11 1.55 10.89 2.49 21.21 3.75 31.41 8.64 6.09 3.04 11.92 5.9 18.78 6.72 14.15 1.75 28.59 1.95 42.81 2.76 21.34.71 42.66 1.54 64.01 1.69 15.33.46 30.67.71 46 1.08 3.69.04 7.01.85 10.51-.53 12.95-4.67 25.93-9.27 38.89-13.91 4.48-1.62 9.33-3.08 13.32-5.7 7.36-4.86 13.45-12.37 20.87-17.13 4.74-3.03 10.01-4.51 15.48-5.55 7.95-1.24 15.96-1.43 23.92-2.45z" fill="#ec2718"/><path d="M2.25 90.15c140.4-.07 281.3-.01 421.75-.03 3.68-.01 7.39.08 11.07-.07-5.47 1.04-10.74 2.52-15.48 5.55-7.42 4.76-13.51 12.27-20.87 17.13-3.99 2.62-8.84 4.08-13.32 5.7-12.96 4.64-25.94 9.24-38.89 13.91-3.5 1.38-6.82.57-10.51.53-15.33-.37-30.67-.62-46-1.08-21.35-.15-42.67-.98-64.01-1.69-14.22-.81-28.66-1.01-42.81-2.76-6.86-.82-12.69-3.68-18.78-6.72-10.2-4.89-20.52-6.15-31.41-8.64-3.78-.75-7.13-1.95-11-1.55-17.28 1.59-34.64 3.12-51.81 5.71-5.73.98-12.93 2.44-16.63 7.39-3.56 4.07-4.33 9.16-7.59 13.46-4.13 5.88-11.66 9.18-17.48 13.33-1.5 4.98-1.8 10.32-3.95 14.92-7.43-.11-14.87.06-22.29-.1 0-24.99-.04-50.01.01-74.99zM472.67 90.1c32.67.05 65.4 0 98.08.03-.03 25 0 49.99-.01 74.99-5.49.16-10.99.07-16.47.07-6.52-4.84-12.85-10.12-18.53-15.93-5.61-6.19-11.36-11.96-16.21-18.81-.69-1.06-1.11-2.25-1.59-3.42 1.32.14 2.63.31 3.94.5-4.34-2.21-8.23-5.41-12.31-8.12-2.09-1.57-4.61-2.76-5.78-5.2-3.18-5.67-4.11-11.25-9.69-15.34-6.28-4.27-14.23-6.51-21.43-8.77z" fill="#fcfcfc"/><path d="M54 166.49c6.88-.39 14.28 2.39 21.16 3.33-10.29 0-20.58.13-30.87-.03 3.19-1.53 6.07-3.14 9.71-3.3z" fill="#103ffb"/><path d="M0 169.86c7.12.01 14.23 0 21.35.01 7.65-.05 15.3.1 22.94-.08 10.29.16 20.58.03 30.87.03 161.92.09 323.99.06 485.91.02 4.86.15 9.62-.22 14.48.28-.01 1.49-.01 2.98-.01 4.47l2.46-.15V252H178.18c-.11-17.93 0-35.86-.05-53.78-16.09-.14-32.18-.03-48.27-.06.03 17.95 0 35.89.01 53.84H0v-82.14z" fill="#b5b5b5"/><path d="M129.86 198.16c16.09.03 32.18-.08 48.27.06.05 17.92-.06 35.85.05 53.78h-48.31c-.01-17.95.02-35.89-.01-53.84z"/></svg>