<svg viewBox="0 0 426 168" height="224" width="568" xmlns="http://www.w3.org/2000/svg"><path d="M0 0h426v4.64l-.33 1.19c-1.31 4.08-.63 8.84-.72 13.17.2 5.7-.82 10.61 1.05 16.06v27.07c-.68 1.92-1.2 3.81-1.13 5.87.23 32.68-.15 65.54.19 98.2-6.68.24-13.37.15-20.06.16-65.35.03-130.71-.06-196.06.04-.09-9.44-.05-18.87-.02-28.3 36.12.18 72.25.14 108.37.02.25-34.7-.01-69.42.13-104.12.02-2.92-.11-5.84-.3-8.75-96.14.23-192.56-.08-288.71.15-.23 37.51.07 75.09-.14 112.6 3.58.18 7.15.26 10.73.22 32.56-.08 65.13.07 97.69-.08.01 9.43-.02 18.85.01 28.27-45.56-.19-91.14.12-136.7-.16V0z" fill="#cfc8a9"/><path d="M425.67 5.83l.33-1.19v30.42c-1.87-5.45-.85-10.36-1.05-16.06.09-4.33-.59-9.09.72-13.17z" fill="#d39686"/><path d="M28.41 25.4c96.15-.23 192.57.08 288.71-.15.19 2.91.32 5.83.3 8.75-.14 34.7.12 69.42-.13 104.12-36.12.12-72.25.16-108.37-.02-.06-18.76-.03-37.51-.01-56.27-24.05-.24-48.1-.13-72.15-.05-.18 18.78-.02 37.58-.07 56.36-32.56.15-65.13 0-97.69.08-3.58.04-7.15-.04-10.73-.22.21-37.51-.09-75.09.14-112.6z" fill="#6c6c6c"/><path d="M426 62.13v104.63l-.94-.56c-.34-32.66.04-65.52-.19-98.2-.07-2.06.45-3.95 1.13-5.87z" fill="#989384"/><path d="M136.76 81.78c24.05-.08 48.1-.19 72.15.05-.02 18.76-.05 37.51.01 56.27-.03 9.43-.07 18.86.02 28.3-24.08.06-48.16.03-72.24.01-.03-9.42 0-18.84-.01-28.27.05-18.78-.11-37.58.07-56.36z"/><path d="M0 166.25c45.56.28 91.14-.03 136.7.16l.19 1.59H0v-1.75z" fill="#fdfdfc"/><path d="M136.7 166.41c24.08.02 48.16.05 72.24-.01l-.1 1.6h-71.95l-.19-1.59z" fill="#f6f6f5"/><path d="M208.94 166.4c65.35-.1 130.71-.01 196.06-.04 6.69-.01 13.38.08 20.06-.16l.94.56V168H208.84l.1-1.6z" fill="#fdfdfc"/></svg>