<svg viewBox="0 0 530 190" height="190pt" width="530pt" xmlns="http://www.w3.org/2000/svg"><path d="M0 0h353.12l1.17 1.1.57.56c1.26-.58 2.53-1.15 3.83-1.66h3.83c.15 2.72.51 5.41.9 8.1 2.73-2.58 5.46-5.23 7.87-8.1h2.34c1.73.82 3.36 1.84 5.09 2.66.43-.89.87-1.77 1.31-2.66h2.16c.36 2.02.83 3.97 1.42 5.93.99-.73 1.97-1.46 2.97-2.18 1.57-.64 3.17-1.22 4.77-1.8.36 2.94.8 5.87 1.15 8.82-1.27 1.11-2.96 2.26-3.76 3.77.08 1.83.6 3.62.72 5.45-.75 2.47-1.77 4.84-2.46 7.32-1.43.96-3.39 1.83-4.34 3.3-.37 1.28-.08 2.76-.04 4.07-9.22-.02-18.46.04-27.68 0-2.99.18-5.24-2.53-8.19-3.39-3.25-1.01-6.26-2.14-9.27-3.74-3.47-1.84-7.44-2.31-10.89-4.11-3.56-2.09-5.03-6.08-9.12-7.78-7.7-3.52-18.15-2.04-26.42-2.78-5.5-.49-9.19-3.87-14.78-5.33-4.35-1.34-8.35-.7-12.78-.38-3.17.28-6.37.39-9.52.85-3.63.49-6.22 3.18-9.93 3.74-7.22 1.24-14.55 1.98-21.84 2.7-3.14 2.9-4.37 6.64-6.63 10.08-4.52 3.26-11.58 3.11-16.72 5.35-3.17 1.21-5.87 3.49-9.03 4.63-3.23.39-6.57.13-9.82.17-50.74-.01-101.48-.01-152.22 0-.13 3.54-.23 7.08-.29 10.62 8.84.21 17.67.09 26.51.11 73.98.05 148-.09 221.98.07-79.31.21-158.67.02-237.98.1-12.67-.2-25.33.16-38-.09v-.15c9.11.11 18.24.16 27.35-.04.16-7.35.51-14.67.36-22.02-9.24-.03-18.47-.01-27.71-.01V0z" fill="#fff"/><path d="M353.12 0h5.57c-1.3.51-2.57 1.08-3.83 1.66l-.57-.56-1.17-1.1z" fill="#095f0b"/><path d="M362.52 0h.73l.72 6.06c2.22-2 4.39-4.05 6.61-6.06h.71c-2.41 2.87-5.14 5.52-7.87 8.1-.39-2.69-.75-5.38-.9-8.1z" fill="#6c6c6c"/><path d="M363.25 0h7.33c-2.22 2.01-4.39 4.06-6.61 6.06L363.25 0z" fill="#21b920"/><path d="M373.63 0h6.4c-.44.89-.88 1.77-1.31 2.66-1.73-.82-3.36-1.84-5.09-2.66z" fill="#095f0b"/><path d="M382.19 0h11.11c-2.46.97-4.62 2.16-6.72 3.75-1 .72-1.98 1.45-2.97 2.18-.59-1.96-1.06-3.91-1.42-5.93z" fill="#21b920"/><path d="M393.3 0h1.71c-.9.89-1.77 1.81-2.65 2.73.3 2.13.59 4.26.89 6.39.98-.5 1.95-1 2.92-1.52-.92 1.2-1.8 2.43-2.7 3.65 1.91 0 3.82.01 5.73.04-3.35.64-8.14-.2-9.73 3.6.21 1.35.47 2.7.78 4.03 1.89-.64 3.77-1.3 5.64-1.99-3.91 2.62-7.03 5.06-8.19 9.88 3.26-.32 6.52-.58 9.8-.49-.52.54-1.04 1.07-1.56 1.61-.54.54-1.07 1.07-1.6 1.61-3.03-.66-7.92-2.27-10.19.7-.54 1.35-.9 2.8-1.08 4.33 2.33-.47 4.59-1.26 6.93-1.62 1.11.43 2.14 1.01 3.19 1.58-3.53-.07-7.04.08-10.57.15-.04-1.31-.33-2.79.04-4.07.95-1.47 2.91-2.34 4.34-3.3.69-2.48 1.71-4.85 2.46-7.32-.12-1.83-.64-3.62-.72-5.45.8-1.51 2.49-2.66 3.76-3.77-.35-2.95-.79-5.88-1.15-8.82-1.6.58-3.2 1.16-4.77 1.8 2.1-1.59 4.26-2.78 6.72-3.75z" fill="#6c6c6c"/><path d="M395.01 0h2.32l.43.54c.74 1.53 1.37 3.13 2.02 4.7-1.21.77-2.41 1.56-3.61 2.36-.97.52-1.94 1.02-2.92 1.52-.3-2.13-.59-4.26-.89-6.39.88-.92 1.75-1.84 2.65-2.73z" fill="#21b920"/><path d="M397.33 0h1.3c1.4 1.09 2.75 2.21 4.11 3.35-.53 1.15-1.06 2.29-1.58 3.44.1-.85.19-1.7.26-2.55-.55.33-1.1.66-1.64 1-.65-1.57-1.28-3.17-2.02-4.7l-.43-.54z" fill="#6c6c6c"/><path d="M398.63 0h14.86c1.44 2.79 2.56 5.73 3.98 8.54-3.56 1.8-9.24 1.95-11.56 5.29-2.12 3.71-1.48 9.15-1.78 13.3-2.21-.35-4.4-.68-6.63-.81-3.28-.09-6.54.17-9.8.49 1.16-4.82 4.28-7.26 8.19-9.88-1.87.69-3.75 1.35-5.64 1.99-.31-1.33-.57-2.68-.78-4.03 1.59-3.8 6.38-2.96 9.73-3.6.65-1.5 1.32-3 1.96-4.5.52-1.15 1.05-2.29 1.58-3.44-1.36-1.14-2.71-2.26-4.11-3.35z" fill="#21b920"/><path d="M413.49 0h16.32c-1.98 5.2-2.74 10.35-6.48 14.75 2.08-.28 4.16-.55 6.25-.81.37-1.19.75-2.38 1.13-3.56 2.44.14 5.73-.87 7.27 1.59 1.77 3.11.81 6.11-1.33 8.71-2.11 2.04.11 4.39.82 6.58-.47.92-.94 1.85-1.42 2.77.71.63 1.41 1.25 2.12 1.87.56-1.48 1.12-2.95 1.68-4.44 3.99-.14 5.34.55 8.4 2.97 1.32-.51 2.64-1.02 3.96-1.55-2.32-1.51-4.8-2.65-7.31-3.79l-1.29-1.61 1.27-.07c3.66 2.79 7.1 4.24 11.55 5.29-1.01-1.87-1.84-4.07-3.66-5.3l-.57-.34c2.19.94 3.5 1.83 4.43 4.11l.02 1.17c-.05 2.12.01 4.22.13 6.33h-.24c-1.15-1.83-2.24-3.7-3.33-5.57-1.81.84-3.61 1.68-5.42 2.52-1.17-1.04-2.33-2.09-3.56-3.06-1.31-.2-2.63-.32-3.95-.46.08 2.18.18 4.36.28 6.55-.85-.01-1.69-.02-2.54-.02-1.06-1.96-2.41-3.78-3.38-5.79.21-1.41.71-2.83.82-4.26-1.56-1.54-4.22-2.18-6.21-3.1 2.19-.42 4.67-.55 6.72-1.49 2.3-1.55 2.1-5.02 1.45-7.37-1.51-1.87-3.65-1.33-5.8-1.6-.15 1.09-.31 2.18-.46 3.27-2.52.39-5.04.79-7.56 1.19-.6.85-1.2 1.7-1.8 2.54 2.42 3.23 4.75 5.47 8.27 7.49-3.18.9-6.04 1.31-9.36 1.19-1.33-.93-2.64-1.88-4.04-2.71-.23.62-.45 1.24-.65 1.86 3.92 1.93 4.47 5.53 7.3 8.82-1.36-.01-2.72-.03-4.08-.04-1.72-1.92-3.45-3.47-5.68-4.78-.84 1.54-1.13 3.03-1.32 4.75h-.18c-1.39-.87-2.74-2.02-4.29-2.58-3.18-.36-5.72.94-8.34 2.59H398c-.67-2.24-1.32-4.47-2.06-6.68.52-.54 1.04-1.07 1.56-1.61 2.23.13 4.42.46 6.63.81.3-4.15-.34-9.59 1.78-13.3 2.32-3.34 8-3.49 11.56-5.29-1.42-2.81-2.54-5.75-3.98-8.54z" fill="#095f0b"/><path d="M429.81 0h3.94c-1.12 1.26-2.19 2.57-3.26 3.88 1.7.38 3.4.75 5.1 1.11l-.06 2.92c2.69-.48 5.45-.81 8.06-1.57 2.09-.83 3.91-2.47 5.7-3.8 1.49.07 2.97.15 4.45.22.17 1.42.34 2.85.53 4.27l-2.49-.99c-2.17-1.01-4.46.12-6.62.6 1.16 3.16 2.06 6.36 2.63 9.68.9-.29 1.8-.58 2.7-.86l1.95.27-.1 1.89c-2.21 2.65-5.95 4.18-9.13 5.37l.4.49 1.29 1.61c2.51 1.14 4.99 2.28 7.31 3.79-1.32.53-2.64 1.04-3.96 1.55-3.06-2.42-4.41-3.11-8.4-2.97-.56 1.49-1.12 2.96-1.68 4.44-.71-.62-1.41-1.24-2.12-1.87.48-.92.95-1.85 1.42-2.77-.71-2.19-2.93-4.54-.82-6.58 2.14-2.6 3.1-5.6 1.33-8.71-1.54-2.46-4.83-1.45-7.27-1.59-.38 1.18-.76 2.37-1.13 3.56-2.09.26-4.17.53-6.25.81 3.74-4.4 4.5-9.55 6.48-14.75z" fill="#21b920"/><path d="M433.75 0h2.28c-1.79.77-2.7 2.05-3.82 3.59 4.3.06 7.26-1.36 10.77-3.59h14.42c-.04 1.97 2.48 1.99 2.41 0h1.02c.66 1.03 1.3 2.06 1.92 3.11.82-.11 1.63-.23 2.45-.35.45-.92.92-1.84 1.39-2.76h21.63c-.64 2.21-1 4.9-2.35 6.78-2.42 1.12-3.5-3.22-4.74-4.72-.23 2.02-.45 4.04-.68 6.06-.28 1.03-.62 2.05-.93 3.07-4.24 1.23-8.45 3.64-12.81 4.19-.86-2.77-.24-5.29.9-7.85l1.18-1.34a94.79 94.79 0 0 0-3.2-1.98c-.71-.1-1.42-.18-2.13-.25l.98 3.53.23.86c-1.19 2.12-2.38 4.11-4.35 5.61-1.65-2.4-3.37-4.35-5.85-5.91a36.7 36.7 0 0 1-.2-1.02c-.19-1.42-.36-2.85-.53-4.27-1.48-.07-2.96-.15-4.45-.22-1.79 1.33-3.61 2.97-5.7 3.8-2.61.76-5.37 1.09-8.06 1.57l.06-2.92c-1.7-.36-3.4-.73-5.1-1.11 1.07-1.31 2.14-2.62 3.26-3.88z" fill="#095f0b"/><path d="M436.03 0h6.95c-3.51 2.23-6.47 3.65-10.77 3.59 1.12-1.54 2.03-2.82 3.82-3.59zM457.4 0h2.41c.07 1.99-2.45 1.97-2.41 0zM460.83 0h5.76c-.47.92-.94 1.84-1.39 2.76-.82.12-1.63.24-2.45.35-.62-1.05-1.26-2.08-1.92-3.11z" fill="#21b920"/><path d="M488.22 0h3.53c-.89 1.31-1.75 2.64-2.62 3.96 2.89.79 5.77 1.59 8.56 2.7l-.03 1.32c-.84.75-2.83 1.6-2.28 2.97.35.56.87.97 1.56 1.23 1.59.71 3.18 1.4 4.8 2.03-2.37.62-4.75 1.2-7.14 1.75-.35-1.76-.68-3.52-1.06-5.27-1.01-1.12-2.12-2.35-3.42-3.11-2.02-.36-4.14-.37-6.18-.47.74 3.29.63 6.35 3.18 8.87 2.01 2.14 3.01 3.86 3.85 6.72 3.63-.11 7.44-.04 10.98-.83 2.4-.46 3.8-2.7 5.35-4.39-1.65-.57-3.3-1.14-4.97-1.64l.5-1.92c.34-.74.7-1.48 1.05-2.22l5.38.99.39-3.84c-.55-.68-1.09-1.36-1.64-2.04-.56-.69-1.13-1.37-1.7-2.04 2.72-.04 5.47-.17 8.2-.28-.75 1.87-1.47 3.75-2.3 5.58-1.5 3.53-4.31 6.88-3.5 10.91l.93 2.29c-4.07-.02-8.15.01-12.22.06-.03 7.31.11 14.62.24 21.94 2.49.08 4.98.16 7.47.28-7.07-.14-14.13.12-21.19-.02 4.49-.14 9-.12 13.5-.23-.04-3.54-.11-7.09-.2-10.63-5.19.02-10.38.01-15.57 0-1.98-6.04-2.08-11.94-5.81-17.35a34.8 34.8 0 0 1-.41-2.27l.92-1.35c-.08 1.1-.14 2.21-.2 3.32 1.32 1.93 2.61 3.89 3.89 5.85 1.23-2.33 2.46-4.67 3.67-7.01-1.19-1.19-2.39-2.38-3.58-3.57.09-1.39.18-2.78.3-4.17.23-2.02.45-4.04.68-6.06 1.24 1.5 2.32 5.84 4.74 4.72 1.35-1.88 1.71-4.57 2.35-6.78z" fill="#542205"/><path d="M491.75 0h6.35c1.95 2.22 3.75 4.49 6.1 6.33 1.27.19 2.54.33 3.81.48.55.68 1.09 1.36 1.64 2.04l-.39 3.84-5.38-.99c-.35.74-.71 1.48-1.05 2.22l-1.09.29c-1.62-.63-3.21-1.32-4.8-2.03.59-1.34.71-2.75.72-4.2l.03-1.32c-2.79-1.11-5.67-1.91-8.56-2.7.87-1.32 1.73-2.65 2.62-3.96z" fill="#095f0b"/><path d="M498.1 0h8.72c-.93 2.09-1.76 4.21-2.62 6.33-2.35-1.84-4.15-4.11-6.1-6.33z" fill="#542205"/><path d="M506.82 0h1.62c-1 1.29-1.98 2.59-2.96 3.9l.83.87c.57.67 1.14 1.35 1.7 2.04-1.27-.15-2.54-.29-3.81-.48.86-2.12 1.69-4.24 2.62-6.33z"/><path d="M508.44 0h15.02c-2.69 2.55-5.05 4.55-8.79 5.37 2.76.66 4.9 1.56 7.27 3.09 1.66-2.73 3.05-5.59 4.45-8.46H530v23.29c-6.79-.02-13.58.06-20.36-.02l-.93-2.29c3.06.23 6.11.54 9.15.97-.91-1.06-1.81-2.12-2.7-3.19 4.23-2.06 7.75-.89 12.03.03-1.23-1.06-2.45-2.24-3.85-3.07-3.66-.95-7.62-.27-11.19.77.08-2.14.11-4.28.06-6.42.83-1.83 1.55-3.71 2.3-5.58-2.73.11-5.48.24-8.2.28l-.83-.87c.98-1.31 1.96-2.61 2.96-3.9z" fill="#095f0b"/><path d="M523.46 0h2.93c-1.4 2.87-2.79 5.73-4.45 8.46-2.37-1.53-4.51-2.43-7.27-3.09 3.74-.82 6.1-2.82 8.79-5.37zM426.12 3.03c-3.25.53-6.3 1.71-9.49 2.44-2.24-5.97 7.69-7.03 9.49-2.44zM471.89 2.41c.97-.09 1.94-.15 2.91-.19.18 1.05.36 2.09.51 3.14-1.41-.93-2.91-1.16-3.42-2.95z" fill="#21b920"/><path d="M401.42 4.24c-.07.85-.16 1.7-.26 2.55-.64 1.5-1.31 3-1.96 4.5-1.91-.03-3.82-.04-5.73-.04.9-1.22 1.78-2.45 2.7-3.65 1.2-.8 2.4-1.59 3.61-2.36.54-.34 1.09-.67 1.64-1z" fill="#fff"/><path d="M465.59 4.21c1.08.64 2.15 1.3 3.2 1.98l-1.18 1.34c-1.06.02-2.11-.01-3.17-.04l-.98-3.53c.71.07 1.42.15 2.13.25zM420.1 4.66c1.99.09 4.57-.49 6.2.8l-.44 1.49c-2.11 1.49-5.63.56-8.07.69.77-.99 1.54-1.99 2.31-2.98z" fill="#21b920"/><path d="M451.78 6.04l1.97 1.64-.55 1.59c-.86 2.09-1.84 4.11-2.71 6.19-.9.28-1.8.57-2.7.86-.57-3.32-1.47-6.52-2.63-9.68 2.16-.48 4.45-1.61 6.62-.6z" fill="#095f0b"/><path d="M451.78 6.04l2.49.99c.06.34.13.68.2 1.02 2.48 1.56 4.2 3.51 5.85 5.91 1.97-1.5 3.16-3.49 4.35-5.61.69 2.49 1.2 5.03 1.83 7.53 2.57-.33 5.05-.98 7.56-1.61.6 1.01 1.21 2.03 1.8 3.05 3.73 5.41 3.83 11.31 5.81 17.35-4.59.04-9.18-.09-13.77-.07 1.37-.41 2.73-.88 4.06-1.41 1.32-1.45 2.48-3.03 3.62-4.62-3.27-.06-6.42.11-9.64.67-3.12.73-6.34-1.14-9.31-2.07-.93-2.28-2.24-3.17-4.43-4.11-1.18-.52-2.41-.95-3.63-1.39 1.52-1.04 3.58-2.03 4.56-3.63.26-2.78-.26-5.59.01-8.39l.06-.38.55-1.59-1.97-1.64z" fill="#fff"/><path d="M276.27 7.55c5.59 1.46 9.28 4.84 14.78 5.33 8.27.74 18.72-.74 26.42 2.78 4.09 1.7 5.56 5.69 9.12 7.78 3.45 1.8 7.42 2.27 10.89 4.11 3.01 1.6 6.02 2.73 9.27 3.74 2.95.86 5.2 3.57 8.19 3.39 9.22.04 18.46-.02 27.68 0 3.53-.07 7.04-.22 10.57-.15 1.6.04 3.2.07 4.81.08h1.43c4.21.09 8.41.08 12.63-.01h.18c2.33.06 4.67.04 7 .03 1.36.01 2.72.03 4.08.04.79 0 1.58 0 2.38-.01h4.36c2.65.01 5.31-.01 7.96-.03.85 0 1.69.01 2.54.02 5.33.08 10.65.01 15.98.02h.24c3.71.05 7.42.05 11.12-.07 4.59-.02 9.18.11 13.77.07 5.19.01 10.38.02 15.57 0 .09 3.54.16 7.09.2 10.63-4.5.11-9.01.09-13.5.23 7.06.14 14.12-.12 21.19.02-2.49-.12-4.98-.2-7.47-.28-.13-7.32-.27-14.63-.24-21.94 4.07-.05 8.15-.08 12.22-.06 6.78.08 13.57 0 20.36.02v67.87H0V45.5c12.67.25 25.33-.11 38 .09 79.31-.08 158.67.11 237.98-.1-73.98-.16-148-.02-221.98-.07-8.84-.02-17.67.1-26.51-.11.06-3.54.16-7.08.29-10.62 50.74-.01 101.48-.01 152.22 0 3.25-.04 6.59.22 9.82-.17 3.16-1.14 5.86-3.42 9.03-4.63 5.14-2.24 12.2-2.09 16.72-5.35 2.26-3.44 3.49-7.18 6.63-10.08 7.29-.72 14.62-1.46 21.84-2.7 3.71-.56 6.3-3.25 9.93-3.74 3.15-.46 6.35-.57 9.52-.85 4.43-.32 8.43-.96 12.78.38z" fill="#2396fc"/><path d="M464.44 7.49c1.06.03 2.11.06 3.17.04-1.14 2.56-1.76 5.08-.9 7.85 4.36-.55 8.57-2.96 12.81-4.19.31-1.02.65-2.04.93-3.07-.12 1.39-.21 2.78-.3 4.17-.93.15-1.85.3-2.77.46l-.61.36-.4.59-.92 1.35c.11.76.25 1.52.41 2.27-.59-1.02-1.2-2.04-1.8-3.05-2.51.63-4.99 1.28-7.56 1.61-.63-2.5-1.14-5.04-1.83-7.53l-.23-.86z" fill="#fff"/><path d="M483.94 7.11c2.04.1 4.16.11 6.18.47 1.3.76 2.41 1.99 3.42 3.11.11 2.85-.11 5.35-1.09 8.04 3.26-2.56 5.55-3.92 9.88-2.89 1.67.5 3.32 1.07 4.97 1.64-1.55 1.69-2.95 3.93-5.35 4.39-3.54.79-7.35.72-10.98.83-.84-2.86-1.84-4.58-3.85-6.72-2.55-2.52-2.44-5.58-3.18-8.87z" fill="#095f0b"/><path d="M497.66 7.98c-.01 1.45-.13 2.86-.72 4.2-.69-.26-1.21-.67-1.56-1.23-.55-1.37 1.44-2.22 2.28-2.97z"/><path d="M426.23 8.41c-.55 1.07-1.15 2.11-1.79 3.12-3.22 2.45-8.35 2.83-12.26 2.99-.35.28-.69.57-1.03.85 3.8 2.73 7.75 3.61 10.15 7.47-3.62-.58-6.87-2.17-10.36-3.13-1.94.34-3.81 1.38-5.65 2.08.12-3.19.71-6.2 2.69-8.8 2.83-1.74 6.41-2.35 9.5-3.58 2.85-1.18 5.73-1.08 8.75-1z" fill="#21b920"/><path d="M453.2 9.27l-.06.38c-.27 2.8.25 5.61-.01 8.39-.98 1.6-3.04 2.59-4.56 3.63 1.22.44 2.45.87 3.63 1.39l.57.34c-2.64-.29-5.24-.24-7.89.01l-1.27.07-.4-.49c3.18-1.19 6.92-2.72 9.13-5.37l.1-1.89-1.95-.27c.87-2.08 1.85-4.1 2.71-6.19z" fill="#fff"/><path d="M437.42 12.62c.65 2.35.85 5.82-1.45 7.37-2.05.94-4.53 1.07-6.72 1.49 1.99.92 4.65 1.56 6.21 3.1-.11 1.43-.61 2.85-.82 4.26.97 2.01 2.32 3.83 3.38 5.79-2.65.02-5.31.04-7.96.03 1.47-1.33 2.94-2.65 4.39-4-1.97-.1-4.02-.29-5.98-.04-1.07 1.22-1.89 2.69-2.77 4.04-.8.01-1.59.01-2.38.01-2.83-3.29-3.38-6.89-7.3-8.82.2-.62.42-1.24.65-1.86 1.4.83 2.71 1.78 4.04 2.71 3.32.12 6.18-.29 9.36-1.19-3.52-2.02-5.85-4.26-8.27-7.49.6-.84 1.2-1.69 1.8-2.54 2.52-.4 5.04-.8 7.56-1.19.15-1.09.31-2.18.46-3.27 2.15.27 4.29-.27 5.8 1.6z" fill="#21b920"/><path d="M493.54 10.69c.38 1.75.71 3.51 1.06 5.27 2.39-.55 4.77-1.13 7.14-1.75l1.09-.29-.5 1.92c-4.33-1.03-6.62.33-9.88 2.89.98-2.69 1.2-5.19 1.09-8.04z"/><path d="M512.21 10.07c.05 2.14.02 4.28-.06 6.42 3.57-1.04 7.53-1.72 11.19-.77 1.4.83 2.62 2.01 3.85 3.07-4.28-.92-7.8-2.09-12.03-.03.89 1.07 1.79 2.13 2.7 3.19-3.04-.43-6.09-.74-9.15-.97-.81-4.03 2-7.38 3.5-10.91z" fill="#21b920"/><path d="M476.77 13.11l.61-.36c.92-.16 1.84-.31 2.77-.46 1.19 1.19 2.39 2.38 3.58 3.57-1.21 2.34-2.44 4.68-3.67 7.01a329.57 329.57 0 0 0-3.89-5.85c.06-1.11.12-2.22.2-3.32l.4-.59z" fill="#095f0b"/><path d="M424.03 13.1c-1.25 1.95-2.52 3.89-3.8 5.83-2.02-.68-4.03-1.37-6.03-2.1 2.91-2.31 6.28-2.99 9.83-3.73zM421.6 19.37c1.88 1.95 3.39 4.08 4.72 6.43-1.38-.01-2.77-.03-4.15-.05-.22-2.12-.42-4.25-.57-6.38zM408.1 20.67c2.84-.05 5.21-.19 7.52 1.74l-.46.7c-3.23.83-4.85-.27-7.06-2.44z" fill="#21b920"/><path d="M0 23.28c9.24 0 18.47-.02 27.71.01.15 7.35-.2 14.67-.36 22.02-9.11.2-18.24.15-27.35.04V23.28z" fill="#2396fc"/><path d="M405.81 22.3c2.78.62 5.56 1.26 8.34 1.9.3.45.59.9.88 1.34-1.45 1.67-2.92 3.33-4.4 4.98-4.09.59-8.14 1.43-12.18 2.3-.54-1.94-1.07-3.89-1.56-5.84 2.47.41 4.84.98 7.23 1.72.36-1.04.72-2.07 1.04-3.12.23-1.09.45-2.19.65-3.28zM444.88 23.41c2.65-.25 5.25-.3 7.89-.01 1.82 1.23 2.65 3.43 3.66 5.3-4.45-1.05-7.89-2.5-11.55-5.29zM416.11 26.5c2.3 1.49 3.08 3.37 4.06 5.84-2.51-.98-5-2.01-7.49-3.05 1.13-.94 2.27-1.89 3.43-2.79z" fill="#21b920"/><path d="M456.63 27.17c2.97.93 6.19 2.8 9.31 2.07 3.22-.56 6.37-.73 9.64-.67-1.14 1.59-2.3 3.17-3.62 4.62.59-1.31 1.17-2.63 1.75-3.94-3.37.24-6.68.9-10.04 1.25-2.43.23-4.89-1.14-7.02-2.16l-.02-1.17z" fill="#6c6c6c"/><path d="M395.94 27.93c.74 2.21 1.39 4.44 2.06 6.68-1.61-.01-3.21-.04-4.81-.08-1.05-.57-2.08-1.15-3.19-1.58-2.34.36-4.6 1.15-6.93 1.62.18-1.53.54-2.98 1.08-4.33 2.27-2.97 7.16-1.36 10.19-.7.53-.54 1.06-1.07 1.6-1.61zM444.23 28.56c1.23.97 2.39 2.02 3.56 3.06 1.81-.84 3.61-1.68 5.42-2.52 1.09 1.87 2.18 3.74 3.33 5.57-5.33-.01-10.65.06-15.98-.02-.1-2.19-.2-4.37-.28-6.55 1.32.14 2.64.26 3.95.46zM456.65 28.34c2.13 1.02 4.59 2.39 7.02 2.16 3.36-.35 6.67-1.01 10.04-1.25-.58 1.31-1.16 2.63-1.75 3.94-1.33.53-2.69 1-4.06 1.41-3.7.12-7.41.12-11.12.07-.12-2.11-.18-4.21-.13-6.33z" fill="#21b920"/><path d="M428.47 30.62c1.96-.25 4.01-.06 5.98.04-1.45 1.35-2.92 2.67-4.39 4h-4.36c.88-1.35 1.7-2.82 2.77-4.04z" fill="#095f0b"/><path d="M413.56 29.85c2.23 1.31 3.96 2.86 5.68 4.78-2.33.01-4.67.03-7-.03.19-1.72.48-3.21 1.32-4.75zM429.31 31.25c.85-.48 3.11-.58 1.94.96-1.28 1.52-4.58.99-1.94-.96zM407.77 32.02c1.55.56 2.9 1.71 4.29 2.58-4.22.09-8.42.1-12.63.01 2.62-1.65 5.16-2.95 8.34-2.59z" fill="#21b920"/><path d="M0 91.16h530v10.95c-176.66.01-353.34-.01-530 0V91.16z" fill="#ff2a1a"/><path d="M0 102.11c176.66-.01 353.34.01 530 0v84.75c-119.2.04-238.52-.08-357.7.05.01-18.76-.07-37.53.04-56.3-24.07-.28-48.17-.12-72.24-.09-.47 18.78-.07 37.62-.2 56.4-33.29-.15-66.61-.02-99.9-.06v-84.75z" fill="#6c6c6c"/><path d="M100.1 130.52c24.07-.03 48.17-.19 72.24.09-.11 18.77-.03 37.54-.04 56.3-15.76.4-31.54.08-47.3.18-8.36-.07-16.74.16-25.1-.17.13-18.78-.27-37.62.2-56.4z"/><path d="M0 186.86c33.29.04 66.61-.09 99.9.06 8.36.33 16.74.1 25.1.17 15.76-.1 31.54.22 47.3-.18 119.18-.13 238.5-.01 357.7-.05V190H0v-3.14z" fill="#fff"/></svg>