<svg viewBox="0 0 388 216" height="288" width="388pt" xmlns="http://www.w3.org/2000/svg"><path d="M0 0h388v216H0V0z" fill="#fff"/><path d="M21 12.77c2.33-.05 4.67-.1 7-.11h262.13c5.36 0 10.74.05 16.1-.08l-.01.74c-7.14-.03-13.99-.44-21.09.41-4.97.51-10.06.28-15.13.3-78-.01-156 0-234-.01-4.51.02-9.04-.11-13.54.11-.16 22.97-.02 45.99-.06 68.97 4.86.12 9.73.11 14.6.09 82.72-.02 165.45.02 248.17-.02v.8c-83.72-.16-167.45.01-251.17-.08-4-.02-8.05-.1-12.04.14l-.47 1.33c-.31-2.45-.53-4.89-.52-7.36.06-21.74.02-43.48.03-65.23z" fill="#707778"/><path d="M306.23 12.58l.55-.01.01.57c.18 23.61 0 47.23.09 70.84h-.8c.19-23.55-.08-47.11.14-70.66l.01-.74z" fill="#d5a36c"/><path d="M306.78 12.57c5.86-.18 11.71-.22 17.56.18 7.31.87 14.61-.06 21.92.78-.87 11.45-.26 22.99-.43 34.47.2 11.87-.5 23.83.5 35.66-7.24.63-14.59.23-21.86.33.04-23.63-.05-47.26.04-70.89-5.9.02-11.81-.01-17.72.04l-.01-.57z" fill="#96bbfc"/><path d="M324.34 12.75c14.34.02 28.69-.04 43.03.02-.08 21.41.02 42.82-.05 64.23-.14 5.05 1.06 9.95.91 15-.11 27.97.07 55.98-.09 83.94l-.76.46-.44-.72c-.32-4.51-.16-9.14-.17-13.68V85c-13.93-.31-27.85.32-41.77-.16-8.01-.3-16-.05-24 .16-88.97-.17-178.02-.01-267-.09-3.56-.01-7.17-.05-10.72.18-.12 30.03-.2 60.11.05 90.14l-.94.86-.67.55c-.02-25.21-.01-50.43-.01-75.64-.03-5.24.14-10.47-.22-15.64l.47-1.33c3.99-.24 8.04-.16 12.04-.14 83.72.09 167.45-.08 251.17.08 6.97.05 13.94.03 20.91.01h.8c5.86.01 11.72.03 17.59.01 7.27-.1 14.62.3 21.86-.33 6.6-.52 13.28-.17 19.9-.27.12-23.18.04-46.35.03-69.53-6.65-.18-13.37.25-20-.33-7.31-.84-14.61.09-21.92-.78z" fill="#673938"/><path d="M22.46 14.13c4.5-.22 9.03-.09 13.54-.11 78 .01 156 0 234 .01 5.07-.02 10.16.21 15.13-.3.15 23.14.06 46.29.04 69.44-82.72.04-165.45 0-248.17.02-4.87.02-9.74.03-14.6-.09.04-22.98-.1-46 .06-68.97z" fill="#e3ebf4"/><path d="M285.13 13.73c7.1-.85 13.95-.44 21.09-.41-.22 23.55.05 47.11-.14 70.66-6.97.02-13.94.04-20.91-.01v-.8c.02-23.15.11-46.3-.04-69.44z" fill="#8eefa0"/><path d="M306.79 13.14c5.91-.05 11.82-.02 17.72-.04-.09 23.63 0 47.26-.04 70.89-5.87.02-11.73 0-17.59-.01-.09-23.61.09-47.23-.09-70.84z" fill="#ff5c1d"/><path d="M346.26 13.53c6.63.58 13.35.15 20 .33.01 23.18.09 46.35-.03 69.53-6.62.1-13.3-.25-19.9.27-1-11.83-.3-23.79-.5-35.66.17-11.48-.44-23.02.43-34.47z" fill="#e3ebf4"/><path d="M79.62 33.72c59.92-.04 119.85-.01 179.77-.02.01 13.61 0 27.22.01 40.83-59.93-.01-119.87.06-179.79-.03.01-13.59-.01-27.19.01-40.78z" fill="#333233"/><path d="M23.28 85.09c3.55-.23 7.16-.19 10.72-.18 88.98.08 178.03-.08 267 .09 8-.21 15.99-.46 24-.16 13.92.48 27.84-.15 41.77.16v77c.01 4.54-.15 9.17.17 13.68-19.73-.09-39.49.05-59.22-.05-.19-9.3-3.08-18.36-8.38-26-4.1-5.45-10.31-9.77-17.34-9.85-7.38-.29-14.06 4.1-18.38 9.8-5.33 7.71-8.48 16.94-8.34 26.37-38.09-.03-76.19 0-114.28-.02-4.22.01-8.5-.16-12.7.21-.82-5.02-1.18-9.85-2.88-14.68-2.56-6.96-5.82-13.46-12.07-17.82-5.43-4.06-12.84-5.03-19.11-2.42-5.07 2.16-9.4 6.1-12.16 10.86-4.08 6.98-6.72 14.82-6.63 22.97-13.82-.12-27.63-.01-41.45-.06-3.53-.01-7.17-.16-10.67.24-.25-30.03-.17-60.11-.05-90.14z" fill="#cb2013"/><path d="M180.51 108.79c12.23-1.36 25.38-.08 36.73 4.87 5.83 2.53 11.53 6.53 14.95 11.97 2.71 4.37 3.21 9.87.89 14.51-3.08 6.66-9.71 10.98-16.22 13.84-12.45 5.27-26.83 6.33-40.1 4.16-8.92-1.54-18.23-4.73-25.16-10.75-4.24-3.7-7.7-9.57-6.94-15.37.89-6.09 5.2-10.82 10.01-14.3 7.43-5.2 16.93-7.85 25.84-8.93z" fill="#c6d7e9"/><path d="M113.35 143.64c6.25 4.36 9.51 10.86 12.07 17.82 1.7 4.83 2.06 9.66 2.88 14.68l-.7.4c-.48 4.41-.8 8.83-1.6 13.2-2.93 8.15-6.32 15.61-14.02 20.28-6.89 4.3-16.29 3.74-22.64-1.31-5.85-4.09-8.83-10.33-11.42-16.77-1.32-5.18-1.95-10.63-2.42-15.95l-.05-.94c-.09-8.15 2.55-15.99 6.63-22.97 2.76-4.76 7.09-8.7 12.16-10.86 6.27-2.61 13.68-1.64 19.11 2.42z" fill="#050505"/><path d="M282 139.78c7.03.08 13.24 4.4 17.34 9.85 5.3 7.64 8.19 16.7 8.38 26 19.73.1 39.49-.04 59.22.05l.44.72c-19.91.19-39.84 0-59.76.09 0 5.32-.71 10.49-2.59 15.49-2.42 6.39-5.57 12.72-11.3 16.76-6.2 4.91-15.24 5.52-22.08 1.59-3.45-2.08-6.61-4.79-8.78-8.21-4.8-7.51-7.7-16.15-7.59-25.12v-1.05c-.14-9.43 3.01-18.66 8.34-26.37 4.32-5.7 11-10.09 18.38-9.8z" fill="#030202"/><path d="M103.97 142.39c5.12.56 9.65 3.89 12.89 7.72 9.22 12.39 11.17 29.56 5.02 43.72-2.26 5.23-5.01 9.99-9.83 13.27-6.33 4.8-15.48 4.51-21.58-.54-5.58-4.19-8.28-10.11-10.64-16.47-1.95-9.43-1.94-17.87-.04-27.31 2.25-6.15 5.14-12.45 10.54-16.47 3.8-3.14 8.75-4.59 13.64-3.92zM277.44 142.69c9.16-2.18 17.41 3.32 21.76 11.09 8.91 15.04 8.04 34.9-2.5 48.9-4.23 4.98-9.91 8.44-16.68 7.8-5.83-.4-10.6-3.97-14.2-8.34-9.67-13.26-10.91-31.74-3.25-46.24 2.87-6.06 8.21-11.61 14.87-13.21z" fill="#fff"/><path d="M79.79 162.78c-1.9 9.44-1.91 17.88.04 27.31-3.08-8.16-3.09-19.14-.04-27.31z" fill="#9a9a9a"/><path d="M23.33 175.23c3.5-.4 7.14-.25 10.67-.24 13.82.05 27.63-.06 41.45.06l.05.94c-17.7.13-35.41-.1-53.11.1l.94-.86z" fill="#87150c"/><path d="M21.72 176.64l.67-.55c17.7-.2 35.41.03 53.11-.1.47 5.32 1.1 10.77 2.42 15.95-2.06-4.8-2.84-9.78-2.93-14.98-11.33-.04-22.66 0-33.99-.02-6.46-.02-12.83.2-19.28-.3z" fill="#867f7f"/><path d="M128.3 176.14c4.2-.37 8.48-.2 12.7-.21 38.09.02 76.19-.01 114.28.02V177c-42.27.04-84.54.04-126.81 0-.31 4.79-1.02 9.45-2.64 13.99l.17-1.25c.8-4.37 1.12-8.79 1.6-13.2l.7-.4z" fill="#928b8b"/></svg>