<svg viewBox="0 0 356 362" height="362pt" width="356pt" xmlns="http://www.w3.org/2000/svg"><path d="M0 0h356v362H0V0z" fill="#fff"/><path d="M170 19.73c15.17-1.04 30.54.5 45.06 5.14 13.08 3.64 25.17 10.16 36.41 17.65 11.72 8.35 22.53 18.29 31.27 29.76 9.23 11.84 17.08 24.53 22.8 38.45 6.41 16.1 10.78 32.99 12.66 50.22.72 10.11 1.68 19.92.5 30.07-1.04 20.39-6.21 40.67-13.92 59.53-6.53 15.4-16.05 29.67-26.78 42.45-5.76 6.96-12.46 12.89-19.44 18.59-8.68 7.15-18.36 12.56-28.44 17.47-19.48 8.58-40.9 12.41-62.14 10.46-35.1-2.57-67.27-21.03-89.88-47.58-12.35-14.99-22.82-31.49-29.19-49.92-12.41-33.95-14.48-71.47-5.53-106.51 3.33-12.78 7.69-25.63 13.93-37.3 6.16-11.63 13.86-22.52 22.36-32.55 14.22-16.12 31.94-28.99 51.81-37.21 12.19-4.57 25.47-8.2 38.52-8.72z" fill="#2ca02a"/><path d="M231.91 34.1c19.77 9.59 37.18 24.1 50.3 41.71 8.55 11.27 16 23.54 21.26 36.7 6.49 16.61 10.87 33.9 12.37 51.7 2.23 25.69-1.13 51.5-9.8 75.78-5.24 15.59-13.37 29.73-23.23 42.84-12.09 16.44-27.94 30.4-45.99 39.94-13.11 7.33-27.97 11.74-42.8 13.83a142.073 142.073 0 0 1-30.99-.01c-15.08-2.12-30.15-6.66-43.45-14.17-12.87-6.74-24.4-16.11-34.52-26.47-14.7-16.26-27.37-35.58-34.29-56.48-5.15-14.8-8.72-30.38-9.69-46.03-2.47-28.2 2.6-57.07 13.36-83.2 6.7-15.69 16.07-29.73 27.03-42.74 8.39-9.3 17.84-17.83 28.31-24.7 10.02-6.3 20.3-11.82 31.73-15.1 29.55-9.65 62.46-7.08 90.4 6.4z" fill="#fef935"/></svg>