<svg viewBox="0 0 204 256" height="256pt" width="272" xmlns="http://www.w3.org/2000/svg"><path d="M0 0h109.15c.21 8.46-.05 16.93.13 25.39 31.57.09 63.15-.1 94.72.09v.21c-67.73-.27-135.5.13-203.24-.01.06 46.94-.11 93.99.14 140.91 67.7-.07 135.4.02 203.1-.04V256H0V0z" fill="#fff"/><path d="M109.15 0H204v25.48c-31.57-.19-63.15 0-94.72-.09-.18-8.46.08-16.93-.13-25.39zM.76 25.68c67.74.14 135.51-.26 203.24.01v140.86c-67.7.06-135.4-.03-203.1.04C.65 119.67.82 72.62.76 25.68z" fill="#e3b65f"/><path d="M36.93 82.18c24.07.03 48.14-.03 72.21.03.26 16.59-.02 33.19.14 49.79.04 2.21-.16 4.4-.31 6.6-23.99-.07-47.97-.07-71.96 0-.28-18.8-.13-37.62-.08-56.42z" fill="#6c6c6c"/><path d="M73.18 195.16c24.01-.14 48.15-.08 72.17-.02-.02 18.75-.01 37.51-.01 56.26-24.08.06-48.15.02-72.23.02.05-18.72-.11-37.55.07-56.26z"/></svg>