<svg viewBox="0 0 304 150" height="200" width="304pt" xmlns="http://www.w3.org/2000/svg"><path d="M0 0h304v137.83H0V0z" fill="#fff"/><path d="M17 14.77c69.66.01 139.33 0 209 0 12.01.1 23.99-.36 36-.15 1.58.07 3.13.19 4.66.56.59 2.59.52 5.18.51 7.82-.15 20.67.15 41.33.04 62 0 2.26.05 4.51.35 6.75.43-11.71.12-23.49.15-35.21 8.78-.69 17.97-.51 26.77-.1.08 16.94.29 33.93-.11 50.87-3.25.1-6.49.12-9.74.11.29 2.91.75 5.69.4 8.61-.68 7.22-5.38 13.92-11.85 17.16-9.45 4.95-21.8 2.45-28.26-6.14-4.31-5.33-5.07-11.61-4.38-18.25-50.05-.17-100.11 0-150.16-.09.1 2.42.26 4.88.04 7.28-.86 7.88-6.23 14.92-13.53 17.95-9.11 3.83-20.19 1.32-26.37-6.5-4.54-5.41-5.4-11.85-4.86-18.71-11.32-.18-22.71.37-34.01-.3-.03-31.06.02-62.13-.02-93.19 1.78-.23 3.57-.42 5.37-.47z" fill="#333233"/><path d="M14.58 17.46c.79-.1 1.58-.16 2.38-.18H228c3.97.03 8.02-.22 11.97.17.67 2.63.35 5.62.26 8.33-14.08-.02-28.15.05-42.23-.05-2.03.02-4.04.07-6.05.39-.67 4.16-.31 8.65-.35 12.88-.04 12.52.08 25.04-.07 37.56 6.18.9 12.26.42 18.47.51 10.1.03 20.21-.06 30.31.06.06 9.61.03 19.22.02 28.83-40.44.27-80.89.04-121.33.12-9.84-.07-19.69.16-29.53-.13-1.86-3.85-3.91-7.43-7.36-10.08-7.03-5.72-17.37-6.55-25.22-2-4.92 2.7-7.93 7.07-10.28 12.04-10.72.33-21.49.17-32.22.09.02-25.66.01-51.33.01-77 .03-3.83-.22-7.73.18-11.54z" fill="#cb2013"/><path d="M242.89 17.31c7.17-.02 14.35-.08 21.52.04.05 24.48-.04 48.96.05 73.44-8.76-.09-17.21 3.59-21.23 11.71-.62-6.84-.32-13.65-.38-20.5.06-21.56-.02-43.13.04-64.69z" fill="#fff"/><path d="M194.28 28.28c3.51-.49 7.18-.31 10.72-.3 11.63.13 23.26-.16 34.89.13.19 15.58.19 31.2 0 46.78-13.3.29-26.6-.02-39.89.17-1.66-.21-4.71.35-5.65-1.33-.9-6.46-.11-13.2-.35-19.73.21-8.55-.44-17.21.28-25.72z" fill="#333233"/><path d="M270.59 59.06c6.98-.56 14.1-.14 21.1-.18.05 15.34.03 30.69.01 46.03-2.66-.01-5.33-.02-7.99-.08-3.21-6.41-6.7-9.68-13.2-12.68 0-11.02-.21-22.08.08-33.09zM61.51 94.62c5.36-1.8 11.43-1.31 16.34 1.53 6.31 3.47 10.37 10.63 9.9 17.85.14 10.42-9.42 19.41-19.74 19.1-10.46.28-19.62-8.64-19.72-19.08-.41-8.58 5.1-16.64 13.22-19.4zM257.22 94.3c5.19-1.42 10.87-.8 15.52 1.96 7.69 4.5 11.74 14.1 9.02 22.69-2.45 8.58-10.83 14.62-19.75 14.15-9.13-.12-17.18-7.11-18.72-16.08-2-9.81 4.24-20.1 13.93-22.72z" fill="#fff"/><path d="M0 137.83h304V150H0v-12.17z" fill="#008d14"/></svg>