<svg viewBox="0 0 270 254" height="254pt" width="360" xmlns="http://www.w3.org/2000/svg"><path d="M0 0h166.19c-.19 8.4.12 16.82-.16 25.22-4.69.35-9.34.13-14.03.18-46.67 0-93.33.01-140 0-4 .03-8 .05-12-.12V0z" fill="#e3b65f"/><path d="M166.19 0H270v25.85c-4.29-.3-8.68-.12-13-.15-83.03 0-165.95-.17-249-.09-2.67.01-5.33-.03-8-.09v-.24c4 .17 8 .15 12 .12 46.67.01 93.33 0 140 0 4.69-.05 9.34.17 14.03-.18.28-8.4-.03-16.82.16-25.22z" fill="#fff"/><path d="M0 25.52c2.67.06 5.33.1 8 .09 83.05-.08 165.97.09 249 .09 4.32.03 8.71-.15 13 .15v140.7c-89.99-.05-180.01-.07-270 .02V25.52z" fill="#e3b65f"/><path d="M21.83 82.13c11.95.12 23.91-.12 35.86.13.02 18.77.09 37.54-.04 56.31-11.86.09-23.73-.12-35.59.11-.27-1.55-.52-3.1-.52-4.68.1-13 .02-26 .05-39 .03-4.31-.2-8.57.24-12.87zM94.01 82.15c11.94.03 23.89-.04 35.83.04.06 18.8.23 37.63-.09 56.42-11.86-.03-23.74-.09-35.6.03-.68-5.82-.19-11.77-.33-17.64.12-12.94-.25-25.92.19-38.85zM166.18 82.2c23.97-.1 47.95-.01 71.92-.04.47 4.62.2 9.2.25 13.84.01 10.67.01 21.33 0 32-.01 3.6.29 7.09-.46 10.66-23.88-.16-47.76-.06-71.63-.06-.3-18.79-.14-37.61-.08-56.4z" fill="#6c6c6c"/><path d="M270 166.55v.2c-77.3-.18-154.69-.02-232-.08-5.45.06-10.84-.17-16.27.18-.33 20.04-.05 40.11-.15 60.15.09 8.09-.18 16.19.15 24.27 26.37.36 52.8.01 79.18.17 24.14.08 48.28.09 72.42 0 32.22-.05 64.45-.02 96.67-.02V254H0v-87.43c89.99-.09 180.01-.07 270-.02z" fill="#fff"/><path d="M21.73 166.85c5.43-.35 10.82-.12 16.27-.18 77.31.06 154.7-.1 232 .08v84.67c-32.22 0-64.45-.03-96.67.02-.07-18.78.21-37.59-.14-56.36-24.02.04-48.05-.02-72.08.03-.13 18.77.26 37.57-.2 56.33-26.38-.16-52.81.19-79.18-.17-.33-8.08-.06-16.18-.15-24.27.1-20.04-.18-40.11.15-60.15z" fill="#b5b5b5"/><path d="M101.11 195.11c24.03-.05 48.06.01 72.08-.03.35 18.77.07 37.58.14 56.36-24.14.09-48.28.08-72.42 0 .46-18.76.07-37.56.2-56.33z" fill="#ff2a1a"/></svg>