<svg viewBox="0 0 112 136" height="136pt" width="112pt" xmlns="http://www.w3.org/2000/svg"><path d="M0 0h1.77c.56.74.69 1.63.4 2.68L0 2.53V0z" fill="#cc3d3d"/><path d="M1.77 0h109.11c-.02 15.33.02 30.68-.03 46 .02 1.47.25 2.92.55 4.35-.48 1.55-1.12 2.97-1.87 4.39-.14-5.44-.08-10.88-.08-16.32-34.13-.08-68.27-.04-102.4-.02-1.41-.02-2.84-.2-4.27-.55 2.63-1.34 6.31-.59 9.22-.69 32.46-.02 64.95.01 97.41-.02.05-3.68.05-7.35-.01-11.03-35.69-.04-71.39 0-107.08-.02-.11-7.81.12-15.61-.15-23.41.29-1.05.16-1.94-.4-2.68z" fill="#ccf7f7"/><path d="M110.88 0H112v51.44l-.6-1.09c-.3-1.43-.53-2.88-.55-4.35.05-15.32.01-30.67.03-46z" fill="#e3b760"/><path d="M0 2.53l2.17.15c.27 7.8.04 15.6.15 23.41 0 1.92-.03 3.84-.04 5.76L0 31.76V2.53z" fill="#919191"/><path d="M2.32 26.09c35.69.02 71.39-.02 107.08.02.06 3.68.06 7.35.01 11.03-32.46.03-64.95 0-97.41.02-2.91.1-6.59-.65-9.22.69l-.34.16c-.11-2.05-.17-4.1-.16-6.16.01-1.92.04-3.84.04-5.76z" fill="#28ceda"/><path d="M0 31.76l2.28.09c-.01 2.06.05 4.11.16 6.16-.43 32.44.06 64.97-.24 97.41l-2.2-.17V31.76z" fill="#333233"/><path d="M2.44 38.01l.34-.16c1.43.35 2.86.53 4.27.55 34.13-.02 68.27-.06 102.4.02 0 5.44-.06 10.88.08 16.32-.2 26.87-.03 53.77-.09 80.65-35.73.05-71.51-.02-107.24.03.3-32.44-.19-64.97.24-97.41z"/><path d="M111.4 50.35l.6 1.09V136H0v-.75l2.2.17c35.73-.05 71.51.02 107.24-.03.06-26.88-.11-53.78.09-80.65.75-1.42 1.39-2.84 1.87-4.39z" fill="#fff"/><path d="M15.58 54.32c14.37-.22 28.84-.03 43.23-.09.02 11.29 0 22.57 0 33.86-14.45-.01-28.9.1-43.35-.06.15-11.23-.11-22.49.12-33.71z" fill="#ffd785"/><path d="M67.57 54.32c11.99-.21 24.04-.05 36.04-.07.06 26.28-.14 52.57.1 78.84-12.04.35-24.1-.02-36.14.2-.14-26.28-.14-52.7 0-78.97z" fill="#28ceda"/></svg>