<svg viewBox="0 0 284 212" height="212pt" width="284pt" xmlns="http://www.w3.org/2000/svg"><path d="M0 0h284v212H0V0z" fill="#fff"/><path d="M247.22 7.17c2.53-.2 5.61-1.19 7.33 1.3 2.84 3.47 1.54 6.6.99 10.55-5.7 1.84-11.21 4.29-16.56 6.96-6.3 3.13-11.4 7.33-17.94 9.97-2.71.36-6.17.9-8.73-.28-1.98-.96-2.56-3.87-2.85-5.84-.29-3.24-.46-7.3 1.17-10.24 3.02-4.36 8.25-6.75 13.34-7.71 7.75-1.58 15.48-3.28 23.25-4.71z" fill="#f6aacb"/><path d="M255.54 19.02c-.34 10.59.27 21.24.27 31.85-5.04 1.35-10.06 2.74-15.1 4.11-2.49.62-4.93 1.41-7.41 2.07l-.42.02-1.29-2.34c-3.47-6.29-7.09-12.49-10.55-18.78 6.54-2.64 11.64-6.84 17.94-9.97 5.35-2.67 10.86-5.12 16.56-6.96z" fill="#a64b47"/><path d="M23.99 54.74c69.11-.05 138.49-.03 207.6-.01l1.29 2.34c-66.62.06-133.26.01-199.88.02-5.09.05-10.9-.4-15.76 1.27-5.17 1.96-9.72 7.42-10.78 12.83-.54 5.31-.11 10.75-.24 16.09l-1.49.01c.05-5.97-.01-11.9-.29-17.86 2.67-8.7 10.34-14.74 19.55-14.69z" fill="#010101"/><path d="M240.71 54.98c4.7-.44 9.54-.22 14.29-.28 3.64.02 7.75-.18 11.26.88 8.25 2.29 14.58 10.85 14.22 19.42-.09 31.53.05 63.07-.06 94.61-8.48.39-16.99.11-25.48.18 3.59 4.88 6.38 9.96 6.39 16.21.35 10.98-7.62 22.86-19.33 23.3-10.85.53-18.98-8.21-20.84-18.34-1.55-7.87 1.18-15.03 5.99-21.16-52.92-.02-105.84.04-158.76-.03 3.64 4.86 6.5 9.91 6.33 16.2.39 6.51-2.22 12.5-6.41 17.35-4.95 5.28-12.65 7.43-19.56 5.05-9.32-3.1-15.25-13.88-14.37-23.4.15-5.94 3-10.54 6.36-15.2-12.2 0-24.41.15-36.61-.09 1.21-11.93.08-24.11.76-36.07l1.39-.1c-.14 11.3-.01 22.62-.06 33.92 11.6-.02 23.22.03 34.81 0 2.69.06 4.58-1.33 6.99-2.27 4.32-1.86 9.45-1.78 13.71.23 2.39 1.09 4.51 2.25 7.26 2.06 52.64-.03 105.39-.02 158.02 0 4.66.1 8.14-3.65 12.98-3.59 5.03-.54 8.47 1.93 12.94 3.43 8.4.36 16.89.05 25.3.11.55-7.14.33-14.25.27-21.4-.15-8.03 1.11-15.96.81-24-.26-13 .53-26.08-.63-39.01-.31-4.31.66-8.68-.93-12.59-1.49-4.26-4.26-8.64-8.3-10.88-3.22-2.08-7.68-2.36-11.42-2.43-8.24-.01-16.49.04-24.73-.04 2.48-.66 4.92-1.45 7.41-2.07z" fill="#020202"/><path d="M33 57.09c66.62-.01 133.26.04 199.88-.02l.42-.02c8.24.08 16.49.03 24.73.04 3.74.07 8.2.35 11.42 2.43 4.04 2.24 6.81 6.62 8.3 10.88.53 5.66.37 11.19.23 16.87-90.58.01-181.17-.01-271.76.01.13-5.34-.3-10.78.24-16.09 1.06-5.41 5.61-10.87 10.78-12.83 4.86-1.67 10.67-1.22 15.76-1.27z" fill="#f5f5f5"/><path d="M4.44 69.43c.28 5.96.34 11.89.29 17.86l1.49-.01c90.59-.02 181.18 0 271.76-.01.14-5.68.3-11.21-.23-16.87 1.59 3.91.62 8.28.93 12.59 1.16 12.93.37 26.01.63 39.01.3 8.04-.96 15.97-.81 24 .06 7.15.28 14.26-.27 21.4-.36-11.33.17-22.64-.31-33.95-90.16.06-181.64-.06-271.64.06l-1.39.1c-.68 11.96.45 24.14-.76 36.07-.77-4.71-.43-9.78-.48-14.57-.02-26.41.03-52.82-.03-79.22 0-2.21.23-4.33.82-6.46z" fill="#333233"/><path d="M6.28 133.51c90-.12 181.48 0 271.64-.06.48 11.31-.05 22.62.31 33.95-8.41-.06-16.9.25-25.3-.11-4.47-1.5-7.91-3.97-12.94-3.43-4.84-.06-8.32 3.69-12.98 3.59-52.63-.02-105.38-.03-158.02 0-2.75.19-4.87-.97-7.26-2.06-4.26-2.01-9.39-2.09-13.71-.23-2.41.94-4.3 2.33-6.99 2.27-11.59.03-23.21-.02-34.81 0 .05-11.3-.08-22.62.06-33.92z" fill="#f5f5f5"/><path d="M50.51 166.76c3.76-.91 7.94-.62 11.39 1.24 7.31 3.76 11.41 13.09 10.43 21.06-1.12 9.31-8.23 18.33-18.32 17.84-9.96-.25-16.57-9.59-17.34-18.83-.61-8.84 4.82-18.99 13.84-21.31zM237.46 166.65c3.83-.8 7.87-.39 11.31 1.56 6.77 3.7 10.73 12.24 10.02 19.82-.33 9.41-7.7 19.15-17.79 18.89-9.82.06-16.56-8.89-17.86-17.88-1.19-9.15 4.94-20.27 14.32-22.39z" fill="#fff"/></svg>