<svg viewBox="0 0 958 170" height="170pt" width="958pt" xmlns="http://www.w3.org/2000/svg"><path d="M0 0h398.45l-.23 1.01c-2.07.11-4.15.12-6.22.11-130.16-.06-260.99.07-391.06-.06L0 .93V0z" fill="#fff"/><path d="M398.45 0h35.67c.57 9.72.19 19.54.21 29.28-12.03.03-24.12.27-36.14-.12.15-9.38.07-18.77.03-28.15l.23-1.01z" fill="#5c5639"/><path d="M434.12 0h.22c2.58 1.82 6.62.95 9.66 1.12 171.33 0 342.67-.04 514 .02V170H.94c.09-56.29.1-112.65 0-168.94 130.07.13 260.9 0 391.06.06 2.07.01 4.15 0 6.22-.11.04 9.38.12 18.77-.03 28.15 12.02.39 24.11.15 36.14.12-.02-9.74.36-19.56-.21-29.28z" fill="#d0c8aa"/><path d="M434.34 0H958v1.14c-171.33-.06-342.67-.02-514-.02-3.04-.17-7.08.7-9.66-1.12z" fill="#fff"/><path d="M0 .93l.94.13c.1 56.29.09 112.65 0 168.94H0V.93z" fill="#f4f3eb"/><path d="M68.71 6.76c9.57-.09 19.16-.04 28.74-.02.26 23.33-.02 46.69.14 70.03l-.04 2.02c-9.54.6-19.22.27-28.78.2l-.15-2.32c.07-23.3-.1-46.61.09-69.91z" fill="#ff2a1a"/><path d="M346.4 57.59c17.14-.2 34.36.08 51.52-.14.68 4.55.25 8.98.35 13.55-.03 9.04.07 18.08-.05 27.11-17.33.06-34.67.2-51.99-.07.19-13.47-.16-27 .17-40.45z" fill="#333233"/><path d="M521.31 57.56c17.14-.12 34.36.08 51.5-.09.27 2.5.43 5.01.38 7.53-.14 11.03.13 22.06-.14 33.09-17.3.19-34.65.2-51.95-.01.19-13.48-.25-27.06.21-40.52z" fill="#cc3636"/><path d="M615.26 57.55c17.15-.11 34.38.07 51.54-.08.25 2.84.37 5.68.33 8.53-.11 10.7.1 21.41-.11 32.12-17.35.15-34.71.11-52.06.01-.17-11.37.01-22.75-.1-34.13-.01-2.18-.02-4.29.4-6.45zM181.58 57.49c17.28.11 34.56-.04 51.85.07.03 13.54.08 27.07-.03 40.61-17.33-.12-34.71.27-52.03-.2.27-13.49-.13-27 .21-40.48zM253.7 57.57c17.27-.16 34.54.11 51.8-.14.45 13.51 0 27.07.23 40.6-17.32.33-34.68.07-52.01.13-.07-13.53-.03-27.06-.02-40.59z" fill="#333233"/><path d="M434.59 57.47c17.25.19 34.51-.1 51.76.14.11 13.51.14 27.03-.01 40.53-14.44.16-28.89 0-43.34.08-2.91.06-5.79-.02-8.69-.24.3-13.49-.25-27.03.28-40.51z" fill="#cc3636"/><path d="M738.12 73.41c17.18-.11 34.46.02 51.65-.06.11 13.52.01 27.04.06 40.56-17.3.36-34.64.17-51.94.1-.2-11.66.02-23.34-.11-35.01 0-1.89-.06-3.72.34-5.59zM816.05 73.32c17.26.1 34.52.06 51.78.02.11 30.11.09 60.22.01 90.33-17.27-.04-34.54-.08-51.8.02-.16-2.89-.18-5.79-.17-8.69.15-27.21-.21-54.48.18-81.68zM888.34 73.44c17.18-.19 34.45.05 51.64-.12.51 5.25.16 10.41.26 15.68-.07 8.3.12 16.62-.1 24.92-8.37.36-16.76.09-25.14.17-8.92-.1-17.87.22-26.79-.19.13-13.47-.14-27 .13-40.46zM57.24 76.86c3.8-.46 7.56-.18 11.38-.19l.15 2.32c9.56.07 19.24.4 28.78-.2l.04-2.02c3.76-.07 7.74-.45 11.43.08.17 1.36.26 2.74.26 4.15-.17 28.62.12 57.27-.15 85.89-17.3 0-34.61.04-51.91-.02.04-29.99 0-60.03.02-90.01z" fill="#333233"/></svg>