<svg viewBox="0 0 222 168" height="224" width="296" xmlns="http://www.w3.org/2000/svg"><path d="M0 0h222v168H7.75c-.07-6.65.14-13.32-.07-19.96-.39-4.68-3.85-7.51-7.68-9.63V0z" fill="#008d14"/><path d="M53.46 15.31c36.21-.23 72.91-.05 109.18-.09 0 2.76.01 5.52 0 8.29 0 1.18-.01 2.36-.01 3.55-36.42.02-72.84.03-109.25-.01-.01-1.19-.02-2.37-.02-3.56-.01-2.72-.12-5.47.1-8.18z" fill="#cb2013"/><path d="M31 23.54c7.44-.16 14.9-.01 22.36-.05 0 1.19.01 2.37.02 3.56 36.41.04 72.83.03 109.25.01 0-1.19.01-2.37.01-3.55 6.79-.04 13.58-.03 20.36-.04 4.78.01 9.38.55 13.62 2.91 5.24 2.67 8.87 7.49 11.14 12.82 2 4.88 1.53 9.66 1.55 14.8-.01 22.67-.01 45.33 0 68-.02 4.73.41 9.48-1.27 14.01-2.37 6.16-6.67 11.51-12.82 14.21-5.6 2.66-11.2 2.17-17.22 2.21-18.5 0-37-.05-55.5.02-1.54 3.12-2.89 6.15-5.41 8.65-5.18 5.1-13.3 6.64-20.01 3.84-3.26-1.22-5.58-3.49-7.97-5.91-5.61 6.73-14.6 9.32-22.73 5.61-5.64-2.36-8.07-7.01-10.61-12.21-7.92-.06-15.85.03-23.77-.02-4.35-.02-8.57-.84-12.37-3.02-5.32-2.8-8.81-7.7-11.05-13.16-1.49-3.45-1.11-7.51-1.15-11.23.04-26.32 0-52.71.01-79.03-.11-4.94 2.31-9.5 5.16-13.37 4.31-5.79 11.24-8.94 18.4-9.06z"/><path d="M38 30.56c48.6.04 97.4 0 146.01.02 5.76-.07 11.23 1.97 14.65 6.78 2.96 3.68 3.66 8.02 3.61 12.64-.08 25.97.03 52.06-.06 78.02.05 6.04-3.17 11.73-8.29 14.89-3.73 2.16-7.7 2.44-11.92 2.45-19.7-.07-39.4.01-59.09-.04-1.13-3.71-2.47-7.19-5.19-10.05-5.3-6.01-14.43-7.6-21.6-4.17-2.88 1.3-4.83 3.45-6.97 5.68-2.03-2.1-3.84-4.12-6.51-5.43-7.07-3.64-16.28-2.34-21.73 3.57-2.89 3-4.19 6.61-5.58 10.44-8.76-.24-17.62.37-26.35-.32-8.01-.8-14.45-8.06-14.48-16.03.02-27.33.01-54.69 0-82.02-.12-5.4 3.27-10.85 7.71-13.77 4.94-3.14 10.21-2.62 15.79-2.66z" fill="#6c6c6c"/><path d="M25.72 42.27c20.29.01 40.57-.04 60.86.03.01 20.28 0 40.56.01 60.84-20.3.14-40.6.05-60.9.04-.01-20.3-.06-40.6.03-60.91zM97.11 42.33c19.82-.15 39.76-.03 59.59-.05.03 20.3.01 40.6.01 60.9-19.23.06-38.49-.02-57.73.05-1.59-.03-3.45-.01-3.23-2.15-.01-18.35.05-36.77-.03-55.11.2-.98-.37-4.09 1.39-3.64z"/><path d="M168.71 42.3c8-.04 16-.01 24-.02.02 20.3.01 40.6.01 60.9-8.01.03-16.01.02-24.02 0-.01-20.29-.02-40.59.01-60.88zM72.99 136.5c7.01-.92 13.52 5.52 12.57 12.54-.56 7.16-8.39 12-15.12 9.56-4.35-1.3-6.06-4.61-7.84-8.43-.63-6.58 3.48-13.11 10.39-13.67zM102.99 136.5c6.99-.94 13.54 5.56 12.61 12.54-.63 7.13-8.41 12.02-15.16 9.56-4.34-1.3-6.08-4.61-7.84-8.43-.65-6.58 3.49-13.11 10.39-13.67z" fill="#fff"/><path d="M0 138.41c3.83 2.12 7.29 4.95 7.68 9.63.21 6.64 0 13.31.07 19.96H0v-29.59z" fill="#b5b5b5"/></svg>